<svg version="1.1" viewBox="0.0 0.0 923.0 571.0" fill="none" stroke="none" stroke-linecap="square" stroke-miterlimit="10" width="923" height="571" xmlns:xlink="http://www.w3.org/1999/xlink" xmlns="http://www.w3.org/2000/svg"><path fill="#ffffff" d="M0 0L923.0 0L923.0 571.0L0 571.0L0 0Z" fill-rule="nonzero"/><path stroke="#cccccc" stroke-width="1.0" stroke-linecap="butt" d="M171.5 135.5L171.5 468.5" fill-rule="nonzero"/><path stroke="#cccccc" stroke-width="1.0" stroke-linecap="butt" d="M278.5 135.5L278.5 468.5" fill-rule="nonzero"/><path stroke="#cccccc" stroke-width="1.0" stroke-linecap="butt" d="M385.5 135.5L385.5 468.5" fill-rule="nonzero"/><path stroke="#cccccc" stroke-width="1.0" stroke-linecap="butt" d="M492.5 135.5L492.5 468.5" fill-rule="nonzero"/><path stroke="#cccccc" stroke-width="1.0" stroke-linecap="butt" d="M598.5 135.5L598.5 468.5" fill-rule="nonzero"/><path stroke="#cccccc" stroke-width="1.0" stroke-linecap="butt" d="M705.5 135.5L705.5 468.5" fill-rule="nonzero"/><path stroke="#cccccc" stroke-width="1.0" stroke-linecap="butt" d="M812.5 135.5L812.5 468.5" fill-rule="nonzero"/><path stroke="#333333" stroke-width="1.0" stroke-linecap="butt" d="M139.5 468.5L812.5 468.5" fill-rule="nonzero"/><path stroke="#cccccc" stroke-width="1.0" stroke-linecap="butt" d="M139.5 385.5L812.5 385.5" fill-rule="nonzero"/><path stroke="#cccccc" stroke-width="1.0" stroke-linecap="butt" d="M139.5 302.5L812.5 302.5" fill-rule="nonzero"/><path stroke="#cccccc" stroke-width="1.0" stroke-linecap="butt" d="M139.5 218.5L812.5 218.5" fill-rule="nonzero"/><path stroke="#cccccc" stroke-width="1.0" stroke-linecap="butt" d="M139.5 135.5L812.5 135.5" fill-rule="nonzero"/><clipPath id="id_0"><path d="M139.55 135.61667L812.45 135.61667L812.45 468.45L139.55 468.45L139.55 135.61667Z" clip-rule="nonzero"/></clipPath><path stroke="#4285f4" stroke-width="2.0" stroke-linecap="butt" clip-path="url(#id_0)" d="M139.55 436.498L203.63571 404.546L427.9357 288.45374L812.45 170.23134" fill-rule="nonzero"/><path stroke="#ea4335" stroke-width="2.0" stroke-linecap="butt" clip-path="url(#id_0)" d="M139.55 433.81314L203.63571 399.1763L427.9357 297.7065L812.45 145.1357" fill-rule="nonzero"/><path fill="#000000" fill-opacity="0.0" clip-path="url(#id_0)" d="M142.55 436.498C142.55 438.15485 141.20685 439.498 139.55 439.498C137.89314 439.498 136.55 438.15485 136.55 436.498C136.55 434.84116 137.89314 433.498 139.55 433.498C141.20685 433.498 142.55 434.84116 142.55 436.498Z" fill-rule="nonzero"/><path fill="#000000" fill-opacity="0.0" clip-path="url(#id_0)" d="M206.63571 404.546C206.63571 406.20285 205.29257 407.546 203.63571 407.546C201.97887 407.546 200.63571 406.20285 200.63571 404.546C200.63571 402.88916 201.97887 401.546 203.63571 401.546C205.29257 401.546 206.63571 402.88916 206.63571 404.546Z" fill-rule="nonzero"/><path fill="#000000" fill-opacity="0.0" clip-path="url(#id_0)" d="M430.9357 288.45374C430.9357 290.1106 429.59256 291.45374 427.9357 291.45374C426.27887 291.45374 424.9357 290.1106 424.9357 288.45374C424.9357 286.79688 426.27887 285.45374 427.9357 285.45374C429.59256 285.45374 430.9357 286.79688 430.9357 288.45374Z" fill-rule="nonzero"/><path fill="#000000" fill-opacity="0.0" clip-path="url(#id_0)" d="M815.45 170.23134C815.45 171.88818 814.1069 173.23134 812.45 173.23134C810.79315 173.23134 809.45 171.88818 809.45 170.23134C809.45 168.57448 810.79315 167.23134 812.45 167.23134C814.1069 167.23134 815.45 168.57448 815.45 170.23134Z" fill-rule="nonzero"/><path fill="#000000" fill-opacity="0.0" clip-path="url(#id_0)" d="M142.55 433.81314C142.55 435.47 141.20685 436.81314 139.55 436.81314C137.89314 436.81314 136.55 435.47 136.55 433.81314C136.55 432.15628 137.89314 430.81314 139.55 430.81314C141.20685 430.81314 142.55 432.15628 142.55 433.81314Z" fill-rule="nonzero"/><path fill="#000000" fill-opacity="0.0" clip-path="url(#id_0)" d="M206.63571 399.1763C206.63571 400.83313 205.29257 402.1763 203.63571 402.1763C201.97887 402.1763 200.63571 400.83313 200.63571 399.1763C200.63571 397.51944 201.97887 396.1763 203.63571 396.1763C205.29257 396.1763 206.63571 397.51944 206.63571 399.1763Z" fill-rule="nonzero"/><path fill="#000000" fill-opacity="0.0" clip-path="url(#id_0)" d="M430.9357 297.7065C430.9357 299.36334 429.59256 300.7065 427.9357 300.7065C426.27887 300.7065 424.9357 299.36334 424.9357 297.7065C424.9357 296.04965 426.27887 294.7065 427.9357 294.7065C429.59256 294.7065 430.9357 296.04965 430.9357 297.7065Z" fill-rule="nonzero"/><path fill="#000000" fill-opacity="0.0" clip-path="url(#id_0)" d="M815.45 145.1357C815.45 146.79256 814.1069 148.1357 812.45 148.1357C810.79315 148.1357 809.45 146.79256 809.45 145.1357C809.45 143.47885 810.79315 142.1357 812.45 142.1357C814.1069 142.1357 815.45 143.47885 815.45 145.1357Z" fill-rule="nonzero"/><path fill="#000000" d="M441.26562 527.075L444.98438 536.35626L448.70312 527.075L450.64062 527.075L450.64062 538.45L449.14062 538.45L449.14062 534.0125L449.28125 529.23126L445.54688 538.45L444.40625 538.45L440.67188 529.2625L440.82812 534.0125L440.82812 538.45L439.32812 538.45L439.32812 527.075L441.26562 527.075ZM452.71875 534.1375Q452.71875 532.90314 453.20312 531.91876Q453.6875 530.91876 454.5625 530.3875Q455.4375 529.84064 456.54688 529.84064Q458.28125 529.84064 459.34375 531.04376Q460.40625 532.23126 460.40625 534.21564L460.40625 534.3094Q460.40625 535.54376 459.9375 536.52814Q459.46875 537.5125 458.57812 538.0594Q457.70312 538.60626 456.5625 538.60626Q454.84375 538.60626 453.78125 537.41876Q452.71875 536.21564 452.71875 534.2469L452.71875 534.1375ZM454.17188 534.3094Q454.17188 535.71564 454.8125 536.575Q455.46875 537.41876 456.5625 537.41876Q457.67188 537.41876 458.3125 536.5594Q458.96875 535.7 458.96875 534.1375Q458.96875 532.7469 458.29688 531.8875Q457.64062 531.02814 456.54688 531.02814Q455.48438 531.02814 454.82812 531.8875Q454.17188 532.73126 454.17188 534.3094ZM461.75 534.15314Q461.75 532.2 462.67188 531.02814Q463.59375 529.84064 465.07812 529.84064Q466.5625 529.84064 467.4375 530.85626L467.4375 526.45L468.875 526.45L468.875 538.45L467.54688 538.45L467.48438 537.54376Q466.60938 538.60626 465.0625 538.60626Q463.59375 538.60626 462.67188 537.40314Q461.75 536.2 461.75 534.2625L461.75 534.15314ZM463.1875 534.3094Q463.1875 535.7469 463.78125 536.5594Q464.375 537.3719 465.42188 537.3719Q466.79688 537.3719 467.4375 536.1375L467.4375 532.2625Q466.78125 531.0594 465.4375 531.0594Q464.375 531.0594 463.78125 531.8875Q463.1875 532.7 463.1875 534.3094ZM474.60938 538.60626Q472.89062 538.60626 471.8125 537.48126Q470.73438 536.34064 470.73438 534.45L470.73438 534.1844Q470.73438 532.9344 471.20312 531.95Q471.6875 530.95 472.54688 530.40314Q473.42188 529.84064 474.42188 529.84064Q476.07812 529.84064 476.98438 530.9344Q477.90625 532.0125 477.90625 534.02814L477.90625 534.6375L472.17188 534.6375Q472.20312 535.8875 472.90625 536.65314Q473.60938 537.41876 474.6875 537.41876Q475.45312 537.41876 475.98438 537.10626Q476.51562 536.79376 476.90625 536.27814L477.79688 536.96564Q476.73438 538.60626 474.60938 538.60626ZM474.42188 531.02814Q473.54688 531.02814 472.95312 531.66876Q472.35938 532.29376 472.21875 533.45L476.45312 533.45L476.45312 533.34064Q476.39062 532.23126 475.85938 531.6375Q475.32812 531.02814 474.42188 531.02814ZM480.67188 538.45L479.21875 538.45L479.21875 526.45L480.67188 526.45L480.67188 538.45ZM492.01562 536.2Q492.01562 535.6219 491.57812 535.29376Q491.14062 534.96564 490.03125 534.73126Q488.9375 534.4969 488.29688 534.16876Q487.65625 533.84064 487.34375 533.3875Q487.03125 532.9344 487.03125 532.3094Q487.03125 531.27814 487.90625 530.5594Q488.79688 529.84064 490.15625 529.84064Q491.59375 529.84064 492.48438 530.59064Q493.39062 531.325 493.39062 532.48126L491.9375 532.48126Q491.9375 531.8875 491.42188 531.46564Q490.92188 531.02814 490.15625 531.02814Q489.375 531.02814 488.92188 531.3719Q488.48438 531.71564 488.48438 532.2625Q488.48438 532.79376 488.89062 533.0594Q489.3125 533.325 490.39062 533.575Q491.46875 533.8094 492.14062 534.15314Q492.8125 534.48126 493.14062 534.95Q493.46875 535.41876 493.46875 536.10626Q493.46875 537.23126 492.5625 537.91876Q491.65625 538.60626 490.20312 538.60626Q489.1875 538.60626 488.40625 538.2469Q487.625 537.8875 487.1875 537.2469Q486.75 536.59064 486.75 535.84064L488.1875 535.84064Q488.23438 536.575 488.76562 536.9969Q489.3125 537.41876 490.20312 537.41876Q491.03125 537.41876 491.51562 537.09064Q492.01562 536.7625 492.01562 536.2ZM496.67188 538.45L495.21875 538.45L495.21875 529.9969L496.67188 529.9969L496.67188 538.45ZM495.10938 527.7469Q495.10938 527.40314 495.3125 527.16876Q495.53125 526.91876 495.95312 526.91876Q496.375 526.91876 496.59375 527.16876Q496.8125 527.40314 496.8125 527.7625Q496.8125 528.10626 496.59375 528.34064Q496.375 528.575 495.95312 528.575Q495.53125 528.575 495.3125 528.34064Q495.10938 528.10626 495.10938 527.7469ZM500.45312 537.2625L505.40625 537.2625L505.40625 538.45L498.6875 538.45L498.6875 537.3875L503.35938 531.1844L498.76562 531.1844L498.76562 529.9969L505.17188 529.9969L505.17188 531.0125L500.45312 537.2625ZM510.60938 538.60626Q508.89062 538.60626 507.8125 537.48126Q506.73438 536.34064 506.73438 534.45L506.73438 534.1844Q506.73438 532.9344 507.20312 531.95Q507.6875 530.95 508.54688 530.40314Q509.42188 529.84064 510.42188 529.84064Q512.0781 529.84064 512.9844 530.9344Q513.90625 532.0125 513.90625 534.02814L513.90625 534.6375L508.17188 534.6375Q508.20312 535.8875 508.90625 536.65314Q509.60938 537.41876 510.6875 537.41876Q511.45312 537.41876 511.98438 537.10626Q512.5156 536.79376 512.90625 536.27814L513.7969 536.96564Q512.7344 538.60626 510.60938 538.60626ZM510.42188 531.02814Q509.54688 531.02814 508.95312 531.66876Q508.35938 532.29376 508.21875 533.45L512.4531 533.45L512.4531 533.34064Q512.3906 532.23126 511.85938 531.6375Q511.32812 531.02814 510.42188 531.02814Z" fill-rule="nonzero"/><path fill="#000000" d="M42.05001 336.81458Q42.878136 337.3927 43.30001 338.42395Q43.70626 339.4552 43.70626 340.8302Q43.70626 342.22083 43.05001 343.29895Q42.39376 344.37708 41.190636 344.97083Q39.98751 345.56458 38.409386 345.5802L37.409386 345.5802Q34.846886 345.5802 33.440636 344.37708Q32.01876 343.17395 32.01876 341.00208Q32.01876 339.22083 32.92501 338.1427Q33.83126 337.04895 35.503136 336.81458L35.503136 338.31458Q33.253136 338.73645 33.253136 341.00208Q33.253136 342.50208 34.315636 343.28333Q35.36251 344.06458 37.378136 344.06458L38.30001 344.06458Q40.221886 344.06458 41.346886 343.18958Q42.471886 342.31458 42.471886 340.8302Q42.471886 339.98645 42.284386 339.36145Q42.096886 338.72083 41.659386 338.29895L39.096886 338.29895L39.096886 340.93958L37.878136 340.93958L37.878136 336.81458L42.05001 336.81458ZM39.096886 332.7052L43.55001 332.7052L43.55001 334.2052L32.17501 334.2052L32.17501 330.0177Q32.17501 328.1427 33.128136 327.09583Q34.08126 326.03333 35.64376 326.03333Q37.30001 326.03333 38.20626 327.06458Q39.096886 328.09583 39.096886 330.03333L39.096886 332.7052ZM37.86251 332.7052L37.86251 330.0177Q37.86251 328.81458 37.30001 328.17395Q36.73751 327.53333 35.659386 327.53333Q34.64376 327.53333 34.034386 328.17395Q33.42501 328.81458 33.409386 329.92395L33.409386 332.7052L37.86251 332.7052ZM32.17501 316.2052L39.909386 316.2052Q41.51876 316.2052 42.55001 317.22083Q43.565636 318.22083 43.690636 319.93958L43.70626 320.3302Q43.70626 322.2052 42.70626 323.31458Q41.690636 324.42395 39.92501 324.43958L32.17501 324.43958L32.17501 322.9552L39.878136 322.9552Q41.11251 322.9552 41.80001 322.28333Q42.471886 321.59583 42.471886 320.3302Q42.471886 319.06458 41.80001 318.3927Q41.11251 317.7052 39.878136 317.7052L32.17501 317.7052L32.17501 316.2052ZM39.253136 310.78333Q37.30001 310.78333 36.128136 309.86145Q34.940636 308.93958 34.940636 307.4552Q34.940636 305.97083 35.95626 305.09583L31.550013 305.09583L31.550013 303.65833L43.55001 303.65833L43.55001 304.98645L42.64376 305.04895Q43.70626 305.92395 43.70626 307.47083Q43.70626 308.93958 42.503136 309.86145Q41.30001 310.78333 39.36251 310.78333L39.253136 310.78333ZM39.409386 309.34583Q40.846886 309.34583 41.659386 308.75208Q42.471886 308.15833 42.471886 307.11145Q42.471886 305.73645 41.23751 305.09583L37.36251 305.09583Q36.159386 305.75208 36.159386 307.09583Q36.159386 308.15833 36.98751 308.75208Q37.80001 309.34583 39.409386 309.34583ZM43.55001 296.22083Q43.30001 296.34583 42.659386 296.42395Q43.70626 297.42395 43.70626 298.8302Q43.70626 300.0802 43.003136 300.87708Q42.284386 301.67395 41.20626 301.67395Q39.878136 301.67395 39.159386 300.67395Q38.42501 299.67395 38.42501 297.84583L38.42501 296.43958L37.753136 296.43958Q37.003136 296.43958 36.55001 296.8927Q36.096886 297.34583 36.096886 298.23645Q36.096886 299.00208 36.48751 299.53333Q36.878136 300.04895 37.440636 300.04895L37.440636 301.50208Q36.80001 301.50208 36.221886 301.06458Q35.628136 300.61145 35.284386 299.84583Q34.940636 299.06458 34.940636 298.1427Q34.940636 296.68958 35.67501 295.86145Q36.39376 295.03333 37.67501 295.00208L41.565636 295.00208Q42.73751 295.00208 43.42501 294.7052L43.55001 294.7052L43.55001 296.22083ZM42.440636 298.61145Q42.440636 297.93958 42.096886 297.3302Q41.73751 296.72083 41.17501 296.43958L39.440636 296.43958L39.440636 297.5802Q39.440636 300.23645 41.003136 300.23645Q41.67501 300.23645 42.065636 299.78333Q42.440636 299.3302 42.440636 298.61145ZM41.42501 289.67395L35.096886 287.7052L35.096886 286.15833L44.86251 289.54895Q46.971886 290.34583 46.971886 292.06458L46.940636 292.3302L46.846886 292.87708L45.67501 292.87708L45.70626 292.48645Q45.70626 291.75208 45.409386 291.34583Q45.11251 290.92395 44.315636 290.65833L43.45626 290.34583L35.096886 293.36145L35.096886 291.78333L41.42501 289.67395ZM41.30001 279.5177Q40.721886 279.5177 40.39376 279.9552Q40.065636 280.3927 39.83126 281.50208Q39.596886 282.59583 39.26876 283.23645Q38.940636 283.87708 38.48751 284.18958Q38.034386 284.50208 37.409386 284.50208Q36.378136 284.50208 35.659386 283.62708Q34.940636 282.73645 34.940636 281.37708Q34.940636 279.93958 35.690636 279.04895Q36.42501 278.1427 37.58126 278.1427L37.58126 279.59583Q36.98751 279.59583 36.565636 280.11145Q36.128136 280.61145 36.128136 281.37708Q36.128136 282.15833 36.471886 282.61145Q36.815636 283.04895 37.36251 283.04895Q37.89376 283.04895 38.159386 282.6427Q38.42501 282.22083 38.67501 281.1427Q38.909386 280.06458 39.253136 279.3927Q39.58126 278.72083 40.05001 278.3927Q40.51876 278.06458 41.20626 278.06458Q42.33126 278.06458 43.01876 278.97083Q43.70626 279.87708 43.70626 281.3302Q43.70626 282.34583 43.346886 283.12708Q42.98751 283.90833 42.346886 284.34583Q41.690636 284.78333 40.940636 284.78333L40.940636 283.34583Q41.67501 283.29895 42.096886 282.7677Q42.51876 282.22083 42.51876 281.3302Q42.51876 280.50208 42.190636 280.0177Q41.86251 279.5177 41.30001 279.5177Z" fill-rule="nonzero"/><path fill="#000000" d="M879.95 326.4708L881.9969 326.4708L881.9969 324.89267L883.10626 324.89267L883.10626 326.4708L888.35626 326.4708Q888.85626 326.4708 889.1219 326.26767Q889.3719 326.04892 889.3719 325.54892Q889.3719 325.29892 889.27814 324.86142L890.45 324.86142Q890.60626 325.42392 890.60626 325.9708Q890.60626 326.93954 890.02814 327.43954Q889.4344 327.92392 888.35626 327.92392L883.10626 327.92392L883.10626 329.45517L881.9969 329.45517L881.9969 327.92392L879.95 327.92392L879.95 326.4708ZM886.84064 314.8458Q888.6375 315.04892 889.6219 316.17392Q890.60626 317.29892 890.60626 319.1583Q890.60626 321.17392 889.16876 322.39267Q887.71564 323.5958 885.29376 323.5958L884.2 323.5958Q882.60626 323.5958 881.40314 323.0333Q880.2 322.4708 879.5594 321.43954Q878.91876 320.39267 878.91876 319.01767Q878.91876 317.20517 879.9344 316.11142Q880.9344 315.01767 882.73126 314.8458L882.73126 316.3458Q881.3719 316.54892 880.7625 317.20517Q880.15314 317.8458 880.15314 319.01767Q880.15314 320.45517 881.21564 321.2833Q882.27814 322.0958 884.23126 322.0958L885.34064 322.0958Q887.1844 322.0958 888.27814 321.33017Q889.3719 320.54892 889.3719 319.1583Q889.3719 317.9083 888.8094 317.23642Q888.2469 316.56454 886.84064 316.3458L886.84064 314.8458ZM885.1219 304.45517Q886.79376 304.45517 888.04376 305.01767Q889.29376 305.58017 889.95 306.61142Q890.60626 307.64267 890.60626 309.01767Q890.60626 310.36142 889.95 311.4083Q889.27814 312.43954 888.0594 313.01767Q886.84064 313.5958 885.23126 313.61142L884.40314 313.61142Q882.7625 313.61142 881.5125 313.04892Q880.2469 312.4708 879.59064 311.42392Q878.91876 310.37704 878.91876 309.0333Q878.91876 307.67392 879.575 306.62704Q880.23126 305.58017 881.4969 305.01767Q882.7469 304.45517 884.40314 304.45517L885.1219 304.45517ZM884.3875 305.95517Q882.3719 305.95517 881.29376 306.76767Q880.2 307.58017 880.2 309.0333Q880.2 310.45517 881.29376 311.2833Q882.3719 312.0958 884.29376 312.11142L885.1219 312.11142Q887.09064 312.11142 888.21564 311.29892Q889.325 310.4708 889.325 309.01767Q889.325 307.56454 888.27814 306.76767Q887.21564 305.9708 885.23126 305.95517L884.3875 305.95517ZM890.45 295.12704L890.45 302.58017L889.40314 302.58017L885.02814 298.64267Q884.04376 297.76767 883.41876 297.43954Q882.79376 297.11142 882.1375 297.11142Q881.2469 297.11142 880.6844 297.6583Q880.10626 298.18954 880.10626 299.08017Q880.10626 300.1583 880.71564 300.76767Q881.325 301.36142 882.41876 301.36142L882.41876 302.79892Q880.85626 302.79892 879.8875 301.79892Q878.91876 300.7833 878.91876 299.08017Q878.91876 297.50204 879.7469 296.58017Q880.575 295.6583 881.96564 295.6583Q883.6375 295.6583 885.96564 297.79892L889.2625 300.8458L889.2625 295.12704L890.45 295.12704Z" fill-rule="nonzero"/><path fill="#000000" d="M90.64375 468.9969Q90.64375 471.84064 89.65938 473.23126Q88.69063 474.6219 86.6125 474.6219Q84.56563 474.6219 83.58125 473.2625Q82.59688 471.90314 82.56563 469.21564L82.56563 467.04376Q82.56563 464.21564 83.53438 462.85626Q84.51875 461.48126 86.59688 461.48126Q88.65938 461.48126 89.62813 462.8094Q90.6125 464.1219 90.64375 466.8875L90.64375 468.9969ZM89.01875 466.7625Q89.01875 464.7 88.425 463.7625Q87.84688 462.8094 86.59688 462.8094Q85.34688 462.8094 84.76875 463.7625Q84.20625 464.7 84.19063 466.6375L84.19063 469.2469Q84.19063 471.325 84.78438 472.3094Q85.39375 473.29376 86.6125 473.29376Q87.81563 473.29376 88.39375 472.3719Q88.9875 471.4344 89.01875 469.4344L89.01875 466.7625ZM92.72188 476.9969L91.8 476.3719Q92.62813 475.21564 92.65938 473.9969L92.65938 472.52814L94.25313 472.52814L94.25313 473.79376Q94.25313 474.6844 93.81563 475.575Q93.39375 476.46564 92.72188 476.9969ZM104.64375 468.9969Q104.64375 471.84064 103.65938 473.23126Q102.69063 474.6219 100.6125 474.6219Q98.56563 474.6219 97.58125 473.2625Q96.59688 471.90314 96.56563 469.21564L96.56563 467.04376Q96.56563 464.21564 97.53438 462.85626Q98.51875 461.48126 100.59688 461.48126Q102.65938 461.48126 103.62813 462.8094Q104.6125 464.1219 104.64375 466.8875L104.64375 468.9969ZM103.01875 466.7625Q103.01875 464.7 102.425 463.7625Q101.84688 462.8094 100.59688 462.8094Q99.34688 462.8094 98.76875 463.7625Q98.20625 464.7 98.19063 466.6375L98.19063 469.2469Q98.19063 471.325 98.78438 472.3094Q99.39375 473.29376 100.6125 473.29376Q101.81563 473.29376 102.39375 472.3719Q102.9875 471.4344 103.01875 469.4344L103.01875 466.7625ZM114.64375 468.9969Q114.64375 471.84064 113.65938 473.23126Q112.69063 474.6219 110.6125 474.6219Q108.56563 474.6219 107.58125 473.2625Q106.59688 471.90314 106.56563 469.21564L106.56563 467.04376Q106.56563 464.21564 107.53438 462.85626Q108.51875 461.48126 110.59688 461.48126Q112.65938 461.48126 113.62813 462.8094Q114.6125 464.1219 114.64375 466.8875L114.64375 468.9969ZM113.01875 466.7625Q113.01875 464.7 112.425 463.7625Q111.84688 462.8094 110.59688 462.8094Q109.34688 462.8094 108.76875 463.7625Q108.20625 464.7 108.19063 466.6375L108.19063 469.2469Q108.19063 471.325 108.78438 472.3094Q109.39375 473.29376 110.6125 473.29376Q111.81563 473.29376 112.39375 472.3719Q112.9875 471.4344 113.01875 469.4344L113.01875 466.7625ZM124.28438 468.4969L122.72188 470.1219L122.72188 474.45L121.03438 474.45L121.03438 461.65314L122.72188 461.65314L122.72188 467.98126L128.40938 461.65314L130.45625 461.65314L125.40938 467.3094L130.84688 474.45L128.81563 474.45L124.28438 468.4969Z" fill-rule="nonzero"/><path fill="#000000" d="M81.00313 391.24167L72.6125 391.24167L72.6125 390.0698L77.05 385.14792Q78.03438 384.03854 78.39375 383.33542Q78.76875 382.6323 78.76875 381.8823Q78.76875 380.8823 78.15938 380.24167Q77.56563 379.60104 76.55 379.60104Q75.33125 379.60104 74.65938 380.30417Q73.9875 380.99167 73.9875 382.21042L72.3625 382.21042Q72.3625 380.4448 73.50313 379.36667Q74.64375 378.27292 76.55 378.27292Q78.33125 378.27292 79.3625 379.21042Q80.40938 380.14792 80.40938 381.6948Q80.40938 383.58542 78.00313 386.1948L74.58125 389.91354L81.00313 389.91354L81.00313 391.24167ZM90.64375 385.78854Q90.64375 388.6323 89.65938 390.02292Q88.69063 391.41354 86.6125 391.41354Q84.56563 391.41354 83.58125 390.05417Q82.59688 388.6948 82.56563 386.0073L82.56563 383.83542Q82.56563 381.0073 83.53438 379.64792Q84.51875 378.27292 86.59688 378.27292Q88.65938 378.27292 89.62813 379.60104Q90.6125 380.91354 90.64375 383.67917L90.64375 385.78854ZM89.01875 383.55417Q89.01875 381.49167 88.425 380.55417Q87.84688 379.60104 86.59688 379.60104Q85.34688 379.60104 84.76875 380.55417Q84.20625 381.49167 84.19063 383.42917L84.19063 386.03854Q84.19063 388.11667 84.78438 389.10104Q85.39375 390.08542 86.6125 390.08542Q87.81563 390.08542 88.39375 389.16354Q88.9875 388.22604 89.01875 386.22604L89.01875 383.55417ZM92.72188 393.78854L91.8 393.16354Q92.62813 392.0073 92.65938 390.78854L92.65938 389.3198L94.25313 389.3198L94.25313 390.58542Q94.25313 391.47604 93.81563 392.36667Q93.39375 393.2573 92.72188 393.78854ZM104.64375 385.78854Q104.64375 388.6323 103.65938 390.02292Q102.69063 391.41354 100.6125 391.41354Q98.56563 391.41354 97.58125 390.05417Q96.59688 388.6948 96.56563 386.0073L96.56563 383.83542Q96.56563 381.0073 97.53438 379.64792Q98.51875 378.27292 100.59688 378.27292Q102.65938 378.27292 103.62813 379.60104Q104.6125 380.91354 104.64375 383.67917L104.64375 385.78854ZM103.01875 383.55417Q103.01875 381.49167 102.425 380.55417Q101.84688 379.60104 100.59688 379.60104Q99.34688 379.60104 98.76875 380.55417Q98.20625 381.49167 98.19063 383.42917L98.19063 386.03854Q98.19063 388.11667 98.78438 389.10104Q99.39375 390.08542 100.6125 390.08542Q101.81563 390.08542 102.39375 389.16354Q102.9875 388.22604 103.01875 386.22604L103.01875 383.55417ZM114.64375 385.78854Q114.64375 388.6323 113.65938 390.02292Q112.69063 391.41354 110.6125 391.41354Q108.56563 391.41354 107.58125 390.05417Q106.59688 388.6948 106.56563 386.0073L106.56563 383.83542Q106.56563 381.0073 107.53438 379.64792Q108.51875 378.27292 110.59688 378.27292Q112.65938 378.27292 113.62813 379.60104Q114.6125 380.91354 114.64375 383.67917L114.64375 385.78854ZM113.01875 383.55417Q113.01875 381.49167 112.425 380.55417Q111.84688 379.60104 110.59688 379.60104Q109.34688 379.60104 108.76875 380.55417Q108.20625 381.49167 108.19063 383.42917L108.19063 386.03854Q108.19063 388.11667 108.78438 389.10104Q109.39375 390.08542 110.6125 390.08542Q111.81563 390.08542 112.39375 389.16354Q112.9875 388.22604 113.01875 386.22604L113.01875 383.55417ZM124.28438 385.28854L122.72188 386.91354L122.72188 391.24167L121.03438 391.24167L121.03438 378.4448L122.72188 378.4448L122.72188 384.77292L128.40938 378.4448L130.45625 378.4448L125.40938 384.10104L130.84688 391.24167L128.81563 391.24167L124.28438 385.28854Z" fill-rule="nonzero"/><path fill="#000000" d="M79.47188 303.73645L81.25313 303.73645L81.25313 305.06458L79.47188 305.06458L79.47188 308.03333L77.84688 308.03333L77.84688 305.06458L72.01875 305.06458L72.01875 304.11145L77.75313 295.23645L79.47188 295.23645L79.47188 303.73645ZM73.8625 303.73645L77.84688 303.73645L77.84688 297.4552L77.64375 297.81458L73.8625 303.73645ZM90.64375 302.5802Q90.64375 305.42395 89.65938 306.81458Q88.69063 308.2052 86.6125 308.2052Q84.56563 308.2052 83.58125 306.84583Q82.59688 305.48645 82.56563 302.79895L82.56563 300.62708Q82.56563 297.79895 83.53438 296.43958Q84.51875 295.06458 86.59688 295.06458Q88.65938 295.06458 89.62813 296.3927Q90.6125 297.7052 90.64375 300.47083L90.64375 302.5802ZM89.01875 300.34583Q89.01875 298.28333 88.425 297.34583Q87.84688 296.3927 86.59688 296.3927Q85.34688 296.3927 84.76875 297.34583Q84.20625 298.28333 84.19063 300.22083L84.19063 302.8302Q84.19063 304.90833 84.78438 305.8927Q85.39375 306.87708 86.6125 306.87708Q87.81563 306.87708 88.39375 305.9552Q88.9875 305.0177 89.01875 303.0177L89.01875 300.34583ZM92.72188 310.5802L91.8 309.9552Q92.62813 308.79895 92.65938 307.5802L92.65938 306.11145L94.25313 306.11145L94.25313 307.37708Q94.25313 308.2677 93.81563 309.15833Q93.39375 310.04895 92.72188 310.5802ZM104.64375 302.5802Q104.64375 305.42395 103.65938 306.81458Q102.69063 308.2052 100.6125 308.2052Q98.56563 308.2052 97.58125 306.84583Q96.59688 305.48645 96.56563 302.79895L96.56563 300.62708Q96.56563 297.79895 97.53438 296.43958Q98.51875 295.06458 100.59688 295.06458Q102.65938 295.06458 103.62813 296.3927Q104.6125 297.7052 104.64375 300.47083L104.64375 302.5802ZM103.01875 300.34583Q103.01875 298.28333 102.425 297.34583Q101.84688 296.3927 100.59688 296.3927Q99.34688 296.3927 98.76875 297.34583Q98.20625 298.28333 98.19063 300.22083L98.19063 302.8302Q98.19063 304.90833 98.78438 305.8927Q99.39375 306.87708 100.6125 306.87708Q101.81563 306.87708 102.39375 305.9552Q102.9875 305.0177 103.01875 303.0177L103.01875 300.34583ZM114.64375 302.5802Q114.64375 305.42395 113.65938 306.81458Q112.69063 308.2052 110.6125 308.2052Q108.56563 308.2052 107.58125 306.84583Q106.59688 305.48645 106.56563 302.79895L106.56563 300.62708Q106.56563 297.79895 107.53438 296.43958Q108.51875 295.06458 110.59688 295.06458Q112.65938 295.06458 113.62813 296.3927Q114.6125 297.7052 114.64375 300.47083L114.64375 302.5802ZM113.01875 300.34583Q113.01875 298.28333 112.425 297.34583Q111.84688 296.3927 110.59688 296.3927Q109.34688 296.3927 108.76875 297.34583Q108.20625 298.28333 108.19063 300.22083L108.19063 302.8302Q108.19063 304.90833 108.78438 305.8927Q109.39375 306.87708 110.6125 306.87708Q111.81563 306.87708 112.39375 305.9552Q112.9875 305.0177 113.01875 303.0177L113.01875 300.34583ZM124.28438 302.0802L122.72188 303.7052L122.72188 308.03333L121.03438 308.03333L121.03438 295.23645L122.72188 295.23645L122.72188 301.56458L128.40938 295.23645L130.45625 295.23645L125.40938 300.8927L130.84688 308.03333L128.81563 308.03333L124.28438 302.0802Z" fill-rule="nonzero"/><path fill="#000000" d="M78.9875 212.0125L78.9875 213.40312L78.69063 213.40312Q76.8 213.43437 75.675 214.52812Q74.55 215.60625 74.37813 217.59062Q75.37813 216.43437 77.12813 216.43437Q78.8 216.43437 79.8 217.62187Q80.8 218.79375 80.8 220.65312Q80.8 222.62187 79.72188 223.80937Q78.64375 224.99687 76.83125 224.99687Q75.00313 224.99687 73.84688 223.59062Q72.70625 222.18437 72.70625 219.95L72.70625 219.325Q72.70625 215.79375 74.20625 213.93437Q75.72188 212.05937 78.70625 212.0125L78.9875 212.0125ZM76.8625 217.77812Q76.01875 217.77812 75.31563 218.29375Q74.6125 218.79375 74.34688 219.54375L74.34688 220.1375Q74.34688 221.71562 75.05 222.68437Q75.76875 223.65312 76.83125 223.65312Q77.925 223.65312 78.55 222.85625Q79.19063 222.04375 79.19063 220.73125Q79.19063 219.40312 78.55 218.59062Q77.90938 217.77812 76.8625 217.77812ZM90.64375 219.37187Q90.64375 222.21562 89.65938 223.60625Q88.69063 224.99687 86.6125 224.99687Q84.56563 224.99687 83.58125 223.6375Q82.59688 222.27812 82.56563 219.59062L82.56563 217.41875Q82.56563 214.59062 83.53438 213.23125Q84.51875 211.85625 86.59688 211.85625Q88.65938 211.85625 89.62813 213.18437Q90.6125 214.49687 90.64375 217.2625L90.64375 219.37187ZM89.01875 217.1375Q89.01875 215.075 88.425 214.1375Q87.84688 213.18437 86.59688 213.18437Q85.34688 213.18437 84.76875 214.1375Q84.20625 215.075 84.19063 217.0125L84.19063 219.62187Q84.19063 221.7 84.78438 222.68437Q85.39375 223.66875 86.6125 223.66875Q87.81563 223.66875 88.39375 222.74687Q88.9875 221.80937 89.01875 219.80937L89.01875 217.1375ZM92.72188 227.37187L91.8 226.74687Q92.62813 225.59062 92.65938 224.37187L92.65938 222.90312L94.25313 222.90312L94.25313 224.16875Q94.25313 225.05937 93.81563 225.95Q93.39375 226.84062 92.72188 227.37187ZM104.64375 219.37187Q104.64375 222.21562 103.65938 223.60625Q102.69063 224.99687 100.6125 224.99687Q98.56563 224.99687 97.58125 223.6375Q96.59688 222.27812 96.56563 219.59062L96.56563 217.41875Q96.56563 214.59062 97.53438 213.23125Q98.51875 211.85625 100.59688 211.85625Q102.65938 211.85625 103.62813 213.18437Q104.6125 214.49687 104.64375 217.2625L104.64375 219.37187ZM103.01875 217.1375Q103.01875 215.075 102.425 214.1375Q101.84688 213.18437 100.59688 213.18437Q99.34688 213.18437 98.76875 214.1375Q98.20625 215.075 98.19063 217.0125L98.19063 219.62187Q98.19063 221.7 98.78438 222.68437Q99.39375 223.66875 100.6125 223.66875Q101.81563 223.66875 102.39375 222.74687Q102.9875 221.80937 103.01875 219.80937L103.01875 217.1375ZM114.64375 219.37187Q114.64375 222.21562 113.65938 223.60625Q112.69063 224.99687 110.6125 224.99687Q108.56563 224.99687 107.58125 223.6375Q106.59688 222.27812 106.56563 219.59062L106.56563 217.41875Q106.56563 214.59062 107.53438 213.23125Q108.51875 211.85625 110.59688 211.85625Q112.65938 211.85625 113.62813 213.18437Q114.6125 214.49687 114.64375 217.2625L114.64375 219.37187ZM113.01875 217.1375Q113.01875 215.075 112.425 214.1375Q111.84688 213.18437 110.59688 213.18437Q109.34688 213.18437 108.76875 214.1375Q108.20625 215.075 108.19063 217.0125L108.19063 219.62187Q108.19063 221.7 108.78438 222.68437Q109.39375 223.66875 110.6125 223.66875Q111.81563 223.66875 112.39375 222.74687Q112.9875 221.80937 113.01875 219.80937L113.01875 217.1375ZM124.28438 218.87187L122.72188 220.49687L122.72188 224.825L121.03438 224.825L121.03438 212.02812L122.72188 212.02812L122.72188 218.35625L128.40938 212.02812L130.45625 212.02812L125.40938 217.68437L130.84688 224.825L128.81563 224.825L124.28438 218.87187Z" fill-rule="nonzero"/><path fill="#000000" d="M80.37813 132.16354Q80.37813 133.11667 79.8625 133.86667Q79.3625 134.61667 78.50313 135.03854Q79.50313 135.46042 80.08125 136.28854Q80.675 137.11667 80.675 138.16354Q80.675 139.8198 79.55 140.80417Q78.425 141.78854 76.59688 141.78854Q74.75313 141.78854 73.64375 140.80417Q72.53438 139.8198 72.53438 138.16354Q72.53438 137.1323 73.09688 136.30417Q73.675 135.46042 74.675 135.02292Q73.81563 134.60104 73.31563 133.85104Q72.83125 133.10104 72.83125 132.16354Q72.83125 130.53854 73.8625 129.60104Q74.90938 128.64792 76.59688 128.64792Q78.28438 128.64792 79.33125 129.60104Q80.37813 130.53854 80.37813 132.16354ZM79.05 138.1323Q79.05 137.05417 78.3625 136.3823Q77.69063 135.6948 76.58125 135.6948Q75.4875 135.6948 74.81563 136.36667Q74.15938 137.03854 74.15938 138.1323Q74.15938 139.21042 74.8 139.83542Q75.45625 140.46042 76.59688 140.46042Q77.75313 140.46042 78.39375 139.83542Q79.05 139.21042 79.05 138.1323ZM76.59688 129.97604Q75.64375 129.97604 75.05 130.5698Q74.45625 131.16354 74.45625 132.17917Q74.45625 133.16354 75.03438 133.77292Q75.62813 134.36667 76.59688 134.36667Q77.58125 134.36667 78.15938 133.77292Q78.75313 133.16354 78.75313 132.1948Q78.75313 131.21042 78.14375 130.60104Q77.53438 129.97604 76.59688 129.97604ZM90.64375 136.16354Q90.64375 139.0073 89.65938 140.39792Q88.69063 141.78854 86.6125 141.78854Q84.56563 141.78854 83.58125 140.42917Q82.59688 139.0698 82.56563 136.3823L82.56563 134.21042Q82.56563 131.3823 83.53438 130.02292Q84.51875 128.64792 86.59688 128.64792Q88.65938 128.64792 89.62813 129.97604Q90.6125 131.28854 90.64375 134.05417L90.64375 136.16354ZM89.01875 133.92917Q89.01875 131.86667 88.425 130.92917Q87.84688 129.97604 86.59688 129.97604Q85.34688 129.97604 84.76875 130.92917Q84.20625 131.86667 84.19063 133.80417L84.19063 136.41354Q84.19063 138.49167 84.78438 139.47604Q85.39375 140.46042 86.6125 140.46042Q87.81563 140.46042 88.39375 139.53854Q88.9875 138.60104 89.01875 136.60104L89.01875 133.92917ZM92.72188 144.16354L91.8 143.53854Q92.62813 142.3823 92.65938 141.16354L92.65938 139.6948L94.25313 139.6948L94.25313 140.96042Q94.25313 141.85104 93.81563 142.74167Q93.39375 143.6323 92.72188 144.16354ZM104.64375 136.16354Q104.64375 139.0073 103.65938 140.39792Q102.69063 141.78854 100.6125 141.78854Q98.56563 141.78854 97.58125 140.42917Q96.59688 139.0698 96.56563 136.3823L96.56563 134.21042Q96.56563 131.3823 97.53438 130.02292Q98.51875 128.64792 100.59688 128.64792Q102.65938 128.64792 103.62813 129.97604Q104.6125 131.28854 104.64375 134.05417L104.64375 136.16354ZM103.01875 133.92917Q103.01875 131.86667 102.425 130.92917Q101.84688 129.97604 100.59688 129.97604Q99.34688 129.97604 98.76875 130.92917Q98.20625 131.86667 98.19063 133.80417L98.19063 136.41354Q98.19063 138.49167 98.78438 139.47604Q99.39375 140.46042 100.6125 140.46042Q101.81563 140.46042 102.39375 139.53854Q102.9875 138.60104 103.01875 136.60104L103.01875 133.92917ZM114.64375 136.16354Q114.64375 139.0073 113.65938 140.39792Q112.69063 141.78854 110.6125 141.78854Q108.56563 141.78854 107.58125 140.42917Q106.59688 139.0698 106.56563 136.3823L106.56563 134.21042Q106.56563 131.3823 107.53438 130.02292Q108.51875 128.64792 110.59688 128.64792Q112.65938 128.64792 113.62813 129.97604Q114.6125 131.28854 114.64375 134.05417L114.64375 136.16354ZM113.01875 133.92917Q113.01875 131.86667 112.425 130.92917Q111.84688 129.97604 110.59688 129.97604Q109.34688 129.97604 108.76875 130.92917Q108.20625 131.86667 108.19063 133.80417L108.19063 136.41354Q108.19063 138.49167 108.78438 139.47604Q109.39375 140.46042 110.6125 140.46042Q111.81563 140.46042 112.39375 139.53854Q112.9875 138.60104 113.01875 136.60104L113.01875 133.92917ZM124.28438 135.66354L122.72188 137.28854L122.72188 141.61667L121.03438 141.61667L121.03438 128.8198L122.72188 128.8198L122.72188 135.14792L128.40938 128.8198L130.45625 128.8198L125.40938 134.47604L130.84688 141.61667L128.81563 141.61667L124.28438 135.66354Z" fill-rule="nonzero"/><path fill="#000000" d="M830.54376 468.9969Q830.54376 471.84064 829.5594 473.23126Q828.59064 474.6219 826.5125 474.6219Q824.46564 474.6219 823.48126 473.2625Q822.4969 471.90314 822.46564 469.21564L822.46564 467.04376Q822.46564 464.21564 823.4344 462.85626Q824.41876 461.48126 826.4969 461.48126Q828.5594 461.48126 829.52814 462.8094Q830.5125 464.1219 830.54376 466.8875L830.54376 468.9969ZM828.91876 466.7625Q828.91876 464.7 828.325 463.7625Q827.7469 462.8094 826.4969 462.8094Q825.2469 462.8094 824.66876 463.7625Q824.10626 464.7 824.09064 466.6375L824.09064 469.2469Q824.09064 471.325 824.6844 472.3094Q825.29376 473.29376 826.5125 473.29376Q827.71564 473.29376 828.29376 472.3719Q828.8875 471.4344 828.91876 469.4344L828.91876 466.7625Z" fill-rule="nonzero"/><path fill="#000000" d="M827.85626 363.50555L826.21564 363.50555L826.21564 352.6618L822.95 353.86493L822.95 352.39618L827.60626 350.64618L827.85626 350.64618L827.85626 363.50555ZM840.54376 358.05243Q840.54376 360.89618 839.5594 362.2868Q838.59064 363.67743 836.5125 363.67743Q834.46564 363.67743 833.48126 362.31805Q832.4969 360.95868 832.46564 358.27118L832.46564 356.0993Q832.46564 353.27118 833.4344 351.9118Q834.41876 350.5368 836.4969 350.5368Q838.5594 350.5368 839.52814 351.86493Q840.5125 353.17743 840.54376 355.94305L840.54376 358.05243ZM838.91876 355.81805Q838.91876 353.75555 838.325 352.81805Q837.7469 351.86493 836.4969 351.86493Q835.2469 351.86493 834.66876 352.81805Q834.10626 353.75555 834.09064 355.69305L834.09064 358.30243Q834.09064 360.38055 834.6844 361.36493Q835.29376 362.3493 836.5125 362.3493Q837.71564 362.3493 838.29376 361.42743Q838.8875 360.48993 838.91876 358.48993L838.91876 355.81805ZM850.54376 358.05243Q850.54376 360.89618 849.5594 362.2868Q848.59064 363.67743 846.5125 363.67743Q844.46564 363.67743 843.48126 362.31805Q842.4969 360.95868 842.46564 358.27118L842.46564 356.0993Q842.46564 353.27118 843.4344 351.9118Q844.41876 350.5368 846.4969 350.5368Q848.5594 350.5368 849.52814 351.86493Q850.5125 353.17743 850.54376 355.94305L850.54376 358.05243ZM848.91876 355.81805Q848.91876 353.75555 848.325 352.81805Q847.7469 351.86493 846.4969 351.86493Q845.2469 351.86493 844.66876 352.81805Q844.10626 353.75555 844.09064 355.69305L844.09064 358.30243Q844.09064 360.38055 844.6844 361.36493Q845.29376 362.3493 846.5125 362.3493Q847.71564 362.3493 848.29376 361.42743Q848.8875 360.48993 848.91876 358.48993L848.91876 355.81805Z" fill-rule="nonzero"/><path fill="#000000" d="M830.90314 252.56111L822.5125 252.56111L822.5125 251.38924L826.95 246.46736Q827.9344 245.35799 828.29376 244.65486Q828.66876 243.95174 828.66876 243.20174Q828.66876 242.20174 828.0594 241.56111Q827.46564 240.92049 826.45 240.92049Q825.23126 240.92049 824.5594 241.62361Q823.8875 242.31111 823.8875 243.52986L822.2625 243.52986Q822.2625 241.76424 823.40314 240.68611Q824.54376 239.59236 826.45 239.59236Q828.23126 239.59236 829.2625 240.52986Q830.3094 241.46736 830.3094 243.01424Q830.3094 244.90486 827.90314 247.51424L824.48126 251.23299L830.90314 251.23299L830.90314 252.56111ZM840.54376 247.10799Q840.54376 249.95174 839.5594 251.34236Q838.59064 252.73299 836.5125 252.73299Q834.46564 252.73299 833.48126 251.37361Q832.4969 250.01424 832.46564 247.32674L832.46564 245.15486Q832.46564 242.32674 833.4344 240.96736Q834.41876 239.59236 836.4969 239.59236Q838.5594 239.59236 839.52814 240.92049Q840.5125 242.23299 840.54376 244.99861L840.54376 247.10799ZM838.91876 244.87361Q838.91876 242.81111 838.325 241.87361Q837.7469 240.92049 836.4969 240.92049Q835.2469 240.92049 834.66876 241.87361Q834.10626 242.81111 834.09064 244.74861L834.09064 247.35799Q834.09064 249.43611 834.6844 250.42049Q835.29376 251.40486 836.5125 251.40486Q837.71564 251.40486 838.29376 250.48299Q838.8875 249.54549 838.91876 247.54549L838.91876 244.87361ZM850.54376 247.10799Q850.54376 249.95174 849.5594 251.34236Q848.59064 252.73299 846.5125 252.73299Q844.46564 252.73299 843.48126 251.37361Q842.4969 250.01424 842.46564 247.32674L842.46564 245.15486Q842.46564 242.32674 843.4344 240.96736Q844.41876 239.59236 846.4969 239.59236Q848.5594 239.59236 849.52814 240.92049Q850.5125 242.23299 850.54376 244.99861L850.54376 247.10799ZM848.91876 244.87361Q848.91876 242.81111 848.325 241.87361Q847.7469 240.92049 846.4969 240.92049Q845.2469 240.92049 844.66876 241.87361Q844.10626 242.81111 844.09064 244.74861L844.09064 247.35799Q844.09064 249.43611 844.6844 250.42049Q845.29376 251.40486 846.5125 251.40486Q847.71564 251.40486 848.29376 250.48299Q848.8875 249.54549 848.91876 247.54549L848.91876 244.87361Z" fill-rule="nonzero"/><path fill="#000000" d="M824.8719 134.42917L826.10626 134.42917Q827.2469 134.41354 827.90314 133.8198Q828.575 133.22604 828.575 132.22604Q828.575 129.97604 826.325 129.97604Q825.27814 129.97604 824.6375 130.58542Q824.0125 131.17917 824.0125 132.17917L822.3875 132.17917Q822.3875 130.66354 823.4969 129.66354Q824.6219 128.64792 826.325 128.64792Q828.1375 128.64792 829.16876 129.60104Q830.2 130.55417 830.2 132.2573Q830.2 133.10104 829.65314 133.8823Q829.1219 134.66354 828.1844 135.05417Q829.23126 135.3823 829.8094 136.16354Q830.3875 136.92917 830.3875 138.05417Q830.3875 139.77292 829.2625 140.78854Q828.1375 141.78854 826.325 141.78854Q824.52814 141.78854 823.40314 140.8198Q822.27814 139.83542 822.27814 138.24167L823.91876 138.24167Q823.91876 139.2573 824.575 139.86667Q825.23126 140.46042 826.34064 140.46042Q827.5125 140.46042 828.1375 139.85104Q828.7625 139.24167 828.7625 138.08542Q828.7625 136.96042 828.075 136.36667Q827.3875 135.77292 826.10626 135.7573L824.8719 135.7573L824.8719 134.42917ZM840.54376 136.16354Q840.54376 139.0073 839.5594 140.39792Q838.59064 141.78854 836.5125 141.78854Q834.46564 141.78854 833.48126 140.42917Q832.4969 139.0698 832.46564 136.3823L832.46564 134.21042Q832.46564 131.3823 833.4344 130.02292Q834.41876 128.64792 836.4969 128.64792Q838.5594 128.64792 839.52814 129.97604Q840.5125 131.28854 840.54376 134.05417L840.54376 136.16354ZM838.91876 133.92917Q838.91876 131.86667 838.325 130.92917Q837.7469 129.97604 836.4969 129.97604Q835.2469 129.97604 834.66876 130.92917Q834.10626 131.86667 834.09064 133.80417L834.09064 136.41354Q834.09064 138.49167 834.6844 139.47604Q835.29376 140.46042 836.5125 140.46042Q837.71564 140.46042 838.29376 139.53854Q838.8875 138.60104 838.91876 136.60104L838.91876 133.92917ZM850.54376 136.16354Q850.54376 139.0073 849.5594 140.39792Q848.59064 141.78854 846.5125 141.78854Q844.46564 141.78854 843.48126 140.42917Q842.4969 139.0698 842.46564 136.3823L842.46564 134.21042Q842.46564 131.3823 843.4344 130.02292Q844.41876 128.64792 846.4969 128.64792Q848.5594 128.64792 849.52814 129.97604Q850.5125 131.28854 850.54376 134.05417L850.54376 136.16354ZM848.91876 133.92917Q848.91876 131.86667 848.325 130.92917Q847.7469 129.97604 846.4969 129.97604Q845.2469 129.97604 844.66876 130.92917Q844.10626 131.86667 844.09064 133.80417L844.09064 136.41354Q844.09064 138.49167 844.6844 139.47604Q845.29376 140.46042 846.5125 140.46042Q847.71564 140.46042 848.29376 139.53854Q848.8875 138.60104 848.91876 136.60104L848.91876 133.92917Z" fill-rule="nonzero"/><path fill="#000000" d="M167.9991 494.45L166.35847 494.45L166.35847 483.60626L163.09285 484.8094L163.09285 483.34064L167.7491 481.59064L167.9991 481.59064L167.9991 494.45ZM180.6866 488.9969Q180.6866 491.84064 179.70222 493.23126Q178.73347 494.6219 176.65535 494.6219Q174.60847 494.6219 173.6241 493.2625Q172.63972 491.90314 172.60847 489.21564L172.60847 487.04376Q172.60847 484.21564 173.57722 482.85626Q174.5616 481.48126 176.63972 481.48126Q178.70222 481.48126 179.67097 482.8094Q180.65535 484.1219 180.6866 486.8875L180.6866 488.9969ZM179.0616 486.7625Q179.0616 484.7 178.46785 483.7625Q177.88972 482.8094 176.63972 482.8094Q175.38972 482.8094 174.8116 483.7625Q174.2491 484.7 174.23347 486.6375L174.23347 489.2469Q174.23347 491.325 174.82722 492.3094Q175.4366 493.29376 176.65535 493.29376Q177.85847 493.29376 178.4366 492.3719Q179.03035 491.4344 179.0616 489.4344L179.0616 486.7625Z" fill-rule="nonzero"/><path fill="#000000" d="M277.8555 494.45L269.46487 494.45L269.46487 493.27814L273.90237 488.35626Q274.88675 487.2469 275.24612 486.54376Q275.62112 485.84064 275.62112 485.09064Q275.62112 484.09064 275.01175 483.45Q274.418 482.8094 273.40237 482.8094Q272.18362 482.8094 271.51175 483.5125Q270.83987 484.2 270.83987 485.41876L269.21487 485.41876Q269.21487 483.65314 270.3555 482.575Q271.49612 481.48126 273.40237 481.48126Q275.18362 481.48126 276.21487 482.41876Q277.26175 483.35626 277.26175 484.90314Q277.26175 486.79376 274.8555 489.40314L271.43362 493.1219L277.8555 493.1219L277.8555 494.45ZM287.49612 488.9969Q287.49612 491.84064 286.51175 493.23126Q285.543 494.6219 283.46487 494.6219Q281.418 494.6219 280.43362 493.2625Q279.44925 491.90314 279.418 489.21564L279.418 487.04376Q279.418 484.21564 280.38675 482.85626Q281.37112 481.48126 283.44925 481.48126Q285.51175 481.48126 286.4805 482.8094Q287.46487 484.1219 287.49612 486.8875L287.49612 488.9969ZM285.87112 486.7625Q285.87112 484.7 285.27737 483.7625Q284.69925 482.8094 283.44925 482.8094Q282.19925 482.8094 281.62112 483.7625Q281.05862 484.7 281.043 486.6375L281.043 489.2469Q281.043 491.325 281.63675 492.3094Q282.24612 493.29376 283.46487 493.29376Q284.668 493.29376 285.24612 492.3719Q285.83987 491.4344 285.87112 489.4344L285.87112 486.7625Z" fill-rule="nonzero"/><path fill="#000000" d="M378.6338 487.2625L379.86816 487.2625Q381.0088 487.2469 381.66504 486.65314Q382.3369 486.0594 382.3369 485.0594Q382.3369 482.8094 380.0869 482.8094Q379.04004 482.8094 378.3994 483.41876Q377.7744 484.0125 377.7744 485.0125L376.1494 485.0125Q376.1494 483.4969 377.2588 482.4969Q378.3838 481.48126 380.0869 481.48126Q381.8994 481.48126 382.93066 482.4344Q383.9619 483.3875 383.9619 485.09064Q383.9619 485.9344 383.41504 486.71564Q382.8838 487.4969 381.9463 487.8875Q382.99316 488.21564 383.5713 488.9969Q384.1494 489.7625 384.1494 490.8875Q384.1494 492.60626 383.0244 493.6219Q381.8994 494.6219 380.0869 494.6219Q378.29004 494.6219 377.16504 493.65314Q376.04004 492.66876 376.04004 491.075L377.68066 491.075Q377.68066 492.09064 378.3369 492.7Q378.99316 493.29376 380.10254 493.29376Q381.2744 493.29376 381.8994 492.6844Q382.5244 492.075 382.5244 490.91876Q382.5244 489.79376 381.8369 489.2Q381.1494 488.60626 379.86816 488.59064L378.6338 488.59064L378.6338 487.2625ZM394.30566 488.9969Q394.30566 491.84064 393.3213 493.23126Q392.35254 494.6219 390.2744 494.6219Q388.22754 494.6219 387.24316 493.2625Q386.2588 491.90314 386.22754 489.21564L386.22754 487.04376Q386.22754 484.21564 387.1963 482.85626Q388.18066 481.48126 390.2588 481.48126Q392.3213 481.48126 393.29004 482.8094Q394.2744 484.1219 394.30566 486.8875L394.30566 488.9969ZM392.68066 486.7625Q392.68066 484.7 392.0869 483.7625Q391.5088 482.8094 390.2588 482.8094Q389.0088 482.8094 388.43066 483.7625Q387.86816 484.7 387.85254 486.6375L387.85254 489.2469Q387.85254 491.325 388.4463 492.3094Q389.05566 493.29376 390.2744 493.29376Q391.47754 493.29376 392.05566 492.3719Q392.6494 491.4344 392.68066 489.4344L392.68066 486.7625Z" fill-rule="nonzero"/><path fill="#000000" d="M489.9433 490.15314L491.72455 490.15314L491.72455 491.48126L489.9433 491.48126L489.9433 494.45L488.3183 494.45L488.3183 491.48126L482.49017 491.48126L482.49017 490.52814L488.22455 481.65314L489.9433 481.65314L489.9433 490.15314ZM484.33392 490.15314L488.3183 490.15314L488.3183 483.8719L488.11517 484.23126L484.33392 490.15314ZM501.11517 488.9969Q501.11517 491.84064 500.1308 493.23126Q499.16205 494.6219 497.08392 494.6219Q495.03705 494.6219 494.05267 493.2625Q493.0683 491.90314 493.03705 489.21564L493.03705 487.04376Q493.03705 484.21564 494.0058 482.85626Q494.99017 481.48126 497.0683 481.48126Q499.1308 481.48126 500.09955 482.8094Q501.08392 484.1219 501.11517 486.8875L501.11517 488.9969ZM499.49017 486.7625Q499.49017 484.7 498.89642 483.7625Q498.3183 482.8094 497.0683 482.8094Q495.8183 482.8094 495.24017 483.7625Q494.67767 484.7 494.66205 486.6375L494.66205 489.2469Q494.66205 491.325 495.2558 492.3094Q495.86517 493.29376 497.08392 493.29376Q498.28705 493.29376 498.86517 492.3719Q499.45892 491.4344 499.49017 489.4344L499.49017 486.7625Z" fill-rule="nonzero"/><path fill="#000000" d="M590.64343 488.02814L591.2997 481.65314L597.84656 481.65314L597.84656 483.15314L592.6747 483.15314L592.28406 486.6375Q593.22156 486.09064 594.4247 486.09064Q596.1747 486.09064 597.1903 487.2469Q598.22156 488.40314 598.22156 490.3719Q598.22156 492.35626 597.15906 493.4969Q596.09656 494.6219 594.1747 494.6219Q592.47156 494.6219 591.39343 493.6844Q590.33093 492.7469 590.1903 491.09064L591.72156 491.09064Q591.8778 492.1844 592.5028 492.7469Q593.14343 493.29376 594.1747 493.29376Q595.3153 493.29376 595.95593 492.52814Q596.59656 491.7469 596.59656 490.3875Q596.59656 489.10626 595.89343 488.325Q595.20593 487.54376 594.0497 487.54376Q592.9872 487.54376 592.3778 488.0125L591.9403 488.3719L590.64343 488.02814ZM607.9247 488.9969Q607.9247 491.84064 606.9403 493.23126Q605.97156 494.6219 603.89343 494.6219Q601.84656 494.6219 600.8622 493.2625Q599.8778 491.90314 599.84656 489.21564L599.84656 487.04376Q599.84656 484.21564 600.8153 482.85626Q601.7997 481.48126 603.8778 481.48126Q605.9403 481.48126 606.90906 482.8094Q607.89343 484.1219 607.9247 486.8875L607.9247 488.9969ZM606.2997 486.7625Q606.2997 484.7 605.70593 483.7625Q605.1278 482.8094 603.8778 482.8094Q602.6278 482.8094 602.0497 483.7625Q601.4872 484.7 601.47156 486.6375L601.47156 489.2469Q601.47156 491.325 602.0653 492.3094Q602.6747 493.29376 603.89343 493.29376Q605.09656 493.29376 605.6747 492.3719Q606.26843 491.4344 606.2997 489.4344L606.2997 486.7625Z" fill-rule="nonzero"/><path fill="#000000" d="M703.078 481.6375L703.078 483.02814L702.7811 483.02814Q700.8905 483.0594 699.7655 484.15314Q698.6405 485.23126 698.4686 487.21564Q699.4686 486.0594 701.2186 486.0594Q702.8905 486.0594 703.8905 487.2469Q704.8905 488.41876 704.8905 490.27814Q704.8905 492.2469 703.8124 493.4344Q702.73425 494.6219 700.92175 494.6219Q699.0936 494.6219 697.9374 493.21564Q696.79675 491.8094 696.79675 489.575L696.79675 488.95Q696.79675 485.41876 698.29675 483.5594Q699.8124 481.6844 702.79675 481.6375L703.078 481.6375ZM700.953 487.40314Q700.10925 487.40314 699.4061 487.91876Q698.703 488.41876 698.4374 489.16876L698.4374 489.7625Q698.4374 491.34064 699.1405 492.3094Q699.85925 493.27814 700.92175 493.27814Q702.0155 493.27814 702.6405 492.48126Q703.2811 491.66876 703.2811 490.35626Q703.2811 489.02814 702.6405 488.21564Q701.9999 487.40314 700.953 487.40314ZM714.73425 488.9969Q714.73425 491.84064 713.7499 493.23126Q712.7811 494.6219 710.703 494.6219Q708.6561 494.6219 707.67175 493.2625Q706.6874 491.90314 706.6561 489.21564L706.6561 487.04376Q706.6561 484.21564 707.6249 482.85626Q708.60925 481.48126 710.6874 481.48126Q712.7499 481.48126 713.7186 482.8094Q714.703 484.1219 714.73425 486.8875L714.73425 488.9969ZM713.10925 486.7625Q713.10925 484.7 712.5155 483.7625Q711.9374 482.8094 710.6874 482.8094Q709.4374 482.8094 708.85925 483.7625Q708.29675 484.7 708.2811 486.6375L708.2811 489.2469Q708.2811 491.325 708.8749 492.3094Q709.48425 493.29376 710.703 493.29376Q711.9061 493.29376 712.48425 492.3719Q713.078 491.4344 713.10925 489.4344L713.10925 486.7625Z" fill-rule="nonzero"/><path fill="#000000" d="M811.77814 482.5594L806.48126 494.45L804.77814 494.45L810.0594 482.98126L803.1219 482.98126L803.1219 481.65314L811.77814 481.65314L811.77814 482.5594ZM821.54376 488.9969Q821.54376 491.84064 820.5594 493.23126Q819.59064 494.6219 817.5125 494.6219Q815.46564 494.6219 814.48126 493.2625Q813.4969 491.90314 813.46564 489.21564L813.46564 487.04376Q813.46564 484.21564 814.4344 482.85626Q815.41876 481.48126 817.4969 481.48126Q819.5594 481.48126 820.52814 482.8094Q821.5125 484.1219 821.54376 486.8875L821.54376 488.9969ZM819.91876 486.7625Q819.91876 484.7 819.325 483.7625Q818.7469 482.8094 817.4969 482.8094Q816.2469 482.8094 815.66876 483.7625Q815.10626 484.7 815.09064 486.6375L815.09064 489.2469Q815.09064 491.325 815.6844 492.3094Q816.29376 493.29376 817.5125 493.29376Q818.71564 493.29376 819.29376 492.3719Q819.8875 491.4344 819.91876 489.4344L819.91876 486.7625Z" fill-rule="nonzero"/><path stroke="#4285f4" stroke-width="4.0" stroke-linecap="butt" d="M356.0 94.583336L368.0 94.583336" fill-rule="nonzero"/><path fill="#1a1a1a" d="M386.90625 96.520836Q386.65625 98.552086 385.39062 99.66146Q384.14062 100.75521 382.04688 100.75521Q379.78125 100.75521 378.40625 99.13021Q377.04688 97.50521 377.04688 94.78646L377.04688 93.552086Q377.04688 91.770836 377.6875 90.427086Q378.32812 89.06771 379.48438 88.34896Q380.65625 87.614586 382.20312 87.614586Q384.23438 87.614586 385.46875 88.75521Q386.70312 89.88021 386.90625 91.895836L385.20312 91.895836Q384.98438 90.364586 384.25 89.69271Q383.51562 89.00521 382.20312 89.00521Q380.57812 89.00521 379.65625 90.208336Q378.75 91.395836 378.75 93.59896L378.75 94.833336Q378.75 96.91146 379.60938 98.145836Q380.48438 99.38021 382.04688 99.38021Q383.45312 99.38021 384.20312 98.739586Q384.95312 98.09896 385.20312 96.520836L386.90625 96.520836ZM388.79688 95.739586Q388.79688 94.34896 389.34375 93.239586Q389.90625 92.114586 390.875 91.50521Q391.85938 90.895836 393.10938 90.895836Q395.0625 90.895836 396.25 92.239586Q397.45312 93.583336 397.45312 95.81771L397.45312 95.927086Q397.45312 97.31771 396.92188 98.427086Q396.39062 99.520836 395.40625 100.145836Q394.42188 100.75521 393.14062 100.75521Q391.20312 100.75521 390.0 99.41146Q388.79688 98.06771 388.79688 95.84896L388.79688 95.739586ZM390.4375 95.927086Q390.4375 97.520836 391.17188 98.47396Q391.90625 99.427086 393.14062 99.427086Q394.375 99.427086 395.09375 98.458336Q395.82812 97.489586 395.82812 95.739586Q395.82812 94.177086 395.07812 93.208336Q394.34375 92.239586 393.10938 92.239586Q391.90625 92.239586 391.17188 93.19271Q390.4375 94.145836 390.4375 95.927086ZM400.76562 91.06771L400.79688 92.13021Q401.84375 90.895836 403.625 90.895836Q405.625 90.895836 406.34375 92.427086Q406.8125 91.739586 407.57812 91.31771Q408.34375 90.895836 409.375 90.895836Q412.5 90.895836 412.5625 94.208336L412.5625 100.583336L410.92188 100.583336L410.92188 94.302086Q410.92188 93.28646 410.45312 92.78646Q410.0 92.270836 408.90625 92.270836Q408.0 92.270836 407.39062 92.81771Q406.79688 93.364586 406.70312 94.270836L406.70312 100.583336L405.0625 100.583336L405.0625 94.34896Q405.0625 92.270836 403.03125 92.270836Q401.4375 92.270836 400.84375 93.645836L400.84375 100.583336L399.21875 100.583336L399.21875 91.06771L400.76562 91.06771ZM423.26562 95.927086Q423.26562 98.09896 422.26562 99.427086Q421.28125 100.75521 419.57812 100.75521Q417.84375 100.75521 416.85938 99.66146L416.85938 104.239586L415.23438 104.239586L415.23438 91.06771L416.71875 91.06771L416.79688 92.13021Q417.78125 90.895836 419.5625 90.895836Q421.26562 90.895836 422.26562 92.19271Q423.26562 93.47396 423.26562 95.78646L423.26562 95.927086ZM421.64062 95.75521Q421.64062 94.145836 420.95312 93.208336Q420.26562 92.270836 419.07812 92.270836Q417.59375 92.270836 416.85938 93.583336L416.85938 98.13021Q417.59375 99.427086 419.09375 99.427086Q420.26562 99.427086 420.95312 98.50521Q421.64062 97.583336 421.64062 95.75521ZM431.10938 99.645836Q430.15625 100.75521 428.3125 100.75521Q426.79688 100.75521 426.0 99.88021Q425.20312 98.989586 425.20312 97.25521L425.20312 91.06771L426.82812 91.06771L426.82812 97.22396Q426.82812 99.38021 428.57812 99.38021Q430.4375 99.38021 431.0625 97.989586L431.0625 91.06771L432.6875 91.06771L432.6875 100.583336L431.14062 100.583336L431.10938 99.645836ZM437.4375 88.770836L437.4375 91.06771L439.21875 91.06771L439.21875 92.333336L437.4375 92.333336L437.4375 98.22396Q437.4375 98.802086 437.67188 99.083336Q437.90625 99.364586 438.48438 99.364586Q438.76562 99.364586 439.25 99.270836L439.25 100.583336Q438.60938 100.75521 438.01562 100.75521Q436.92188 100.75521 436.35938 100.09896Q435.8125 99.44271 435.8125 98.22396L435.8125 92.333336L434.07812 92.333336L434.07812 91.06771L435.8125 91.06771L435.8125 88.770836L437.4375 88.770836ZM445.17188 100.75521Q443.25 100.75521 442.03125 99.489586Q440.8125 98.22396 440.8125 96.09896L440.8125 95.78646Q440.8125 94.38021 441.35938 93.270836Q441.90625 92.16146 442.875 91.53646Q443.84375 90.895836 444.96875 90.895836Q446.82812 90.895836 447.85938 92.114586Q448.89062 93.333336 448.89062 95.614586L448.89062 96.28646L442.4375 96.28646Q442.48438 97.69271 443.26562 98.56771Q444.04688 99.427086 445.26562 99.427086Q446.125 99.427086 446.71875 99.083336Q447.32812 98.72396 447.76562 98.145836L448.76562 98.927086Q447.5625 100.75521 445.17188 100.75521ZM444.96875 92.239586Q443.98438 92.239586 443.3125 92.958336Q442.65625 93.66146 442.5 94.958336L447.26562 94.958336L447.26562 94.833336Q447.1875 93.59896 446.59375 92.927086Q446.0 92.239586 444.96875 92.239586Z" fill-rule="nonzero"/><path stroke="#ea4335" stroke-width="4.0" stroke-linecap="butt" d="M466.0 94.583336L478.0 94.583336" fill-rule="nonzero"/><path fill="#1a1a1a" d="M494.71875 94.66146L489.17188 94.66146L489.17188 99.208336L495.60938 99.208336L495.60938 100.583336L487.48438 100.583336L487.48438 87.78646L495.53125 87.78646L495.53125 89.177086L489.17188 89.177086L489.17188 93.28646L494.71875 93.28646L494.71875 94.66146ZM498.76562 91.06771L498.79688 92.13021Q499.84375 90.895836 501.625 90.895836Q503.625 90.895836 504.34375 92.427086Q504.8125 91.739586 505.57812 91.31771Q506.34375 90.895836 507.375 90.895836Q510.5 90.895836 510.5625 94.208336L510.5625 100.583336L508.92188 100.583336L508.92188 94.302086Q508.92188 93.28646 508.45312 92.78646Q508.0 92.270836 506.90625 92.270836Q506.0 92.270836 505.39062 92.81771Q504.79688 93.364586 504.70312 94.270836L504.70312 100.583336L503.0625 100.583336L503.0625 94.34896Q503.0625 92.270836 501.03125 92.270836Q499.4375 92.270836 498.84375 93.645836L498.84375 100.583336L497.21875 100.583336L497.21875 91.06771L498.76562 91.06771ZM515.0 100.583336L513.375 100.583336L513.375 91.06771L515.0 91.06771L515.0 100.583336ZM513.2344 88.552086Q513.2344 88.16146 513.46875 87.895836Q513.71875 87.614586 514.1875 87.614586Q514.6719 87.614586 514.9219 87.895836Q515.1719 88.16146 515.1719 88.552086Q515.1719 88.94271 514.9219 89.208336Q514.6719 89.47396 514.1875 89.47396Q513.71875 89.47396 513.46875 89.208336Q513.2344 88.94271 513.2344 88.552086ZM522.7656 98.06771Q522.7656 97.395836 522.2656 97.03646Q521.78125 96.677086 520.5469 96.41146Q519.3125 96.145836 518.5781 95.78646Q517.8594 95.41146 517.5 94.895836Q517.15625 94.38021 517.15625 93.677086Q517.15625 92.520836 518.1406 91.708336Q519.1406 90.895836 520.6719 90.895836Q522.2969 90.895836 523.2969 91.739586Q524.3125 92.56771 524.3125 93.864586L522.6719 93.864586Q522.6719 93.19271 522.09375 92.72396Q521.53125 92.239586 520.6719 92.239586Q519.78125 92.239586 519.28125 92.63021Q518.78125 93.00521 518.78125 93.63021Q518.78125 94.22396 519.25 94.520836Q519.71875 94.81771 520.9375 95.09896Q522.15625 95.364586 522.90625 95.739586Q523.6719 96.114586 524.03125 96.645836Q524.3906 97.177086 524.3906 97.94271Q524.3906 99.22396 523.375 99.989586Q522.3594 100.75521 520.7344 100.75521Q519.59375 100.75521 518.7031 100.34896Q517.8281 99.94271 517.3281 99.22396Q516.8281 98.50521 516.8281 97.66146L518.46875 97.66146Q518.5 98.47396 519.1094 98.958336Q519.7344 99.427086 520.7344 99.427086Q521.65625 99.427086 522.2031 99.052086Q522.7656 98.677086 522.7656 98.06771ZM531.7656 98.06771Q531.7656 97.395836 531.2656 97.03646Q530.78125 96.677086 529.5469 96.41146Q528.3125 96.145836 527.5781 95.78646Q526.8594 95.41146 526.5 94.895836Q526.15625 94.38021 526.15625 93.677086Q526.15625 92.520836 527.1406 91.708336Q528.1406 90.895836 529.6719 90.895836Q531.2969 90.895836 532.2969 91.739586Q533.3125 92.56771 533.3125 93.864586L531.6719 93.864586Q531.6719 93.19271 531.09375 92.72396Q530.53125 92.239586 529.6719 92.239586Q528.78125 92.239586 528.28125 92.63021Q527.78125 93.00521 527.78125 93.63021Q527.78125 94.22396 528.25 94.520836Q528.71875 94.81771 529.9375 95.09896Q531.15625 95.364586 531.90625 95.739586Q532.6719 96.114586 533.03125 96.645836Q533.3906 97.177086 533.3906 97.94271Q533.3906 99.22396 532.375 99.989586Q531.3594 100.75521 529.7344 100.75521Q528.59375 100.75521 527.7031 100.34896Q526.8281 99.94271 526.3281 99.22396Q525.8281 98.50521 525.8281 97.66146L527.46875 97.66146Q527.5 98.47396 528.1094 98.958336Q528.7344 99.427086 529.7344 99.427086Q530.65625 99.427086 531.2031 99.052086Q531.7656 98.677086 531.7656 98.06771ZM537.0 100.583336L535.375 100.583336L535.375 91.06771L537.0 91.06771L537.0 100.583336ZM535.2344 88.552086Q535.2344 88.16146 535.46875 87.895836Q535.71875 87.614586 536.1875 87.614586Q536.6719 87.614586 536.9219 87.895836Q537.1719 88.16146 537.1719 88.552086Q537.1719 88.94271 536.9219 89.208336Q536.6719 89.47396 536.1875 89.47396Q535.71875 89.47396 535.46875 89.208336Q535.2344 88.94271 535.2344 88.552086ZM538.7969 95.739586Q538.7969 94.34896 539.34375 93.239586Q539.90625 92.114586 540.875 91.50521Q541.8594 90.895836 543.1094 90.895836Q545.0625 90.895836 546.25 92.239586Q547.4531 93.583336 547.4531 95.81771L547.4531 95.927086Q547.4531 97.31771 546.9219 98.427086Q546.3906 99.520836 545.40625 100.145836Q544.4219 100.75521 543.1406 100.75521Q541.2031 100.75521 540.0 99.41146Q538.7969 98.06771 538.7969 95.84896L538.7969 95.739586ZM540.4375 95.927086Q540.4375 97.520836 541.1719 98.47396Q541.90625 99.427086 543.1406 99.427086Q544.375 99.427086 545.09375 98.458336Q545.8281 97.489586 545.8281 95.739586Q545.8281 94.177086 545.0781 93.208336Q544.34375 92.239586 543.1094 92.239586Q541.90625 92.239586 541.1719 93.19271Q540.4375 94.145836 540.4375 95.927086ZM550.7656 91.06771L550.8281 92.270836Q551.90625 90.895836 553.6719 90.895836Q556.6875 90.895836 556.7031 94.302086L556.7031 100.583336L555.0781 100.583336L555.0781 94.28646Q555.0781 93.25521 554.6094 92.770836Q554.15625 92.270836 553.1719 92.270836Q552.3906 92.270836 551.78125 92.69271Q551.1875 93.114586 550.8594 93.802086L550.8594 100.583336L549.2344 100.583336L549.2344 91.06771L550.7656 91.06771ZM564.7656 98.06771Q564.7656 97.395836 564.2656 97.03646Q563.78125 96.677086 562.5469 96.41146Q561.3125 96.145836 560.5781 95.78646Q559.8594 95.41146 559.5 94.895836Q559.15625 94.38021 559.15625 93.677086Q559.15625 92.520836 560.1406 91.708336Q561.1406 90.895836 562.6719 90.895836Q564.2969 90.895836 565.2969 91.739586Q566.3125 92.56771 566.3125 93.864586L564.6719 93.864586Q564.6719 93.19271 564.09375 92.72396Q563.53125 92.239586 562.6719 92.239586Q561.78125 92.239586 561.28125 92.63021Q560.78125 93.00521 560.78125 93.63021Q560.78125 94.22396 561.25 94.520836Q561.71875 94.81771 562.9375 95.09896Q564.15625 95.364586 564.90625 95.739586Q565.6719 96.114586 566.03125 96.645836Q566.3906 97.177086 566.3906 97.94271Q566.3906 99.22396 565.375 99.989586Q564.3594 100.75521 562.7344 100.75521Q561.59375 100.75521 560.7031 100.34896Q559.8281 99.94271 559.3281 99.22396Q558.8281 98.50521 558.8281 97.66146L560.46875 97.66146Q560.5 98.47396 561.1094 98.958336Q561.7344 99.427086 562.7344 99.427086Q563.65625 99.427086 564.2031 99.052086Q564.7656 98.677086 564.7656 98.06771Z" fill-rule="nonzero"/><path fill="#757575" d="M37.315624 47.05Q33.690624 46.003124 32.034374 44.4875Q30.39375 42.971874 30.39375 40.7375Q30.39375 38.221874 32.409374 36.58125Q34.425 34.925 37.64375 34.925Q39.846874 34.925 41.565624 35.784374Q43.284374 36.628124 44.221874 38.128124Q45.175 39.6125 45.175 41.39375L42.346874 41.39375Q42.346874 39.45625 41.1125 38.346874Q39.89375 37.2375 37.64375 37.2375Q35.565624 37.2375 34.39375 38.159374Q33.2375 39.08125 33.2375 40.70625Q33.2375 42.003124 34.346874 42.909374Q35.45625 43.8 38.1125 44.55Q40.76875 45.3 42.26875 46.20625Q43.76875 47.096874 44.4875 48.3Q45.221874 49.503124 45.221874 51.128124Q45.221874 53.721874 43.190624 55.284374Q41.175 56.846874 37.8 56.846874Q35.596874 56.846874 33.690624 56.003124Q31.784374 55.159374 30.753124 53.690624Q29.721874 52.221874 29.721874 50.3625L32.55 50.3625Q32.55 52.3 33.971874 53.425Q35.409374 54.55 37.8 54.55Q40.01875 54.55 41.20625 53.64375Q42.39375 52.721874 42.39375 51.159374Q42.39375 49.596874 41.284374 48.7375Q40.190624 47.878124 37.315624 47.05ZM54.95625 54.628124Q56.409374 54.628124 57.4875 53.753124Q58.58125 52.878124 58.690624 51.55L61.253124 51.55Q61.190624 52.909374 60.315624 54.14375Q59.45625 55.378124 58.003124 56.1125Q56.565624 56.846874 54.95625 56.846874Q51.721874 56.846874 49.8 54.690624Q47.89375 52.51875 47.89375 48.76875L47.89375 48.315624Q47.89375 46.003124 48.7375 44.20625Q49.596874 42.39375 51.175 41.409374Q52.76875 40.409374 54.940624 40.409374Q57.6125 40.409374 59.378124 42.003124Q61.14375 43.596874 61.253124 46.14375L58.690624 46.14375Q58.58125 44.6125 57.534374 43.628124Q56.4875 42.628124 54.940624 42.628124Q52.878124 42.628124 51.7375 44.128124Q50.6125 45.6125 50.6125 48.425L50.6125 48.925Q50.6125 51.675 51.7375 53.159374Q52.8625 54.628124 54.95625 54.628124ZM74.39375 56.55Q74.15938 56.08125 74.00313 54.878124Q72.1125 56.846874 69.4875 56.846874Q67.14375 56.846874 65.64375 55.51875Q64.14375 54.190624 64.14375 52.159374Q64.14375 49.675 66.01875 48.315624Q67.90938 46.940624 71.33125 46.940624L73.95625 46.940624L73.95625 45.690624Q73.95625 44.26875 73.1125 43.440624Q72.26875 42.596874 70.6125 42.596874Q69.15938 42.596874 68.175 43.33125Q67.19063 44.05 67.19063 45.096874L64.47188 45.096874Q64.47188 43.909374 65.31563 42.8Q66.15938 41.690624 67.59688 41.05Q69.03438 40.409374 70.76875 40.409374Q73.50313 40.409374 75.05 41.784374Q76.6125 43.14375 76.675 45.55L76.675 52.846874Q76.675 55.01875 77.22188 56.315624L77.22188 56.55L74.39375 56.55ZM69.89375 54.4875Q71.15938 54.4875 72.3 53.83125Q73.45625 53.159374 73.95625 52.1125L73.95625 48.8625L71.83125 48.8625Q66.8625 48.8625 66.8625 51.76875Q66.8625 53.05 67.70625 53.76875Q68.55 54.4875 69.89375 54.4875ZM83.55 56.55L80.83125 56.55L80.83125 34.05L83.55 34.05L83.55 56.55ZM90.55 56.55L87.83125 56.55L87.83125 40.70625L90.55 40.70625L90.55 56.55ZM87.6125 36.503124Q87.6125 35.83125 88.01875 35.378124Q88.425 34.925 89.20625 34.925Q90.00313 34.925 90.40938 35.378124Q90.83125 35.83125 90.83125 36.503124Q90.83125 37.159374 90.40938 37.596874Q90.00313 38.034374 89.20625 38.034374Q88.425 38.034374 88.01875 37.596874Q87.6125 37.159374 87.6125 36.503124ZM97.15938 40.70625L97.25313 42.690624Q99.06563 40.409374 102.00313 40.409374Q107.01875 40.409374 107.06563 46.08125L107.06563 56.55L104.3625 56.55L104.3625 46.065624Q104.34688 44.346874 103.56563 43.534374Q102.8 42.70625 101.175 42.70625Q99.8625 42.70625 98.8625 43.409374Q97.8625 44.1125 97.31563 45.253124L97.31563 56.55L94.59688 56.55L94.59688 40.70625L97.15938 40.70625ZM110.95625 48.4875Q110.95625 44.784374 112.65938 42.596874Q114.37813 40.409374 117.20625 40.409374Q120.1125 40.409374 121.7375 42.45625L121.8625 40.70625L124.34688 40.70625L124.34688 56.175Q124.34688 59.253124 122.51875 61.01875Q120.69063 62.784374 117.62813 62.784374Q115.90938 62.784374 114.26875 62.05Q112.62813 61.33125 111.76875 60.05L113.175 58.425Q114.90938 60.58125 117.425 60.58125Q119.40938 60.58125 120.51875 59.45625Q121.62813 58.346874 121.62813 56.33125L121.62813 54.971874Q119.9875 56.846874 117.175 56.846874Q114.39375 56.846874 112.675 54.6125Q110.95625 52.3625 110.95625 48.4875ZM113.675 48.8Q113.675 51.4875 114.76875 53.01875Q115.87813 54.55 117.8625 54.55Q120.425 54.55 121.62813 52.20625L121.62813 44.971874Q120.37813 42.70625 117.87813 42.70625Q115.90938 42.70625 114.78438 44.253124Q113.675 45.784374 113.675 48.8ZM138.84688 54.253124L148.95625 54.253124L148.95625 56.55L136.01875 56.55L136.01875 35.221874L138.84688 35.221874L138.84688 54.253124ZM154.55 56.55L151.83125 56.55L151.83125 34.05L154.55 34.05L154.55 56.55ZM168.39375 56.55Q168.15938 56.08125 168.00313 54.878124Q166.1125 56.846874 163.4875 56.846874Q161.14375 56.846874 159.64375 55.51875Q158.14375 54.190624 158.14375 52.159374Q158.14375 49.675 160.01875 48.315624Q161.90938 46.940624 165.33125 46.940624L167.95625 46.940624L167.95625 45.690624Q167.95625 44.26875 167.1125 43.440624Q166.26875 42.596874 164.6125 42.596874Q163.15938 42.596874 162.175 43.33125Q161.19063 44.05 161.19063 45.096874L158.47188 45.096874Q158.47188 43.909374 159.31563 42.8Q160.15938 41.690624 161.59688 41.05Q163.03438 40.409374 164.76875 40.409374Q167.50313 40.409374 169.05 41.784374Q170.6125 43.14375 170.675 45.55L170.675 52.846874Q170.675 55.01875 171.22188 56.315624L171.22188 56.55L168.39375 56.55ZM163.89375 54.4875Q165.15938 54.4875 166.3 53.83125Q167.45625 53.159374 167.95625 52.1125L167.95625 48.8625L165.83125 48.8625Q160.8625 48.8625 160.8625 51.76875Q160.8625 53.05 161.70625 53.76875Q162.55 54.4875 163.89375 54.4875ZM177.14375 40.70625L177.22188 42.45625Q178.97188 40.409374 181.925 40.409374Q185.25313 40.409374 186.45625 42.95625Q187.2375 41.815624 188.50313 41.1125Q189.78438 40.409374 191.50313 40.409374Q196.72188 40.409374 196.81563 45.925L196.81563 56.55L194.09688 56.55L194.09688 46.096874Q194.09688 44.39375 193.31563 43.55Q192.55 42.70625 190.72188 42.70625Q189.20625 42.70625 188.20625 43.6125Q187.20625 44.503124 187.05 46.034374L187.05 56.55L184.33125 56.55L184.33125 46.159374Q184.33125 42.70625 180.94063 42.70625Q178.28438 42.70625 177.3 44.971874L177.3 56.55L174.58125 56.55L174.58125 40.70625L177.14375 40.70625ZM210.39375 56.55Q210.15938 56.08125 210.00313 54.878124Q208.1125 56.846874 205.4875 56.846874Q203.14375 56.846874 201.64375 55.51875Q200.14375 54.190624 200.14375 52.159374Q200.14375 49.675 202.01875 48.315624Q203.90938 46.940624 207.33125 46.940624L209.95625 46.940624L209.95625 45.690624Q209.95625 44.26875 209.1125 43.440624Q208.26875 42.596874 206.6125 42.596874Q205.15938 42.596874 204.175 43.33125Q203.19063 44.05 203.19063 45.096874L200.47188 45.096874Q200.47188 43.909374 201.31563 42.8Q202.15938 41.690624 203.59688 41.05Q205.03438 40.409374 206.76875 40.409374Q209.50313 40.409374 211.05 41.784374Q212.6125 43.14375 212.675 45.55L212.675 52.846874Q212.675 55.01875 213.22188 56.315624L213.22188 56.55L210.39375 56.55ZM205.89375 54.4875Q207.15938 54.4875 208.3 53.83125Q209.45625 53.159374 209.95625 52.1125L209.95625 48.8625L207.83125 48.8625Q202.8625 48.8625 202.8625 51.76875Q202.8625 53.05 203.70625 53.76875Q204.55 54.4875 205.89375 54.4875ZM222.2375 48.596874L215.09688 48.596874L215.09688 46.378124L222.2375 46.378124L222.2375 48.596874ZM238.3 56.55L224.31563 56.55L224.31563 54.596874L231.70625 46.39375Q233.34688 44.534374 233.97188 43.378124Q234.59688 42.20625 234.59688 40.95625Q234.59688 39.3 233.58125 38.2375Q232.56563 37.159374 230.87813 37.159374Q228.8625 37.159374 227.7375 38.315624Q226.62813 39.45625 226.62813 41.503124L223.90938 41.503124Q223.90938 38.565624 225.8 36.753124Q227.70625 34.925 230.87813 34.925Q233.8625 34.925 235.58125 36.4875Q237.31563 38.05 237.31563 40.64375Q237.31563 43.784374 233.3 48.14375L227.59688 54.33125L238.3 54.33125L238.3 56.55Z" fill-rule="nonzero"/></svg>