<svg version="1.1" viewBox="0.0 0.0 683.9842519685039 276.36482939632543" fill="none" stroke="none" stroke-linecap="square" stroke-miterlimit="10" xmlns:xlink="http://www.w3.org/1999/xlink" xmlns="http://www.w3.org/2000/svg"><clipPath id="p.0"><path d="m0 0l683.98425 0l0 276.36484l-683.98425 0l0 -276.36484z" clip-rule="nonzero"/></clipPath><g clip-path="url(#p.0)"><path fill="#000000" fill-opacity="0.0" d="m0 0l683.98425 0l0 276.36484l-683.98425 0z" fill-rule="evenodd"/><path fill="#b6d7a8" d="m167.66273 109.42519l215.27559 0l0 117.57481l-215.27559 0z" fill-rule="evenodd"/><path fill="#000000" d="m221.95137 163.97635l0 -1.53125l9.0 0l0 1.53125l-3.6875 0l0 11.15625l-1.625 0l0 -11.15625l-3.6875 0zm14.738037 3.265625q-0.84375 0 -1.640625 0.296875q-0.796875 0.296875 -1.6875 1.140625l0 6.453125l-1.53125 0l0 -9.234375l1.453125 0l0 1.484375q0.953125 -0.921875 1.75 -1.296875q0.796875 -0.375 1.65625 -0.375l0 1.53125zm8.737473 7.984375q-0.859375 0 -1.375 -0.390625q-0.5 -0.390625 -0.703125 -0.96875q-0.921875 0.796875 -1.671875 1.125q-0.734375 0.328125 -1.484375 0.328125q-1.21875 0 -1.796875 -0.78125q-0.578125 -0.78125 -0.578125 -1.921875q0 -0.765625 0.28125 -1.359375q0.28125 -0.609375 0.953125 -0.953125q0.671875 -0.34375 1.8125 -0.34375q0.5 0 1.09375 0.078125q0.59375 0.0625 1.21875 0.15625l0 -1.25q0 -1.046875 -0.46875 -1.421875q-0.453125 -0.390625 -1.328125 -0.390625q-1.1875 0 -2.671875 0.65625l-0.484375 -1.28125q0.859375 -0.390625 1.640625 -0.59375q0.796875 -0.203125 1.59375 -0.203125q1.3125 0 2.0 0.4375q0.6875 0.421875 0.9375 1.140625q0.265625 0.703125 0.265625 1.53125l0 4.0q0 0.421875 0.171875 0.71875q0.171875 0.28125 0.671875 0.28125l0.203125 0l0 1.40625l-0.28125 0zm-6.09375 -2.625q0 0.625 0.296875 1.015625q0.296875 0.390625 0.859375 0.390625q0.484375 0 1.109375 -0.28125q0.640625 -0.296875 1.578125 -1.171875l0 -1.171875q-1.265625 -0.203125 -2.234375 -0.203125q-0.859375 0 -1.234375 0.359375q-0.375 0.34375 -0.375 1.0625zm12.97879 -5.453125q-0.515625 0 -1.21875 0.265625q-0.703125 0.25 -1.6875 1.0625l0 6.65625l-1.53125 0l0 -9.234375l1.453125 0l0 1.28125q0.984375 -0.828125 1.796875 -1.140625q0.8125 -0.328125 1.5625 -0.328125q1.296875 0 1.96875 0.8125q0.6875 0.8125 0.6875 2.296875l0 6.3125l-1.53125 0l0 -6.078125q0 -1.90625 -1.5 -1.90625zm8.4808655 6.8125q1.859375 0 1.859375 -1.265625q0 -0.546875 -0.34375 -0.859375q-0.328125 -0.328125 -1.21875 -0.546875l-1.03125 -0.265625q-1.140625 -0.28125 -1.703125 -0.96875q-0.546875 -0.703125 -0.546875 -1.671875q0 -0.71875 0.3125 -1.3125q0.3125 -0.609375 1.0 -0.984375q0.6875 -0.375 1.796875 -0.375q0.703125 0 1.4375 0.15625q0.75 0.15625 1.515625 0.53125l-0.484375 1.296875q-1.375 -0.625 -2.46875 -0.625q-1.625 0 -1.625 1.21875q0 0.46875 0.296875 0.8125q0.296875 0.328125 1.125 0.53125l1.015625 0.25q1.234375 0.3125 1.8125 0.984375q0.578125 0.671875 0.578125 1.734375q0 0.765625 -0.328125 1.390625q-0.328125 0.625 -1.046875 0.984375q-0.703125 0.34375 -1.921875 0.34375q-0.796875 0 -1.59375 -0.171875q-0.796875 -0.171875 -1.640625 -0.53125l0.421875 -1.28125q0.796875 0.328125 1.453125 0.484375q0.65625 0.140625 1.328125 0.140625zm10.6345825 -6.71875l-3.03125 0l0 7.890625l-1.53125 0l0 -7.890625l-1.609375 0l0 -1.34375l1.609375 0l0 -1.53125q0 -0.859375 0.28125 -1.59375q0.296875 -0.734375 0.953125 -1.1875q0.65625 -0.453125 1.734375 -0.453125q0.546875 0 1.140625 0.125q0.609375 0.125 1.140625 0.375l-0.4375 1.28125q-0.953125 -0.375 -1.65625 -0.375q-0.78125 0 -1.203125 0.4375q-0.421875 0.421875 -0.421875 1.375l0 1.546875l3.03125 0l0 1.34375zm8.982819 2.703125l0 1.125q0 1.96875 -1.015625 3.109375q-1.015625 1.140625 -2.90625 1.140625q-1.859375 0 -2.890625 -1.140625q-1.015625 -1.140625 -1.015625 -3.109375l0 -1.125q0 -1.9375 1.015625 -3.078125q1.015625 -1.15625 2.890625 -1.15625q1.890625 0 2.90625 1.15625q1.015625 1.140625 1.015625 3.078125zm-1.578125 0q0 -1.328125 -0.609375 -2.078125q-0.59375 -0.75 -1.734375 -0.75q-1.109375 0 -1.71875 0.75q-0.609375 0.75 -0.609375 2.078125l0 1.125q0 1.375 0.609375 2.125q0.609375 0.75 1.71875 0.75q1.140625 0 1.734375 -0.75q0.609375 -0.75 0.609375 -2.125l0 -1.125zm9.218048 -2.703125q-0.84375 0 -1.640625 0.296875q-0.796875 0.296875 -1.6875 1.140625l0 6.453125l-1.53125 0l0 -9.234375l1.453125 0l0 1.484375q0.953125 -0.921875 1.75 -1.296875q0.796875 -0.375 1.65625 -0.375l0 1.53125zm6.3312073 -0.09375q-0.515625 0 -1.171875 0.28125q-0.65625 0.265625 -1.640625 1.046875l0 6.65625l-1.53125 0l0 -9.234375l1.453125 0l0 1.28125q0.984375 -0.8125 1.75 -1.140625q0.765625 -0.328125 1.515625 -0.328125q0.875 0 1.453125 0.40625q0.578125 0.390625 0.859375 1.140625q1.03125 -0.875 1.84375 -1.203125q0.8125 -0.34375 1.59375 -0.34375q1.234375 0 1.875 0.8125q0.65625 0.8125 0.65625 2.296875l0 6.3125l-1.53125 0l0 -6.078125q0 -1.90625 -1.375 -1.90625q-0.515625 0 -1.1875 0.28125q-0.65625 0.265625 -1.640625 1.046875q0.015625 0.078125 0.015625 0.171875q0 0.078125 0 0.171875l0 6.3125l-1.53125 0l0 -6.078125q0 -1.90625 -1.40625 -1.90625zm18.571655 7.4375q-0.84375 0.421875 -1.6875 0.578125q-0.828125 0.15625 -1.546875 0.15625q-2.0 0 -2.984375 -1.140625q-0.96875 -1.140625 -0.96875 -3.109375l0 -1.125q0 -1.921875 0.96875 -3.078125q0.984375 -1.15625 2.78125 -1.15625q0.953125 0 1.734375 0.390625q0.796875 0.375 1.265625 1.15625q0.484375 0.765625 0.484375 1.984375q0 0.78125 -0.21875 1.78125l-5.5 0l0 0.046875q0 1.40625 0.578125 2.140625q0.59375 0.734375 1.90625 0.734375q0.59375 0 1.3125 -0.15625q0.71875 -0.15625 1.40625 -0.46875l0.46875 1.265625zm-3.4375 -7.53125q-1.078125 0 -1.640625 0.703125q-0.546875 0.703125 -0.59375 1.96875l4.171875 0q0.0625 -0.34375 0.0625 -0.640625q0 -1.046875 -0.59375 -1.53125q-0.578125 -0.5 -1.40625 -0.5zm10.9964905 0.1875q-0.84375 0 -1.640625 0.296875q-0.796875 0.296875 -1.6875 1.140625l0 6.453125l-1.53125 0l0 -9.234375l1.453125 0l0 1.484375q0.953125 -0.921875 1.75 -1.296875q0.796875 -0.375 1.65625 -0.375l0 1.53125zm4.253113 6.71875q1.859375 0 1.859375 -1.265625q0 -0.546875 -0.34375 -0.859375q-0.328125 -0.328125 -1.21875 -0.546875l-1.03125 -0.265625q-1.140625 -0.28125 -1.703125 -0.96875q-0.546875 -0.703125 -0.546875 -1.671875q0 -0.71875 0.3125 -1.3125q0.3125 -0.609375 1.0 -0.984375q0.6875 -0.375 1.796875 -0.375q0.703125 0 1.4375 0.15625q0.75 0.15625 1.515625 0.53125l-0.484375 1.296875q-1.375 -0.625 -2.46875 -0.625q-1.625 0 -1.625 1.21875q0 0.46875 0.296875 0.8125q0.296875 0.328125 1.125 0.53125l1.015625 0.25q1.234375 0.3125 1.8125 0.984375q0.578125 0.671875 0.578125 1.734375q0 0.765625 -0.328125 1.390625q-0.328125 0.625 -1.046875 0.984375q-0.703125 0.34375 -1.921875 0.34375q-0.796875 0 -1.59375 -0.171875q-0.796875 -0.171875 -1.640625 -0.53125l0.421875 -1.28125q0.796875 0.328125 1.453125 0.484375q0.65625 0.140625 1.328125 0.140625z" fill-rule="nonzero"/><path fill="#000000" fill-opacity="0.0" d="m20.22441 63.17323l60.598427 0l0 42.01575l-60.598427 0z" fill-rule="evenodd"/><path fill="#000000" d="m42.26273 77.40572l3.875 9.40625l3.875 -9.40625l1.84375 0l0 12.6875l-1.578125 0l0 -5.421875l0.203125 -4.890625l-3.640625 8.8125l-1.53125 0l-3.5625 -8.859375l0.203125 4.9375l0 5.421875l-1.578125 0l0 -12.6875l1.890625 0zm16.387909 13.625q-0.59375 1.671875 -1.46875 2.4375q-0.859375 0.78125 -2.40625 0.78125l0 -1.5q0.625 -0.03125 1.078125 -0.1875q0.46875 -0.140625 0.828125 -0.59375q0.359375 -0.453125 0.703125 -1.359375l0.1875 -0.453125l-3.328125 -9.296875l1.5625 0l1.546875 4.5l0.953125 2.875l0.921875 -2.875l1.515625 -4.5l1.5 0l-3.59375 10.171875z" fill-rule="nonzero"/><path fill="#000000" fill-opacity="0.0" d="m0.31889763 105.18898l100.40945 0l0 42.015747l-100.40945 0z" fill-rule="evenodd"/><path fill="#000000" d="m25.830467 124.21835l-3.03125 0l0 7.890625l-1.53125 0l0 -7.890625l-1.609375 0l0 -1.34375l1.609375 0l0 -1.53125q0 -0.859375 0.28125 -1.59375q0.296875 -0.734375 0.953125 -1.1875q0.65625 -0.453125 1.734375 -0.453125q0.546875 0 1.140625 0.125q0.609375 0.125 1.140625 0.375l-0.4375 1.28125q-0.953125 -0.375 -1.65625 -0.375q-0.78125 0 -1.203125 0.4375q-0.421875 0.421875 -0.421875 1.375l0 1.546875l3.03125 0l0 1.34375zm8.420319 7.984375q-0.859375 0 -1.375 -0.390625q-0.5 -0.390625 -0.703125 -0.96875q-0.921875 0.796875 -1.671875 1.125q-0.734375 0.328125 -1.484375 0.328125q-1.21875 0 -1.796875 -0.78125q-0.578125 -0.78125 -0.578125 -1.921875q0 -0.765625 0.28125 -1.359375q0.28125 -0.609375 0.953125 -0.953125q0.671875 -0.34375 1.8125 -0.34375q0.5 0 1.09375 0.078125q0.59375 0.0625 1.21875 0.15625l0 -1.25q0 -1.046875 -0.46875 -1.421875q-0.453125 -0.390625 -1.328125 -0.390625q-1.1875 0 -2.671875 0.65625l-0.484375 -1.28125q0.859375 -0.390625 1.640625 -0.59375q0.796875 -0.203125 1.59375 -0.203125q1.3125 0 2.0 0.4375q0.6875 0.421875 0.9375 1.140625q0.265625 0.703125 0.265625 1.53125l0 4.0q0 0.421875 0.171875 0.71875q0.171875 0.28125 0.671875 0.28125l0.203125 0l0 1.40625l-0.28125 0zm-6.09375 -2.625q0 0.625 0.296875 1.015625q0.296875 0.390625 0.859375 0.390625q0.484375 0 1.109375 -0.28125q0.640625 -0.296875 1.578125 -1.171875l0 -1.171875q-1.265625 -0.203125 -2.234375 -0.203125q-0.859375 0 -1.234375 0.359375q-0.375 0.34375 -0.375 1.0625zm15.067291 -6.703125l-3.265625 9.234375l-1.4375 0l-3.296875 -9.234375l1.59375 0l1.546875 4.5l0.921875 2.8125l0.921875 -2.8125l1.515625 -4.5l1.5 0zm9.181595 4.046875l0 1.125q0 1.96875 -1.015625 3.109375q-1.015625 1.140625 -2.90625 1.140625q-1.859375 0 -2.890625 -1.140625q-1.015625 -1.140625 -1.015625 -3.109375l0 -1.125q0 -1.9375 1.015625 -3.078125q1.015625 -1.15625 2.890625 -1.15625q1.890625 0 2.90625 1.15625q1.015625 1.140625 1.015625 3.078125zm-1.578125 0q0 -1.328125 -0.609375 -2.078125q-0.59375 -0.75 -1.734375 -0.75q-1.109375 0 -1.71875 0.75q-0.609375 0.75 -0.609375 2.078125l0 1.125q0 1.375 0.609375 2.125q0.609375 0.75 1.71875 0.75q1.140625 0 1.734375 -0.75q0.609375 -0.75 0.609375 -2.125l0 -1.125zm9.218033 -2.703125q-0.84375 0 -1.640625 0.296875q-0.796875 0.296875 -1.6875 1.140625l0 6.453125l-1.53125 0l0 -9.234375l1.453125 0l0 1.484375q0.953125 -0.921875 1.75 -1.296875q0.796875 -0.375 1.65625 -0.375l0 1.53125zm3.6124725 -3.609375l-1.71875 0l0 -1.703125l1.71875 0l0 1.703125zm-0.09375 11.5l-1.53125 0l0 -9.234375l1.53125 0l0 9.234375zm8.378845 -0.328125q-1.046875 0.515625 -2.21875 0.515625q-1.015625 0 -1.59375 -0.40625q-0.5625 -0.421875 -0.796875 -1.109375q-0.21875 -0.6875 -0.21875 -1.53125l0 -5.03125l-1.609375 0l0 -1.34375l1.609375 0l0 -2.578125l1.53125 0l0 2.578125l3.015625 0l0 1.34375l-3.015625 0l0 4.984375q0 0.96875 0.3125 1.328125q0.328125 0.359375 1.015625 0.359375q0.34375 0 0.703125 -0.078125q0.375 -0.078125 0.796875 -0.28125l0.46875 1.25zm8.714371 -0.21875q-0.84375 0.421875 -1.6875 0.578125q-0.828125 0.15625 -1.546875 0.15625q-2.0 0 -2.984375 -1.140625q-0.96875 -1.140625 -0.96875 -3.109375l0 -1.125q0 -1.921875 0.96875 -3.078125q0.984375 -1.15625 2.78125 -1.15625q0.953125 0 1.734375 0.390625q0.796875 0.375 1.265625 1.15625q0.484375 0.765625 0.484375 1.984375q0 0.78125 -0.21875 1.78125l-5.5 0l0 0.046875q0 1.40625 0.578125 2.140625q0.59375 0.734375 1.90625 0.734375q0.59375 0 1.3125 -0.15625q0.71875 -0.15625 1.40625 -0.46875l0.46875 1.265625zm-3.4375 -7.53125q-1.078125 0 -1.640625 0.703125q-0.546875 0.703125 -0.59375 1.96875l4.171875 0q0.0625 -0.34375 0.0625 -0.640625q0 -1.046875 -0.59375 -1.53125q-0.578125 -0.5 -1.40625 -0.5z" fill-rule="nonzero"/><path fill="#000000" fill-opacity="0.0" d="m0.31889763 147.20473l100.40945 0l0 42.015747l-100.40945 0z" fill-rule="evenodd"/><path fill="#000000" d="m31.928429 166.14035q-0.515625 0 -1.171875 0.28125q-0.65625 0.265625 -1.640625 1.046875l0 6.65625l-1.53125 0l0 -9.234375l1.453125 0l0 1.28125q0.984375 -0.8125 1.75 -1.140625q0.765625 -0.328125 1.515625 -0.328125q0.875 0 1.453125 0.40625q0.578125 0.390625 0.859375 1.140625q1.03125 -0.875 1.84375 -1.203125q0.8125 -0.34375 1.59375 -0.34375q1.234375 0 1.875 0.8125q0.65625 0.8125 0.65625 2.296875l0 6.3125l-1.53125 0l0 -6.078125q0 -1.90625 -1.375 -1.90625q-0.515625 0 -1.1875 0.28125q-0.65625 0.265625 -1.640625 1.046875q0.015625 0.078125 0.015625 0.171875q0 0.078125 0 0.171875l0 6.3125l-1.53125 0l0 -6.078125q0 -1.90625 -1.40625 -1.90625zm19.18103 2.796875l0 1.125q0 1.96875 -1.015625 3.109375q-1.015625 1.140625 -2.90625 1.140625q-1.859375 0 -2.890625 -1.140625q-1.015625 -1.140625 -1.015625 -3.109375l0 -1.125q0 -1.9375 1.015625 -3.078125q1.015625 -1.15625 2.890625 -1.15625q1.890625 0 2.90625 1.15625q1.015625 1.140625 1.015625 3.078125zm-1.578125 0q0 -1.328125 -0.609375 -2.078125q-0.59375 -0.75 -1.734375 -0.75q-1.109375 0 -1.71875 0.75q-0.609375 0.75 -0.609375 2.078125l0 1.125q0 1.375 0.609375 2.125q0.609375 0.75 1.71875 0.75q1.140625 0 1.734375 -0.75q0.609375 -0.75 0.609375 -2.125l0 -1.125zm10.921997 -4.046875l-3.265625 9.234375l-1.4375 0l-3.296875 -9.234375l1.59375 0l1.546875 4.5l0.921875 2.8125l0.921875 -2.8125l1.515625 -4.5l1.5 0zm3.6807556 -2.265625l-1.71875 0l0 -1.703125l1.71875 0l0 1.703125zm-0.09375 11.5l-1.53125 0l0 -9.234375l1.53125 0l0 9.234375zm10.003845 -0.546875q-0.84375 0.421875 -1.6875 0.578125q-0.828125 0.15625 -1.546875 0.15625q-2.0 0 -2.984375 -1.140625q-0.96875 -1.140625 -0.96875 -3.109375l0 -1.125q0 -1.921875 0.96875 -3.078125q0.984375 -1.15625 2.78125 -1.15625q0.953125 0 1.734375 0.390625q0.796875 0.375 1.265625 1.15625q0.484375 0.765625 0.484375 1.984375q0 0.78125 -0.21875 1.78125l-5.5 0l0 0.046875q0 1.40625 0.578125 2.140625q0.59375 0.734375 1.90625 0.734375q0.59375 0 1.3125 -0.15625q0.71875 -0.15625 1.40625 -0.46875l0.46875 1.265625zm-3.4375 -7.53125q-1.078125 0 -1.640625 0.703125q-0.546875 0.703125 -0.59375 1.96875l4.171875 0q0.0625 -0.34375 0.0625 -0.640625q0 -1.046875 -0.59375 -1.53125q-0.578125 -0.5 -1.40625 -0.5z" fill-rule="nonzero"/><path fill="#000000" fill-opacity="0.0" d="m0.31889763 189.22047l100.40945 0l0 42.015747l-100.40945 0z" fill-rule="evenodd"/><path fill="#000000" d="m47.352837 204.64047l-1.71875 0l0 -1.703125l1.71875 0l0 1.703125zm-0.09375 11.5l-1.53125 0l0 -9.234375l1.53125 0l0 9.234375zm5.566345 -1.171875q1.859375 0 1.859375 -1.265625q0 -0.546875 -0.34375 -0.859375q-0.328125 -0.328125 -1.21875 -0.546875l-1.03125 -0.265625q-1.140625 -0.28125 -1.703125 -0.96875q-0.546875 -0.703125 -0.546875 -1.671875q0 -0.71875 0.3125 -1.3125q0.3125 -0.609375 1.0 -0.984375q0.6875 -0.375 1.796875 -0.375q0.703125 0 1.4375 0.15625q0.75 0.15625 1.515625 0.53125l-0.484375 1.296875q-1.375 -0.625 -2.46875 -0.625q-1.625 0 -1.625 1.21875q0 0.46875 0.296875 0.8125q0.296875 0.328125 1.125 0.53125l1.015625 0.25q1.234375 0.3125 1.8125 0.984375q0.578125 0.671875 0.578125 1.734375q0 0.765625 -0.328125 1.390625q-0.328125 0.625 -1.046875 0.984375q-0.703125 0.34375 -1.921875 0.34375q-0.796875 0 -1.59375 -0.171875q-0.796875 -0.171875 -1.640625 -0.53125l0.421875 -1.28125q0.796875 0.328125 1.453125 0.484375q0.65625 0.140625 1.328125 0.140625z" fill-rule="nonzero"/><path fill="#000000" fill-opacity="0.0" d="m0.31889763 231.23622l100.40945 0l0 42.015762l-100.40945 0z" fill-rule="evenodd"/><path fill="#000000" d="m23.535484 246.99997l0 -1.53125l9.0 0l0 1.53125l-3.6875 0l0 11.15625l-1.625 0l0 -11.15625l-3.6875 0zm12.511658 -0.34375l-1.71875 0l0 -1.703125l1.71875 0l0 1.703125zm-0.09375 11.5l-1.53125 0l0 -9.234375l1.53125 0l0 9.234375zm8.378845 -0.328125q-1.046875 0.515625 -2.21875 0.515625q-1.015625 0 -1.59375 -0.40625q-0.5625 -0.421875 -0.796875 -1.109375q-0.21875 -0.6875 -0.21875 -1.53125l0 -5.03125l-1.609375 0l0 -1.34375l1.609375 0l0 -2.578125l1.53125 0l0 2.578125l3.015625 0l0 1.34375l-3.015625 0l0 4.984375q0 0.96875 0.3125 1.328125q0.328125 0.359375 1.015625 0.359375q0.34375 0 0.703125 -0.078125q0.375 -0.078125 0.796875 -0.28125l0.46875 1.25zm8.761246 0.421875q-0.859375 0 -1.375 -0.390625q-0.5 -0.390625 -0.703125 -0.96875q-0.921875 0.796875 -1.671875 1.125q-0.734375 0.328125 -1.484375 0.328125q-1.21875 0 -1.796875 -0.78125q-0.578125 -0.78125 -0.578125 -1.921875q0 -0.765625 0.28125 -1.359375q0.28125 -0.609375 0.953125 -0.953125q0.671875 -0.34375 1.8125 -0.34375q0.5 0 1.09375 0.078125q0.59375 0.0625 1.21875 0.15625l0 -1.25q0 -1.046875 -0.46875 -1.421875q-0.453125 -0.390625 -1.328125 -0.390625q-1.1875 0 -2.671875 0.65625l-0.484375 -1.28125q0.859375 -0.390625 1.640625 -0.59375q0.796875 -0.203125 1.59375 -0.203125q1.3125 0 2.0 0.4375q0.6875 0.421875 0.9375 1.140625q0.265625 0.703125 0.265625 1.53125l0 4.0q0 0.421875 0.171875 0.71875q0.171875 0.28125 0.671875 0.28125l0.203125 0l0 1.40625l-0.28125 0zm-6.09375 -2.625q0 0.625 0.296875 1.015625q0.296875 0.390625 0.859375 0.390625q0.484375 0 1.109375 -0.28125q0.640625 -0.296875 1.578125 -1.171875l0 -1.171875q-1.265625 -0.203125 -2.234375 -0.203125q-0.859375 0 -1.234375 0.359375q-0.375 0.34375 -0.375 1.0625zm12.97879 -5.453125q-0.515625 0 -1.21875 0.265625q-0.703125 0.25 -1.6875 1.0625l0 6.65625l-1.53125 0l0 -9.234375l1.453125 0l0 1.28125q0.984375 -0.828125 1.796875 -1.140625q0.8125 -0.328125 1.5625 -0.328125q1.296875 0 1.96875 0.8125q0.6875 0.8125 0.6875 2.296875l0 6.3125l-1.53125 0l0 -6.078125q0 -1.90625 -1.5 -1.90625zm7.840225 -3.515625l-1.71875 0l0 -1.703125l1.71875 0l0 1.703125zm-0.09375 11.5l-1.53125 0l0 -9.234375l1.53125 0l0 9.234375zm4.378845 -5.171875l0 1.109375q0 1.40625 0.515625 2.125q0.53125 0.71875 1.671875 0.71875q1.125 0 2.40625 -0.578125l0.46875 1.296875q-1.53125 0.6875 -2.96875 0.6875q-1.796875 0 -2.734375 -1.140625q-0.921875 -1.140625 -0.921875 -3.109375l0 -1.109375q0 -1.96875 0.921875 -3.109375q0.9375 -1.140625 2.734375 -1.140625q0.671875 0 1.390625 0.1875q0.71875 0.171875 1.453125 0.484375l-0.46875 1.3125q-0.625 -0.265625 -1.203125 -0.40625q-0.5625 -0.15625 -1.078125 -0.15625q-1.140625 0 -1.671875 0.71875q-0.515625 0.71875 -0.515625 2.109375z" fill-rule="nonzero"/><path fill="#000000" fill-opacity="0.0" d="m100.72835 168.2126l66.92914 0" fill-rule="evenodd"/><path stroke="#000000" stroke-width="2.0" stroke-linejoin="round" stroke-linecap="butt" d="m100.72835 168.2126l54.92914 0" fill-rule="evenodd"/><path fill="#000000" stroke="#000000" stroke-width="2.0" stroke-linecap="butt" d="m155.65749 171.51607l9.076187 -3.3034668l-9.076187 -3.3034668z" fill-rule="evenodd"/><path fill="#000000" fill-opacity="0.0" d="m492.70734 144.77953l191.27557 0l0 46.86615l-191.27557 0z" fill-rule="evenodd"/><path fill="#000000" d="m538.38257 166.13327l0 3.375q0 3.09375 -1.390625 4.671875q-1.375 1.578125 -3.84375 1.578125q-2.46875 0 -3.84375 -1.578125q-1.375 -1.578125 -1.375 -4.671875l0 -3.375q0 -3.046875 1.375 -4.625q1.390625 -1.59375 3.84375 -1.59375q2.46875 0 3.84375 1.59375q1.390625 1.578125 1.390625 4.625zm-2.0 0q0 -2.359375 -0.859375 -3.390625q-0.84375 -1.046875 -2.375 -1.046875q-1.515625 0 -2.375 1.046875q-0.84375 1.03125 -0.84375 3.390625l0 3.375q0 2.34375 0.84375 3.421875q0.859375 1.0625 2.375 1.0625q1.53125 0 2.375 -1.0625q0.859375 -1.078125 0.859375 -3.421875l0 -3.375zm6.5044556 9.40625l-2.09375 0l0 -2.0625l2.09375 0l0 2.0625zm12.872437 -9.40625l0 3.375q0 3.09375 -1.390625 4.671875q-1.375 1.578125 -3.84375 1.578125q-2.46875 0 -3.84375 -1.578125q-1.375 -1.578125 -1.375 -4.671875l0 -3.375q0 -3.046875 1.375 -4.625q1.390625 -1.59375 3.84375 -1.59375q2.46875 0 3.84375 1.59375q1.390625 1.578125 1.390625 4.625zm-2.0 0q0 -2.359375 -0.859375 -3.390625q-0.84375 -1.046875 -2.375 -1.046875q-1.515625 0 -2.375 1.046875q-0.84375 1.03125 -0.84375 3.390625l0 3.375q0 2.34375 0.84375 3.421875q0.859375 1.0625 2.375 1.0625q1.53125 0 2.375 -1.0625q0.859375 -1.078125 0.859375 -3.421875l0 -3.375zm14.606995 5.71875l-1.6875 0l0 3.6875l-1.859375 0l0 -3.6875l-6.625 0l0 -1.515625q1.75 -2.65625 3.15625 -5.171875q1.421875 -2.515625 2.359375 -5.03125l2.078125 0q-0.953125 2.46875 -2.296875 4.921875q-1.34375 2.4375 -3.09375 5.046875l4.421875 0l0 -2.8125l1.859375 0l0 2.8125l1.6875 0l0 1.75zm45.67804 2.140625q1.4375 0 2.203125 -0.609375q0.765625 -0.625 0.765625 -1.828125q0 -1.0 -0.53125 -1.671875q-0.53125 -0.6875 -1.734375 -1.046875l-1.828125 -0.546875q-1.71875 -0.515625 -2.546875 -1.5625q-0.8125 -1.0625 -0.8125 -2.609375q0 -1.171875 0.46875 -2.125q0.46875 -0.953125 1.5 -1.515625q1.03125 -0.5625 2.703125 -0.5625q1.015625 0 2.09375 0.234375q1.09375 0.234375 2.203125 0.75l-0.625 1.703125q-1.09375 -0.46875 -1.96875 -0.6875q-0.875 -0.21875 -1.65625 -0.21875q-1.296875 0 -2.015625 0.53125q-0.703125 0.53125 -0.703125 1.765625q0 0.875 0.46875 1.484375q0.484375 0.59375 1.703125 0.984375l1.828125 0.53125q3.453125 1.03125 3.453125 4.40625q0 1.9375 -1.1875 3.15625q-1.171875 1.203125 -3.78125 1.203125q-1.0625 0 -2.25 -0.25q-1.1875 -0.265625 -2.453125 -0.828125l0.609375 -1.671875q1.203125 0.53125 2.15625 0.765625q0.96875 0.21875 1.9375 0.21875zm16.104675 1.65625q-1.03125 0 -1.65625 -0.46875q-0.625 -0.484375 -0.875 -1.1875q-1.109375 0.984375 -2.015625 1.375q-0.90625 0.390625 -1.8125 0.390625q-1.46875 0 -2.171875 -0.9375q-0.703125 -0.953125 -0.703125 -2.34375q0 -0.921875 0.328125 -1.640625q0.34375 -0.734375 1.15625 -1.15625q0.828125 -0.421875 2.203125 -0.421875q0.609375 0 1.328125 0.09375q0.734375 0.078125 1.484375 0.1875l0 -1.515625q0 -1.28125 -0.5625 -1.734375q-0.546875 -0.46875 -1.609375 -0.46875q-1.453125 0 -3.25 0.796875l-0.578125 -1.546875q1.03125 -0.46875 1.984375 -0.71875q0.953125 -0.25 1.9375 -0.25q1.578125 0 2.40625 0.515625q0.84375 0.515625 1.15625 1.390625q0.328125 0.859375 0.328125 1.875l0 4.84375q0 0.53125 0.203125 0.890625q0.203125 0.34375 0.8125 0.34375l0.25 0l0 1.6875l-0.34375 0zm-7.40625 -3.1875q0 0.765625 0.359375 1.25q0.375 0.46875 1.046875 0.46875q0.59375 0 1.359375 -0.34375q0.78125 -0.359375 1.90625 -1.421875l0 -1.421875q-1.546875 -0.25 -2.71875 -0.25q-1.046875 0 -1.5 0.4375q-0.453125 0.421875 -0.453125 1.28125zm16.27887 -6.5l-3.671875 0l0 9.578125l-1.859375 0l0 -9.578125l-1.953125 0l0 -1.640625l1.953125 0l0 -1.859375q0 -1.03125 0.34375 -1.921875q0.359375 -0.90625 1.140625 -1.4375q0.796875 -0.546875 2.109375 -0.546875q0.65625 0 1.390625 0.140625q0.75 0.140625 1.375 0.4375l-0.515625 1.5625q-1.15625 -0.453125 -2.015625 -0.453125q-0.953125 0 -1.46875 0.53125q-0.5 0.515625 -0.5 1.671875l0 1.875l3.671875 0l0 1.640625zm10.1640625 8.921875q-1.015625 0.5 -2.046875 0.6875q-1.015625 0.1875 -1.875 0.1875q-2.421875 0 -3.609375 -1.375q-1.1875 -1.375 -1.1875 -3.78125l0 -1.359375q0 -2.328125 1.1875 -3.734375q1.1875 -1.40625 3.359375 -1.40625q1.15625 0 2.125 0.46875q0.96875 0.453125 1.53125 1.40625q0.578125 0.9375 0.578125 2.40625q0 0.953125 -0.265625 2.171875l-6.6875 0l0 0.046875q0 1.71875 0.71875 2.609375q0.71875 0.875 2.296875 0.875q0.734375 0 1.59375 -0.171875q0.875 -0.1875 1.71875 -0.578125l0.5625 1.546875zm-4.171875 -9.15625q-1.3125 0 -1.984375 0.859375q-0.65625 0.84375 -0.734375 2.390625l5.078125 0q0.0625 -0.421875 0.0625 -0.78125q0 -1.265625 -0.71875 -1.859375q-0.703125 -0.609375 -1.703125 -0.609375z" fill-rule="nonzero"/><path fill="#000000" fill-opacity="0.0" d="m382.93832 168.2126l57.29132 0" fill-rule="evenodd"/><path stroke="#000000" stroke-width="2.0" stroke-linejoin="round" stroke-linecap="butt" d="m382.93832 168.2126l45.29132 0" fill-rule="evenodd"/><path fill="#000000" stroke="#000000" stroke-width="2.0" stroke-linecap="butt" d="m428.22964 171.51607l9.076202 -3.3034668l-9.076202 -3.3034668z" fill-rule="evenodd"/><path fill="#000000" fill-opacity="0.0" d="m224.59055 -2.7007873l234.80316 0l0 46.866142l-234.80316 0z" fill-rule="evenodd"/><path fill="#000000" d="m293.9997 21.574837l-5.578125 0l-1.15625 6.484375l-1.96875 0l2.71875 -15.406251l8.25 0l-0.34375 1.859375l-6.25 0l-0.9375 5.203126l5.59375 0l-0.328125 1.859375zm6.8078003 -7.468751l-2.078125 0l0.34375 -2.09375l2.078125 0l-0.34375 2.09375zm-2.59375 13.953126l-1.859375 0l1.984375 -11.21875l1.859375 0l-1.984375 11.21875zm11.2030945 -9.703125q-0.421875 0 -1.0 0.203125q-0.5625 0.1875 -1.3125 0.71875q-0.734375 0.53125 -1.71875 1.578125l-1.28125 7.203125l-1.859375 0l1.984375 -11.21875l1.75 0l-0.34375 2.0625q1.34375 -1.40625 2.390625 -1.84375q1.0625 -0.4375 1.890625 -0.4375q1.546875 0 2.28125 1.125q0.734375 1.109375 0.421875 2.90625l-1.3125 7.40625l-1.859375 0l1.265625 -7.25q0.453125 -2.453125 -1.296875 -2.453125zm14.030457 9.25q-0.96875 0.359375 -1.875 0.515625q-0.90625 0.15625 -1.734375 0.15625q-1.8125 0 -2.84375 -0.734375q-1.015625 -0.734375 -1.359375 -2.0q-0.34375 -1.265625 -0.09375 -2.859375l0.203125 -1.15625q0.359375 -2.21875 1.703125 -3.5625q1.359375 -1.34375 3.421875 -1.34375q1.015625 0 1.90625 0.359375q0.90625 0.359375 1.4375 1.140625q0.546875 0.765625 0.546875 1.96875q0 0.65625 -0.203125 1.390625q-0.1875 0.734375 -0.703125 1.59375l-6.546875 0q-0.203125 1.5625 0.359375 2.546875q0.578125 0.984375 2.34375 0.984375q0.625 0 1.4375 -0.140625q0.828125 -0.15625 1.703125 -0.4375l0.296875 1.578125zm-2.65625 -9.328125q-1.28125 0 -2.125 0.84375q-0.84375 0.84375 -1.09375 2.375l5.078125 0q0.1875 -0.390625 0.234375 -0.734375q0.0625 -0.34375 0.0625 -0.625q0 -0.953125 -0.609375 -1.40625q-0.609375 -0.453125 -1.546875 -0.453125zm6.1757507 3.734375l0.28125 -1.640625l6.34375 0l-0.28125 1.640625l-6.34375 0zm14.803101 5.65625q-1.4375 0.609375 -2.734375 0.609375q-1.15625 0 -1.796875 -0.5q-0.625 -0.515625 -0.8125 -1.328125q-0.171875 -0.8125 -0.015625 -1.75l1.078125 -6.21875l-1.9375 0l0.265625 -1.640625l1.96875 0l0.546875 -3.125001l1.859375 0l-0.546875 3.125001l3.671875 0l-0.296875 1.640625l-3.671875 0l-1.109375 6.21875q-0.171875 1.046875 0.15625 1.46875q0.34375 0.421875 1.0 0.421875q0.359375 0 0.875 -0.09375q0.515625 -0.109375 1.09375 -0.390625l0.40625 1.5625zm9.295288 0.390625l0.359375 -2.03125q-1.3125 1.375 -2.328125 1.8125q-1.0 0.4375 -1.8125 0.4375q-1.515625 0 -2.21875 -1.109375q-0.6875 -1.109375 -0.359375 -2.890625l1.3125 -7.4375l1.859375 0l-1.28125 7.25q-0.21875 1.25 0.109375 1.859375q0.328125 0.59375 1.046875 0.59375q0.4375 0 0.96875 -0.1875q0.546875 -0.203125 1.265625 -0.734375q0.734375 -0.546875 1.6875 -1.578125l1.265625 -7.203125l1.859375 0l-1.96875 11.21875l-1.765625 0zm12.93042 -9.703125q-0.421875 0 -1.0 0.203125q-0.5625 0.1875 -1.3125 0.71875q-0.734375 0.53125 -1.71875 1.578125l-1.28125 7.203125l-1.859375 0l1.984375 -11.21875l1.75 0l-0.34375 2.0625q1.34375 -1.40625 2.390625 -1.84375q1.0625 -0.4375 1.890625 -0.4375q1.546875 0 2.28125 1.125q0.734375 1.109375 0.421875 2.90625l-1.3125 7.40625l-1.859375 0l1.265625 -7.25q0.453125 -2.453125 -1.296875 -2.453125zm10.217957 -4.250001l-2.078125 0l0.34375 -2.09375l2.078125 0l-0.34375 2.09375zm-2.59375 13.953126l-1.859375 0l1.984375 -11.21875l1.859375 0l-1.984375 11.21875zm11.2030945 -9.703125q-0.421875 0 -1.0 0.203125q-0.5625 0.1875 -1.3125 0.71875q-0.734375 0.53125 -1.71875 1.578125l-1.28125 7.203125l-1.859375 0l1.984375 -11.21875l1.75 0l-0.34375 2.0625q1.34375 -1.40625 2.390625 -1.84375q1.0625 -0.4375 1.890625 -0.4375q1.546875 0 2.28125 1.125q0.734375 1.109375 0.421875 2.90625l-1.3125 7.40625l-1.859375 0l1.265625 -7.25q0.453125 -2.453125 -1.296875 -2.453125zm14.328857 9.703125q-0.1875 1.046875 -0.5 1.953125q-0.296875 0.90625 -0.859375 1.609375q-0.5625 0.703125 -1.515625 1.09375q-0.9375 0.390625 -2.359375 0.390625q-0.90625 0 -1.8125 -0.1875q-0.890625 -0.171875 -1.796875 -0.53125l0.484375 -1.59375q0.828125 0.34375 1.59375 0.484375q0.765625 0.15625 1.453125 0.15625q1.28125 0 1.953125 -0.40625q0.6875 -0.40625 1.0 -1.171875q0.3125 -0.75 0.5 -1.796875l0.3125 -1.796875q-1.015625 1.125 -1.953125 1.578125q-0.9375 0.4375 -1.8125 0.4375q-1.125 0 -1.859375 -0.6875q-0.71875 -0.703125 -1.0 -1.921875q-0.265625 -1.234375 -0.03125 -2.78125l0.15625 -1.109375q0.359375 -2.46875 1.6875 -3.8125q1.328125 -1.34375 3.5625 -1.34375q1.203125 0 2.359375 0.375q1.15625 0.375 2.203125 1.046875l-1.765625 10.015625zm-6.28125 -5.171875q-0.25 1.796875 0.125 2.765625q0.390625 0.953125 1.375 0.953125q0.71875 0 1.640625 -0.578125q0.9375 -0.59375 2.0 -2.109375l0.890625 -4.96875q-1.265625 -0.625 -2.421875 -0.625q-1.515625 0 -2.359375 0.921875q-0.84375 0.921875 -1.09375 2.53125l-0.15625 1.109375z" fill-rule="nonzero"/><path fill="#d5a6bd" d="m440.23096 107.58268l63.590576 50.543037l0 20.173767l-63.590576 50.54303z" fill-rule="evenodd"/><path fill="#000000" d="m458.11105 157.46555l4.4375 0l0 -4.359375l-4.4375 0l0 -1.28125l9.96875 0l0 1.28125l-4.328125 0l0 4.359375l4.328125 0l0 1.265625l-9.96875 0l0 -1.265625zm0.421875 9.369629q-0.3125 -0.65625 -0.4375 -1.3125q-0.125 -0.65625 -0.125 -1.21875q0 -1.5625 0.890625 -2.34375q0.890625 -0.765625 2.4375 -0.765625l0.890625 0q1.5 0 2.40625 0.765625q0.921875 0.78125 0.921875 2.1875q0 0.75 -0.3125 1.359375q-0.296875 0.625 -0.90625 1.0q-0.609375 0.375 -1.5625 0.375q-0.609375 0 -1.40625 -0.171875l0 -4.328125l-0.03125 0q-1.109375 0 -1.6875 0.453125q-0.5625 0.46875 -0.5625 1.5q0 0.46875 0.109375 1.03125q0.125 0.5625 0.375 1.109375l-1.0 0.359375zm5.921875 -2.6875q0 -0.859375 -0.546875 -1.296875q-0.546875 -0.421875 -1.546875 -0.46875l0 3.28125q0.265625 0.046875 0.5 0.046875q0.8125 0 1.203125 -0.46875q0.390625 -0.453125 0.390625 -1.09375zm-6.421875 10.121155q0 -0.671875 0.3125 -1.078125q0.3125 -0.40625 0.765625 -0.5625q-0.640625 -0.71875 -0.890625 -1.3125q-0.25 -0.578125 -0.25 -1.15625q0 -0.953125 0.609375 -1.421875q0.609375 -0.453125 1.515625 -0.453125q0.59375 0 1.0625 0.21875q0.46875 0.234375 0.734375 0.75q0.28125 0.53125 0.28125 1.421875q0 0.40625 -0.0625 0.875q-0.046875 0.46875 -0.109375 0.953125l0.96875 0q0.828125 0 1.125 -0.359375q0.296875 -0.359375 0.296875 -1.046875q0 -0.9375 -0.5 -2.109375l0.984375 -0.375q0.3125 0.671875 0.46875 1.28125q0.171875 0.625 0.171875 1.25q0 1.03125 -0.34375 1.5625q-0.328125 0.546875 -0.890625 0.75q-0.5625 0.21875 -1.21875 0.21875l-3.140625 0q-0.328125 0 -0.5625 0.125q-0.21875 0.140625 -0.21875 0.53125l0 0.15625l-1.109375 0l0 -0.21875zm2.078125 -4.796875q-0.5 0 -0.8125 0.234375q-0.3125 0.234375 -0.3125 0.6875q0 0.375 0.21875 0.875q0.234375 0.5 0.921875 1.234375l0.9375 0q0.15625 -1.0 0.15625 -1.765625q0 -0.671875 -0.28125 -0.96875q-0.28125 -0.296875 -0.828125 -0.296875zm-2.0 11.131805l1.015625 0q-0.65625 -0.671875 -0.90625 -1.234375q-0.25 -0.546875 -0.25 -1.125q0 -1.15625 0.875 -1.78125q0.875 -0.625 2.453125 -0.625l0.859375 0q1.53125 0 2.4375 0.765625q0.921875 0.78125 0.921875 2.234375q0 0.4375 -0.09375 0.859375q-0.09375 0.421875 -0.25 0.84375l3.78125 0l0 1.203125l-10.84375 0l0 -1.140625zm3.1875 -3.515625q-1.140625 0 -1.671875 0.359375q-0.53125 0.359375 -0.53125 1.078125q0 0.421875 0.203125 0.875q0.21875 0.453125 0.890625 1.140625l3.875 0q0.1875 -0.421875 0.265625 -0.828125q0.078125 -0.390625 0.078125 -0.765625q0 -1.0 -0.609375 -1.4375q-0.59375 -0.421875 -1.640625 -0.421875l-0.859375 0z" fill-rule="nonzero"/></g></svg>