<svg version="1.1" viewBox="0.0 0.0 1257.6089238845145 657.8267716535433" fill="none" stroke="none" stroke-linecap="square" stroke-miterlimit="10" xmlns:xlink="http://www.w3.org/1999/xlink" xmlns="http://www.w3.org/2000/svg"><clipPath id="p.0"><path d="m0 0l1257.6089 0l0 657.8268l-1257.6089 0l0 -657.8268z" clip-rule="nonzero"/></clipPath><g clip-path="url(#p.0)"><path fill="#000000" fill-opacity="0.0" d="m0 0l1257.6089 0l0 657.8268l-1257.6089 0z" fill-rule="evenodd"/><path fill="#c9daf8" d="m631.3609 585.1142l109.44879 0l0 49.763733l-109.44879 0z" fill-rule="evenodd"/><path fill="#000000" d="m662.02625 619.31604l0 -17.21875l5.359375 0q2.484375 0 3.78125 1.3125q1.3125 1.296875 1.3125 3.46875l0 1.34375q0 2.171875 -1.3125 3.5q-1.296875 1.3125 -3.78125 1.3125l-3.15625 0l0 6.28125l-2.203125 0zm5.359375 -15.140625l-3.15625 0l0 6.8125l3.15625 0q1.375 0 2.09375 -0.734375q0.71875 -0.734375 0.71875 -2.03125l0 -1.34375q0 -1.265625 -0.71875 -1.984375q-0.71875 -0.71875 -2.09375 -0.71875zm17.578186 15.265625q-1.15625 0 -1.859375 -0.53125q-0.6875 -0.53125 -0.96875 -1.3125q-1.25 1.078125 -2.265625 1.53125q-1.0 0.4375 -2.015625 0.4375q-1.640625 0 -2.4375 -1.0625q-0.78125 -1.0625 -0.78125 -2.609375q0 -1.03125 0.375 -1.84375q0.390625 -0.8125 1.296875 -1.28125q0.90625 -0.46875 2.453125 -0.46875q0.6875 0 1.5 0.09375q0.8125 0.078125 1.640625 0.203125l0 -1.6875q0 -1.421875 -0.625 -1.9375q-0.609375 -0.515625 -1.796875 -0.515625q-1.625 0 -3.625 0.875l-0.65625 -1.71875q1.15625 -0.53125 2.21875 -0.8125q1.0625 -0.28125 2.15625 -0.28125q1.78125 0 2.71875 0.59375q0.9375 0.578125 1.28125 1.546875q0.359375 0.953125 0.359375 2.09375l0 5.421875q0 0.578125 0.21875 0.984375q0.234375 0.390625 0.921875 0.390625l0.28125 0l0 1.890625l-0.390625 0zm-8.28125 -3.5625q0 0.859375 0.40625 1.390625q0.40625 0.53125 1.171875 0.53125q0.65625 0 1.515625 -0.390625q0.859375 -0.40625 2.125 -1.59375l0 -1.59375q-1.71875 -0.28125 -3.03125 -0.28125q-1.171875 0 -1.6875 0.484375q-0.5 0.484375 -0.5 1.453125zm18.18988 -7.28125q-1.140625 0 -2.21875 0.40625q-1.078125 0.40625 -2.28125 1.546875l0 8.765625l-2.078125 0l0 -12.53125l1.96875 0l0 2.015625q1.296875 -1.265625 2.375 -1.765625q1.078125 -0.515625 2.234375 -0.515625l0 2.078125zm4.920471 -4.890625l-2.328125 0l0 -2.328125l2.328125 0l0 2.328125zm-0.125 15.609375l-2.078125 0l0 -12.53125l2.078125 0l0 12.53125zm7.5443726 -1.59375q2.53125 0 2.53125 -1.71875q0 -0.734375 -0.453125 -1.15625q-0.453125 -0.4375 -1.671875 -0.75l-1.390625 -0.359375q-1.546875 -0.375 -2.3125 -1.328125q-0.765625 -0.953125 -0.765625 -2.265625q0 -0.953125 0.4375 -1.78125q0.4375 -0.828125 1.359375 -1.328125q0.9375 -0.515625 2.4375 -0.515625q0.96875 0 1.96875 0.21875q1.0 0.21875 2.03125 0.71875l-0.65625 1.75q-1.84375 -0.828125 -3.34375 -0.828125q-2.203125 0 -2.203125 1.640625q0 0.640625 0.40625 1.09375q0.40625 0.453125 1.515625 0.734375l1.390625 0.34375q1.671875 0.40625 2.453125 1.328125q0.796875 0.90625 0.796875 2.359375q0 1.03125 -0.453125 1.890625q-0.4375 0.84375 -1.421875 1.328125q-0.96875 0.46875 -2.609375 0.46875q-1.09375 0 -2.171875 -0.234375q-1.0625 -0.21875 -2.203125 -0.71875l0.546875 -1.734375q1.09375 0.4375 1.96875 0.640625q0.890625 0.203125 1.8125 0.203125z" fill-rule="nonzero"/><path fill="#c9daf8" d="m753.1877 585.1142l109.44879 0l0 49.763733l-109.44879 0z" fill-rule="evenodd"/><path fill="#000000" d="m803.6113 603.70667l-2.328125 0l0 -2.328125l2.328125 0l0 2.328125zm-0.125 15.609375l-2.078125 0l0 -12.53125l2.078125 0l0 12.53125zm7.5443726 -1.59375q2.53125 0 2.53125 -1.71875q0 -0.734375 -0.453125 -1.15625q-0.453125 -0.4375 -1.671875 -0.75l-1.390625 -0.359375q-1.546875 -0.375 -2.3125 -1.328125q-0.765625 -0.953125 -0.765625 -2.265625q0 -0.953125 0.4375 -1.78125q0.4375 -0.828125 1.359375 -1.328125q0.9375 -0.515625 2.4375 -0.515625q0.96875 0 1.96875 0.21875q1.0 0.21875 2.03125 0.71875l-0.65625 1.75q-1.84375 -0.828125 -3.34375 -0.828125q-2.203125 0 -2.203125 1.640625q0 0.640625 0.40625 1.09375q0.40625 0.453125 1.515625 0.734375l1.390625 0.34375q1.671875 0.40625 2.453125 1.328125q0.796875 0.90625 0.796875 2.359375q0 1.03125 -0.453125 1.890625q-0.4375 0.84375 -1.421875 1.328125q-0.96875 0.46875 -2.609375 0.46875q-1.09375 0 -2.171875 -0.234375q-1.0625 -0.21875 -2.203125 -0.71875l0.546875 -1.734375q1.09375 0.4375 1.96875 0.640625q0.890625 0.203125 1.8125 0.203125z" fill-rule="nonzero"/><path fill="#c9daf8" d="m875.01447 585.1142l109.44879 0l0 49.763733l-109.44879 0z" fill-rule="evenodd"/><path fill="#000000" d="m934.8861 619.44104q-1.15625 0 -1.859375 -0.53125q-0.6875 -0.53125 -0.96875 -1.3125q-1.25 1.078125 -2.265625 1.53125q-1.0 0.4375 -2.015625 0.4375q-1.640625 0 -2.4375 -1.0625q-0.78125 -1.0625 -0.78125 -2.609375q0 -1.03125 0.375 -1.84375q0.390625 -0.8125 1.296875 -1.28125q0.90625 -0.46875 2.453125 -0.46875q0.6875 0 1.5 0.09375q0.8125 0.078125 1.640625 0.203125l0 -1.6875q0 -1.421875 -0.625 -1.9375q-0.609375 -0.515625 -1.796875 -0.515625q-1.625 0 -3.625 0.875l-0.65625 -1.71875q1.15625 -0.53125 2.21875 -0.8125q1.0625 -0.28125 2.15625 -0.28125q1.78125 0 2.71875 0.59375q0.9375 0.578125 1.28125 1.546875q0.359375 0.953125 0.359375 2.09375l0 5.421875q0 0.578125 0.21875 0.984375q0.234375 0.390625 0.921875 0.390625l0.28125 0l0 1.890625l-0.390625 0zm-8.28125 -3.5625q0 0.859375 0.40625 1.390625q0.40625 0.53125 1.171875 0.53125q0.65625 0 1.515625 -0.390625q0.859375 -0.40625 2.125 -1.59375l0 -1.59375q-1.71875 -0.28125 -3.03125 -0.28125q-1.171875 0 -1.6875 0.484375q-0.5 0.484375 -0.5 1.453125z" fill-rule="nonzero"/><path fill="#c9daf8" d="m996.8412 585.1142l109.44885 0l0 49.763733l-109.44885 0z" fill-rule="evenodd"/><path fill="#000000" d="m1032.562 612.3004l0 1.5q0 1.921875 0.703125 2.90625q0.703125 0.96875 2.25 0.96875q1.53125 0 3.265625 -0.796875l0.640625 1.75q-2.078125 0.9375 -4.03125 0.9375q-2.421875 0 -3.6875 -1.546875q-1.265625 -1.546875 -1.265625 -4.21875l0 -1.5q0 -2.6875 1.265625 -4.234375q1.265625 -1.546875 3.6875 -1.546875q0.921875 0 1.890625 0.25q0.96875 0.234375 1.96875 0.671875l-0.640625 1.765625q-0.828125 -0.34375 -1.609375 -0.546875q-0.765625 -0.203125 -1.484375 -0.203125q-1.546875 0 -2.25 0.96875q-0.703125 0.96875 -0.703125 2.875zm19.774902 -0.03125l0 1.53125q0 2.671875 -1.390625 4.21875q-1.375 1.546875 -3.921875 1.546875q-2.53125 0 -3.9375 -1.546875q-1.390625 -1.546875 -1.390625 -4.21875l0 -1.53125q0 -2.625 1.375 -4.1875q1.390625 -1.5625 3.953125 -1.5625q2.546875 0 3.921875 1.5625q1.390625 1.5625 1.390625 4.1875zm-2.15625 0q0 -1.796875 -0.8125 -2.8125q-0.796875 -1.03125 -2.34375 -1.03125q-1.53125 0 -2.359375 1.03125q-0.8125 1.015625 -0.8125 2.8125l0 1.53125q0 1.875 0.8125 2.890625q0.828125 1.0 2.359375 1.0q1.546875 0 2.34375 -1.0q0.8125 -1.015625 0.8125 -2.890625l0 -1.53125zm15.858765 0l0 1.53125q0 2.671875 -1.390625 4.21875q-1.375 1.546875 -3.921875 1.546875q-2.53125 0 -3.9375 -1.546875q-1.390625 -1.546875 -1.390625 -4.21875l0 -1.53125q0 -2.625 1.375 -4.1875q1.390625 -1.5625 3.953125 -1.5625q2.546875 0 3.921875 1.5625q1.390625 1.5625 1.390625 4.1875zm-2.15625 0q0 -1.796875 -0.8125 -2.8125q-0.796875 -1.03125 -2.34375 -1.03125q-1.53125 0 -2.359375 1.03125q-0.8125 1.015625 -0.8125 2.8125l0 1.53125q0 1.875 0.8125 2.890625q0.828125 1.0 2.359375 1.0q1.546875 0 2.34375 -1.0q0.8125 -1.015625 0.8125 -2.890625l0 -1.53125zm5.9056396 4.0l0 -15.703125l2.078125 0l0 15.609375q0 0.6875 0.21875 1.03125q0.21875 0.34375 0.875 0.34375l0.40625 0l0 1.890625l-0.59375 0q-1.671875 0 -2.328125 -0.875q-0.65625 -0.890625 -0.65625 -2.296875z" fill-rule="nonzero"/><path fill="#d9d9d9" d="m1118.668 585.1142l109.44885 0l0 49.763733l-109.44885 0z" fill-rule="evenodd"/><path fill="#000000" d="m1157.3396 612.3004l0 1.5q0 1.921875 0.703125 2.90625q0.703125 0.96875 2.25 0.96875q1.53125 0 3.265625 -0.796875l0.640625 1.75q-2.078125 0.9375 -4.03125 0.9375q-2.421875 0 -3.6875 -1.546875q-1.265625 -1.546875 -1.265625 -4.21875l0 -1.5q0 -2.6875 1.265625 -4.234375q1.265625 -1.546875 3.6875 -1.546875q0.921875 0 1.890625 0.25q0.96875 0.234375 1.96875 0.671875l-0.640625 1.765625q-0.828125 -0.34375 -1.609375 -0.546875q-0.765625 -0.203125 -1.484375 -0.203125q-1.546875 0 -2.25 0.96875q-0.703125 0.96875 -0.703125 2.875zm12.106689 -8.59375l-2.328125 0l0 -2.328125l2.328125 0l0 2.328125zm-0.125 15.609375l-2.078125 0l0 -12.53125l2.078125 0l0 12.53125zm11.372437 -0.453125q-1.421875 0.703125 -3.015625 0.703125q-1.375 0 -2.15625 -0.546875q-0.765625 -0.5625 -1.078125 -1.5q-0.3125 -0.9375 -0.3125 -2.078125l0 -6.84375l-2.1875 0l0 -1.8125l2.1875 0l0 -3.5l2.078125 0l0 3.5l4.09375 0l0 1.8125l-4.09375 0l0 6.765625q0 1.3125 0.4375 1.8125q0.4375 0.5 1.375 0.5q0.46875 0 0.953125 -0.109375q0.5 -0.125 1.078125 -0.40625l0.640625 1.703125zm7.015381 1.71875q-0.8125 2.28125 -2.0 3.328125q-1.171875 1.046875 -3.28125 1.046875l0 -2.046875q0.875 -0.015625 1.484375 -0.21875q0.625 -0.203125 1.109375 -0.828125q0.5 -0.625 0.953125 -1.84375l0.265625 -0.625l-4.515625 -12.609375l2.125 0l2.109375 6.09375l1.28125 3.90625l1.25 -3.90625l2.046875 -6.09375l2.046875 0l-4.875 13.796875z" fill-rule="nonzero"/><path fill="#d9ead3" d="m799.8333 231.1334l0 0c0 -23.91542 19.38733 -43.302704 43.302734 -43.302704l173.20563 0l0 0c11.484619 0 22.49878 4.5622406 30.619629 12.683075c8.12085 8.120834 12.683105 19.13504 12.683105 30.619629l0 247.94579c0 23.915405 -19.38733 43.302704 -43.302734 43.302704l-173.20563 0c-23.915405 0 -43.302734 -19.387299 -43.302734 -43.302704z" fill-rule="evenodd"/><path fill="#000000" d="m825.6881 214.70755q0 2.390625 0.953125 3.671875q0.953125 1.28125 2.921875 1.28125q0.875 0 1.703125 -0.203125q0.84375 -0.203125 2.0 -0.71875l0.734375 1.875q-1.234375 0.5625 -2.359375 0.8125q-1.109375 0.25 -2.140625 0.25q-3.0 0 -4.546875 -1.875q-1.53125 -1.875 -1.53125 -5.09375l0 -3.796875q0 -3.21875 1.53125 -5.078125q1.546875 -1.875 4.546875 -1.875q1.03125 0 2.15625 0.25q1.125 0.25 2.296875 0.8125l-0.703125 1.890625q-2.0625 -0.90625 -3.6875 -0.90625q-1.96875 0 -2.921875 1.265625q-0.953125 1.265625 -0.953125 3.640625l0 3.796875zm20.566711 6.84375q-1.15625 0 -1.859375 -0.53125q-0.6875 -0.53125 -0.96875 -1.3125q-1.25 1.078125 -2.265625 1.53125q-1.0 0.4375 -2.015625 0.4375q-1.640625 0 -2.4375 -1.0625q-0.78125 -1.0625 -0.78125 -2.609375q0 -1.03125 0.375 -1.84375q0.390625 -0.8125 1.296875 -1.28125q0.90625 -0.46875 2.453125 -0.46875q0.6875 0 1.5 0.09375q0.8125 0.078125 1.640625 0.203125l0 -1.6875q0 -1.421875 -0.625 -1.9375q-0.609375 -0.515625 -1.796875 -0.515625q-1.625 0 -3.625 0.875l-0.65625 -1.71875q1.15625 -0.53125 2.21875 -0.8125q1.0625 -0.28125 2.15625 -0.28125q1.78125 0 2.71875 0.59375q0.9375 0.578125 1.28125 1.546875q0.359375 0.953125 0.359375 2.09375l0 5.421875q0 0.578125 0.21875 0.984375q0.234375 0.390625 0.921875 0.390625l0.28125 0l0 1.890625l-0.390625 0zm-8.28125 -3.5625q0 0.859375 0.40625 1.390625q0.40625 0.53125 1.171875 0.53125q0.65625 0 1.515625 -0.390625q0.859375 -0.40625 2.125 -1.59375l0 -1.59375q-1.71875 -0.28125 -3.03125 -0.28125q-1.171875 0 -1.6875 0.484375q-0.5 0.484375 -0.5 1.453125zm19.330505 3.4375l0 -1.765625q-1.3125 1.125 -2.359375 1.578125q-1.03125 0.4375 -2.078125 0.4375q-1.671875 0 -2.5625 -1.09375q-0.875 -1.109375 -0.875 -3.109375l0 -8.578125l2.078125 0l0 8.28125q0 1.3125 0.46875 1.9375q0.46875 0.609375 1.40625 0.609375q0.703125 0 1.59375 -0.34375q0.890625 -0.359375 2.203125 -1.421875l0 -9.0625l2.078125 0l0 12.53125l-1.953125 0zm9.502197 -1.59375q2.53125 0 2.53125 -1.71875q0 -0.734375 -0.453125 -1.15625q-0.453125 -0.4375 -1.671875 -0.75l-1.390625 -0.359375q-1.546875 -0.375 -2.3125 -1.328125q-0.765625 -0.953125 -0.765625 -2.265625q0 -0.953125 0.4375 -1.78125q0.4375 -0.828125 1.359375 -1.328125q0.9375 -0.515625 2.4375 -0.515625q0.96875 0 1.96875 0.21875q1.0 0.21875 2.03125 0.71875l-0.65625 1.75q-1.84375 -0.828125 -3.34375 -0.828125q-2.203125 0 -2.203125 1.640625q0 0.640625 0.40625 1.09375q0.40625 0.453125 1.515625 0.734375l1.390625 0.34375q1.671875 0.40625 2.453125 1.328125q0.796875 0.90625 0.796875 2.359375q0 1.03125 -0.453125 1.890625q-0.4375 0.84375 -1.421875 1.328125q-0.96875 0.46875 -2.609375 0.46875q-1.09375 0 -2.171875 -0.234375q-1.0625 -0.21875 -2.203125 -0.71875l0.546875 -1.734375q1.09375 0.4375 1.96875 0.640625q0.890625 0.203125 1.8125 0.203125zm17.010193 1.71875q-1.15625 0 -1.859375 -0.53125q-0.6875 -0.53125 -0.96875 -1.3125q-1.25 1.078125 -2.265625 1.53125q-1.0 0.4375 -2.015625 0.4375q-1.640625 0 -2.4375 -1.0625q-0.78125 -1.0625 -0.78125 -2.609375q0 -1.03125 0.375 -1.84375q0.390625 -0.8125 1.296875 -1.28125q0.90625 -0.46875 2.453125 -0.46875q0.6875 0 1.5 0.09375q0.8125 0.078125 1.640625 0.203125l0 -1.6875q0 -1.421875 -0.625 -1.9375q-0.609375 -0.515625 -1.796875 -0.515625q-1.625 0 -3.625 0.875l-0.65625 -1.71875q1.15625 -0.53125 2.21875 -0.8125q1.0625 -0.28125 2.15625 -0.28125q1.78125 0 2.71875 0.59375q0.9375 0.578125 1.28125 1.546875q0.359375 0.953125 0.359375 2.09375l0 5.421875q0 0.578125 0.21875 0.984375q0.234375 0.390625 0.921875 0.390625l0.28125 0l0 1.890625l-0.390625 0zm-8.28125 -3.5625q0 0.859375 0.40625 1.390625q0.40625 0.53125 1.171875 0.53125q0.65625 0 1.515625 -0.390625q0.859375 -0.40625 2.125 -1.59375l0 -1.59375q-1.71875 -0.28125 -3.03125 -0.28125q-1.171875 0 -1.6875 0.484375q-0.5 0.484375 -0.5 1.453125zm11.580566 0.390625l0 -15.703125l2.078125 0l0 15.609375q0 0.6875 0.21875 1.03125q0.21875 0.34375 0.875 0.34375l0.40625 0l0 1.890625l-0.59375 0q-1.671875 0 -2.328125 -0.875q-0.65625 -0.890625 -0.65625 -2.296875zm22.11444 1.0l0 2.046875l-9.421875 0l0 -17.21875l2.203125 0l0 15.171875l7.21875 0zm5.97229 -15.171875l5.25 12.765625l5.265625 -12.765625l2.5 0l0 17.21875l-2.140625 0l0 -7.375l0.265625 -6.625l-4.9375 11.96875l-2.078125 0l-4.828125 -12.03125l0.28125 6.6875l0 7.375l-2.15625 0l0 -17.21875l2.578125 0z" fill-rule="nonzero"/><defs><linearGradient id="p.1" gradientUnits="userSpaceOnUse" gradientTransform="matrix(8.670629862753868 0.0 0.0 8.670629862753868 0.0 0.0)" spreadMethod="pad" x1="118.0202656056023" y1="42.052695750092234" x2="119.52571928473684" y2="33.51375954955417"><stop offset="0.0" stop-color="#f3f3f3"/><stop offset="0.48" stop-color="#f3f3f3"/><stop offset="0.48000002" stop-color="#3d3d3d"/><stop offset="1.0" stop-color="#000000"/></linearGradient></defs><path fill="url(#p.1)" d="m830.16406 296.21405l0 0c0 -3.795044 3.076477 -6.871521 6.871521 -6.871521l185.40656 0c1.8223877 0 3.5701904 0.723938 4.8588867 2.0126038c1.2886963 1.2886658 2.0125732 3.0364685 2.0125732 4.858917l0 27.48529c0 3.795044 -3.076416 6.871521 -6.87146 6.871521l-185.40656 0c-3.795044 0 -6.871521 -3.076477 -6.871521 -6.871521z" fill-rule="evenodd"/><path fill="#000000" fill-opacity="0.0" d="m838.5026 516.7966l10.614197 0l0 10.519714l-10.614197 0z" fill-rule="evenodd"/><path fill="#000000" fill-opacity="0.0" d="m881.46594 516.7966l10.614136 0l0 10.519714l-10.614136 0z" fill-rule="evenodd"/><path fill="#000000" fill-opacity="0.0" d="m924.42926 516.7966l10.614136 0l0 10.519714l-10.614136 0z" fill-rule="evenodd"/><path fill="#000000" fill-opacity="0.0" d="m967.3925 516.7966l10.614197 0l0 10.519714l-10.614197 0z" fill-rule="evenodd"/><path fill="#000000" fill-opacity="0.0" d="m1010.35583 516.7966l10.614197 0l0 10.519714l-10.614197 0z" fill-rule="evenodd"/><path fill="#000000" fill-opacity="0.0" d="m838.5026 182.77559l10.614197 0l0 10.519684l-10.614197 0z" fill-rule="evenodd"/><path fill="#000000" fill-opacity="0.0" d="m881.46594 182.77559l10.614136 0l0 10.519684l-10.614136 0z" fill-rule="evenodd"/><path fill="#000000" fill-opacity="0.0" d="m924.42926 182.77559l10.614136 0l0 10.519684l-10.614136 0z" fill-rule="evenodd"/><path fill="#000000" fill-opacity="0.0" d="m967.3925 182.77559l10.614197 0l0 10.519684l-10.614197 0z" fill-rule="evenodd"/><path fill="#000000" fill-opacity="0.0" d="m1010.35583 182.77559l10.614197 0l0 10.519684l-10.614197 0z" fill-rule="evenodd"/><path fill="#000000" fill-opacity="0.0" d="m1092.6063 329.21915l161.57483 0l0 46.86615l-161.57483 0z" fill-rule="evenodd"/><path fill="#000000" d="m1109.2156 346.43228l0.34375 -1.859375l10.9375 0l-0.3125 1.859375l-4.484375 0l-2.40625 13.546875l-1.96875 0l2.40625 -13.546875l-4.515625 0zm17.38855 3.984375q-0.53125 0 -1.265625 0.171875q-0.71875 0.171875 -1.546875 0.703125q-0.8125 0.515625 -1.6875 1.578125l-1.234375 7.109375l-1.859375 0l1.984375 -11.21875l1.75 0l-0.359375 2.109375q1.28125 -1.421875 2.453125 -1.875q1.171875 -0.453125 2.078125 -0.453125l-0.3125 1.875zm10.049194 9.671875q-1.109375 0 -1.640625 -0.546875q-0.53125 -0.5625 -0.578125 -1.390625q-1.0625 1.15625 -2.046875 1.609375q-0.96875 0.4375 -1.828125 0.4375q-1.109375 0 -1.828125 -0.6875q-0.703125 -0.703125 -0.984375 -1.921875q-0.265625 -1.234375 -0.046875 -2.78125l0.171875 -1.109375q0.359375 -2.421875 1.6875 -3.78125q1.34375 -1.375 3.515625 -1.375q1.140625 0 2.25 0.375q1.125 0.375 2.171875 1.046875l-1.21875 6.953125q-0.125 0.6875 0.03125 1.09375q0.171875 0.390625 0.734375 0.390625l0.3125 0l-0.3125 1.6875l-0.390625 0zm-7.015625 -5.28125q-0.25 1.796875 0.125 2.765625q0.390625 0.953125 1.296875 0.953125q0.6875 0 1.59375 -0.578125q0.90625 -0.59375 1.9375 -2.0625l0.890625 -5.03125q-1.234375 -0.609375 -2.296875 -0.609375q-1.46875 0 -2.328125 0.96875q-0.84375 0.953125 -1.0625 2.484375l-0.15625 1.109375zm17.297607 -4.53125q-0.421875 0 -1.0 0.203125q-0.5625 0.1875 -1.3125 0.71875q-0.734375 0.53125 -1.71875 1.578125l-1.28125 7.203125l-1.859375 0l1.984375 -11.21875l1.75 0l-0.34375 2.0625q1.34375 -1.40625 2.390625 -1.84375q1.0625 -0.4375 1.890625 -0.4375q1.546875 0 2.28125 1.125q0.734375 1.109375 0.421875 2.90625l-1.3125 7.40625l-1.859375 0l1.265625 -7.25q0.453125 -2.453125 -1.296875 -2.453125zm8.780518 8.28125q1.3125 0 1.890625 -0.453125q0.578125 -0.453125 0.578125 -1.1875q0 -0.578125 -0.375 -0.9375q-0.359375 -0.375 -1.21875 -0.6875l-1.078125 -0.4375q-1.15625 -0.421875 -1.734375 -1.140625q-0.578125 -0.734375 -0.578125 -1.84375q0 -0.90625 0.390625 -1.65625q0.390625 -0.75 1.28125 -1.203125q0.890625 -0.46875 2.3125 -0.46875q1.75 0 3.53125 0.8125l-0.59375 1.578125q-0.8125 -0.375 -1.546875 -0.546875q-0.71875 -0.171875 -1.4375 -0.171875q-1.109375 0 -1.59375 0.40625q-0.484375 0.40625 -0.484375 1.109375q0 0.5 0.296875 0.875q0.3125 0.359375 1.0625 0.640625l1.109375 0.40625q1.234375 0.453125 1.875 1.1875q0.640625 0.71875 0.640625 1.875q0 0.890625 -0.4375 1.703125q-0.4375 0.796875 -1.40625 1.296875q-0.953125 0.484375 -2.53125 0.484375q-1.890625 0 -3.78125 -0.828125l0.578125 -1.5625q0.890625 0.375 1.671875 0.5625q0.796875 0.1875 1.578125 0.1875zm14.388184 -8.15625l-3.671875 0l-1.703125 9.578125l-1.859375 0l1.703125 -9.578125l-1.953125 0l0.265625 -1.640625l1.984375 0l0.3125 -1.859375q0.203125 -1.125 0.671875 -2.0q0.484375 -0.890625 1.328125 -1.390625q0.859375 -0.515625 2.171875 -0.515625q0.71875 0 1.40625 0.171875q0.703125 0.15625 1.3125 0.484375l-0.734375 1.484375q-1.078125 -0.453125 -1.90625 -0.453125q-0.96875 0 -1.578125 0.53125q-0.609375 0.515625 -0.8125 1.671875l-0.34375 1.875l3.6875 0l-0.28125 1.640625zm10.205444 3.734375l-0.171875 1.125q-0.359375 2.40625 -1.71875 3.671875q-1.34375 1.265625 -3.5 1.265625q-1.578125 0 -2.609375 -0.71875q-1.03125 -0.71875 -1.4375 -1.984375q-0.40625 -1.28125 -0.15625 -2.890625l0.171875 -1.15625q0.390625 -2.296875 1.703125 -3.59375q1.328125 -1.3125 3.515625 -1.3125q1.609375 0 2.625 0.75q1.015625 0.734375 1.421875 2.0q0.40625 1.25 0.15625 2.84375zm-1.921875 -0.046875q0.265625 -1.703125 -0.328125 -2.765625q-0.578125 -1.078125 -1.984375 -1.078125q-1.3125 0 -2.171875 0.84375q-0.84375 0.828125 -1.09375 2.359375l-0.171875 1.203125q-0.28125 1.75 0.3125 2.8125q0.609375 1.0625 2.0 1.0625q1.3125 0 2.15625 -0.828125q0.859375 -0.828125 1.09375 -2.4375l0.1875 -1.171875zm11.880493 -3.671875q-0.53125 0 -1.265625 0.171875q-0.71875 0.171875 -1.546875 0.703125q-0.8125 0.515625 -1.6875 1.578125l-1.234375 7.109375l-1.859375 0l1.984375 -11.21875l1.75 0l-0.359375 2.109375q1.28125 -1.421875 2.453125 -1.875q1.171875 -0.453125 2.078125 -0.453125l-0.3125 1.875zm7.7835693 -0.140625q-0.625 0 -1.578125 0.5q-0.9375 0.484375 -2.359375 2.015625l-1.265625 7.1875l-1.859375 0l1.984375 -11.21875l1.75 0l-0.34375 2.046875q1.3125 -1.390625 2.328125 -1.828125q1.03125 -0.4375 1.84375 -0.4375q1.109375 0 1.78125 0.640625q0.6875 0.625 0.84375 1.71875q1.34375 -1.4375 2.421875 -1.890625q1.09375 -0.46875 1.9375 -0.46875q1.515625 0 2.203125 1.109375q0.6875 1.109375 0.375 2.921875l-1.3125 7.40625l-1.859375 0l1.296875 -7.25q0.21875 -1.21875 -0.125 -1.828125q-0.328125 -0.625 -1.078125 -0.625q-0.40625 0 -0.96875 0.21875q-0.546875 0.203125 -1.28125 0.734375q-0.71875 0.53125 -1.703125 1.5625l-1.265625 7.1875l-1.859375 0l1.28125 -7.25q0.21875 -1.21875 -0.109375 -1.828125q-0.328125 -0.625 -1.078125 -0.625zm20.891357 9.25q-0.96875 0.359375 -1.875 0.515625q-0.90625 0.15625 -1.734375 0.15625q-1.8125 0 -2.84375 -0.734375q-1.015625 -0.734375 -1.359375 -2.0q-0.34375 -1.265625 -0.09375 -2.859375l0.203125 -1.15625q0.359375 -2.21875 1.703125 -3.5625q1.359375 -1.34375 3.421875 -1.34375q1.015625 0 1.90625 0.359375q0.90625 0.359375 1.4375 1.140625q0.546875 0.765625 0.546875 1.96875q0 0.65625 -0.203125 1.390625q-0.1875 0.734375 -0.703125 1.59375l-6.546875 0q-0.203125 1.5625 0.359375 2.546875q0.578125 0.984375 2.34375 0.984375q0.625 0 1.4375 -0.140625q0.828125 -0.15625 1.703125 -0.4375l0.296875 1.578125zm-2.65625 -9.328125q-1.28125 0 -2.125 0.84375q-0.84375 0.84375 -1.09375 2.375l5.078125 0q0.1875 -0.390625 0.234375 -0.734375q0.0625 -0.34375 0.0625 -0.625q0 -0.953125 -0.609375 -1.40625q-0.609375 -0.453125 -1.546875 -0.453125zm13.425781 0.21875q-0.53125 0 -1.265625 0.171875q-0.71875 0.171875 -1.546875 0.703125q-0.8125 0.515625 -1.6875 1.578125l-1.234375 7.109375l-1.859375 0l1.984375 -11.21875l1.75 0l-0.359375 2.109375q1.28125 -1.421875 2.453125 -1.875q1.171875 -0.453125 2.078125 -0.453125l-0.3125 1.875zm3.7366943 8.140625q1.3125 0 1.890625 -0.453125q0.578125 -0.453125 0.578125 -1.1875q0 -0.578125 -0.375 -0.9375q-0.359375 -0.375 -1.21875 -0.6875l-1.078125 -0.4375q-1.15625 -0.421875 -1.734375 -1.140625q-0.578125 -0.734375 -0.578125 -1.84375q0 -0.90625 0.390625 -1.65625q0.390625 -0.75 1.28125 -1.203125q0.890625 -0.46875 2.3125 -0.46875q1.75 0 3.53125 0.8125l-0.59375 1.578125q-0.8125 -0.375 -1.546875 -0.546875q-0.71875 -0.171875 -1.4375 -0.171875q-1.109375 0 -1.59375 0.40625q-0.484375 0.40625 -0.484375 1.109375q0 0.5 0.296875 0.875q0.3125 0.359375 1.0625 0.640625l1.109375 0.40625q1.234375 0.453125 1.875 1.1875q0.640625 0.71875 0.640625 1.875q0 0.890625 -0.4375 1.703125q-0.4375 0.796875 -1.40625 1.296875q-0.953125 0.484375 -2.53125 0.484375q-1.890625 0 -3.78125 -0.828125l0.578125 -1.5625q0.890625 0.375 1.671875 0.5625q0.796875 0.1875 1.578125 0.1875z" fill-rule="nonzero"/><path fill="#000000" fill-opacity="0.0" d="m686.0853 585.1142c0 -14.449402 39.433044 -21.674377 78.86609 -28.898804c39.433105 -7.2244263 78.86615 -14.448242 78.86615 -28.896484" fill-rule="evenodd"/><path stroke="#000000" stroke-width="2.0" stroke-linejoin="round" stroke-linecap="butt" d="m686.0853 585.1142c0 -14.449402 39.433044 -21.674377 78.86609 -28.898804c19.716553 -3.6121826 39.433105 -7.224243 54.22052 -11.739319c3.6968384 -1.1287842 7.0856323 -2.3139648 10.089294 -3.5697021c1.5018921 -0.62786865 2.9074097 -1.2733765 4.2070923 -1.9382935c0.6498413 -0.3324585 1.2732544 -0.66973877 1.8688354 -1.012146c0.2979126 -0.17114258 0.5888672 -0.34362793 0.87268066 -0.517395c0.14196777 -0.08685303 0.28204346 -0.17407227 0.42041016 -0.26159668l0.18060303 -0.1161499" fill-rule="evenodd"/><path fill="#000000" stroke="#000000" stroke-width="2.0" stroke-linecap="butt" d="m839.4927 538.9897l2.6177368 -9.29718l-7.9814453 5.439453z" fill-rule="evenodd"/><path fill="#000000" fill-opacity="0.0" d="m807.91205 585.1142c0 -14.449402 19.716553 -21.674377 39.433105 -28.898804c19.716553 -7.2244263 39.433044 -14.448242 39.433044 -28.896484" fill-rule="evenodd"/><path stroke="#000000" stroke-width="2.0" stroke-linejoin="round" stroke-linecap="butt" d="m807.91205 585.1142c0 -14.449402 19.716553 -21.674377 39.433105 -28.898804c9.858276 -3.6121826 19.716553 -7.224243 27.11023 -11.739319c1.8484497 -1.1287842 3.5427856 -2.3139648 5.0446167 -3.5697021c0.75097656 -0.62786865 1.4537354 -1.2733765 2.1035767 -1.9382935c0.16247559 -0.16619873 0.32159424 -0.33361816 0.47735596 -0.50231934l0.06866455 -0.07543945" fill-rule="evenodd"/><path fill="#000000" stroke="#000000" stroke-width="2.0" stroke-linecap="butt" d="m885.19745 539.6645l0.45300293 -9.64801l-6.548645 7.0996094z" fill-rule="evenodd"/><path fill="#000000" fill-opacity="0.0" d="m929.73883 585.1142c0 -14.449402 0.01574707 -21.674377 0.03149414 -28.898804c0.01574707 -7.2244263 0.03149414 -14.448242 0.03149414 -28.896484" fill-rule="evenodd"/><path stroke="#000000" stroke-width="2.0" stroke-linejoin="round" stroke-linecap="butt" d="m929.73883 585.1142c0 -14.449402 0.01574707 -21.674377 0.03149414 -28.898804c0.007873535 -3.6121826 0.01574707 -7.224243 0.02166748 -11.739319l0.0048217773 -5.1571655" fill-rule="evenodd"/><path fill="#000000" stroke="#000000" stroke-width="2.0" stroke-linecap="butt" d="m933.10034 539.32025l-3.2997437 -9.077576l-3.30719 9.074829z" fill-rule="evenodd"/><path fill="#000000" fill-opacity="0.0" d="m1051.5657 585.1142c0 -14.449402 -19.716553 -21.674377 -39.433105 -28.898804c-19.716553 -7.2244263 -39.433105 -14.448242 -39.433105 -28.896484" fill-rule="evenodd"/><path stroke="#000000" stroke-width="2.0" stroke-linejoin="round" stroke-linecap="butt" d="m1051.5657 585.1142c0 -14.449402 -19.716553 -21.674377 -39.433105 -28.898804c-9.858276 -3.6121826 -19.716553 -7.224243 -27.11023 -11.739319c-1.8484497 -1.1287842 -3.5428467 -2.3139648 -5.0446777 -3.5697021c-0.75097656 -0.62786865 -1.4537354 -1.2733765 -2.1035767 -1.9382935c-0.16247559 -0.16619873 -0.32159424 -0.33361816 -0.47735596 -0.50231934l-0.06866455 -0.07543945" fill-rule="evenodd"/><path fill="#000000" stroke="#000000" stroke-width="2.0" stroke-linecap="butt" d="m980.3759 537.1161l-6.548706 -7.0996094l0.45306396 9.64801z" fill-rule="evenodd"/><path fill="#c9daf8" d="m5.2769027 326.30185l109.44882 0l0 49.763763l-109.44882 0z" fill-rule="evenodd"/><path fill="#000000" d="m35.94227 360.50372l0 -17.21875l5.359375 0q2.484375 0 3.78125 1.3125q1.3125 1.296875 1.3125 3.46875l0 1.34375q0 2.171875 -1.3125 3.5q-1.296875 1.3125 -3.78125 1.3125l-3.15625 0l0 6.28125l-2.203125 0zm5.359375 -15.140625l-3.15625 0l0 6.8125l3.15625 0q1.375 0 2.09375 -0.734375q0.71875 -0.734375 0.71875 -2.03125l0 -1.34375q0 -1.265625 -0.71875 -1.984375q-0.71875 -0.71875 -2.09375 -0.71875zm17.57817 15.265625q-1.15625 0 -1.859375 -0.53125q-0.6875 -0.53125 -0.96875 -1.3125q-1.25 1.078125 -2.265625 1.53125q-1.0 0.4375 -2.015625 0.4375q-1.640625 0 -2.4375 -1.0625q-0.78125 -1.0625 -0.78125 -2.609375q0 -1.03125 0.375 -1.84375q0.390625 -0.8125 1.296875 -1.28125q0.90625 -0.46875 2.453125 -0.46875q0.6875 0 1.5 0.09375q0.8125 0.078125 1.640625 0.203125l0 -1.6875q0 -1.421875 -0.625 -1.9375q-0.609375 -0.515625 -1.796875 -0.515625q-1.625 0 -3.625 0.875l-0.65625 -1.71875q1.15625 -0.53125 2.21875 -0.8125q1.0625 -0.28125 2.15625 -0.28125q1.78125 0 2.71875 0.59375q0.9375 0.578125 1.28125 1.546875q0.359375 0.953125 0.359375 2.09375l0 5.421875q0 0.578125 0.21875 0.984375q0.234375 0.390625 0.921875 0.390625l0.28125 0l0 1.890625l-0.390625 0zm-8.28125 -3.5625q0 0.859375 0.40625 1.390625q0.40625 0.53125 1.171875 0.53125q0.65625 0 1.515625 -0.390625q0.859375 -0.40625 2.125 -1.59375l0 -1.59375q-1.71875 -0.28125 -3.03125 -0.28125q-1.171875 0 -1.6875 0.484375q-0.5 0.484375 -0.5 1.453125zm18.18991 -7.28125q-1.140625 0 -2.21875 0.40625q-1.078125 0.40625 -2.28125 1.546875l0 8.765625l-2.078125 0l0 -12.53125l1.96875 0l0 2.015625q1.296875 -1.265625 2.375 -1.765625q1.078125 -0.515625 2.234375 -0.515625l0 2.078125zm4.9204407 -4.890625l-2.328125 0l0 -2.328125l2.328125 0l0 2.328125zm-0.125 15.609375l-2.078125 0l0 -12.53125l2.078125 0l0 12.53125zm7.5443726 -1.59375q2.53125 0 2.53125 -1.71875q0 -0.734375 -0.453125 -1.15625q-0.453125 -0.4375 -1.671875 -0.75l-1.390625 -0.359375q-1.546875 -0.375 -2.3125 -1.328125q-0.765625 -0.953125 -0.765625 -2.265625q0 -0.953125 0.4375 -1.78125q0.4375 -0.828125 1.359375 -1.328125q0.9375 -0.515625 2.4375 -0.515625q0.96875 0 1.96875 0.21875q1.0 0.21875 2.03125 0.71875l-0.65625 1.75q-1.84375 -0.828125 -3.34375 -0.828125q-2.203125 0 -2.203125 1.640625q0 0.640625 0.40625 1.09375q0.40625 0.453125 1.515625 0.734375l1.390625 0.34375q1.671875 0.40625 2.453125 1.328125q0.796875 0.90625 0.796875 2.359375q0 1.03125 -0.453125 1.890625q-0.4375 0.84375 -1.421875 1.328125q-0.96875 0.46875 -2.609375 0.46875q-1.09375 0 -2.171875 -0.234375q-1.0625 -0.21875 -2.203125 -0.71875l0.546875 -1.734375q1.09375 0.4375 1.96875 0.640625q0.890625 0.203125 1.8125 0.203125z" fill-rule="nonzero"/><path fill="#c9daf8" d="m127.103676 326.30185l109.448814 0l0 49.763763l-109.448814 0z" fill-rule="evenodd"/><path fill="#000000" d="m177.52736 344.89435l-2.328125 0l0 -2.328125l2.328125 0l0 2.328125zm-0.125 15.609375l-2.078125 0l0 -12.53125l2.078125 0l0 12.53125zm7.5443726 -1.59375q2.53125 0 2.53125 -1.71875q0 -0.734375 -0.453125 -1.15625q-0.453125 -0.4375 -1.671875 -0.75l-1.390625 -0.359375q-1.546875 -0.375 -2.3125 -1.328125q-0.765625 -0.953125 -0.765625 -2.265625q0 -0.953125 0.4375 -1.78125q0.4375 -0.828125 1.359375 -1.328125q0.9375 -0.515625 2.4375 -0.515625q0.96875 0 1.96875 0.21875q1.0 0.21875 2.03125 0.71875l-0.65625 1.75q-1.84375 -0.828125 -3.34375 -0.828125q-2.203125 0 -2.203125 1.640625q0 0.640625 0.40625 1.09375q0.40625 0.453125 1.515625 0.734375l1.390625 0.34375q1.671875 0.40625 2.453125 1.328125q0.796875 0.90625 0.796875 2.359375q0 1.03125 -0.453125 1.890625q-0.4375 0.84375 -1.421875 1.328125q-0.96875 0.46875 -2.609375 0.46875q-1.09375 0 -2.171875 -0.234375q-1.0625 -0.21875 -2.203125 -0.71875l0.546875 -1.734375q1.09375 0.4375 1.96875 0.640625q0.890625 0.203125 1.8125 0.203125z" fill-rule="nonzero"/><path fill="#c9daf8" d="m248.93045 326.30185l109.44882 0l0 49.763763l-109.44882 0z" fill-rule="evenodd"/><path fill="#000000" d="m308.8021 360.62872q-1.15625 0 -1.859375 -0.53125q-0.6875 -0.53125 -0.96875 -1.3125q-1.25 1.078125 -2.265625 1.53125q-1.0 0.4375 -2.015625 0.4375q-1.640625 0 -2.4375 -1.0625q-0.78125 -1.0625 -0.78125 -2.609375q0 -1.03125 0.375 -1.84375q0.390625 -0.8125 1.296875 -1.28125q0.90625 -0.46875 2.453125 -0.46875q0.6875 0 1.5 0.09375q0.8125 0.078125 1.640625 0.203125l0 -1.6875q0 -1.421875 -0.625 -1.9375q-0.609375 -0.515625 -1.796875 -0.515625q-1.625 0 -3.625 0.875l-0.65625 -1.71875q1.15625 -0.53125 2.21875 -0.8125q1.0625 -0.28125 2.15625 -0.28125q1.78125 0 2.71875 0.59375q0.9375 0.578125 1.28125 1.546875q0.359375 0.953125 0.359375 2.09375l0 5.421875q0 0.578125 0.21875 0.984375q0.234375 0.390625 0.921875 0.390625l0.28125 0l0 1.890625l-0.390625 0zm-8.28125 -3.5625q0 0.859375 0.40625 1.390625q0.40625 0.53125 1.171875 0.53125q0.65625 0 1.515625 -0.390625q0.859375 -0.40625 2.125 -1.59375l0 -1.59375q-1.71875 -0.28125 -3.03125 -0.28125q-1.171875 0 -1.6875 0.484375q-0.5 0.484375 -0.5 1.453125z" fill-rule="nonzero"/><path fill="#c9daf8" d="m370.75723 326.30185l109.44879 0l0 49.763763l-109.44879 0z" fill-rule="evenodd"/><path fill="#000000" d="m406.47806 353.4881l0 1.5q0 1.921875 0.703125 2.90625q0.703125 0.96875 2.25 0.96875q1.53125 0 3.265625 -0.796875l0.640625 1.75q-2.078125 0.9375 -4.03125 0.9375q-2.421875 0 -3.6875 -1.546875q-1.265625 -1.546875 -1.265625 -4.21875l0 -1.5q0 -2.6875 1.265625 -4.234375q1.265625 -1.546875 3.6875 -1.546875q0.921875 0 1.890625 0.25q0.96875 0.234375 1.96875 0.671875l-0.640625 1.765625q-0.828125 -0.34375 -1.609375 -0.546875q-0.765625 -0.203125 -1.484375 -0.203125q-1.546875 0 -2.25 0.96875q-0.703125 0.96875 -0.703125 2.875zm19.77481 -0.03125l0 1.53125q0 2.671875 -1.390625 4.21875q-1.375 1.546875 -3.921875 1.546875q-2.53125 0 -3.9375 -1.546875q-1.390625 -1.546875 -1.390625 -4.21875l0 -1.53125q0 -2.625 1.375 -4.1875q1.390625 -1.5625 3.953125 -1.5625q2.546875 0 3.921875 1.5625q1.390625 1.5625 1.390625 4.1875zm-2.15625 0q0 -1.796875 -0.8125 -2.8125q-0.796875 -1.03125 -2.34375 -1.03125q-1.53125 0 -2.359375 1.03125q-0.8125 1.015625 -0.8125 2.8125l0 1.53125q0 1.875 0.8125 2.890625q0.828125 1.0 2.359375 1.0q1.546875 0 2.34375 -1.0q0.8125 -1.015625 0.8125 -2.890625l0 -1.53125zm15.858795 0l0 1.53125q0 2.671875 -1.390625 4.21875q-1.375 1.546875 -3.921875 1.546875q-2.53125 0 -3.9375 -1.546875q-1.390625 -1.546875 -1.390625 -4.21875l0 -1.53125q0 -2.625 1.375 -4.1875q1.390625 -1.5625 3.953125 -1.5625q2.546875 0 3.921875 1.5625q1.390625 1.5625 1.390625 4.1875zm-2.15625 0q0 -1.796875 -0.8125 -2.8125q-0.796875 -1.03125 -2.34375 -1.03125q-1.53125 0 -2.359375 1.03125q-0.8125 1.015625 -0.8125 2.8125l0 1.53125q0 1.875 0.8125 2.890625q0.828125 1.0 2.359375 1.0q1.546875 0 2.34375 -1.0q0.8125 -1.015625 0.8125 -2.890625l0 -1.53125zm5.9056396 4.0l0 -15.703125l2.078125 0l0 15.609375q0 0.6875 0.21875 1.03125q0.21875 0.34375 0.875 0.34375l0.40625 0l0 1.890625l-0.59375 0q-1.671875 0 -2.328125 -0.875q-0.65625 -0.890625 -0.65625 -2.296875z" fill-rule="nonzero"/><path fill="#c9daf8" d="m492.58398 326.30185l109.44885 0l0 49.763763l-109.44885 0z" fill-rule="evenodd"/><path fill="#000000" d="m531.25555 353.4881l0 1.5q0 1.921875 0.703125 2.90625q0.703125 0.96875 2.25 0.96875q1.53125 0 3.265625 -0.796875l0.640625 1.75q-2.078125 0.9375 -4.03125 0.9375q-2.421875 0 -3.6875 -1.546875q-1.265625 -1.546875 -1.265625 -4.21875l0 -1.5q0 -2.6875 1.265625 -4.234375q1.265625 -1.546875 3.6875 -1.546875q0.921875 0 1.890625 0.25q0.96875 0.234375 1.96875 0.671875l-0.640625 1.765625q-0.828125 -0.34375 -1.609375 -0.546875q-0.765625 -0.203125 -1.484375 -0.203125q-1.546875 0 -2.25 0.96875q-0.703125 0.96875 -0.703125 2.875zm12.1067505 -8.59375l-2.328125 0l0 -2.328125l2.328125 0l0 2.328125zm-0.125 15.609375l-2.078125 0l0 -12.53125l2.078125 0l0 12.53125zm11.372498 -0.453125q-1.421875 0.703125 -3.015625 0.703125q-1.375 0 -2.15625 -0.546875q-0.765625 -0.5625 -1.078125 -1.5q-0.3125 -0.9375 -0.3125 -2.078125l0 -6.84375l-2.1875 0l0 -1.8125l2.1875 0l0 -3.5l2.078125 0l0 3.5l4.09375 0l0 1.8125l-4.09375 0l0 6.765625q0 1.3125 0.4375 1.8125q0.4375 0.5 1.375 0.5q0.46875 0 0.953125 -0.109375q0.5 -0.125 1.078125 -0.40625l0.640625 1.703125zm7.01532 1.71875q-0.8125 2.28125 -2.0 3.328125q-1.171875 1.046875 -3.28125 1.046875l0 -2.046875q0.875 -0.015625 1.484375 -0.21875q0.625 -0.203125 1.109375 -0.828125q0.5 -0.625 0.953125 -1.84375l0.265625 -0.625l-4.515625 -12.609375l2.125 0l2.109375 6.09375l1.28125 3.90625l1.25 -3.90625l2.046875 -6.09375l2.046875 0l-4.875 13.796875z" fill-rule="nonzero"/><path fill="#000000" fill-opacity="0.0" d="m303.65485 376.0656c0 116.96063 163.85828 233.92126 327.71655 233.92126" fill-rule="evenodd"/><path stroke="#000000" stroke-width="2.0" stroke-linejoin="round" stroke-linecap="butt" d="m303.65485 376.0656c0 58.480316 40.96457 116.96063 102.41144 160.82086c30.72342 21.930115 66.56741 40.2052 104.97168 52.997803c19.202148 6.3963013 39.044373 11.421936 59.206604 14.848511c10.081116 1.7132568 20.242249 3.0267944 30.44336 3.9120483c5.100647 0.44256592 10.211182 0.7780762 15.326782 1.0029907c0.6394043 0.028076172 1.2789307 0.05444336 1.9185181 0.07910156l1.4399414 0.051574707" fill-rule="evenodd"/><path fill="#000000" stroke="#000000" stroke-width="2.0" stroke-linecap="butt" d="m619.31586 613.0814l9.132141 -3.1453247l-9.017456 -3.4605713z" fill-rule="evenodd"/><path fill="#000000" fill-opacity="0.0" d="m10.503937 380.46588l195.2441 0l0 46.86615l-195.2441 0z" fill-rule="evenodd"/><path fill="#000000" d="m21.175812 397.67902l0.34375 -1.859375l10.9375 0l-0.3125 1.859375l-4.484375 0l-2.40625 13.546875l-1.96875 0l2.40625 -13.546875l-4.515625 0zm17.38855 3.984375q-0.53125 0 -1.265625 0.171875q-0.71875 0.171875 -1.546875 0.703125q-0.8125 0.515625 -1.6875 1.578125l-1.234375 7.109375l-1.859375 0l1.984375 -11.21875l1.75 0l-0.359375 2.109375q1.28125 -1.421875 2.453125 -1.875q1.171875 -0.453125 2.078125 -0.453125l-0.3125 1.875zm10.049194 9.671875q-1.109375 0 -1.640625 -0.546875q-0.53125 -0.5625 -0.578125 -1.390625q-1.0625 1.15625 -2.046875 1.609375q-0.96875 0.4375 -1.828125 0.4375q-1.109375 0 -1.828125 -0.6875q-0.703125 -0.703125 -0.984375 -1.921875q-0.265625 -1.234375 -0.046875 -2.78125l0.171875 -1.109375q0.359375 -2.421875 1.6875 -3.78125q1.34375 -1.375 3.515625 -1.375q1.140625 0 2.25 0.375q1.125 0.375 2.171875 1.046875l-1.21875 6.953125q-0.125 0.6875 0.03125 1.09375q0.171875 0.390625 0.734375 0.390625l0.3125 0l-0.3125 1.6875l-0.390625 0zm-7.015625 -5.28125q-0.25 1.796875 0.125 2.765625q0.390625 0.953125 1.296875 0.953125q0.6875 0 1.59375 -0.578125q0.90625 -0.59375 1.9375 -2.0625l0.890625 -5.03125q-1.234375 -0.609375 -2.296875 -0.609375q-1.46875 0 -2.328125 0.96875q-0.84375 0.953125 -1.0625 2.484375l-0.15625 1.109375zm14.578873 -8.78125l-2.078125 0l0.34375 -2.09375l2.078125 0l-0.34375 2.09375zm-2.59375 13.953125l-1.859375 0l1.984375 -11.21875l1.859375 0l-1.984375 11.21875zm11.20311 -9.703125q-0.421875 0 -1.0 0.203125q-0.5625 0.1875 -1.3125 0.71875q-0.734375 0.53125 -1.71875 1.578125l-1.28125 7.203125l-1.859375 0l1.984375 -11.21875l1.75 0l-0.34375 2.0625q1.34375 -1.40625 2.390625 -1.84375q1.0625 -0.4375 1.890625 -0.4375q1.546875 0 2.28125 1.125q0.734375 1.109375 0.421875 2.90625l-1.3125 7.40625l-1.859375 0l1.265625 -7.25q0.453125 -2.453125 -1.296875 -2.453125zm10.217941 -4.25l-2.078125 0l0.34375 -2.09375l2.078125 0l-0.34375 2.09375zm-2.59375 13.953125l-1.859375 0l1.984375 -11.21875l1.859375 0l-1.984375 11.21875zm11.20311 -9.703125q-0.421875 0 -1.0 0.203125q-0.5625 0.1875 -1.3125 0.71875q-0.734375 0.53125 -1.71875 1.578125l-1.28125 7.203125l-1.859375 0l1.984375 -11.21875l1.75 0l-0.34375 2.0625q1.34375 -1.40625 2.390625 -1.84375q1.0625 -0.4375 1.890625 -0.4375q1.546875 0 2.28125 1.125q0.734375 1.109375 0.421875 2.90625l-1.3125 7.40625l-1.859375 0l1.265625 -7.25q0.453125 -2.453125 -1.296875 -2.453125zm14.328857 9.703125q-0.1875 1.046875 -0.5 1.953125q-0.296875 0.90625 -0.859375 1.609375q-0.5625 0.703125 -1.515625 1.09375q-0.9375 0.390625 -2.359375 0.390625q-0.90625 0 -1.8125 -0.1875q-0.890625 -0.171875 -1.796875 -0.53125l0.484375 -1.59375q0.828125 0.34375 1.59375 0.484375q0.765625 0.15625 1.453125 0.15625q1.28125 0 1.953125 -0.40625q0.6875 -0.40625 1.0 -1.171875q0.3125 -0.75 0.5 -1.796875l0.3125 -1.796875q-1.015625 1.125 -1.953125 1.578125q-0.9375 0.4375 -1.8125 0.4375q-1.125 0 -1.859375 -0.6875q-0.71875 -0.703125 -1.0 -1.921875q-0.265625 -1.234375 -0.03125 -2.78125l0.15625 -1.109375q0.359375 -2.46875 1.6875 -3.8125q1.328125 -1.34375 3.5625 -1.34375q1.203125 0 2.359375 0.375q1.15625 0.375 2.203125 1.046875l-1.765625 10.015625zm-6.28125 -5.171875q-0.25 1.796875 0.125 2.765625q0.390625 0.953125 1.375 0.953125q0.71875 0 1.640625 -0.578125q0.9375 -0.59375 2.0 -2.109375l0.890625 -4.96875q-1.265625 -0.625 -2.421875 -0.625q-1.515625 0 -2.359375 0.921875q-0.84375 0.921875 -1.09375 2.53125l-0.15625 1.109375zm18.178085 3.75q1.3125 0 1.890625 -0.453125q0.578125 -0.453125 0.578125 -1.1875q0 -0.578125 -0.375 -0.9375q-0.359375 -0.375 -1.21875 -0.6875l-1.078125 -0.4375q-1.15625 -0.421875 -1.734375 -1.140625q-0.578125 -0.734375 -0.578125 -1.84375q0 -0.90625 0.390625 -1.65625q0.390625 -0.75 1.28125 -1.203125q0.890625 -0.46875 2.3125 -0.46875q1.75 0 3.53125 0.8125l-0.59375 1.578125q-0.8125 -0.375 -1.546875 -0.546875q-0.71875 -0.171875 -1.4375 -0.171875q-1.109375 0 -1.59375 0.40625q-0.484375 0.40625 -0.484375 1.109375q0 0.5 0.296875 0.875q0.3125 0.359375 1.0625 0.640625l1.109375 0.40625q1.234375 0.453125 1.875 1.1875q0.640625 0.71875 0.640625 1.875q0 0.890625 -0.4375 1.703125q-0.4375 0.796875 -1.40625 1.296875q-0.953125 0.484375 -2.53125 0.484375q-1.890625 0 -3.78125 -0.828125l0.578125 -1.5625q0.890625 0.375 1.671875 0.5625q0.796875 0.1875 1.578125 0.1875zm15.060135 0.96875q-0.96875 0.359375 -1.875 0.515625q-0.90625 0.15625 -1.734375 0.15625q-1.8125 0 -2.84375 -0.734375q-1.015625 -0.734375 -1.359375 -2.0q-0.34375 -1.265625 -0.09375 -2.859375l0.203125 -1.15625q0.359375 -2.21875 1.703125 -3.5625q1.359375 -1.34375 3.421875 -1.34375q1.015625 0 1.90625 0.359375q0.90625 0.359375 1.4375 1.140625q0.546875 0.765625 0.546875 1.96875q0 0.65625 -0.203125 1.390625q-0.1875 0.734375 -0.703125 1.59375l-6.546875 0q-0.203125 1.5625 0.359375 2.546875q0.578125 0.984375 2.34375 0.984375q0.625 0 1.4375 -0.140625q0.828125 -0.15625 1.703125 -0.4375l0.296875 1.578125zm-2.65625 -9.328125q-1.28125 0 -2.125 0.84375q-0.84375 0.84375 -1.09375 2.375l5.078125 0q0.1875 -0.390625 0.234375 -0.734375q0.0625 -0.34375 0.0625 -0.625q0 -0.953125 -0.609375 -1.40625q-0.609375 -0.453125 -1.546875 -0.453125zm13.003876 0.078125q-0.421875 0 -1.0 0.203125q-0.5625 0.1875 -1.3125 0.71875q-0.734375 0.53125 -1.71875 1.578125l-1.28125 7.203125l-1.859375 0l1.984375 -11.21875l1.75 0l-0.34375 2.0625q1.34375 -1.40625 2.390625 -1.84375q1.0625 -0.4375 1.890625 -0.4375q1.546875 0 2.28125 1.125q0.734375 1.109375 0.421875 2.90625l-1.3125 7.40625l-1.859375 0l1.265625 -7.25q0.453125 -2.453125 -1.296875 -2.453125zm12.030441 9.3125q-1.4375 0.609375 -2.734375 0.609375q-1.15625 0 -1.796875 -0.5q-0.625 -0.515625 -0.8125 -1.328125q-0.171875 -0.8125 -0.015625 -1.75l1.078125 -6.21875l-1.9375 0l0.265625 -1.640625l1.96875 0l0.546875 -3.125l1.859375 0l-0.546875 3.125l3.671875 0l-0.296875 1.640625l-3.671875 0l-1.109375 6.21875q-0.171875 1.046875 0.15625 1.46875q0.34375 0.421875 1.0 0.421875q0.359375 0 0.875 -0.09375q0.515625 -0.109375 1.09375 -0.390625l0.40625 1.5625zm10.654663 -0.0625q-0.96875 0.359375 -1.875 0.515625q-0.90625 0.15625 -1.734375 0.15625q-1.8125 0 -2.84375 -0.734375q-1.015625 -0.734375 -1.359375 -2.0q-0.34375 -1.265625 -0.09375 -2.859375l0.203125 -1.15625q0.359375 -2.21875 1.703125 -3.5625q1.359375 -1.34375 3.421875 -1.34375q1.015625 0 1.90625 0.359375q0.90625 0.359375 1.4375 1.140625q0.546875 0.765625 0.546875 1.96875q0 0.65625 -0.203125 1.390625q-0.1875 0.734375 -0.703125 1.59375l-6.546875 0q-0.203125 1.5625 0.359375 2.546875q0.578125 0.984375 2.34375 0.984375q0.625 0 1.4375 -0.140625q0.828125 -0.15625 1.703125 -0.4375l0.296875 1.578125zm-2.65625 -9.328125q-1.28125 0 -2.125 0.84375q-0.84375 0.84375 -1.09375 2.375l5.078125 0q0.1875 -0.390625 0.234375 -0.734375q0.0625 -0.34375 0.0625 -0.625q0 -0.953125 -0.609375 -1.40625q-0.609375 -0.453125 -1.546875 -0.453125zm13.003876 0.078125q-0.421875 0 -1.0 0.203125q-0.5625 0.1875 -1.3125 0.71875q-0.734375 0.53125 -1.71875 1.578125l-1.28125 7.203125l-1.859375 0l1.984375 -11.21875l1.75 0l-0.34375 2.0625q1.34375 -1.40625 2.390625 -1.84375q1.0625 -0.4375 1.890625 -0.4375q1.546875 0 2.28125 1.125q0.734375 1.109375 0.421875 2.90625l-1.3125 7.40625l-1.859375 0l1.265625 -7.25q0.453125 -2.453125 -1.296875 -2.453125zm11.358566 -0.015625q-1.25 0 -2.09375 0.828125q-0.828125 0.828125 -1.078125 2.359375l-0.203125 1.234375q-0.28125 1.671875 0.203125 2.75q0.5 1.078125 2.125 1.078125q1.203125 0 2.75 -0.5625l0.3125 1.59375q-1.796875 0.65625 -3.21875 0.65625q-1.671875 0 -2.65625 -0.734375q-0.96875 -0.734375 -1.296875 -2.0q-0.3125 -1.265625 -0.0625 -2.859375l0.1875 -1.15625q0.390625 -2.28125 1.6875 -3.59375q1.296875 -1.3125 3.296875 -1.3125q0.8125 0 1.65625 0.234375q0.84375 0.21875 1.671875 0.625l-0.65625 1.578125q-0.703125 -0.328125 -1.375 -0.515625q-0.65625 -0.203125 -1.25 -0.203125zm12.776489 9.265625q-0.96875 0.359375 -1.875 0.515625q-0.90625 0.15625 -1.734375 0.15625q-1.8125 0 -2.84375 -0.734375q-1.015625 -0.734375 -1.359375 -2.0q-0.34375 -1.265625 -0.09375 -2.859375l0.203125 -1.15625q0.359375 -2.21875 1.703125 -3.5625q1.359375 -1.34375 3.421875 -1.34375q1.015625 0 1.90625 0.359375q0.90625 0.359375 1.4375 1.140625q0.546875 0.765625 0.546875 1.96875q0 0.65625 -0.203125 1.390625q-0.1875 0.734375 -0.703125 1.59375l-6.546875 0q-0.203125 1.5625 0.359375 2.546875q0.578125 0.984375 2.34375 0.984375q0.625 0 1.4375 -0.140625q0.828125 -0.15625 1.703125 -0.4375l0.296875 1.578125zm-2.65625 -9.328125q-1.28125 0 -2.125 0.84375q-0.84375 0.84375 -1.09375 2.375l5.078125 0q0.1875 -0.390625 0.234375 -0.734375q0.0625 -0.34375 0.0625 -0.625q0 -0.953125 -0.609375 -1.40625q-0.609375 -0.453125 -1.546875 -0.453125z" fill-rule="nonzero"/><path fill="#000000" fill-opacity="0.0" d="m1092.6063 352.65222c-15.823975 0 -23.734497 -24.440948 -31.647827 -48.881866c-7.913452 -24.440948 -15.829712 -48.881897 -31.659302 -48.881897" fill-rule="evenodd"/><path stroke="#000000" stroke-width="2.0" stroke-linejoin="round" stroke-linecap="butt" d="m1092.6063 352.65222c-15.823975 0 -23.734497 -24.440948 -31.64795 -48.881866c-3.956665 -12.2204895 -7.9140625 -24.440948 -12.860962 -33.606323c-1.2368164 -2.2913208 -2.5352783 -4.3917236 -3.9111328 -6.2534485c-0.6879883 -0.93084717 -1.3952637 -1.8020325 -2.1237793 -2.6075745c-0.3642578 -0.4028015 -0.7338867 -0.78915405 -1.1088867 -1.1583557c-0.18762207 -0.18460083 -0.3765869 -0.3649292 -0.5670166 -0.54086304l-0.037963867 -0.0345459" fill-rule="evenodd"/><path fill="#000000" stroke="#000000" stroke-width="2.0" stroke-linecap="butt" d="m1041.6372 256.52744l-9.645752 -0.49850464l7.0686035 6.5820923z" fill-rule="evenodd"/><path fill="#000000" fill-opacity="0.0" d="m1092.6063 352.65222c-15.823975 0 -23.734497 16.858276 -31.647827 33.716553c-7.913452 16.858246 -15.829712 33.716522 -31.659302 33.716522" fill-rule="evenodd"/><path stroke="#000000" stroke-width="2.0" stroke-linejoin="round" stroke-linecap="butt" d="m1092.6063 352.65222c-15.823975 0 -23.734497 16.858276 -31.64795 33.716553c-3.956665 8.429138 -7.9140625 16.858246 -12.860962 23.180115c-1.2368164 1.5804443 -2.5352783 3.0292053 -3.9111328 4.3133545c-0.6879883 0.6420593 -1.3952637 1.2429504 -2.1237793 1.7986145c-0.3642578 0.2778015 -0.7338867 0.544281 -1.1088867 0.7989502l-0.17810059 0.11904907" fill-rule="evenodd"/><path fill="#000000" stroke="#000000" stroke-width="2.0" stroke-linecap="butt" d="m1039.8102 413.41956l-7.7147217 5.8114014l9.645264 0.50717163z" fill-rule="evenodd"/><defs><linearGradient id="p.2" gradientUnits="userSpaceOnUse" gradientTransform="matrix(8.670631027248541 0.0 0.0 8.670631027248541 0.0 0.0)" spreadMethod="pad" x1="118.02388225460086" y1="48.402753315099936" x2="119.52933573154796" y2="39.86381589646095"><stop offset="0.0" stop-color="#f3f3f3"/><stop offset="0.48" stop-color="#f3f3f3"/><stop offset="0.48000002" stop-color="#3d3d3d"/><stop offset="1.0" stop-color="#000000"/></linearGradient></defs><path fill="url(#p.2)" d="m830.19556 351.2731l0 0c0 -3.795044 3.076477 -6.871521 6.871521 -6.871521l185.40656 0c1.8223877 0 3.5701904 0.7239685 4.8588867 2.0126038c1.2886963 1.2886658 2.0125732 3.0364685 2.0125732 4.858917l0 27.48529c0 3.795044 -3.076416 6.871521 -6.87146 6.871521l-185.40656 0c-3.795044 0 -6.871521 -3.076477 -6.871521 -6.871521z" fill-rule="evenodd"/><defs><linearGradient id="p.3" gradientUnits="userSpaceOnUse" gradientTransform="matrix(8.670631027248541 0.0 0.0 8.670631027248541 0.0 0.0)" spreadMethod="pad" x1="118.01994704679409" y1="54.75266517377855" x2="119.52540052374117" y2="46.213727755139566"><stop offset="0.0" stop-color="#f3f3f3"/><stop offset="0.48" stop-color="#f3f3f3"/><stop offset="0.48000002" stop-color="#3d3d3d"/><stop offset="1.0" stop-color="#000000"/></linearGradient></defs><path fill="url(#p.3)" d="m830.16144 406.33084l0 0c0 -3.795044 3.076477 -6.871521 6.871521 -6.871521l185.40656 0c1.8224487 0 3.5702515 0.7239685 4.8588257 2.0126343c1.2886963 1.2886353 2.0126953 3.036438 2.0126953 4.8588867l0 27.48529c0 3.795044 -3.076538 6.871521 -6.871521 6.871521l-185.40656 0c-3.795044 0 -6.871521 -3.076477 -6.871521 -6.871521z" fill-rule="evenodd"/><defs><linearGradient id="p.4" gradientUnits="userSpaceOnUse" gradientTransform="matrix(8.670631027248541 0.0 0.0 8.670631027248541 0.0 0.0)" spreadMethod="pad" x1="118.01994704679409" y1="61.10257703245716" x2="119.52540052374117" y2="52.563639613818175"><stop offset="0.0" stop-color="#f3f3f3"/><stop offset="0.48" stop-color="#f3f3f3"/><stop offset="0.48000002" stop-color="#3d3d3d"/><stop offset="1.0" stop-color="#000000"/></linearGradient></defs><path fill="url(#p.4)" d="m830.16144 461.38858l0 0c0 -3.795044 3.076477 -6.871521 6.871521 -6.871521l185.40656 0c1.8224487 0 3.5702515 0.7239685 4.8588257 2.0126343c1.2886963 1.2886658 2.0126953 3.036438 2.0126953 4.8588867l0 27.48529c0 3.795044 -3.076538 6.871521 -6.871521 6.871521l-185.40656 0c-3.795044 0 -6.871521 -3.076477 -6.871521 -6.871521z" fill-rule="evenodd"/><defs><linearGradient id="p.5" gradientUnits="userSpaceOnUse" gradientTransform="matrix(8.670629862753868 0.0 0.0 8.670629862753868 0.0 0.0)" spreadMethod="pad" x1="118.01996289726881" y1="35.702780673690306" x2="119.52541657640336" y2="27.163844473152242"><stop offset="0.0" stop-color="#f3f3f3"/><stop offset="0.48" stop-color="#f3f3f3"/><stop offset="0.48000002" stop-color="#3d3d3d"/><stop offset="1.0" stop-color="#000000"/></linearGradient></defs><path fill="url(#p.5)" d="m830.16144 241.15631l0 0c0 -3.795044 3.076477 -6.8715363 6.871521 -6.8715363l185.40656 0c1.8224487 0 3.5702515 0.7239685 4.8588257 2.012619c1.2886963 1.2886658 2.0126953 3.0364685 2.0126953 4.858917l0 27.48529c0 3.795044 -3.076538 6.871521 -6.871521 6.871521l-185.40656 0c-3.795044 0 -6.871521 -3.076477 -6.871521 -6.871521z" fill-rule="evenodd"/><path fill="#d9d9d9" d="m631.3583 70.426506l109.44879 0l0 49.763786l-109.44879 0z" fill-rule="evenodd"/><path fill="#000000" d="m662.0236 104.628395l0 -17.21875l5.359375 0q2.484375 0 3.78125 1.3125q1.3125 1.296875 1.3125 3.46875l0 1.34375q0 2.171875 -1.3125 3.5q-1.296875 1.3125 -3.78125 1.3125l-3.15625 0l0 6.28125l-2.203125 0zm5.359375 -15.140625l-3.15625 0l0 6.8125l3.15625 0q1.375 0 2.09375 -0.734375q0.71875 -0.734375 0.71875 -2.03125l0 -1.34375q0 -1.265625 -0.71875 -1.984375q-0.71875 -0.71875 -2.09375 -0.71875zm17.578186 15.265625q-1.15625 0 -1.859375 -0.53125q-0.6875 -0.53125 -0.96875 -1.3125q-1.25 1.078125 -2.265625 1.53125q-1.0 0.4375 -2.015625 0.4375q-1.640625 0 -2.4375 -1.0625q-0.78125 -1.0625 -0.78125 -2.609375q0 -1.03125 0.375 -1.84375q0.390625 -0.8125 1.296875 -1.28125q0.90625 -0.46875 2.453125 -0.46875q0.6875 0 1.5 0.09375q0.8125 0.078125 1.640625 0.203125l0 -1.6875q0 -1.421875 -0.625 -1.9375q-0.609375 -0.515625 -1.796875 -0.515625q-1.625 0 -3.625 0.875l-0.65625 -1.71875q1.15625 -0.53125 2.21875 -0.8125q1.0625 -0.28125 2.15625 -0.28125q1.78125 0 2.71875 0.59375q0.9375 0.578125 1.28125 1.546875q0.359375 0.953125 0.359375 2.09375l0 5.421875q0 0.578125 0.21875 0.984375q0.234375 0.390625 0.921875 0.390625l0.28125 0l0 1.890625l-0.390625 0zm-8.28125 -3.5625q0 0.859375 0.40625 1.390625q0.40625 0.53125 1.171875 0.53125q0.65625 0 1.515625 -0.390625q0.859375 -0.40625 2.125 -1.59375l0 -1.59375q-1.71875 -0.28125 -3.03125 -0.28125q-1.171875 0 -1.6875 0.484375q-0.5 0.484375 -0.5 1.453125zm18.18988 -7.28125q-1.140625 0 -2.21875 0.40625q-1.078125 0.40625 -2.28125 1.546875l0 8.765625l-2.078125 0l0 -12.53125l1.96875 0l0 2.015625q1.296875 -1.265625 2.375 -1.765625q1.078125 -0.515625 2.234375 -0.515625l0 2.078125zm4.920471 -4.890625l-2.328125 0l0 -2.328125l2.328125 0l0 2.328125zm-0.125 15.609375l-2.078125 0l0 -12.53125l2.078125 0l0 12.53125zm7.5443726 -1.59375q2.53125 0 2.53125 -1.71875q0 -0.734375 -0.453125 -1.15625q-0.453125 -0.4375 -1.671875 -0.75l-1.390625 -0.359375q-1.546875 -0.375 -2.3125 -1.328125q-0.765625 -0.953125 -0.765625 -2.265625q0 -0.953125 0.4375 -1.78125q0.4375 -0.828125 1.359375 -1.328125q0.9375 -0.515625 2.4375 -0.515625q0.96875 0 1.96875 0.21875q1.0 0.21875 2.03125 0.71875l-0.65625 1.75q-1.84375 -0.828125 -3.34375 -0.828125q-2.203125 0 -2.203125 1.640625q0 0.640625 0.40625 1.09375q0.40625 0.453125 1.515625 0.734375l1.390625 0.34375q1.671875 0.40625 2.453125 1.328125q0.796875 0.90625 0.796875 2.359375q0 1.03125 -0.453125 1.890625q-0.4375 0.84375 -1.421875 1.328125q-0.96875 0.46875 -2.609375 0.46875q-1.09375 0 -2.171875 -0.234375q-1.0625 -0.21875 -2.203125 -0.71875l0.546875 -1.734375q1.09375 0.4375 1.96875 0.640625q0.890625 0.203125 1.8125 0.203125z" fill-rule="nonzero"/><path fill="#c9daf8" d="m753.18506 70.426506l109.44879 0l0 49.763786l-109.44879 0z" fill-rule="evenodd"/><path fill="#000000" d="m803.6087 89.01902l-2.328125 0l0 -2.328125l2.328125 0l0 2.328125zm-0.125 15.609375l-2.078125 0l0 -12.53125l2.078125 0l0 12.53125zm7.5443726 -1.59375q2.53125 0 2.53125 -1.71875q0 -0.734375 -0.453125 -1.15625q-0.453125 -0.4375 -1.671875 -0.75l-1.390625 -0.359375q-1.546875 -0.375 -2.3125 -1.328125q-0.765625 -0.953125 -0.765625 -2.265625q0 -0.953125 0.4375 -1.78125q0.4375 -0.828125 1.359375 -1.328125q0.9375 -0.515625 2.4375 -0.515625q0.96875 0 1.96875 0.21875q1.0 0.21875 2.03125 0.71875l-0.65625 1.75q-1.84375 -0.828125 -3.34375 -0.828125q-2.203125 0 -2.203125 1.640625q0 0.640625 0.40625 1.09375q0.40625 0.453125 1.515625 0.734375l1.390625 0.34375q1.671875 0.40625 2.453125 1.328125q0.796875 0.90625 0.796875 2.359375q0 1.03125 -0.453125 1.890625q-0.4375 0.84375 -1.421875 1.328125q-0.96875 0.46875 -2.609375 0.46875q-1.09375 0 -2.171875 -0.234375q-1.0625 -0.21875 -2.203125 -0.71875l0.546875 -1.734375q1.09375 0.4375 1.96875 0.640625q0.890625 0.203125 1.8125 0.203125z" fill-rule="nonzero"/><path fill="#c9daf8" d="m875.01184 70.426506l109.44879 0l0 49.763786l-109.44879 0z" fill-rule="evenodd"/><path fill="#000000" d="m934.8835 104.753395q-1.15625 0 -1.859375 -0.53125q-0.6875 -0.53125 -0.96875 -1.3125q-1.25 1.078125 -2.265625 1.53125q-1.0 0.4375 -2.015625 0.4375q-1.640625 0 -2.4375 -1.0625q-0.78125 -1.0625 -0.78125 -2.609375q0 -1.03125 0.375 -1.84375q0.390625 -0.8125 1.296875 -1.28125q0.90625 -0.46875 2.453125 -0.46875q0.6875 0 1.5 0.09375q0.8125 0.078125 1.640625 0.203125l0 -1.6875q0 -1.421875 -0.625 -1.9375q-0.609375 -0.515625 -1.796875 -0.515625q-1.625 0 -3.625 0.875l-0.65625 -1.71875q1.15625 -0.53125 2.21875 -0.8125q1.0625 -0.28125 2.15625 -0.28125q1.78125 0 2.71875 0.59375q0.9375 0.578125 1.28125 1.546875q0.359375 0.953125 0.359375 2.09375l0 5.421875q0 0.578125 0.21875 0.984375q0.234375 0.390625 0.921875 0.390625l0.28125 0l0 1.890625l-0.390625 0zm-8.28125 -3.5625q0 0.859375 0.40625 1.390625q0.40625 0.53125 1.171875 0.53125q0.65625 0 1.515625 -0.390625q0.859375 -0.40625 2.125 -1.59375l0 -1.59375q-1.71875 -0.28125 -3.03125 -0.28125q-1.171875 0 -1.6875 0.484375q-0.5 0.484375 -0.5 1.453125z" fill-rule="nonzero"/><path fill="#c9daf8" d="m996.83856 70.426506l109.44879 0l0 49.763786l-109.44879 0z" fill-rule="evenodd"/><path fill="#000000" d="m1037.2583 93.784645q-0.703125 0 -1.65625 0.359375q-0.953125 0.359375 -2.28125 1.4375l0 9.046875l-2.078125 0l0 -12.53125l1.96875 0l0 1.734375q1.34375 -1.125 2.4375 -1.5625q1.109375 -0.4375 2.125 -0.4375q1.75 0 2.671875 1.109375q0.921875 1.09375 0.921875 3.125l0 8.5625l-2.078125 0l0 -8.25q0 -2.59375 -2.03125 -2.59375zm10.64978 -4.765625l-2.328125 0l0 -2.328125l2.328125 0l0 2.328125zm-0.125 15.609375l-2.078125 0l0 -12.53125l2.078125 0l0 12.53125zm5.9506836 -7.015625l0 1.5q0 1.921875 0.703125 2.90625q0.703125 0.96875 2.25 0.96875q1.53125 0 3.265625 -0.796875l0.640625 1.75q-2.078125 0.9375 -4.03125 0.9375q-2.421875 0 -3.6875 -1.546875q-1.265625 -1.546875 -1.265625 -4.21875l0 -1.5q0 -2.6875 1.265625 -4.234375q1.265625 -1.546875 3.6875 -1.546875q0.921875 0 1.890625 0.25q0.96875 0.234375 1.96875 0.671875l-0.640625 1.765625q-0.828125 -0.34375 -1.609375 -0.546875q-0.765625 -0.203125 -1.484375 -0.203125q-1.546875 0 -2.25 0.96875q-0.703125 0.96875 -0.703125 2.875zm18.946655 6.28125q-1.140625 0.5625 -2.28125 0.765625q-1.140625 0.21875 -2.109375 0.21875q-2.703125 0 -4.03125 -1.546875q-1.328125 -1.546875 -1.328125 -4.21875l0 -1.53125q0 -2.609375 1.328125 -4.171875q1.328125 -1.578125 3.75 -1.578125q1.296875 0 2.375 0.53125q1.078125 0.515625 1.71875 1.5625q0.640625 1.046875 0.640625 2.703125q0 1.0625 -0.296875 2.421875l-7.46875 0l0 0.0625q0 1.921875 0.796875 2.90625q0.796875 0.984375 2.5625 0.984375q0.8125 0 1.78125 -0.203125q0.984375 -0.203125 1.921875 -0.625l0.640625 1.71875zm-4.671875 -10.234375q-1.46875 0 -2.21875 0.953125q-0.734375 0.953125 -0.8125 2.671875l5.671875 0q0.078125 -0.453125 0.078125 -0.859375q0 -1.421875 -0.796875 -2.09375q-0.796875 -0.671875 -1.921875 -0.671875z" fill-rule="nonzero"/><path fill="#c9daf8" d="m1118.6654 70.426506l109.44873 0l0 49.763786l-109.44873 0z" fill-rule="evenodd"/><path fill="#000000" d="m1154.6031 104.17527q-1.421875 0.703125 -3.015625 0.703125q-1.375 0 -2.15625 -0.546875q-0.765625 -0.5625 -1.078125 -1.5q-0.3125 -0.9375 -0.3125 -2.078125l0 -6.84375l-2.1875 0l0 -1.8125l2.1875 0l0 -3.5l2.078125 0l0 3.5l4.09375 0l0 1.8125l-4.09375 0l0 6.765625q0 1.3125 0.4375 1.8125q0.4375 0.5 1.375 0.5q0.46875 0 0.953125 -0.109375q0.5 -0.125 1.078125 -0.40625l0.640625 1.703125zm12.656006 -6.59375l0 1.53125q0 2.671875 -1.390625 4.21875q-1.375 1.546875 -3.921875 1.546875q-2.53125 0 -3.9375 -1.546875q-1.390625 -1.546875 -1.390625 -4.21875l0 -1.53125q0 -2.625 1.375 -4.1875q1.390625 -1.5625 3.953125 -1.5625q2.546875 0 3.921875 1.5625q1.390625 1.5625 1.390625 4.1875zm-2.15625 0q0 -1.796875 -0.8125 -2.8125q-0.796875 -1.03125 -2.34375 -1.03125q-1.53125 0 -2.359375 1.03125q-0.8125 1.015625 -0.8125 2.8125l0 1.53125q0 1.875 0.8125 2.890625q0.828125 1.0 2.359375 1.0q1.546875 0 2.34375 -1.0q0.8125 -1.015625 0.8125 -2.890625l0 -1.53125zm20.944946 -5.484375l-3.203125 12.53125l-2.40625 0l-2.640625 -10.28125l-2.71875 10.28125l-2.40625 0l-3.1875 -12.53125l2.125 0l1.265625 5.234375l1.140625 5.1875l2.71875 -10.421875l2.203125 0l2.703125 10.484375l1.125 -5.21875l1.234375 -5.265625l2.046875 0zm9.041138 1.6875q-0.703125 0 -1.65625 0.359375q-0.953125 0.359375 -2.28125 1.4375l0 9.046875l-2.078125 0l0 -12.53125l1.96875 0l0 1.734375q1.34375 -1.125 2.4375 -1.5625q1.109375 -0.4375 2.125 -0.4375q1.75 0 2.671875 1.109375q0.921875 1.09375 0.921875 3.125l0 8.5625l-2.078125 0l0 -8.25q0 -2.59375 -2.03125 -2.59375z" fill-rule="nonzero"/><path fill="#000000" fill-opacity="0.0" d="m886.773 182.77559c0 -15.646286 -19.716553 -23.469757 -39.433044 -31.292587c-19.716553 -7.82283 -39.433105 -15.64505 -39.433105 -31.290085" fill-rule="evenodd"/><path stroke="#000000" stroke-width="2.0" stroke-linejoin="round" stroke-linecap="butt" d="m886.7731 182.77559c0 -15.646286 -19.716553 -23.469757 -39.433105 -31.292587c-9.858276 -3.9114227 -19.716553 -7.8226776 -27.11023 -12.711716c-1.8484497 -1.2222595 -3.5427856 -2.5056305 -5.0446777 -3.8654022c-0.7509155 -0.6798706 -1.4536743 -1.3788452 -2.1035156 -2.0988312c-0.32489014 -0.3600006 -0.6365967 -0.72525024 -0.9345093 -1.0959778l-0.17895508 -0.22627258" fill-rule="evenodd"/><path fill="#000000" stroke="#000000" stroke-width="2.0" stroke-linecap="butt" d="m815.0766 130.3668l-6.180176 -7.4226227l-0.036865234 9.658615z" fill-rule="evenodd"/><path fill="#000000" fill-opacity="0.0" d="m929.7363 182.77559c0 -15.646286 0.01574707 -23.469757 0.03149414 -31.292587c0.01574707 -7.82283 0.03149414 -15.64505 0.03149414 -31.290085" fill-rule="evenodd"/><path stroke="#000000" stroke-width="2.0" stroke-linejoin="round" stroke-linecap="butt" d="m929.7363 182.77559c0 -15.646286 0.01574707 -23.469757 0.03149414 -31.292587c0.007873535 -3.9114227 0.01574707 -7.8226776 0.021606445 -12.711716l0.0057373047 -6.578369" fill-rule="evenodd"/><path fill="#000000" stroke="#000000" stroke-width="2.0" stroke-linecap="butt" d="m933.09863 132.19405l-3.300354 -9.077332l-3.3065796 9.075073z" fill-rule="evenodd"/><path fill="#000000" fill-opacity="0.0" d="m972.69965 182.77559c0 -15.646286 19.716492 -23.469757 39.433044 -31.292587c19.716553 -7.82283 39.433105 -15.64505 39.433105 -31.290085" fill-rule="evenodd"/><path stroke="#000000" stroke-width="2.0" stroke-linejoin="round" stroke-linecap="butt" d="m972.69965 182.77559c0 -15.646286 19.716553 -23.469757 39.433044 -31.292587c9.858276 -3.9114227 19.716553 -7.8226776 27.11023 -12.711716c1.8485107 -1.2222595 3.5428467 -2.5056305 5.0446777 -3.8654022c0.75097656 -0.6798706 1.4537354 -1.3788452 2.1035156 -2.0988312c0.32495117 -0.3600006 0.6365967 -0.72525024 0.9345703 -1.0959778l0.17895508 -0.22627258" fill-rule="evenodd"/><path fill="#000000" stroke="#000000" stroke-width="2.0" stroke-linecap="butt" d="m1050.6132 132.6028l-0.036865234 -9.658615l-6.180176 7.4226227z" fill-rule="evenodd"/><path fill="#000000" fill-opacity="0.0" d="m1015.66296 182.77559c0 -15.646286 39.432983 -23.469757 78.86609 -31.292587c39.433105 -7.82283 78.86621 -15.64505 78.86621 -31.290085" fill-rule="evenodd"/><path stroke="#000000" stroke-width="2.0" stroke-linejoin="round" stroke-linecap="butt" d="m1015.66296 182.77559c0 -15.646286 39.433105 -23.469757 78.86621 -31.292587c19.71643 -3.9114227 39.432983 -7.8226776 54.22046 -12.711716c7.3936768 -2.444519 13.555054 -5.133484 17.868042 -8.189133l0.35266113 -0.25416565" fill-rule="evenodd"/><path fill="#000000" stroke="#000000" stroke-width="2.0" stroke-linecap="butt" d="m1169.7604 132.09671l2.069458 -9.43438l-7.649658 5.89695z" fill-rule="evenodd"/><path fill="#000000" fill-opacity="0.0" d="m807.9094 120.19029c0 16.761917 -156.51965 7.760048 -313.03934 33.52382c-156.51968 25.763794 -313.03937 86.29321 -313.03937 172.58643" fill-rule="evenodd"/><path stroke="#ff0000" stroke-width="3.0" stroke-linejoin="round" stroke-linecap="butt" stroke-dasharray="12.0,9.0" d="m807.9094 120.19029c0 16.761917 -156.51965 7.760048 -313.03934 33.52382c-156.51968 25.763794 -313.03937 86.29321 -313.03937 172.58643" fill-rule="evenodd"/><path fill="#000000" fill-opacity="0.0" d="m929.7362 120.19029c0 22.95964 -156.51965 20.155518 -313.03937 45.919296c-156.51968 25.763779 -313.03937 80.095474 -313.03937 160.19095" fill-rule="evenodd"/><path stroke="#ff0000" stroke-width="3.0" stroke-linejoin="round" stroke-linecap="butt" stroke-dasharray="12.0,9.0" d="m929.7362 120.19029c0 22.95964 -156.51965 20.155518 -313.03937 45.919296c-156.51968 25.763779 -313.03937 80.095474 -313.03937 160.19095" fill-rule="evenodd"/><path fill="#000000" fill-opacity="0.0" d="m1051.563 120.19029c0 23.78511 -156.51965 21.806458 -313.03937 47.570236c-156.51965 25.763779 -313.03937 79.270004 -313.03937 158.54001" fill-rule="evenodd"/><path stroke="#ff0000" stroke-width="3.0" stroke-linejoin="round" stroke-linecap="butt" stroke-dasharray="12.0,9.0" d="m1051.563 120.19029c0 23.78511 -156.51965 21.806458 -313.03937 47.570236c-156.51965 25.763779 -313.03937 79.270004 -313.03937 158.54001" fill-rule="evenodd"/><path fill="#000000" fill-opacity="0.0" d="m1173.3898 120.19029c0 23.78511 -156.51971 21.806458 -313.03937 47.570236c-156.51971 25.763779 -313.03937 79.270004 -313.03937 158.54001" fill-rule="evenodd"/><path stroke="#ff0000" stroke-width="3.0" stroke-linejoin="round" stroke-linecap="butt" stroke-dasharray="12.0,9.0" d="m1173.3898 120.19029c0 23.78511 -156.51971 21.806458 -313.03937 47.570236c-156.51971 25.763779 -313.03937 79.270004 -313.03937 158.54001" fill-rule="evenodd"/><path fill="#000000" fill-opacity="0.0" d="m163.34908 111.92913l476.0 0l0 46.866142l-476.0 0z" fill-rule="evenodd"/><path fill="#ff0000" d="m315.30618 136.32976q-0.40625 2.265625 0.265625 3.53125q0.671875 1.25 2.40625 1.25q0.625 0 1.46875 -0.125q0.84375 -0.125 1.9375 -0.546875l0.46875 1.703125q-1.15625 0.4375 -2.203125 0.59375q-1.046875 0.171875 -1.875 0.171875q-1.734375 0 -2.875 -0.8125q-1.125 -0.8125 -1.546875 -2.296875q-0.421875 -1.484375 -0.078125 -3.46875l0.5 -2.953125q0.546875 -3.109375 2.03125 -4.703125q1.484375 -1.609375 4.21875 -1.609375q0.921875 0 1.890625 0.234375q0.96875 0.21875 1.9375 0.703125l-0.703125 1.75q-0.921875 -0.453125 -1.6875 -0.65625q-0.765625 -0.203125 -1.53125 -0.203125q-1.71875 0 -2.734375 1.171875q-1.0 1.15625 -1.390625 3.3125l-0.5 2.953125zm16.280212 -3.203125q-0.53125 0 -1.265625 0.171875q-0.71875 0.171875 -1.546875 0.703125q-0.8125 0.515625 -1.6875 1.578125l-1.234375 7.109375l-1.859375 0l1.984375 -11.21875l1.75 0l-0.359375 2.109375q1.28125 -1.421875 2.453125 -1.875q1.171875 -0.453125 2.078125 -0.453125l-0.3125 1.875zm10.658569 3.71875l-0.171875 1.125q-0.359375 2.40625 -1.71875 3.671875q-1.34375 1.265625 -3.5 1.265625q-1.578125 0 -2.609375 -0.71875q-1.03125 -0.71875 -1.4375 -1.984375q-0.40625 -1.28125 -0.15625 -2.890625l0.171875 -1.15625q0.390625 -2.296875 1.703125 -3.59375q1.328125 -1.3125 3.515625 -1.3125q1.609375 0 2.625 0.75q1.015625 0.734375 1.421875 2.0q0.40625 1.25 0.15625 2.84375zm-1.921875 -0.046875q0.265625 -1.703125 -0.328125 -2.765625q-0.578125 -1.078125 -1.984375 -1.078125q-1.3125 0 -2.171875 0.84375q-0.84375 0.828125 -1.09375 2.359375l-0.171875 1.203125q-0.28125 1.75 0.3125 2.8125q0.609375 1.0625 2.0 1.0625q1.3125 0 2.15625 -0.828125q0.859375 -0.828125 1.09375 -2.4375l0.1875 -1.171875zm7.302307 4.46875q1.3125 0 1.890625 -0.453125q0.578125 -0.453125 0.578125 -1.1875q0 -0.578125 -0.375 -0.9375q-0.359375 -0.375 -1.21875 -0.6875l-1.078125 -0.4375q-1.15625 -0.421875 -1.734375 -1.140625q-0.578125 -0.734375 -0.578125 -1.84375q0 -0.90625 0.390625 -1.65625q0.390625 -0.75 1.28125 -1.203125q0.890625 -0.46875 2.3125 -0.46875q1.75 0 3.53125 0.8125l-0.59375 1.578125q-0.8125 -0.375 -1.546875 -0.546875q-0.71875 -0.171875 -1.4375 -0.171875q-1.109375 0 -1.59375 0.40625q-0.484375 0.40625 -0.484375 1.109375q0 0.5 0.296875 0.875q0.3125 0.359375 1.0625 0.640625l1.109375 0.40625q1.234375 0.453125 1.875 1.1875q0.640625 0.71875 0.640625 1.875q0 0.890625 -0.4375 1.703125q-0.4375 0.796875 -1.40625 1.296875q-0.953125 0.484375 -2.53125 0.484375q-1.890625 0 -3.78125 -0.828125l0.578125 -1.5625q0.890625 0.375 1.671875 0.5625q0.796875 0.1875 1.578125 0.1875zm9.81015 0q1.3125 0 1.890625 -0.453125q0.578125 -0.453125 0.578125 -1.1875q0 -0.578125 -0.375 -0.9375q-0.359375 -0.375 -1.21875 -0.6875l-1.078125 -0.4375q-1.15625 -0.421875 -1.734375 -1.140625q-0.578125 -0.734375 -0.578125 -1.84375q0 -0.90625 0.390625 -1.65625q0.390625 -0.75 1.28125 -1.203125q0.890625 -0.46875 2.3125 -0.46875q1.75 0 3.53125 0.8125l-0.59375 1.578125q-0.8125 -0.375 -1.546875 -0.546875q-0.71875 -0.171875 -1.4375 -0.171875q-1.109375 0 -1.59375 0.40625q-0.484375 0.40625 -0.484375 1.109375q0 0.5 0.296875 0.875q0.3125 0.359375 1.0625 0.640625l1.109375 0.40625q1.234375 0.453125 1.875 1.1875q0.640625 0.71875 0.640625 1.875q0 0.890625 -0.4375 1.703125q-0.4375 0.796875 -1.40625 1.296875q-0.953125 0.484375 -2.53125 0.484375q-1.890625 0 -3.78125 -0.828125l0.578125 -1.5625q0.890625 0.375 1.671875 0.5625q0.796875 0.1875 1.578125 0.1875zm6.9115906 -4.625l0.28125 -1.640625l6.34375 0l-0.28125 1.640625l-6.34375 0zm16.8031 5.59375q-0.96875 0.359375 -1.875 0.515625q-0.90625 0.15625 -1.734375 0.15625q-1.8125 0 -2.84375 -0.734375q-1.015625 -0.734375 -1.359375 -2.0q-0.34375 -1.265625 -0.09375 -2.859375l0.203125 -1.15625q0.359375 -2.21875 1.703125 -3.5625q1.359375 -1.34375 3.421875 -1.34375q1.015625 0 1.90625 0.359375q0.90625 0.359375 1.4375 1.140625q0.546875 0.765625 0.546875 1.96875q0 0.65625 -0.203125 1.390625q-0.1875 0.734375 -0.703125 1.59375l-6.546875 0q-0.203125 1.5625 0.359375 2.546875q0.578125 0.984375 2.34375 0.984375q0.625 0 1.4375 -0.140625q0.828125 -0.15625 1.703125 -0.4375l0.296875 1.578125zm-2.65625 -9.328125q-1.28125 0 -2.125 0.84375q-0.84375 0.84375 -1.09375 2.375l5.078125 0q0.1875 -0.390625 0.234375 -0.734375q0.0625 -0.34375 0.0625 -0.625q0 -0.953125 -0.609375 -1.40625q-0.609375 -0.453125 -1.546875 -0.453125zm13.003876 0.078125q-0.421875 0 -1.0 0.203125q-0.5625 0.1875 -1.3125 0.71875q-0.734375 0.53125 -1.71875 1.578125l-1.28125 7.203125l-1.859375 0l1.984375 -11.21875l1.75 0l-0.34375 2.0625q1.34375 -1.40625 2.390625 -1.84375q1.0625 -0.4375 1.890625 -0.4375q1.546875 0 2.28125 1.125q0.734375 1.109375 0.421875 2.90625l-1.3125 7.40625l-1.859375 0l1.265625 -7.25q0.453125 -2.453125 -1.296875 -2.453125zm12.030426 9.3125q-1.4375 0.609375 -2.734375 0.609375q-1.15625 0 -1.796875 -0.5q-0.625 -0.515625 -0.8125 -1.328125q-0.171875 -0.8125 -0.015625 -1.75l1.078125 -6.21875l-1.9375 0l0.265625 -1.640625l1.96875 0l0.546875 -3.125l1.859375 0l-0.546875 3.125l3.671875 0l-0.296875 1.640625l-3.671875 0l-1.109375 6.21875q-0.171875 1.046875 0.15625 1.46875q0.34375 0.421875 1.0 0.421875q0.359375 0 0.875 -0.09375q0.515625 -0.109375 1.09375 -0.390625l0.40625 1.5625zm9.982788 -9.171875q-0.53125 0 -1.265625 0.171875q-0.71875 0.171875 -1.546875 0.703125q-0.8125 0.515625 -1.6875 1.578125l-1.234375 7.109375l-1.859375 0l1.984375 -11.21875l1.75 0l-0.359375 2.109375q1.28125 -1.421875 2.453125 -1.875q1.171875 -0.453125 2.078125 -0.453125l-0.3125 1.875zm10.658569 3.71875l-0.171875 1.125q-0.359375 2.40625 -1.71875 3.671875q-1.34375 1.265625 -3.5 1.265625q-1.578125 0 -2.609375 -0.71875q-1.03125 -0.71875 -1.4375 -1.984375q-0.40625 -1.28125 -0.15625 -2.890625l0.171875 -1.15625q0.390625 -2.296875 1.703125 -3.59375q1.328125 -1.3125 3.515625 -1.3125q1.609375 0 2.625 0.75q1.015625 0.734375 1.421875 2.0q0.40625 1.25 0.15625 2.84375zm-1.921875 -0.046875q0.265625 -1.703125 -0.328125 -2.765625q-0.578125 -1.078125 -1.984375 -1.078125q-1.3125 0 -2.171875 0.84375q-0.84375 0.828125 -1.09375 2.359375l-0.171875 1.203125q-0.28125 1.75 0.3125 2.8125q0.609375 1.0625 2.0 1.0625q1.3125 0 2.15625 -0.828125q0.859375 -0.828125 1.09375 -2.4375l0.1875 -1.171875zm9.067963 6.109375q-0.78125 0 -1.484375 -0.1875q-0.6875 -0.171875 -1.375 -0.484375l-0.921875 5.28125l-1.859375 0l2.84375 -16.046875l1.75 0l-0.359375 2.046875q1.078125 -1.265625 2.046875 -1.765625q0.984375 -0.5 1.84375 -0.5q1.140625 0 1.859375 0.703125q0.734375 0.703125 1.015625 1.921875q0.28125 1.21875 0.046875 2.78125l-0.15625 1.09375q-0.359375 2.46875 -1.703125 3.8125q-1.328125 1.34375 -3.546875 1.34375zm1.96875 -9.953125q-0.703125 0 -1.640625 0.640625q-0.921875 0.625 -2.046875 2.1875l-0.84375 4.796875q1.25 0.65625 2.421875 0.65625q1.546875 0 2.390625 -0.9375q0.84375 -0.9375 1.078125 -2.546875l0.15625 -1.09375q0.25 -1.78125 -0.140625 -2.734375q-0.375 -0.96875 -1.375 -0.96875zm9.086517 10.859375q-0.78125 1.4375 -1.546875 2.296875q-0.75 0.859375 -1.671875 1.234375q-0.90625 0.390625 -2.15625 0.390625l0.3125 -1.828125q0.796875 -0.03125 1.34375 -0.21875q0.546875 -0.171875 1.046875 -0.71875q0.515625 -0.53125 1.125 -1.640625l0.40625 -0.703125l-2.015625 -11.15625l1.84375 0l0.953125 5.46875l0.515625 3.4375l1.703125 -3.4375l2.78125 -5.46875l1.921875 0l-5.953125 11.21875l-0.609375 1.125zm12.476532 -3.953125l2.453125 -13.9375l1.859375 0l-2.453125 13.953125q-0.09375 0.640625 0.03125 0.9375q0.125 0.296875 0.765625 0.296875l0.34375 0l-0.328125 1.6875l-0.375 0q-1.5625 0 -2.046875 -0.828125q-0.46875 -0.828125 -0.25 -2.109375zm15.449982 -3.015625l-0.171875 1.125q-0.359375 2.40625 -1.71875 3.671875q-1.34375 1.265625 -3.5 1.265625q-1.578125 0 -2.609375 -0.71875q-1.03125 -0.71875 -1.4375 -1.984375q-0.40625 -1.28125 -0.15625 -2.890625l0.171875 -1.15625q0.390625 -2.296875 1.703125 -3.59375q1.328125 -1.3125 3.515625 -1.3125q1.609375 0 2.625 0.75q1.015625 0.734375 1.421875 2.0q0.40625 1.25 0.15625 2.84375zm-1.921875 -0.046875q0.265625 -1.703125 -0.328125 -2.765625q-0.578125 -1.078125 -1.984375 -1.078125q-1.3125 0 -2.171875 0.84375q-0.84375 0.828125 -1.09375 2.359375l-0.171875 1.203125q-0.28125 1.75 0.3125 2.8125q0.609375 1.0625 2.0 1.0625q1.3125 0 2.15625 -0.828125q0.859375 -0.828125 1.09375 -2.4375l0.1875 -1.171875zm7.302307 4.46875q1.3125 0 1.890625 -0.453125q0.578125 -0.453125 0.578125 -1.1875q0 -0.578125 -0.375 -0.9375q-0.359375 -0.375 -1.21875 -0.6875l-1.078125 -0.4375q-1.15625 -0.421875 -1.734375 -1.140625q-0.578125 -0.734375 -0.578125 -1.84375q0 -0.90625 0.390625 -1.65625q0.390625 -0.75 1.28125 -1.203125q0.890625 -0.46875 2.3125 -0.46875q1.75 0 3.53125 0.8125l-0.59375 1.578125q-0.8125 -0.375 -1.546875 -0.546875q-0.71875 -0.171875 -1.4375 -0.171875q-1.109375 0 -1.59375 0.40625q-0.484375 0.40625 -0.484375 1.109375q0 0.5 0.296875 0.875q0.3125 0.359375 1.0625 0.640625l1.109375 0.40625q1.234375 0.453125 1.875 1.1875q0.640625 0.71875 0.640625 1.875q0 0.890625 -0.4375 1.703125q-0.4375 0.796875 -1.40625 1.296875q-0.953125 0.484375 -2.53125 0.484375q-1.890625 0 -3.78125 -0.828125l0.578125 -1.5625q0.890625 0.375 1.671875 0.5625q0.796875 0.1875 1.578125 0.1875zm9.81015 0q1.3125 0 1.890625 -0.453125q0.578125 -0.453125 0.578125 -1.1875q0 -0.578125 -0.375 -0.9375q-0.359375 -0.375 -1.21875 -0.6875l-1.078125 -0.4375q-1.15625 -0.421875 -1.734375 -1.140625q-0.578125 -0.734375 -0.578125 -1.84375q0 -0.90625 0.390625 -1.65625q0.390625 -0.75 1.28125 -1.203125q0.890625 -0.46875 2.3125 -0.46875q1.75 0 3.53125 0.8125l-0.59375 1.578125q-0.8125 -0.375 -1.546875 -0.546875q-0.71875 -0.171875 -1.4375 -0.171875q-1.109375 0 -1.59375 0.40625q-0.484375 0.40625 -0.484375 1.109375q0 0.5 0.296875 0.875q0.3125 0.359375 1.0625 0.640625l1.109375 0.40625q1.234375 0.453125 1.875 1.1875q0.640625 0.71875 0.640625 1.875q0 0.890625 -0.4375 1.703125q-0.4375 0.796875 -1.40625 1.296875q-0.953125 0.484375 -2.53125 0.484375q-1.890625 0 -3.78125 -0.828125l0.578125 -1.5625q0.890625 0.375 1.671875 0.5625q0.796875 0.1875 1.578125 0.1875z" fill-rule="nonzero"/><path fill="#000000" fill-opacity="0.0" d="m1051.563 70.426506c0 -25.709312 -91.370056 -51.426506 -182.74017 -51.418633c-91.370056 0.0078754425 -182.74011 25.740814 -182.74011 51.48163" fill-rule="evenodd"/><path stroke="#6aa84f" stroke-width="2.0" stroke-linejoin="round" stroke-linecap="butt" stroke-dasharray="8.0,6.0" d="m1051.563 70.426506c0 -25.709316 -91.370056 -51.426506 -182.74017 -51.418633c-45.684998 0.0039367676 -91.370056 6.4391403 -125.63385 16.090961c-17.131897 4.8259125 -31.408447 10.455975 -41.40204 16.488365c-2.498352 1.5080986 -4.729126 3.041336 -6.669861 4.593445c-0.9703369 0.7760582 -1.8682251 1.5568275 -2.690796 2.3415298c-0.20562744 0.19617462 -0.40655518 0.39259338 -0.6027832 0.5892525c-0.098083496 0.09832764 -0.19494629 0.19671631 -0.2906494 0.29515457l-0.25500488 0.2657547" fill-rule="evenodd"/><path fill="#6aa84f" stroke="#6aa84f" stroke-width="2.0" stroke-linecap="butt" d="m688.2999 58.242188l-0.95147705 9.61171l6.9071655 -6.7514114z" fill-rule="evenodd"/><path fill="#000000" fill-opacity="0.0" d="m1051.563 70.426506c0 -19.097767 -60.91339 -38.203407 -121.82678 -38.195534c-60.91339 0.007873535 -121.82678 19.129265 -121.82678 38.25853" fill-rule="evenodd"/><path stroke="#6aa84f" stroke-width="2.0" stroke-linejoin="round" stroke-linecap="butt" stroke-dasharray="8.0,6.0" d="m1051.563 70.426506c0 -19.097767 -60.91339 -38.203407 -121.82678 -38.195534c-30.456665 0.0039367676 -60.91339 4.786251 -83.75592 11.958744c-11.421204 3.5862427 -20.938965 7.770031 -27.601318 12.252838c-1.6656494 1.1207047 -3.152771 2.2600937 -4.446533 3.4135056l-0.17199707 0.15649033" fill-rule="evenodd"/><path fill="#6aa84f" stroke="#6aa84f" stroke-width="2.0" stroke-linecap="butt" d="m810.8762 58.40185l-1.5411987 9.534939l7.3095703 -6.3135414z" fill-rule="evenodd"/><path fill="#000000" fill-opacity="0.0" d="m1051.563 70.426506c0 -12.499996 -30.456665 -25.00787 -60.91339 -24.999996c-30.456665 0.007873535 -60.91339 12.531494 -60.91339 25.062992" fill-rule="evenodd"/><path stroke="#6aa84f" stroke-width="2.0" stroke-linejoin="round" stroke-linecap="butt" stroke-dasharray="8.0,6.0" d="m1051.563 70.426506c0 -12.499996 -30.456665 -25.00787 -60.91339 -24.999996c-15.2283325 0.0039367676 -30.456665 3.1368103 -41.87793 7.8351364c-2.8553467 1.1745834 -5.4727173 2.4470062 -7.7926636 3.7928352c-1.1599121 0.6729202 -2.2455444 1.3641891 -3.2494507 2.0707588c-0.5018921 0.35328674 -0.9833374 0.7103958 -1.4433594 1.0709496l-0.16638184 0.13216019" fill-rule="evenodd"/><path fill="#6aa84f" stroke="#6aa84f" stroke-width="2.0" stroke-linecap="butt" d="m933.32263 58.571003l-2.0310059 9.44273l7.6254883 -5.9280357z" fill-rule="evenodd"/><path fill="#000000" fill-opacity="0.0" d="m1029.2992 8.417323l184.81897 0l0 46.866142l-184.81897 0z" fill-rule="evenodd"/><path fill="#6aa84f" d="m1060.7257 39.177322l-0.515625 -3.578125l-5.796875 0l-1.796875 3.578125l-2.015625 0l7.8125 -15.406252l1.859375 0l2.421875 15.406252l-1.96875 0zm-4.125 -8.015627l-1.3125 2.640627l4.640625 0l-0.375 -2.640627l-0.640625 -4.71875l-2.3125 4.71875zm14.702148 7.625002q-1.4375 0.609375 -2.734375 0.609375q-1.15625 0 -1.796875 -0.5q-0.625 -0.515625 -0.8125 -1.328125q-0.171875 -0.8125 -0.015625 -1.75l1.078125 -6.218752l-1.9375 0l0.265625 -1.640625l1.96875 0l0.546875 -3.125l1.859375 0l-0.546875 3.125l3.671875 0l-0.296875 1.640625l-3.671875 0l-1.109375 6.218752q-0.171875 1.046875 0.15625 1.46875q0.34375 0.421875 1.0 0.421875q0.359375 0 0.875 -0.09375q0.515625 -0.109375 1.09375 -0.390625l0.40625 1.5625zm8.654663 0q-1.4375 0.609375 -2.734375 0.609375q-1.15625 0 -1.796875 -0.5q-0.625 -0.515625 -0.8125 -1.328125q-0.171875 -0.8125 -0.015625 -1.75l1.078125 -6.218752l-1.9375 0l0.265625 -1.640625l1.96875 0l0.546875 -3.125l1.859375 0l-0.546875 3.125l3.671875 0l-0.296875 1.640625l-3.671875 0l-1.109375 6.218752q-0.171875 1.046875 0.15625 1.46875q0.34375 0.421875 1.0 0.421875q0.359375 0 0.875 -0.09375q0.515625 -0.109375 1.09375 -0.390625l0.40625 1.5625zm10.654663 -0.0625q-0.96875 0.359375 -1.875 0.515625q-0.90625 0.15625 -1.734375 0.15625q-1.8125 0 -2.84375 -0.734375q-1.015625 -0.734375 -1.359375 -2.0q-0.34375 -1.265625 -0.09375 -2.859375l0.203125 -1.15625q0.359375 -2.218752 1.703125 -3.562502q1.359375 -1.34375 3.421875 -1.34375q1.015625 0 1.90625 0.359375q0.90625 0.359375 1.4375 1.140625q0.546875 0.765625 0.546875 1.96875q0 0.65625 -0.203125 1.3906269q-0.1875 0.734375 -0.703125 1.59375l-6.546875 0q-0.203125 1.5625 0.359375 2.546875q0.578125 0.984375 2.34375 0.984375q0.625 0 1.4375 -0.140625q0.828125 -0.15625 1.703125 -0.4375l0.296875 1.578125zm-2.65625 -9.328127q-1.28125 0 -2.125 0.84375q-0.84375 0.84375 -1.09375 2.375002l5.078125 0q0.1875 -0.390625 0.234375 -0.7343769q0.0625 -0.34375 0.0625 -0.625q0 -0.953125 -0.609375 -1.40625q-0.609375 -0.453125 -1.546875 -0.453125zm13.003906 0.078125q-0.421875 0 -1.0 0.203125q-0.5625 0.1875 -1.3125 0.71875q-0.734375 0.53125 -1.71875 1.578125l-1.28125 7.203127l-1.859375 0l1.984375 -11.218752l1.75 0l-0.34375 2.0625q1.34375 -1.40625 2.390625 -1.84375q1.0625 -0.4375 1.890625 -0.4375q1.546875 0 2.28125 1.125q0.734375 1.109375 0.421875 2.90625l-1.3125 7.406252l-1.859375 0l1.265625 -7.250002q0.453125 -2.453125 -1.296875 -2.453125zm12.030518 9.312502q-1.4375 0.609375 -2.734375 0.609375q-1.15625 0 -1.796875 -0.5q-0.625 -0.515625 -0.8125 -1.328125q-0.171875 -0.8125 -0.015625 -1.75l1.078125 -6.218752l-1.9375 0l0.265625 -1.640625l1.96875 0l0.546875 -3.125l1.859375 0l-0.546875 3.125l3.671875 0l-0.296875 1.640625l-3.671875 0l-1.109375 6.218752q-0.171875 1.046875 0.15625 1.46875q0.34375 0.421875 1.0 0.421875q0.359375 0 0.875 -0.09375q0.515625 -0.109375 1.09375 -0.390625l0.40625 1.5625zm6.842163 -13.562502l-2.078125 0l0.34375 -2.09375l2.078125 0l-0.34375 2.09375zm-2.59375 13.953127l-1.859375 0l1.984375 -11.218752l1.859375 0l-1.984375 11.218752zm13.968628 -5.84375l-0.171875 1.125q-0.359375 2.40625 -1.71875 3.671875q-1.34375 1.265625 -3.5 1.265625q-1.578125 0 -2.609375 -0.71875q-1.03125 -0.71875 -1.4375 -1.984375q-0.40625 -1.28125 -0.15625 -2.890625l0.171875 -1.15625q0.390625 -2.296877 1.703125 -3.593752q1.328125 -1.3125 3.515625 -1.3125q1.609375 0 2.625 0.75q1.015625 0.734375 1.421875 2.0q0.40625 1.25 0.15625 2.843752zm-1.921875 -0.046875q0.265625 -1.7031269 -0.328125 -2.765627q-0.578125 -1.078125 -1.984375 -1.078125q-1.3125 0 -2.171875 0.84375q-0.84375 0.828125 -1.09375 2.359377l-0.171875 1.203125q-0.28125 1.75 0.3125 2.8125q0.609375 1.0625 2.0 1.0625q1.3125 0 2.15625 -0.828125q0.859375 -0.828125 1.09375 -2.4375l0.1875 -1.171875zm11.458618 -3.812502q-0.421875 0 -1.0 0.203125q-0.5625 0.1875 -1.3125 0.71875q-0.734375 0.53125 -1.71875 1.578125l-1.28125 7.203127l-1.859375 0l1.984375 -11.218752l1.75 0l-0.34375 2.0625q1.34375 -1.40625 2.390625 -1.84375q1.0625 -0.4375 1.890625 -0.4375q1.546875 0 2.28125 1.125q0.734375 1.109375 0.421875 2.90625l-1.3125 7.406252l-1.859375 0l1.265625 -7.250002q0.453125 -2.453125 -1.296875 -2.453125zm21.625732 8.125002l-0.328125 1.6875l-0.375 0q-1.5625 0 -2.046875 -0.828125q-0.46875 -0.828125 -0.25 -2.109375l2.15625 -12.062502q-1.359375 -0.40625 -2.484375 -0.40625q-1.296875 0 -2.09375 0.578125q-0.796875 0.5625 -1.015625 1.84375l-0.296875 1.65625l3.375 0l-0.296875 1.640625l-3.375 0l-1.671875 9.578127l-1.859375 0l1.703125 -9.578127l-1.953125 0l0.265625 -1.640625l1.953125 0l0.296875 -1.625q0.21875 -1.25 0.78125 -2.171875q0.5625 -0.9375 1.578125 -1.453125q1.03125 -0.515625 2.640625 -0.515625q1.0 0 2.140625 0.234375q1.15625 0.234375 2.359375 0.828125l-2.34375 13.109377q-0.09375 0.640625 0.046875 0.9375q0.140625 0.296875 0.765625 0.296875l0.328125 0zm12.450806 -4.265625l-0.171875 1.125q-0.359375 2.40625 -1.71875 3.671875q-1.34375 1.265625 -3.5 1.265625q-1.578125 0 -2.609375 -0.71875q-1.03125 -0.71875 -1.4375 -1.984375q-0.40625 -1.28125 -0.15625 -2.890625l0.171875 -1.15625q0.390625 -2.296877 1.703125 -3.593752q1.328125 -1.3125 3.515625 -1.3125q1.609375 0 2.625 0.75q1.015625 0.734375 1.421875 2.0q0.40625 1.25 0.15625 2.843752zm-1.921875 -0.046875q0.265625 -1.7031269 -0.328125 -2.765627q-0.578125 -1.078125 -1.984375 -1.078125q-1.3125 0 -2.171875 0.84375q-0.84375 0.828125 -1.09375 2.359377l-0.171875 1.203125q-0.28125 1.75 0.3125 2.8125q0.609375 1.0625 2.0 1.0625q1.3125 0 2.15625 -0.828125q0.859375 -0.828125 1.09375 -2.4375l0.1875 -1.171875zm19.696045 -5.328127l-4.859375 11.218752l-2.140625 0l-0.734375 -9.218752l-4.046875 9.218752l-2.15625 0l-0.890625 -11.218752l1.8125 0l0.328125 4.687502l0.203125 4.671875l4.078125 -9.359377l1.984375 0l0.78125 9.296877l1.78125 -4.578125l1.921875 -4.718752l1.9375 0z" fill-rule="nonzero"/></g></svg>