<svg version="1.1" viewBox="0.0 0.0 644.0 640.0" fill="none" stroke="none" stroke-linecap="square" stroke-miterlimit="10" xmlns:xlink="http://www.w3.org/1999/xlink" xmlns="http://www.w3.org/2000/svg"><clipPath id="p.0"><path d="m0 0l644.0 0l0 640.0l-644.0 0l0 -640.0z" clip-rule="nonzero"/></clipPath><g clip-path="url(#p.0)"><path fill="#000000" fill-opacity="0.0" d="m0 0l644.0 0l0 640.0l-644.0 0z" fill-rule="evenodd"/><path fill="#c9daf8" d="m22.02756 563.4659l109.44882 0l0 49.763794l-109.44882 0z" fill-rule="evenodd"/><path fill="#000000" d="m52.692924 597.6678l0 -17.21875l5.359375 0q2.484375 0 3.78125 1.3125q1.3125 1.296875 1.3125 3.46875l0 1.34375q0 2.171875 -1.3125 3.5q-1.296875 1.3125 -3.78125 1.3125l-3.15625 0l0 6.28125l-2.203125 0zm5.359375 -15.140625l-3.15625 0l0 6.8125l3.15625 0q1.375 0 2.09375 -0.734375q0.71875 -0.734375 0.71875 -2.03125l0 -1.34375q0 -1.265625 -0.71875 -1.984375q-0.71875 -0.71875 -2.09375 -0.71875zm17.57817 15.265625q-1.15625 0 -1.859375 -0.53125q-0.6875 -0.53125 -0.96875 -1.3125q-1.25 1.078125 -2.265625 1.53125q-1.0 0.4375 -2.015625 0.4375q-1.640625 0 -2.4375 -1.0625q-0.78125 -1.0625 -0.78125 -2.609375q0 -1.03125 0.375 -1.84375q0.390625 -0.8125 1.296875 -1.28125q0.90625 -0.46875 2.453125 -0.46875q0.6875 0 1.5 0.09375q0.8125 0.078125 1.640625 0.203125l0 -1.6875q0 -1.421875 -0.625 -1.9375q-0.609375 -0.515625 -1.796875 -0.515625q-1.625 0 -3.625 0.875l-0.65625 -1.71875q1.15625 -0.53125 2.21875 -0.8125q1.0625 -0.28125 2.15625 -0.28125q1.78125 0 2.71875 0.59375q0.9375 0.578125 1.28125 1.546875q0.359375 0.953125 0.359375 2.09375l0 5.421875q0 0.578125 0.21875 0.984375q0.234375 0.390625 0.921875 0.390625l0.28125 0l0 1.890625l-0.390625 0zm-8.28125 -3.5625q0 0.859375 0.40625 1.390625q0.40625 0.53125 1.171875 0.53125q0.65625 0 1.515625 -0.390625q0.859375 -0.40625 2.125 -1.59375l0 -1.59375q-1.71875 -0.28125 -3.03125 -0.28125q-1.171875 0 -1.6875 0.484375q-0.5 0.484375 -0.5 1.453125zm18.18991 -7.28125q-1.140625 0 -2.21875 0.40625q-1.078125 0.40625 -2.28125 1.546875l0 8.765625l-2.078125 0l0 -12.53125l1.96875 0l0 2.015625q1.296875 -1.265625 2.375 -1.765625q1.078125 -0.515625 2.234375 -0.515625l0 2.078125zm4.9204407 -4.890625l-2.328125 0l0 -2.328125l2.328125 0l0 2.328125zm-0.125 15.609375l-2.078125 0l0 -12.53125l2.078125 0l0 12.53125zm7.5443726 -1.59375q2.53125 0 2.53125 -1.71875q0 -0.734375 -0.453125 -1.15625q-0.453125 -0.4375 -1.671875 -0.75l-1.390625 -0.359375q-1.546875 -0.375 -2.3125 -1.328125q-0.765625 -0.953125 -0.765625 -2.265625q0 -0.953125 0.4375 -1.78125q0.4375 -0.828125 1.359375 -1.328125q0.9375 -0.515625 2.4375 -0.515625q0.96875 0 1.96875 0.21875q1.0 0.21875 2.03125 0.71875l-0.65625 1.75q-1.84375 -0.828125 -3.34375 -0.828125q-2.203125 0 -2.203125 1.640625q0 0.640625 0.40625 1.09375q0.40625 0.453125 1.515625 0.734375l1.390625 0.34375q1.671875 0.40625 2.453125 1.328125q0.796875 0.90625 0.796875 2.359375q0 1.03125 -0.453125 1.890625q-0.4375 0.84375 -1.421875 1.328125q-0.96875 0.46875 -2.609375 0.46875q-1.09375 0 -2.171875 -0.234375q-1.0625 -0.21875 -2.203125 -0.71875l0.546875 -1.734375q1.09375 0.4375 1.96875 0.640625q0.890625 0.203125 1.8125 0.203125z" fill-rule="nonzero"/><path fill="#d9ead3" d="m190.5 209.48512l0 0c0 -23.91542 19.387283 -43.302704 43.302704 -43.302704l173.20563 0l0 0c11.484589 0 22.49878 4.5622253 30.619629 12.68306c8.120819 8.120834 12.683075 19.135056 12.683075 30.619644l0 247.94576c0 23.915436 -19.387299 43.302704 -43.302704 43.302704l-173.20563 0c-23.91542 0 -43.302704 -19.387268 -43.302704 -43.302704z" fill-rule="evenodd"/><path fill="#000000" d="m216.3548 193.05925q0 2.390625 0.953125 3.671875q0.953125 1.28125 2.921875 1.28125q0.875 0 1.703125 -0.203125q0.84375 -0.203125 2.0 -0.71875l0.734375 1.875q-1.234375 0.5625 -2.359375 0.8125q-1.109375 0.25 -2.140625 0.25q-3.0 0 -4.546875 -1.875q-1.53125 -1.875 -1.53125 -5.09375l0 -3.796875q0 -3.21875 1.53125 -5.078125q1.546875 -1.875 4.546875 -1.875q1.03125 0 2.15625 0.25q1.125 0.25 2.296875 0.8125l-0.703125 1.890625q-2.0625 -0.90625 -3.6875 -0.90625q-1.96875 0 -2.921875 1.265625q-0.953125 1.265625 -0.953125 3.640625l0 3.796875zm20.56668 6.84375q-1.15625 0 -1.859375 -0.53125q-0.6875 -0.53125 -0.96875 -1.3125q-1.25 1.078125 -2.265625 1.53125q-1.0 0.4375 -2.015625 0.4375q-1.640625 0 -2.4375 -1.0625q-0.78125 -1.0625 -0.78125 -2.609375q0 -1.03125 0.375 -1.84375q0.390625 -0.8125 1.296875 -1.28125q0.90625 -0.46875 2.453125 -0.46875q0.6875 0 1.5 0.09375q0.8125 0.078125 1.640625 0.203125l0 -1.6875q0 -1.421875 -0.625 -1.9375q-0.609375 -0.515625 -1.796875 -0.515625q-1.625 0 -3.625 0.875l-0.65625 -1.71875q1.15625 -0.53125 2.21875 -0.8125q1.0625 -0.28125 2.15625 -0.28125q1.78125 0 2.71875 0.59375q0.9375 0.578125 1.28125 1.546875q0.359375 0.953125 0.359375 2.09375l0 5.421875q0 0.578125 0.21875 0.984375q0.234375 0.390625 0.921875 0.390625l0.28125 0l0 1.890625l-0.390625 0zm-8.28125 -3.5625q0 0.859375 0.40625 1.390625q0.40625 0.53125 1.171875 0.53125q0.65625 0 1.515625 -0.390625q0.859375 -0.40625 2.125 -1.59375l0 -1.59375q-1.71875 -0.28125 -3.03125 -0.28125q-1.171875 0 -1.6875 0.484375q-0.5 0.484375 -0.5 1.453125zm19.330536 3.4375l0 -1.765625q-1.3125 1.125 -2.359375 1.578125q-1.03125 0.4375 -2.078125 0.4375q-1.671875 0 -2.5625 -1.09375q-0.875 -1.109375 -0.875 -3.109375l0 -8.578125l2.078125 0l0 8.28125q0 1.3125 0.46875 1.9375q0.46875 0.609375 1.40625 0.609375q0.703125 0 1.59375 -0.34375q0.890625 -0.359375 2.203125 -1.421875l0 -9.0625l2.078125 0l0 12.53125l-1.953125 0zm9.502197 -1.59375q2.53125 0 2.53125 -1.71875q0 -0.734375 -0.453125 -1.15625q-0.453125 -0.4375 -1.671875 -0.75l-1.390625 -0.359375q-1.546875 -0.375 -2.3125 -1.328125q-0.765625 -0.953125 -0.765625 -2.265625q0 -0.953125 0.4375 -1.78125q0.4375 -0.828125 1.359375 -1.328125q0.9375 -0.515625 2.4375 -0.515625q0.96875 0 1.96875 0.21875q1.0 0.21875 2.03125 0.71875l-0.65625 1.75q-1.84375 -0.828125 -3.34375 -0.828125q-2.203125 0 -2.203125 1.640625q0 0.640625 0.40625 1.09375q0.40625 0.453125 1.515625 0.734375l1.390625 0.34375q1.671875 0.40625 2.453125 1.328125q0.796875 0.90625 0.796875 2.359375q0 1.03125 -0.453125 1.890625q-0.4375 0.84375 -1.421875 1.328125q-0.96875 0.46875 -2.609375 0.46875q-1.09375 0 -2.171875 -0.234375q-1.0625 -0.21875 -2.203125 -0.71875l0.546875 -1.734375q1.09375 0.4375 1.96875 0.640625q0.890625 0.203125 1.8125 0.203125zm17.010193 1.71875q-1.15625 0 -1.859375 -0.53125q-0.6875 -0.53125 -0.96875 -1.3125q-1.25 1.078125 -2.265625 1.53125q-1.0 0.4375 -2.015625 0.4375q-1.640625 0 -2.4375 -1.0625q-0.78125 -1.0625 -0.78125 -2.609375q0 -1.03125 0.375 -1.84375q0.390625 -0.8125 1.296875 -1.28125q0.90625 -0.46875 2.453125 -0.46875q0.6875 0 1.5 0.09375q0.8125 0.078125 1.640625 0.203125l0 -1.6875q0 -1.421875 -0.625 -1.9375q-0.609375 -0.515625 -1.796875 -0.515625q-1.625 0 -3.625 0.875l-0.65625 -1.71875q1.15625 -0.53125 2.21875 -0.8125q1.0625 -0.28125 2.15625 -0.28125q1.78125 0 2.71875 0.59375q0.9375 0.578125 1.28125 1.546875q0.359375 0.953125 0.359375 2.09375l0 5.421875q0 0.578125 0.21875 0.984375q0.234375 0.390625 0.921875 0.390625l0.28125 0l0 1.890625l-0.390625 0zm-8.28125 -3.5625q0 0.859375 0.40625 1.390625q0.40625 0.53125 1.171875 0.53125q0.65625 0 1.515625 -0.390625q0.859375 -0.40625 2.125 -1.59375l0 -1.59375q-1.71875 -0.28125 -3.03125 -0.28125q-1.171875 0 -1.6875 0.484375q-0.5 0.484375 -0.5 1.453125zm11.580536 0.390625l0 -15.703125l2.078125 0l0 15.609375q0 0.6875 0.21875 1.03125q0.21875 0.34375 0.875 0.34375l0.40625 0l0 1.890625l-0.59375 0q-1.671875 0 -2.328125 -0.875q-0.65625 -0.890625 -0.65625 -2.296875zm22.11444 1.0l0 2.046875l-9.421875 0l0 -17.21875l2.203125 0l0 15.171875l7.21875 0zm5.97229 -15.171875l5.25 12.765625l5.265625 -12.765625l2.5 0l0 17.21875l-2.140625 0l0 -7.375l0.265625 -6.625l-4.9375 11.96875l-2.078125 0l-4.828125 -12.03125l0.28125 6.6875l0 7.375l-2.15625 0l0 -17.21875l2.578125 0z" fill-rule="nonzero"/><defs><linearGradient id="p.1" gradientUnits="userSpaceOnUse" gradientTransform="matrix(8.670629862753868 0.0 0.0 8.670629862753868 0.0 0.0)" spreadMethod="pad" x1="47.7447097372996" y1="39.55595741551652" x2="49.25016341643414" y2="31.01702121497845"><stop offset="0.0" stop-color="#f3f3f3"/><stop offset="0.48" stop-color="#f3f3f3"/><stop offset="0.48000002" stop-color="#3d3d3d"/><stop offset="1.0" stop-color="#000000"/></linearGradient></defs><path fill="url(#p.1)" d="m220.8307 274.56577l0 0c0 -3.795044 3.0764923 -6.8715515 6.8715363 -6.8715515l185.40656 0c1.8224487 0 3.570221 0.7239685 4.8588867 2.0126343c1.2886658 1.2886658 2.0126343 3.0364685 2.0126343 4.858917l0 27.48529c0 3.7950134 -3.076477 6.871521 -6.871521 6.871521l-185.40656 0c-3.795044 0 -6.8715363 -3.0765076 -6.8715363 -6.871521z" fill-rule="evenodd"/><path fill="#000000" fill-opacity="0.0" d="m229.1693 495.1483l10.614166 0l0 10.519684l-10.614166 0z" fill-rule="evenodd"/><path fill="#000000" fill-opacity="0.0" d="m272.1326 495.1483l10.614166 0l0 10.519684l-10.614166 0z" fill-rule="evenodd"/><path fill="#000000" fill-opacity="0.0" d="m315.09592 495.1483l10.614166 0l0 10.519684l-10.614166 0z" fill-rule="evenodd"/><path fill="#000000" fill-opacity="0.0" d="m358.0592 495.1483l10.614166 0l0 10.519684l-10.614166 0z" fill-rule="evenodd"/><path fill="#000000" fill-opacity="0.0" d="m401.02252 495.1483l10.614166 0l0 10.519684l-10.614166 0z" fill-rule="evenodd"/><path fill="#000000" fill-opacity="0.0" d="m229.1693 161.1273l10.614166 0l0 10.519684l-10.614166 0z" fill-rule="evenodd"/><path fill="#000000" fill-opacity="0.0" d="m272.1326 161.1273l10.614166 0l0 10.519684l-10.614166 0z" fill-rule="evenodd"/><path fill="#000000" fill-opacity="0.0" d="m315.09592 161.1273l10.614166 0l0 10.519684l-10.614166 0z" fill-rule="evenodd"/><path fill="#000000" fill-opacity="0.0" d="m358.0592 161.1273l10.614166 0l0 10.519684l-10.614166 0z" fill-rule="evenodd"/><path fill="#000000" fill-opacity="0.0" d="m401.02252 161.1273l10.614166 0l0 10.519684l-10.614166 0z" fill-rule="evenodd"/><path fill="#000000" fill-opacity="0.0" d="m76.75197 563.4659c0 -14.449402 39.433067 -21.674377 78.866135 -28.898804c39.433075 -7.2244263 78.86615 -14.448242 78.86615 -28.896484" fill-rule="evenodd"/><path stroke="#000000" stroke-width="2.0" stroke-linejoin="round" stroke-linecap="butt" d="m76.75197 563.4659c0 -14.449402 39.433067 -21.674377 78.866135 -28.898804c19.716537 -3.6121826 39.433075 -7.224243 54.220474 -11.739258c3.6968536 -1.1287842 7.0856323 -2.3140259 10.089325 -3.5697632c1.5018463 -0.62786865 2.907425 -1.2733765 4.2071075 -1.9382324c0.64982605 -0.33251953 1.2731934 -0.6697998 1.868866 -1.012146c0.2978363 -0.17120361 0.5887604 -0.34362793 0.8726196 -0.517395c0.141922 -0.08691406 0.28208923 -0.17407227 0.42045593 -0.26159668l0.18052673 -0.1161499" fill-rule="evenodd"/><path fill="#000000" stroke="#000000" stroke-width="2.0" stroke-linecap="butt" d="m230.15933 517.34143l2.6177216 -9.297211l-7.981415 5.4394226z" fill-rule="evenodd"/><defs><linearGradient id="p.2" gradientUnits="userSpaceOnUse" gradientTransform="matrix(8.670628698259051 0.0 0.0 8.670628698259051 0.0 0.0)" spreadMethod="pad" x1="47.748348650065594" y1="45.906022916692244" x2="49.253802531387656" y2="37.36708793425528"><stop offset="0.0" stop-color="#f3f3f3"/><stop offset="0.48" stop-color="#f3f3f3"/><stop offset="0.48000002" stop-color="#3d3d3d"/><stop offset="1.0" stop-color="#000000"/></linearGradient></defs><path fill="url(#p.2)" d="m220.8622 329.62482l0 0c0 -3.795044 3.0764923 -6.871521 6.8715363 -6.871521l185.40656 0c1.8224487 0 3.570221 0.723938 4.8588867 2.0126038c1.2886658 1.2886658 2.0126343 3.0364685 2.0126343 4.858917l0 27.48529c0 3.795044 -3.076477 6.871521 -6.871521 6.871521l-185.40656 0c-3.795044 0 -6.8715363 -3.076477 -6.8715363 -6.871521z" fill-rule="evenodd"/><defs><linearGradient id="p.3" gradientUnits="userSpaceOnUse" gradientTransform="matrix(8.670630616637778 0.0 0.0 8.670630616637778 0.0 0.0)" spreadMethod="pad" x1="47.74440287774094" y1="52.255929649181205" x2="49.24985169616374" y2="43.716991826167984"><stop offset="0.0" stop-color="#f3f3f3"/><stop offset="0.48" stop-color="#f3f3f3"/><stop offset="0.48000002" stop-color="#3d3d3d"/><stop offset="1.0" stop-color="#000000"/></linearGradient></defs><path fill="url(#p.3)" d="m220.82808 384.68256l0 0c0 -3.795044 3.0764923 -6.871521 6.8715363 -6.871521l185.40656 0c1.8224487 0 3.570221 0.723938 4.8588867 2.0126038c1.2886658 1.2886658 2.0126343 3.0364685 2.0126343 4.858917l0 27.48529c0 3.795044 -3.076477 6.871521 -6.871521 6.871521l-185.40656 0c-3.795044 0 -6.8715363 -3.076477 -6.8715363 -6.871521z" fill-rule="evenodd"/><defs><linearGradient id="p.4" gradientUnits="userSpaceOnUse" gradientTransform="matrix(8.670631027248541 0.0 0.0 8.670631027248541 0.0 0.0)" spreadMethod="pad" x1="47.74440061673298" y1="58.60583903320173" x2="49.249854093680064" y2="50.066901614562745"><stop offset="0.0" stop-color="#f3f3f3"/><stop offset="0.48" stop-color="#f3f3f3"/><stop offset="0.48000002" stop-color="#3d3d3d"/><stop offset="1.0" stop-color="#000000"/></linearGradient></defs><path fill="url(#p.4)" d="m220.82808 439.7403l0 0c0 -3.795044 3.0764923 -6.871521 6.8715363 -6.871521l185.40656 0c1.8224487 0 3.570221 0.7239685 4.8588867 2.0126038c1.2886658 1.2886658 2.0126343 3.0364685 2.0126343 4.858917l0 27.48529c0 3.795044 -3.076477 6.871521 -6.871521 6.871521l-185.40656 0c-3.795044 0 -6.8715363 -3.076477 -6.8715363 -6.871521z" fill-rule="evenodd"/><defs><linearGradient id="p.5" gradientUnits="userSpaceOnUse" gradientTransform="matrix(8.670629452142938 0.0 0.0 8.670629452142938 0.0 0.0)" spreadMethod="pad" x1="47.7444092899756" y1="33.20604391163756" x2="49.24985831058526" y2="24.667107306725093"><stop offset="0.0" stop-color="#f3f3f3"/><stop offset="0.48" stop-color="#f3f3f3"/><stop offset="0.48000002" stop-color="#3d3d3d"/><stop offset="1.0" stop-color="#000000"/></linearGradient></defs><path fill="url(#p.5)" d="m220.82808 219.50801l0 0c0 -3.795044 3.0764923 -6.871521 6.8715363 -6.871521l185.40656 0c1.8224487 0 3.570221 0.72395325 4.8588867 2.012619c1.2886658 1.2886658 2.0126343 3.0364532 2.0126343 4.858902l0 27.48529c0 3.795044 -3.076477 6.871521 -6.871521 6.871521l-185.40656 0c-3.795044 0 -6.8715363 -3.076477 -6.8715363 -6.871521z" fill-rule="evenodd"/><path fill="#d9d9d9" d="m22.024935 48.778214l109.44882 0l0 49.76378l-109.44882 0z" fill-rule="evenodd"/><path fill="#000000" d="m52.6903 82.9801l0 -17.21875l5.359375 0q2.484375 0 3.78125 1.3125q1.3125 1.296875 1.3125 3.46875l0 1.34375q0 2.171875 -1.3125 3.5q-1.296875 1.3125 -3.78125 1.3125l-3.15625 0l0 6.28125l-2.203125 0zm5.359375 -15.140625l-3.15625 0l0 6.8125l3.15625 0q1.375 0 2.09375 -0.734375q0.71875 -0.734375 0.71875 -2.03125l0 -1.34375q0 -1.265625 -0.71875 -1.984375q-0.71875 -0.71875 -2.09375 -0.71875zm17.57817 15.265625q-1.15625 0 -1.859375 -0.53125q-0.6875 -0.53125 -0.96875 -1.3125q-1.25 1.078125 -2.265625 1.53125q-1.0 0.4375 -2.015625 0.4375q-1.640625 0 -2.4375 -1.0625q-0.78125 -1.0625 -0.78125 -2.609375q0 -1.03125 0.375 -1.84375q0.390625 -0.8125 1.296875 -1.28125q0.90625 -0.46875 2.453125 -0.46875q0.6875 0 1.5 0.09375q0.8125 0.078125 1.640625 0.203125l0 -1.6875q0 -1.421875 -0.625 -1.9375q-0.609375 -0.515625 -1.796875 -0.515625q-1.625 0 -3.625 0.875l-0.65625 -1.71875q1.15625 -0.53125 2.21875 -0.8125q1.0625 -0.28125 2.15625 -0.28125q1.78125 0 2.71875 0.59375q0.9375 0.578125 1.28125 1.546875q0.359375 0.953125 0.359375 2.09375l0 5.421875q0 0.578125 0.21875 0.984375q0.234375 0.390625 0.921875 0.390625l0.28125 0l0 1.890625l-0.390625 0zm-8.28125 -3.5625q0 0.859375 0.40625 1.390625q0.40625 0.53125 1.171875 0.53125q0.65625 0 1.515625 -0.390625q0.859375 -0.40625 2.125 -1.59375l0 -1.59375q-1.71875 -0.28125 -3.03125 -0.28125q-1.171875 0 -1.6875 0.484375q-0.5 0.484375 -0.5 1.453125zm18.18991 -7.28125q-1.140625 0 -2.21875 0.40625q-1.078125 0.40625 -2.28125 1.546875l0 8.765625l-2.078125 0l0 -12.53125l1.96875 0l0 2.015625q1.296875 -1.265625 2.375 -1.765625q1.078125 -0.515625 2.234375 -0.515625l0 2.078125zm4.9204407 -4.890625l-2.328125 0l0 -2.328125l2.328125 0l0 2.328125zm-0.125 15.609375l-2.078125 0l0 -12.53125l2.078125 0l0 12.53125zm7.5443726 -1.59375q2.53125 0 2.53125 -1.71875q0 -0.734375 -0.453125 -1.15625q-0.453125 -0.4375 -1.671875 -0.75l-1.390625 -0.359375q-1.546875 -0.375 -2.3125 -1.328125q-0.765625 -0.953125 -0.765625 -2.265625q0 -0.953125 0.4375 -1.78125q0.4375 -0.828125 1.359375 -1.328125q0.9375 -0.515625 2.4375 -0.515625q0.96875 0 1.96875 0.21875q1.0 0.21875 2.03125 0.71875l-0.65625 1.75q-1.84375 -0.828125 -3.34375 -0.828125q-2.203125 0 -2.203125 1.640625q0 0.640625 0.40625 1.09375q0.40625 0.453125 1.515625 0.734375l1.390625 0.34375q1.671875 0.40625 2.453125 1.328125q0.796875 0.90625 0.796875 2.359375q0 1.03125 -0.453125 1.890625q-0.4375 0.84375 -1.421875 1.328125q-0.96875 0.46875 -2.609375 0.46875q-1.09375 0 -2.171875 -0.234375q-1.0625 -0.21875 -2.203125 -0.71875l0.546875 -1.734375q1.09375 0.4375 1.96875 0.640625q0.890625 0.203125 1.8125 0.203125z" fill-rule="nonzero"/><path fill="#d9d9d9" d="m143.8517 48.778214l109.44882 0l0 49.76378l-109.44882 0z" fill-rule="evenodd"/><path fill="#000000" d="m194.27539 67.37073l-2.328125 0l0 -2.328125l2.328125 0l0 2.328125zm-0.125 15.609375l-2.078125 0l0 -12.53125l2.078125 0l0 12.53125zm7.5443726 -1.59375q2.53125 0 2.53125 -1.71875q0 -0.734375 -0.453125 -1.15625q-0.453125 -0.4375 -1.671875 -0.75l-1.390625 -0.359375q-1.546875 -0.375 -2.3125 -1.328125q-0.765625 -0.953125 -0.765625 -2.265625q0 -0.953125 0.4375 -1.78125q0.4375 -0.828125 1.359375 -1.328125q0.9375 -0.515625 2.4375 -0.515625q0.96875 0 1.96875 0.21875q1.0 0.21875 2.03125 0.71875l-0.65625 1.75q-1.84375 -0.828125 -3.34375 -0.828125q-2.203125 0 -2.203125 1.640625q0 0.640625 0.40625 1.09375q0.40625 0.453125 1.515625 0.734375l1.390625 0.34375q1.671875 0.40625 2.453125 1.328125q0.796875 0.90625 0.796875 2.359375q0 1.03125 -0.453125 1.890625q-0.4375 0.84375 -1.421875 1.328125q-0.96875 0.46875 -2.609375 0.46875q-1.09375 0 -2.171875 -0.234375q-1.0625 -0.21875 -2.203125 -0.71875l0.546875 -1.734375q1.09375 0.4375 1.96875 0.640625q0.890625 0.203125 1.8125 0.203125z" fill-rule="nonzero"/><path fill="#000000" fill-opacity="0.0" d="m277.4397 161.1273c0 -15.646301 -19.716553 -23.469757 -39.43309 -31.292603c-19.716522 -7.82283 -39.43306 -15.645042 -39.43306 -31.290085" fill-rule="evenodd"/><path stroke="#000000" stroke-width="2.0" stroke-linejoin="round" stroke-linecap="butt" d="m277.4397 161.1273c0 -15.646301 -19.716553 -23.469757 -39.433075 -31.292603c-9.858261 -3.911415 -19.716537 -7.8226776 -27.11023 -12.711708c-1.8484344 -1.2222595 -3.5428162 -2.5056305 -5.0446625 -3.8653946c-0.7509308 -0.67988586 -1.4537201 -1.3788605 -2.1035614 -2.0988464c-0.3249054 -0.35999298 -0.6365814 -0.7252426 -0.934433 -1.0959778l-0.17900085 -0.22626495" fill-rule="evenodd"/><path fill="#000000" stroke="#000000" stroke-width="2.0" stroke-linecap="butt" d="m205.74327 108.718506l-6.1802063 -7.422615l-0.036849976 9.658615z" fill-rule="evenodd"/><path fill="#000000" fill-opacity="0.0" d="m198.57611 48.778214c0 -12.5 -30.456696 -25.007872 -60.913376 -24.999998c-30.456696 0.007873535 -60.91339 12.531496 -60.91339 25.06299" fill-rule="evenodd"/><path stroke="#6aa84f" stroke-width="2.0" stroke-linejoin="round" stroke-linecap="butt" stroke-dasharray="8.0,6.0" d="m198.57611 48.778214c0 -12.5 -30.456696 -25.007872 -60.913376 -24.999998c-15.228355 0.0039367676 -30.456696 3.1368103 -41.87796 7.8351383c-2.8553162 1.1745796 -5.472687 2.4470024 -7.7926254 3.792839c-1.1599731 0.6729164 -2.2455902 1.3641853 -3.249405 2.070755c-0.501915 0.35328293 -0.98337555 0.710392 -1.4434662 1.0709457l-0.16628265 0.13216019" fill-rule="evenodd"/><path fill="#6aa84f" stroke="#6aa84f" stroke-width="2.0" stroke-linecap="butt" d="m80.33574 36.922707l-2.0310135 9.442734l7.625519 -5.9280396z" fill-rule="evenodd"/><path fill="#000000" fill-opacity="0.0" d="m234.47638 161.1273c0 -15.646301 -39.433075 -23.469757 -78.86615 -31.292603c-39.433067 -7.82283 -78.866135 -15.645042 -78.866135 -31.290085" fill-rule="evenodd"/><path stroke="#000000" stroke-width="2.0" stroke-linejoin="round" stroke-linecap="butt" d="m234.47638 161.1273c0 -15.646301 -39.433075 -23.469757 -78.86615 -31.292603c-19.716522 -3.911415 -39.433067 -7.8226776 -54.220467 -12.711708c-7.3936996 -2.444519 -13.555115 -5.133484 -17.86811 -8.189133l-0.3526001 -0.25416565" fill-rule="evenodd"/><path fill="#000000" stroke="#000000" stroke-width="2.0" stroke-linecap="butt" d="m85.95913 106.91098l-7.6495895 -5.896942l2.0694427 9.43438z" fill-rule="evenodd"/><path fill="#c9daf8" d="m143.8517 563.4685l109.44882 0l0 49.763794l-109.44882 0z" fill-rule="evenodd"/><path fill="#000000" d="m194.27539 582.06104l-2.328125 0l0 -2.328125l2.328125 0l0 2.328125zm-0.125 15.609375l-2.078125 0l0 -12.53125l2.078125 0l0 12.53125zm7.5443726 -1.59375q2.53125 0 2.53125 -1.71875q0 -0.734375 -0.453125 -1.15625q-0.453125 -0.4375 -1.671875 -0.75l-1.390625 -0.359375q-1.546875 -0.375 -2.3125 -1.328125q-0.765625 -0.953125 -0.765625 -2.265625q0 -0.953125 0.4375 -1.78125q0.4375 -0.828125 1.359375 -1.328125q0.9375 -0.515625 2.4375 -0.515625q0.96875 0 1.96875 0.21875q1.0 0.21875 2.03125 0.71875l-0.65625 1.75q-1.84375 -0.828125 -3.34375 -0.828125q-2.203125 0 -2.203125 1.640625q0 0.640625 0.40625 1.09375q0.40625 0.453125 1.515625 0.734375l1.390625 0.34375q1.671875 0.40625 2.453125 1.328125q0.796875 0.90625 0.796875 2.359375q0 1.03125 -0.453125 1.890625q-0.4375 0.84375 -1.421875 1.328125q-0.96875 0.46875 -2.609375 0.46875q-1.09375 0 -2.171875 -0.234375q-1.0625 -0.21875 -2.203125 -0.71875l0.546875 -1.734375q1.09375 0.4375 1.96875 0.640625q0.890625 0.203125 1.8125 0.203125z" fill-rule="nonzero"/><path fill="#000000" fill-opacity="0.0" d="m198.57611 563.4685c0 -14.450256 19.716537 -21.676147 39.433075 -28.900513c19.716522 -7.2244263 39.433075 -14.447388 39.433075 -28.894775" fill-rule="evenodd"/><path stroke="#000000" stroke-width="2.0" stroke-linejoin="round" stroke-linecap="butt" d="m198.57611 563.4685c0 -14.450256 19.716537 -21.676086 39.433075 -28.900513c9.858261 -3.6121826 19.716522 -7.22406 27.11023 -11.73877c1.8484192 -1.1286621 3.5428162 -2.3137817 5.0446777 -3.569397c0.7509155 -0.62786865 1.4536743 -1.2733154 2.1035461 -1.9381714c0.16244507 -0.16619873 0.32159424 -0.3336792 0.47735596 -0.50231934l0.06817627 -0.07489014" fill-rule="evenodd"/><path fill="#000000" stroke="#000000" stroke-width="2.0" stroke-linecap="butt" d="m275.86093 518.01874l0.4534607 -9.64801l-6.549011 7.099365z" fill-rule="evenodd"/><path fill="#c9daf8" d="m265.67847 48.841206l109.44882 0l0 49.763783l-109.44882 0z" fill-rule="evenodd"/><path fill="#000000" d="m325.5501 83.1681q-1.15625 0 -1.859375 -0.53125q-0.6875 -0.53125 -0.96875 -1.3125q-1.25 1.078125 -2.265625 1.53125q-1.0 0.4375 -2.015625 0.4375q-1.640625 0 -2.4375 -1.0625q-0.78125 -1.0625 -0.78125 -2.609375q0 -1.03125 0.375 -1.84375q0.390625 -0.8125 1.296875 -1.28125q0.90625 -0.46875 2.453125 -0.46875q0.6875 0 1.5 0.09375q0.8125 0.078125 1.640625 0.203125l0 -1.6875q0 -1.421875 -0.625 -1.9375q-0.609375 -0.515625 -1.796875 -0.515625q-1.625 0 -3.625 0.875l-0.65625 -1.71875q1.15625 -0.53125 2.21875 -0.8125q1.0625 -0.28125 2.15625 -0.28125q1.78125 0 2.71875 0.59375q0.9375 0.578125 1.28125 1.546875q0.359375 0.953125 0.359375 2.09375l0 5.421875q0 0.578125 0.21875 0.984375q0.234375 0.390625 0.921875 0.390625l0.28125 0l0 1.890625l-0.390625 0zm-8.28125 -3.5625q0 0.859375 0.40625 1.390625q0.40625 0.53125 1.171875 0.53125q0.65625 0 1.515625 -0.390625q0.859375 -0.40625 2.125 -1.59375l0 -1.59375q-1.71875 -0.28125 -3.03125 -0.28125q-1.171875 0 -1.6875 0.484375q-0.5 0.484375 -0.5 1.453125z" fill-rule="nonzero"/><path fill="#000000" fill-opacity="0.0" d="m320.40298 161.1273c0 -15.630554 0.01574707 -23.446136 0.03149414 -31.261093c0.01574707 -7.8149643 0.03149414 -15.629303 0.03149414 -31.258598" fill-rule="evenodd"/><path stroke="#000000" stroke-width="2.0" stroke-linejoin="round" stroke-linecap="butt" d="m320.40298 161.1273c0 -15.630554 0.01574707 -23.446136 0.03149414 -31.261108c0.007873535 -3.9074707 0.01574707 -7.8147964 0.02166748 -12.698914l0.005706787 -6.5596695" fill-rule="evenodd"/><path fill="#000000" stroke="#000000" stroke-width="2.0" stroke-linecap="butt" d="m323.76532 110.60874l-3.300354 -9.077324l-3.3065796 9.075058z" fill-rule="evenodd"/><path fill="#000000" fill-opacity="0.0" d="m320.4029 48.841206c0 -20.420603 -60.91339 -40.833332 -121.82678 -40.841206c-60.913376 -0.007874012 -121.82677 20.389107 -121.82677 40.778214" fill-rule="evenodd"/><path stroke="#6aa84f" stroke-width="2.0" stroke-linejoin="round" stroke-linecap="butt" stroke-dasharray="8.0,6.0" d="m320.4029 48.841206c0 -20.420603 -60.91339 -40.833332 -121.82678 -40.841206c-30.456696 -0.0039372444 -60.913376 5.09334 -83.7559 12.74024c-11.421265 3.82345 -20.93898 8.284306 -27.60138 13.063616c-1.6656036 1.194828 -3.152748 2.4095612 -4.4465637 3.6392097c-0.16172028 0.15370941 -0.32042694 0.3076477 -0.47608948 0.46181107l-0.15240479 0.15419388" fill-rule="evenodd"/><path fill="#6aa84f" stroke="#6aa84f" stroke-width="2.0" stroke-linecap="butt" d="m79.19292 36.574043l-1.129219 9.592449l7.030937 -6.6223946z" fill-rule="evenodd"/><path fill="#000000" fill-opacity="0.0" d="m320.4029 48.841206c0 -12.531494 -30.456696 -25.055117 -60.91339 -25.06299c-30.456696 -0.007873535 -60.91339 12.499998 -60.91339 24.999998" fill-rule="evenodd"/><path stroke="#6aa84f" stroke-width="2.0" stroke-linejoin="round" stroke-linecap="butt" stroke-dasharray="8.0,6.0" d="m320.4029 48.841206c0 -12.531494 -30.456696 -25.055117 -60.91339 -25.06299c-15.228348 -0.0039367676 -30.456696 3.1210632 -41.87796 7.8095474c-2.855301 1.172121 -5.472687 2.4419613 -7.792618 3.7850552c-1.1599731 0.67155075 -2.2455902 1.361412 -3.249405 2.0665283c-0.50190735 0.35256195 -0.9833832 0.7089386 -1.4434662 1.0687447l-0.15019226 0.11911011" fill-rule="evenodd"/><path fill="#6aa84f" stroke="#6aa84f" stroke-width="2.0" stroke-linecap="butt" d="m202.18141 36.86542l-2.04599 9.439495l7.634918 -5.9159355z" fill-rule="evenodd"/></g></svg>