<svg version="1.1" viewBox="0.0 0.0 890.0498687664042 628.6430446194225" fill="none" stroke="none" stroke-linecap="square" stroke-miterlimit="10" xmlns:xlink="http://www.w3.org/1999/xlink" xmlns="http://www.w3.org/2000/svg"><clipPath id="p.0"><path d="m0 0l890.04987 0l0 628.64307l-890.04987 0l0 -628.64307z" clip-rule="nonzero"/></clipPath><g clip-path="url(#p.0)"><path fill="#000000" fill-opacity="0.0" d="m0 0l890.04987 0l0 628.64307l-890.04987 0z" fill-rule="evenodd"/><path fill="#d9ead3" d="m97.132545 567.02234l109.448814 0l0 49.763733l-109.448814 0z" fill-rule="evenodd"/><path fill="#000000" d="m132.3669 603.02106l0 1.828125l-6.0000076 0l0 -22.375l6.0000076 0l0 1.828125l-3.921875 0l0 18.71875l3.921875 0zm4.0452576 -8.515625q0 2.390625 0.953125 3.671875q0.953125 1.28125 2.921875 1.28125q0.875 0 1.703125 -0.203125q0.84375 -0.203125 2.0 -0.71875l0.734375 1.875q-1.234375 0.5625 -2.359375 0.8125q-1.109375 0.25 -2.140625 0.25q-3.0 0 -4.546875 -1.875q-1.53125 -1.875 -1.53125 -5.09375l0 -3.796875q0 -3.21875 1.53125 -5.078125q1.546875 -1.875 4.546875 -1.875q1.03125 0 2.15625 0.25q1.125 0.25 2.296875 0.8125l-0.703125 1.890625q-2.0625 -0.90625 -3.6875 -0.90625q-1.96875 0 -2.921875 1.265625q-0.953125 1.265625 -0.953125 3.640625l0 3.796875zm21.33609 4.671875l0 2.046875l-9.421875 0l0 -17.21875l2.203125 0l0 15.171875l7.21875 0zm6.9098053 0.328125q1.59375 0 2.453125 -0.6875q0.859375 -0.703125 0.859375 -2.046875q0 -1.125 -0.59375 -1.875q-0.59375 -0.765625 -1.9375 -1.171875l-2.046875 -0.609375q-1.921875 -0.578125 -2.84375 -1.75q-0.90625 -1.1875 -0.90625 -2.90625q0 -1.3125 0.515625 -2.375q0.53125 -1.0625 1.671875 -1.6875q1.15625 -0.640625 3.03125 -0.640625q1.140625 0 2.359375 0.265625q1.21875 0.265625 2.453125 0.84375l-0.703125 1.890625q-1.21875 -0.53125 -2.203125 -0.765625q-0.96875 -0.234375 -1.859375 -0.234375q-1.4375 0 -2.234375 0.59375q-0.796875 0.59375 -0.796875 1.953125q0 1.0 0.53125 1.671875q0.53125 0.65625 1.890625 1.09375l2.0625 0.609375q3.84375 1.140625 3.84375 4.90625q0 2.1875 -1.3125 3.546875q-1.3125 1.34375 -4.234375 1.34375q-1.1875 0 -2.515625 -0.28125q-1.328125 -0.296875 -2.75 -0.9375l0.6875 -1.875q1.34375 0.609375 2.40625 0.875q1.078125 0.25 2.171875 0.25zm12.659805 -17.03125l0 22.375l-6.0 0l0 -1.828125l3.921875 0l0 -18.71875l-3.921875 0l0 -1.828125l6.0 0z" fill-rule="nonzero"/><path fill="#c9daf8" d="m218.95932 567.02234l109.44882 0l0 49.763733l-109.44882 0z" fill-rule="evenodd"/><path fill="#000000" d="m249.62468 601.2242l0 -17.21875l5.359375 0q2.4843903 0 3.7812653 1.3125q1.3125 1.296875 1.3125 3.46875l0 1.34375q0 2.171875 -1.3125 3.5q-1.296875 1.3125 -3.7812653 1.3125l-3.15625 0l0 6.28125l-2.203125 0zm5.359375 -15.140625l-3.15625 0l0 6.8125l3.15625 0q1.3750153 0 2.0937653 -0.734375q0.71875 -0.734375 0.71875 -2.03125l0 -1.34375q0 -1.265625 -0.71875 -1.984375q-0.71875 -0.71875 -2.0937653 -0.71875zm17.57817 15.265625q-1.15625 0 -1.859375 -0.53125q-0.6875 -0.53125 -0.96875 -1.3125q-1.25 1.078125 -2.265625 1.53125q-1.0 0.4375 -2.015625 0.4375q-1.640625 0 -2.4375 -1.0625q-0.78125 -1.0625 -0.78125 -2.609375q0 -1.03125 0.375 -1.84375q0.390625 -0.8125 1.296875 -1.28125q0.90625 -0.46875 2.453125 -0.46875q0.6875 0 1.5 0.09375q0.8125 0.078125 1.640625 0.203125l0 -1.6875q0 -1.421875 -0.625 -1.9375q-0.609375 -0.515625 -1.796875 -0.515625q-1.625 0 -3.625 0.875l-0.65625 -1.71875q1.15625 -0.53125 2.21875 -0.8125q1.0625 -0.28125 2.15625 -0.28125q1.78125 0 2.71875 0.59375q0.9375 0.578125 1.28125 1.546875q0.359375 0.953125 0.359375 2.09375l0 5.421875q0 0.578125 0.21875 0.984375q0.234375 0.390625 0.921875 0.390625l0.28125 0l0 1.890625l-0.390625 0zm-8.28125 -3.5625q0 0.859375 0.40625 1.390625q0.40625 0.53125 1.171875 0.53125q0.65625 0 1.515625 -0.390625q0.859375 -0.40625 2.125 -1.59375l0 -1.59375q-1.71875 -0.28125 -3.03125 -0.28125q-1.171875 0 -1.6875 0.484375q-0.5 0.484375 -0.5 1.453125zm18.18991 -7.28125q-1.140625 0 -2.21875 0.40625q-1.078125 0.40625 -2.28125 1.546875l0 8.765625l-2.078125 0l0 -12.53125l1.96875 0l0 2.015625q1.296875 -1.265625 2.375 -1.765625q1.078125 -0.515625 2.234375 -0.515625l0 2.078125zm4.9204407 -4.890625l-2.328125 0l0 -2.328125l2.328125 0l0 2.328125zm-0.125 15.609375l-2.078125 0l0 -12.53125l2.078125 0l0 12.53125zm7.5443726 -1.59375q2.53125 0 2.53125 -1.71875q0 -0.734375 -0.453125 -1.15625q-0.453125 -0.4375 -1.671875 -0.75l-1.390625 -0.359375q-1.546875 -0.375 -2.3125 -1.328125q-0.765625 -0.953125 -0.765625 -2.265625q0 -0.953125 0.4375 -1.78125q0.4375 -0.828125 1.359375 -1.328125q0.9375 -0.515625 2.4375 -0.515625q0.96875 0 1.96875 0.21875q1.0 0.21875 2.03125 0.71875l-0.65625 1.75q-1.84375 -0.828125 -3.34375 -0.828125q-2.203125 0 -2.203125 1.640625q0 0.640625 0.40625 1.09375q0.40625 0.453125 1.515625 0.734375l1.390625 0.34375q1.671875 0.40625 2.453125 1.328125q0.796875 0.90625 0.796875 2.359375q0 1.03125 -0.453125 1.890625q-0.4375 0.84375 -1.421875 1.328125q-0.96875 0.46875 -2.609375 0.46875q-1.09375 0 -2.171875 -0.234375q-1.0625 -0.21875 -2.203125 -0.71875l0.546875 -1.734375q1.09375 0.4375 1.96875 0.640625q0.890625 0.203125 1.8125 0.203125z" fill-rule="nonzero"/><path fill="#c9daf8" d="m340.7861 567.02234l109.44879 0l0 49.763733l-109.44879 0z" fill-rule="evenodd"/><path fill="#000000" d="m391.20978 585.6148l-2.328125 0l0 -2.328125l2.328125 0l0 2.328125zm-0.125 15.609375l-2.078125 0l0 -12.53125l2.078125 0l0 12.53125zm7.5443726 -1.59375q2.53125 0 2.53125 -1.71875q0 -0.734375 -0.453125 -1.15625q-0.453125 -0.4375 -1.671875 -0.75l-1.390625 -0.359375q-1.546875 -0.375 -2.3125 -1.328125q-0.765625 -0.953125 -0.765625 -2.265625q0 -0.953125 0.4375 -1.78125q0.4375 -0.828125 1.359375 -1.328125q0.9375 -0.515625 2.4375 -0.515625q0.96875 0 1.96875 0.21875q1.0 0.21875 2.03125 0.71875l-0.65625 1.75q-1.84375 -0.828125 -3.34375 -0.828125q-2.203125 0 -2.203125 1.640625q0 0.640625 0.40625 1.09375q0.40625 0.453125 1.515625 0.734375l1.390625 0.34375q1.671875 0.40625 2.453125 1.328125q0.796875 0.90625 0.796875 2.359375q0 1.03125 -0.453125 1.890625q-0.4375 0.84375 -1.421875 1.328125q-0.96875 0.46875 -2.609375 0.46875q-1.09375 0 -2.171875 -0.234375q-1.0625 -0.21875 -2.203125 -0.71875l0.546875 -1.734375q1.09375 0.4375 1.96875 0.640625q0.890625 0.203125 1.8125 0.203125z" fill-rule="nonzero"/><path fill="#c9daf8" d="m462.61285 567.02234l109.44885 0l0 49.763733l-109.44885 0z" fill-rule="evenodd"/><path fill="#000000" d="m498.3337 594.20856l0 1.5q0 1.921875 0.703125 2.90625q0.703125 0.96875 2.25 0.96875q1.53125 0 3.265625 -0.796875l0.640625 1.75q-2.078125 0.9375 -4.03125 0.9375q-2.421875 0 -3.6875 -1.546875q-1.265625 -1.546875 -1.265625 -4.21875l0 -1.5q0 -2.6875 1.265625 -4.234375q1.265625 -1.546875 3.6875 -1.546875q0.921875 0 1.890625 0.25q0.96875 0.234375 1.96875 0.671875l-0.640625 1.765625q-0.828125 -0.34375 -1.609375 -0.546875q-0.765625 -0.203125 -1.484375 -0.203125q-1.546875 0 -2.25 0.96875q-0.703125 0.96875 -0.703125 2.875zm19.77481 -0.03125l0 1.53125q0 2.671875 -1.390625 4.21875q-1.375 1.546875 -3.921875 1.546875q-2.53125 0 -3.9375 -1.546875q-1.390625 -1.546875 -1.390625 -4.21875l0 -1.53125q0 -2.625 1.375 -4.1875q1.390625 -1.5625 3.953125 -1.5625q2.546875 0 3.921875 1.5625q1.390625 1.5625 1.390625 4.1875zm-2.15625 0q0 -1.796875 -0.8125 -2.8125q-0.796875 -1.03125 -2.34375 -1.03125q-1.53125 0 -2.359375 1.03125q-0.8125 1.015625 -0.8125 2.8125l0 1.53125q0 1.875 0.8125 2.890625q0.828125 1.0 2.359375 1.0q1.546875 0 2.34375 -1.0q0.8125 -1.015625 0.8125 -2.890625l0 -1.53125zm15.858765 0l0 1.53125q0 2.671875 -1.390625 4.21875q-1.375 1.546875 -3.921875 1.546875q-2.53125 0 -3.9375 -1.546875q-1.390625 -1.546875 -1.390625 -4.21875l0 -1.53125q0 -2.625 1.375 -4.1875q1.390625 -1.5625 3.953125 -1.5625q2.546875 0 3.921875 1.5625q1.390625 1.5625 1.390625 4.1875zm-2.15625 0q0 -1.796875 -0.8125 -2.8125q-0.796875 -1.03125 -2.34375 -1.03125q-1.53125 0 -2.359375 1.03125q-0.8125 1.015625 -0.8125 2.8125l0 1.53125q0 1.875 0.8125 2.890625q0.828125 1.0 2.359375 1.0q1.546875 0 2.34375 -1.0q0.8125 -1.015625 0.8125 -2.890625l0 -1.53125zm5.9056396 4.0l0 -15.703125l2.078125 0l0 15.609375q0 0.6875 0.21875 1.03125q0.21875 0.34375 0.875 0.34375l0.40625 0l0 1.890625l-0.59375 0q-1.671875 0 -2.328125 -0.875q-0.65625 -0.890625 -0.65625 -2.296875z" fill-rule="nonzero"/><path fill="#c9daf8" d="m584.43964 567.02234l109.44879 0l0 49.763733l-109.44879 0z" fill-rule="evenodd"/><path fill="#000000" d="m639.9931 596.6148l-1.671875 0l-0.203125 -6.28125l0 -6.328125l2.078125 0l0 6.328125l-0.203125 6.28125zm0.34375 4.609375l-2.34375 0l0 -2.3125l2.34375 0l0 2.3125z" fill-rule="nonzero"/><path fill="#d9ead3" d="m265.60498 213.04155l0 0c0 -23.91542 19.387299 -43.302704 43.302704 -43.302704l173.20563 0l0 0c11.484589 0 22.49881 4.5622406 30.61966 12.683075c8.120789 8.120819 12.683044 19.13504 12.683044 30.619629l0 247.94579c0 23.915405 -19.387299 43.302704 -43.302704 43.302704l-173.20563 0c-23.915405 0 -43.302704 -19.387299 -43.302704 -43.302704z" fill-rule="evenodd"/><path fill="#000000" d="m299.6004 201.28757l0 2.046875l-9.625 0l0 -17.21875l9.375 0l0 2.078125l-7.171875 0l0 5.390625l6.40625 0l0 2.078125l-6.40625 0l0 5.625l7.421875 0zm9.386749 -8.796875q-0.703125 0 -1.65625 0.359375q-0.953125 0.359375 -2.28125 1.4375l0 9.046875l-2.078125 0l0 -12.53125l1.96875 0l0 1.734375q1.34375 -1.125 2.4375 -1.5625q1.109375 -0.4375 2.125 -0.4375q1.75 0 2.671875 1.109375q0.921875 1.09375 0.921875 3.125l0 8.5625l-2.078125 0l0 -8.25q0 -2.59375 -2.03125 -2.59375zm9.915497 3.828125l0 1.5q0 1.921875 0.703125 2.90625q0.703125 0.96875 2.25 0.96875q1.53125 0 3.265625 -0.796875l0.640625 1.75q-2.078125 0.9375 -4.03125 0.9375q-2.421875 0 -3.6875 -1.546875q-1.265625 -1.546875 -1.265625 -4.21875l0 -1.5q0 -2.6875 1.265625 -4.234375q1.265625 -1.546875 3.6875 -1.546875q0.921875 0 1.890625 0.25q0.96875 0.234375 1.96875 0.671875l-0.640625 1.765625q-0.828125 -0.34375 -1.609375 -0.546875q-0.765625 -0.203125 -1.484375 -0.203125q-1.546875 0 -2.25 0.96875q-0.703125 0.96875 -0.703125 2.875zm19.77481 -0.03125l0 1.53125q0 2.671875 -1.390625 4.21875q-1.375 1.546875 -3.921875 1.546875q-2.53125 0 -3.9375 -1.546875q-1.390625 -1.546875 -1.390625 -4.21875l0 -1.53125q0 -2.625 1.375 -4.1875q1.390625 -1.5625 3.953125 -1.5625q2.546875 0 3.921875 1.5625q1.390625 1.5625 1.390625 4.1875zm-2.15625 0q0 -1.796875 -0.8125 -2.8125q-0.796875 -1.03125 -2.34375 -1.03125q-1.53125 0 -2.359375 1.03125q-0.8125 1.015625 -0.8125 2.8125l0 1.53125q0 1.875 0.8125 2.890625q0.828125 1.0 2.359375 1.0q1.546875 0 2.34375 -1.0q0.8125 -1.015625 0.8125 -2.890625l0 -1.53125zm13.56192 7.046875l0 -1.75q-1.171875 1.109375 -2.125 1.5625q-0.953125 0.4375 -1.953125 0.4375q-2.0 0 -3.078125 -1.515625q-1.078125 -1.515625 -1.078125 -4.25l0 -1.46875q0 -2.671875 1.328125 -4.234375q1.328125 -1.578125 3.859375 -1.578125q0.734375 0 1.46875 0.15625q0.734375 0.15625 1.46875 0.4375l0 -6.546875l2.078125 0l0 18.75l-1.96875 0zm-6.078125 -5.515625q0 1.96875 0.609375 2.890625q0.625 0.921875 1.859375 0.921875q0.734375 0 1.515625 -0.359375q0.796875 -0.375 1.984375 -1.53125l0 -6.6875q-0.734375 -0.328125 -1.421875 -0.46875q-0.671875 -0.140625 -1.34375 -0.140625q-1.71875 0 -2.46875 1.046875q-0.734375 1.03125 -0.734375 2.859375l0 1.46875zm21.629333 4.78125q-1.140625 0.5625 -2.28125 0.765625q-1.140625 0.21875 -2.109375 0.21875q-2.703125 0 -4.03125 -1.546875q-1.328125 -1.546875 -1.328125 -4.21875l0 -1.53125q0 -2.609375 1.328125 -4.171875q1.328125 -1.578125 3.75 -1.578125q1.296875 0 2.375 0.53125q1.078125 0.515625 1.71875 1.5625q0.640625 1.046875 0.640625 2.703125q0 1.0625 -0.296875 2.421875l-7.46875 0l0 0.0625q0 1.921875 0.796875 2.90625q0.796875 0.984375 2.5625 0.984375q0.8125 0 1.78125 -0.203125q0.984375 -0.203125 1.921875 -0.625l0.640625 1.71875zm-4.671875 -10.234375q-1.46875 0 -2.21875 0.953125q-0.734375 0.953125 -0.8125 2.671875l5.671875 0q0.078125 -0.453125 0.078125 -0.859375q0 -1.421875 -0.796875 -2.09375q-0.796875 -0.671875 -1.921875 -0.671875zm14.921631 0.25q-1.140625 0 -2.21875 0.40625q-1.078125 0.40625 -2.28125 1.546875l0 8.765625l-2.078125 0l0 -12.53125l1.96875 0l0 2.015625q1.296875 -1.265625 2.375 -1.765625q1.078125 -0.515625 2.234375 -0.515625l0 2.078125z" fill-rule="nonzero"/><path fill="#f3f3f3" d="m295.9344 443.2954l0 0c0 -3.795044 3.076477 -6.871521 6.871521 -6.871521l185.40656 0c1.8224487 0 3.5702515 0.7239685 4.858917 2.0126343c1.2886353 1.2886353 2.0126038 3.036438 2.0126038 4.8588867l0 27.48529c0 3.795044 -3.076477 6.871521 -6.871521 6.871521l-185.40656 0c-3.795044 0 -6.871521 -3.076477 -6.871521 -6.871521z" fill-rule="evenodd"/><path fill="#f3f3f3" d="m295.9344 388.23767l0 0c0 -3.795044 3.076477 -6.871521 6.871521 -6.871521l185.40656 0c1.8224487 0 3.5702515 0.7239685 4.858917 2.0126038c1.2886353 1.2886658 2.0126038 3.0364685 2.0126038 4.858917l0 27.48529c0 3.795044 -3.076477 6.871521 -6.871521 6.871521l-185.40656 0c-3.795044 0 -6.871521 -3.076477 -6.871521 -6.871521z" fill-rule="evenodd"/><path fill="#f3f3f3" d="m295.93307 333.17993l0 0c0 -3.795044 3.076477 -6.871521 6.871521 -6.871521l185.40656 0c1.8224487 0 3.5702515 0.723938 4.8588867 2.0126038c1.2886658 1.2886658 2.0126343 3.0364685 2.0126343 4.858917l0 27.48529c0 3.795044 -3.076477 6.871521 -6.871521 6.871521l-185.40656 0c-3.795044 0 -6.871521 -3.076477 -6.871521 -6.871521z" fill-rule="evenodd"/><path fill="#f3f3f3" d="m295.9357 278.1222l0 0c0 -3.795044 3.076477 -6.871521 6.871521 -6.871521l185.40656 0c1.8224487 0 3.5702515 0.723938 4.858917 2.0126038c1.2886353 1.2886658 2.0126038 3.0364685 2.0126038 4.858917l0 27.48529c0 3.795044 -3.076477 6.871521 -6.871521 6.871521l-185.40656 0c-3.795044 0 -6.871521 -3.076477 -6.871521 -6.871521z" fill-rule="evenodd"/><path fill="#f3f3f3" d="m295.9357 223.06444l0 0c0 -3.795044 3.076477 -6.871521 6.871521 -6.871521l185.40656 0c1.8224487 0 3.5702515 0.72395325 4.858917 2.012619c1.2886353 1.2886658 2.0126038 3.0364685 2.0126038 4.858902l0 27.48529c0 3.795044 -3.076477 6.8715363 -6.871521 6.8715363l-185.40656 0c-3.795044 0 -6.871521 -3.0764923 -6.871521 -6.8715363z" fill-rule="evenodd"/><path fill="#000000" fill-opacity="0.0" d="m304.2743 498.7047l10.614166 0l0 10.519684l-10.614166 0z" fill-rule="evenodd"/><path fill="#000000" fill-opacity="0.0" d="m347.23758 498.7047l10.614166 0l0 10.519684l-10.614166 0z" fill-rule="evenodd"/><path fill="#000000" fill-opacity="0.0" d="m390.2009 498.7047l10.614166 0l0 10.519684l-10.614166 0z" fill-rule="evenodd"/><path fill="#000000" fill-opacity="0.0" d="m433.16418 498.7047l10.614197 0l0 10.519684l-10.614197 0z" fill-rule="evenodd"/><path fill="#000000" fill-opacity="0.0" d="m476.1275 498.7047l10.614166 0l0 10.519684l-10.614166 0z" fill-rule="evenodd"/><path fill="#000000" fill-opacity="0.0" d="m304.2743 164.68373l10.614166 0l0 10.519684l-10.614166 0z" fill-rule="evenodd"/><path fill="#000000" fill-opacity="0.0" d="m347.23758 164.68373l10.614166 0l0 10.519684l-10.614166 0z" fill-rule="evenodd"/><path fill="#000000" fill-opacity="0.0" d="m390.2009 164.68373l10.614166 0l0 10.519684l-10.614166 0z" fill-rule="evenodd"/><path fill="#000000" fill-opacity="0.0" d="m433.16418 164.68373l10.614197 0l0 10.519684l-10.614197 0z" fill-rule="evenodd"/><path fill="#000000" fill-opacity="0.0" d="m476.1275 164.68373l10.614166 0l0 10.519684l-10.614166 0z" fill-rule="evenodd"/><path fill="#000000" fill-opacity="0.0" d="m558.3779 311.1273l161.57483 0l0 46.86615l-161.57483 0z" fill-rule="evenodd"/><path fill="#000000" d="m574.98724 328.34042l0.34375 -1.859375l10.9375 0l-0.3125 1.859375l-4.484375 0l-2.40625 13.546875l-1.96875 0l2.40625 -13.546875l-4.515625 0zm17.38855 3.984375q-0.53125 0 -1.265625 0.171875q-0.71875 0.171875 -1.546875 0.703125q-0.8125 0.515625 -1.6875 1.578125l-1.234375 7.109375l-1.859375 0l1.984375 -11.21875l1.75 0l-0.359375 2.109375q1.28125 -1.421875 2.453125 -1.875q1.171875 -0.453125 2.078125 -0.453125l-0.3125 1.875zm10.049194 9.671875q-1.109375 0 -1.640625 -0.546875q-0.53125 -0.5625 -0.578125 -1.390625q-1.0625 1.15625 -2.046875 1.609375q-0.96875 0.4375 -1.828125 0.4375q-1.109375 0 -1.828125 -0.6875q-0.703125 -0.703125 -0.984375 -1.921875q-0.265625 -1.234375 -0.046875 -2.78125l0.171875 -1.109375q0.359375 -2.421875 1.6875 -3.78125q1.34375 -1.375 3.515625 -1.375q1.140625 0 2.25 0.375q1.125 0.375 2.171875 1.046875l-1.21875 6.953125q-0.125 0.6875 0.03125 1.09375q0.171875 0.390625 0.734375 0.390625l0.3125 0l-0.3125 1.6875l-0.390625 0zm-7.015625 -5.28125q-0.25 1.796875 0.125 2.765625q0.390625 0.953125 1.296875 0.953125q0.6875 0 1.59375 -0.578125q0.90625 -0.59375 1.9375 -2.0625l0.890625 -5.03125q-1.234375 -0.609375 -2.296875 -0.609375q-1.46875 0 -2.328125 0.96875q-0.84375 0.953125 -1.0625 2.484375l-0.15625 1.109375zm17.297607 -4.53125q-0.421875 0 -1.0 0.203125q-0.5625 0.1875 -1.3125 0.71875q-0.734375 0.53125 -1.71875 1.578125l-1.28125 7.203125l-1.859375 0l1.984375 -11.21875l1.75 0l-0.34375 2.0625q1.34375 -1.40625 2.390625 -1.84375q1.0625 -0.4375 1.890625 -0.4375q1.546875 0 2.28125 1.125q0.734375 1.109375 0.421875 2.90625l-1.3125 7.40625l-1.859375 0l1.265625 -7.25q0.453125 -2.453125 -1.296875 -2.453125zm8.780457 8.28125q1.3125 0 1.890625 -0.453125q0.578125 -0.453125 0.578125 -1.1875q0 -0.578125 -0.375 -0.9375q-0.359375 -0.375 -1.21875 -0.6875l-1.078125 -0.4375q-1.15625 -0.421875 -1.734375 -1.140625q-0.578125 -0.734375 -0.578125 -1.84375q0 -0.90625 0.390625 -1.65625q0.390625 -0.75 1.28125 -1.203125q0.890625 -0.46875 2.3125 -0.46875q1.75 0 3.53125 0.8125l-0.59375 1.578125q-0.8125 -0.375 -1.546875 -0.546875q-0.71875 -0.171875 -1.4375 -0.171875q-1.109375 0 -1.59375 0.40625q-0.484375 0.40625 -0.484375 1.109375q0 0.5 0.296875 0.875q0.3125 0.359375 1.0625 0.640625l1.109375 0.40625q1.234375 0.453125 1.875 1.1875q0.640625 0.71875 0.640625 1.875q0 0.890625 -0.4375 1.703125q-0.4375 0.796875 -1.40625 1.296875q-0.953125 0.484375 -2.53125 0.484375q-1.890625 0 -3.78125 -0.828125l0.578125 -1.5625q0.890625 0.375 1.671875 0.5625q0.796875 0.1875 1.578125 0.1875zm14.388245 -8.15625l-3.671875 0l-1.703125 9.578125l-1.859375 0l1.703125 -9.578125l-1.953125 0l0.265625 -1.640625l1.984375 0l0.3125 -1.859375q0.203125 -1.125 0.671875 -2.0q0.484375 -0.890625 1.328125 -1.390625q0.859375 -0.515625 2.171875 -0.515625q0.71875 0 1.40625 0.171875q0.703125 0.15625 1.3125 0.484375l-0.734375 1.484375q-1.078125 -0.453125 -1.90625 -0.453125q-0.96875 0 -1.578125 0.53125q-0.609375 0.515625 -0.8125 1.671875l-0.34375 1.875l3.6875 0l-0.28125 1.640625zm10.205444 3.734375l-0.171875 1.125q-0.359375 2.40625 -1.71875 3.671875q-1.34375 1.265625 -3.5 1.265625q-1.578125 0 -2.609375 -0.71875q-1.03125 -0.71875 -1.4375 -1.984375q-0.40625 -1.28125 -0.15625 -2.890625l0.171875 -1.15625q0.390625 -2.296875 1.703125 -3.59375q1.328125 -1.3125 3.515625 -1.3125q1.609375 0 2.625 0.75q1.015625 0.734375 1.421875 2.0q0.40625 1.25 0.15625 2.84375zm-1.921875 -0.046875q0.265625 -1.703125 -0.328125 -2.765625q-0.578125 -1.078125 -1.984375 -1.078125q-1.3125 0 -2.171875 0.84375q-0.84375 0.828125 -1.09375 2.359375l-0.171875 1.203125q-0.28125 1.75 0.3125 2.8125q0.609375 1.0625 2.0 1.0625q1.3125 0 2.15625 -0.828125q0.859375 -0.828125 1.09375 -2.4375l0.1875 -1.171875zm11.880493 -3.671875q-0.53125 0 -1.265625 0.171875q-0.71875 0.171875 -1.546875 0.703125q-0.8125 0.515625 -1.6875 1.578125l-1.234375 7.109375l-1.859375 0l1.984375 -11.21875l1.75 0l-0.359375 2.109375q1.28125 -1.421875 2.453125 -1.875q1.171875 -0.453125 2.078125 -0.453125l-0.3125 1.875zm7.7835693 -0.140625q-0.625 0 -1.578125 0.5q-0.9375 0.484375 -2.359375 2.015625l-1.265625 7.1875l-1.859375 0l1.984375 -11.21875l1.75 0l-0.34375 2.046875q1.3125 -1.390625 2.328125 -1.828125q1.03125 -0.4375 1.84375 -0.4375q1.109375 0 1.78125 0.640625q0.6875 0.625 0.84375 1.71875q1.34375 -1.4375 2.421875 -1.890625q1.09375 -0.46875 1.9375 -0.46875q1.515625 0 2.203125 1.109375q0.6875 1.109375 0.375 2.921875l-1.3125 7.40625l-1.859375 0l1.296875 -7.25q0.21875 -1.21875 -0.125 -1.828125q-0.328125 -0.625 -1.078125 -0.625q-0.40625 0 -0.96875 0.21875q-0.546875 0.203125 -1.28125 0.734375q-0.71875 0.53125 -1.703125 1.5625l-1.265625 7.1875l-1.859375 0l1.28125 -7.25q0.21875 -1.21875 -0.109375 -1.828125q-0.328125 -0.625 -1.078125 -0.625zm20.891357 9.25q-0.96875 0.359375 -1.875 0.515625q-0.90625 0.15625 -1.734375 0.15625q-1.8125 0 -2.84375 -0.734375q-1.015625 -0.734375 -1.359375 -2.0q-0.34375 -1.265625 -0.09375 -2.859375l0.203125 -1.15625q0.359375 -2.21875 1.703125 -3.5625q1.359375 -1.34375 3.421875 -1.34375q1.015625 0 1.90625 0.359375q0.90625 0.359375 1.4375 1.140625q0.546875 0.765625 0.546875 1.96875q0 0.65625 -0.203125 1.390625q-0.1875 0.734375 -0.703125 1.59375l-6.546875 0q-0.203125 1.5625 0.359375 2.546875q0.578125 0.984375 2.34375 0.984375q0.625 0 1.4375 -0.140625q0.828125 -0.15625 1.703125 -0.4375l0.296875 1.578125zm-2.65625 -9.328125q-1.28125 0 -2.125 0.84375q-0.84375 0.84375 -1.09375 2.375l5.078125 0q0.1875 -0.390625 0.234375 -0.734375q0.0625 -0.34375 0.0625 -0.625q0 -0.953125 -0.609375 -1.40625q-0.609375 -0.453125 -1.546875 -0.453125zm13.42572 0.21875q-0.53125 0 -1.265625 0.171875q-0.71875 0.171875 -1.546875 0.703125q-0.8125 0.515625 -1.6875 1.578125l-1.234375 7.109375l-1.859375 0l1.984375 -11.21875l1.75 0l-0.359375 2.109375q1.28125 -1.421875 2.453125 -1.875q1.171875 -0.453125 2.078125 -0.453125l-0.3125 1.875zm3.7366943 8.140625q1.3125 0 1.890625 -0.453125q0.578125 -0.453125 0.578125 -1.1875q0 -0.578125 -0.375 -0.9375q-0.359375 -0.375 -1.21875 -0.6875l-1.078125 -0.4375q-1.15625 -0.421875 -1.734375 -1.140625q-0.578125 -0.734375 -0.578125 -1.84375q0 -0.90625 0.390625 -1.65625q0.390625 -0.75 1.28125 -1.203125q0.890625 -0.46875 2.3125 -0.46875q1.75 0 3.53125 0.8125l-0.59375 1.578125q-0.8125 -0.375 -1.546875 -0.546875q-0.71875 -0.171875 -1.4375 -0.171875q-1.109375 0 -1.59375 0.40625q-0.484375 0.40625 -0.484375 1.109375q0 0.5 0.296875 0.875q0.3125 0.359375 1.0625 0.640625l1.109375 0.40625q1.234375 0.453125 1.875 1.1875q0.640625 0.71875 0.640625 1.875q0 0.890625 -0.4375 1.703125q-0.4375 0.796875 -1.40625 1.296875q-0.953125 0.484375 -2.53125 0.484375q-1.890625 0 -3.78125 -0.828125l0.578125 -1.5625q0.890625 0.375 1.671875 0.5625q0.796875 0.1875 1.578125 0.1875z" fill-rule="nonzero"/><path fill="#000000" fill-opacity="0.0" d="m151.85695 567.02234c0 -14.449402 39.433075 -21.674438 78.86615 -28.898804c39.43306 -7.2244263 78.866135 -14.448242 78.866135 -28.896515" fill-rule="evenodd"/><path stroke="#000000" stroke-width="2.0" stroke-linejoin="round" stroke-linecap="butt" d="m151.85695 567.02234c0 -14.449402 39.433075 -21.674377 78.86615 -28.898804c19.716537 -3.6122437 39.43306 -7.224243 54.220474 -11.739319c3.6968384 -1.1287842 7.0856323 -2.3139648 10.089325 -3.5697021c1.501831 -0.62786865 2.9074097 -1.2733765 4.2070923 -1.9382935c0.6498413 -0.3324585 1.2731934 -0.6697998 1.868866 -1.012146c0.29785156 -0.17114258 0.58877563 -0.34362793 0.8726196 -0.517395c0.14193726 -0.08685303 0.2821045 -0.17407227 0.4204712 -0.26159668l0.18051147 -0.1161499" fill-rule="evenodd"/><path fill="#000000" stroke="#000000" stroke-width="2.0" stroke-linecap="butt" d="m305.2643 520.8978l2.6177368 -9.29718l-7.981415 5.439453z" fill-rule="evenodd"/><path fill="#000000" fill-opacity="0.0" d="m273.68372 567.02234c0 -14.449402 19.716553 -21.674438 39.433075 -28.898804c19.716553 -7.2244263 39.433075 -14.448242 39.433075 -28.896515" fill-rule="evenodd"/><path stroke="#000000" stroke-width="2.0" stroke-linejoin="round" stroke-linecap="butt" d="m273.68372 567.02234c0 -14.449402 19.716553 -21.674377 39.433075 -28.898804c9.858276 -3.6122437 19.716553 -7.224243 27.11023 -11.739319c1.8484497 -1.1287842 3.5428162 -2.3139648 5.0446777 -3.5697021c0.75094604 -0.62786865 1.4537048 -1.2733765 2.1035461 -1.9382935c0.16244507 -0.16619873 0.32159424 -0.3336792 0.47735596 -0.50231934l0.06866455 -0.07543945" fill-rule="evenodd"/><path fill="#000000" stroke="#000000" stroke-width="2.0" stroke-linecap="butt" d="m350.9691 521.57263l0.45303345 -9.648041l-6.5486755 7.09964z" fill-rule="evenodd"/><path fill="#000000" fill-opacity="0.0" d="m395.5105 567.02234c0 -14.449402 0.01574707 -21.674438 0.03149414 -28.898804c0.01574707 -7.2244263 0.03149414 -14.448242 0.03149414 -28.896515" fill-rule="evenodd"/><path stroke="#000000" stroke-width="2.0" stroke-linejoin="round" stroke-linecap="butt" d="m395.5105 567.02234c0 -14.449402 0.01574707 -21.674377 0.03149414 -28.898804c0.007873535 -3.6122437 0.01574707 -7.224243 0.02166748 -11.739319l0.0048828125 -5.1571655" fill-rule="evenodd"/><path fill="#000000" stroke="#000000" stroke-width="2.0" stroke-linecap="butt" d="m398.87198 521.2284l-3.2997131 -9.077576l-3.3072205 9.074829z" fill-rule="evenodd"/><path fill="#000000" fill-opacity="0.0" d="m517.3373 567.02234c0 -14.449402 -19.716553 -21.674438 -39.433075 -28.898804c-19.716553 -7.2244263 -39.433075 -14.448242 -39.433075 -28.896515" fill-rule="evenodd"/><path stroke="#000000" stroke-width="2.0" stroke-linejoin="round" stroke-linecap="butt" d="m517.3373 567.02234c0 -14.449402 -19.716553 -21.674377 -39.433075 -28.898804c-9.858276 -3.6122437 -19.716553 -7.224243 -27.11023 -11.739319c-1.8484497 -1.1287842 -3.5428162 -2.3139648 -5.0446777 -3.5697021c-0.75094604 -0.62786865 -1.4537048 -1.2733765 -2.1035461 -1.9382935c-0.16244507 -0.16619873 -0.32159424 -0.3336792 -0.47735596 -0.50231934l-0.06866455 -0.07543945" fill-rule="evenodd"/><path fill="#000000" stroke="#000000" stroke-width="2.0" stroke-linecap="butt" d="m446.14755 519.02423l-6.5486755 -7.09964l0.45303345 9.648041z" fill-rule="evenodd"/><path fill="#000000" fill-opacity="0.0" d="m639.16406 567.02234c0 -14.449402 -39.433105 -21.674438 -78.86615 -28.898804c-39.433105 -7.2244263 -78.86615 -14.448242 -78.86615 -28.896515" fill-rule="evenodd"/><path stroke="#000000" stroke-width="2.0" stroke-linejoin="round" stroke-linecap="butt" d="m639.16406 567.02234c0 -14.449402 -39.433105 -21.674377 -78.86615 -28.898804c-19.716553 -3.6122437 -39.433105 -7.224243 -54.22049 -11.739319c-3.6968384 -1.1287842 -7.0856323 -2.3139648 -10.089325 -3.5697021c-1.501831 -0.62786865 -2.9073792 -1.2733765 -4.2070923 -1.9382935c-0.6498108 -0.3324585 -1.2731628 -0.6697998 -1.8688965 -1.012146c-0.29782104 -0.17114258 -0.5887451 -0.34362793 -0.8725891 -0.517395c-0.14193726 -0.08685303 -0.2821045 -0.17407227 -0.4204712 -0.26159668l-0.18051147 -0.1161499" fill-rule="evenodd"/><path fill="#000000" stroke="#000000" stroke-width="2.0" stroke-linecap="butt" d="m491.12036 517.0401l-7.981415 -5.439453l2.6177368 9.29718z" fill-rule="evenodd"/><path fill="#000000" fill-opacity="0.0" d="m309.58136 164.68373c0 -14.419052 -0.023620605 -21.629456 -0.04724121 -28.838104c-0.023620605 -7.208664 -0.04724121 -14.415596 -0.04724121 -28.831192" fill-rule="evenodd"/><path stroke="#000000" stroke-width="2.0" stroke-linejoin="round" stroke-linecap="butt" d="m309.58136 164.68373c0 -14.419052 -0.023620605 -21.62944 -0.04724121 -28.838104c-0.011810303 -3.6043243 -0.023620605 -7.2082367 -0.032470703 -11.712997l-0.0072631836 -5.1181946" fill-rule="evenodd"/><path fill="#000000" stroke="#000000" stroke-width="2.0" stroke-linecap="butt" d="m312.79785 119.01237l-3.309143 -9.074127l-3.2977905 9.078255z" fill-rule="evenodd"/><path fill="#000000" fill-opacity="0.0" d="m558.3779 334.56036c-15.823242 0 -23.733154 -24.440948 -31.646545 -48.881897c-7.913391 -24.440948 -15.830261 -48.88188 -31.660522 -48.88188" fill-rule="evenodd"/><path stroke="#000000" stroke-width="2.0" stroke-linejoin="round" stroke-linecap="butt" d="m558.3779 334.56036c-15.823242 0 -23.733154 -24.440948 -31.646545 -48.881897c-3.956726 -12.220459 -7.9142456 -24.440948 -12.86145 -33.606293c-1.2367554 -2.291336 -2.5354004 -4.3917236 -3.9113464 -6.253433c-0.6879883 -0.9308624 -1.3952637 -1.8020477 -2.1238098 -2.607605c-0.36431885 -0.402771 -0.7338867 -0.7891388 -1.1090698 -1.1583405c-0.18753052 -0.18460083 -0.37649536 -0.3649292 -0.566864 -0.54086304l-0.038391113 -0.03488159" fill-rule="evenodd"/><path fill="#000000" stroke="#000000" stroke-width="2.0" stroke-linecap="butt" d="m507.40894 238.43523l-9.6458435 -0.49824524l7.068878 6.581894z" fill-rule="evenodd"/><path fill="#000000" fill-opacity="0.0" d="m558.3779 334.56036c-15.823608 0 -23.733826 16.858276 -31.647217 33.716553c-7.91333 16.858246 -15.829895 33.716522 -31.659851 33.716522" fill-rule="evenodd"/><path stroke="#000000" stroke-width="2.0" stroke-linejoin="round" stroke-linecap="butt" d="m558.3779 334.56036c-15.823608 0 -23.733826 16.858276 -31.647217 33.716553c-3.956665 8.429108 -7.9141235 16.858246 -12.861206 23.180115c-1.2367554 1.5804443 -2.5354004 3.0291748 -3.9112854 4.3133545c-0.68795776 0.6420593 -1.3952332 1.2429504 -2.1237793 1.798584c-0.3642578 0.2778015 -0.7338562 0.5443115 -1.1089783 0.7989807l-0.17831421 0.11917114" fill-rule="evenodd"/><path fill="#000000" stroke="#000000" stroke-width="2.0" stroke-linecap="butt" d="m505.58194 395.32782l-7.7148743 5.81131l9.645355 0.5072937z" fill-rule="evenodd"/><path fill="#fce5cd" d="m244.48032 107.00787l46.86615 -46.866142l36.251953 0l46.86615 46.866142z" fill-rule="evenodd"/><path fill="#000000" fill-opacity="0.0" d="m8.139108 60.14173l206.58267 0l0 46.866142l-206.58267 0z" fill-rule="evenodd"/><path fill="#000000" d="m21.990929 77.35486l0.34375 -1.859375l10.9375 0l-0.3125 1.859375l-4.484375 0l-2.40625 13.546875l-1.96875 0l2.40625 -13.546875l-4.515625 0zm18.646927 13.65625q-1.109375 0 -1.640625 -0.546875q-0.53125 -0.5625 -0.578125 -1.390625q-1.0625 1.15625 -2.046875 1.609375q-0.96875 0.4375 -1.828125 0.4375q-1.109375 0 -1.828125 -0.6875q-0.703125 -0.703125 -0.984375 -1.921875q-0.265625 -1.234375 -0.046875 -2.78125l0.171875 -1.109375q0.359375 -2.421875 1.6875 -3.78125q1.34375 -1.375 3.515625 -1.375q1.140625 0 2.25 0.375q1.125 0.375 2.171875 1.046875l-1.21875 6.953125q-0.125 0.6875 0.03125 1.09375q0.171875 0.390625 0.734375 0.390625l0.3125 0l-0.3125 1.6875l-0.390625 0zm-7.015625 -5.28125q-0.25 1.796875 0.125 2.765625q0.390625 0.953125 1.296875 0.953125q0.6875 0 1.59375 -0.578125q0.90625 -0.59375 1.9375 -2.0625l0.890625 -5.03125q-1.234375 -0.609375 -2.296875 -0.609375q-1.46875 0 -2.328125 0.96875q-0.84375 0.953125 -1.0625 2.484375l-0.15625 1.109375zm13.141373 3.75q1.3125 0 1.890625 -0.453125q0.578125 -0.453125 0.578125 -1.1875q0 -0.578125 -0.375 -0.9375q-0.359375 -0.375 -1.21875 -0.6875l-1.078125 -0.4375q-1.15625 -0.421875 -1.734375 -1.140625q-0.578125 -0.734375 -0.578125 -1.84375q0 -0.90625 0.390625 -1.65625q0.390625 -0.75 1.28125 -1.203125q0.890625 -0.46875 2.3125 -0.46875q1.75 0 3.53125 0.8125l-0.59375 1.578125q-0.8125 -0.375 -1.546875 -0.546875q-0.71875 -0.171875 -1.4375 -0.171875q-1.109375 0 -1.59375 0.40625q-0.484375 0.40625 -0.484375 1.109375q0 0.5 0.296875 0.875q0.3125 0.359375 1.0625 0.640625l1.109375 0.40625q1.234375 0.453125 1.875 1.1875q0.640625 0.71875 0.640625 1.875q0 0.890625 -0.4375 1.703125q-0.4375 0.796875 -1.40625 1.296875q-0.953125 0.484375 -2.53125 0.484375q-1.890625 0 -3.78125 -0.828125l0.578125 -1.5625q0.890625 0.375 1.671875 0.5625q0.796875 0.1875 1.578125 0.1875zm13.747635 1.421875l-2.265625 -5.203125q-0.5 0.421875 -1.0625 0.875q-0.5625 0.4375 -1.15625 0.890625l-0.609375 3.4375l-1.859375 0l2.96875 -16.765625l1.859375 0l-2.0 11.234375q1.703125 -1.40625 3.0625 -2.75q1.375 -1.34375 2.5625 -2.9375l2.21875 0q-1.046875 1.390625 -2.140625 2.578125q-1.078125 1.171875 -2.328125 2.34375l2.90625 6.296875l-2.15625 0zm4.219986 -6.046875l0.28125 -1.640625l6.34375 0l-0.28125 1.640625l-6.34375 0zm11.553101 4.625q1.3125 0 1.890625 -0.453125q0.578125 -0.453125 0.578125 -1.1875q0 -0.578125 -0.375 -0.9375q-0.359375 -0.375 -1.21875 -0.6875l-1.078125 -0.4375q-1.15625 -0.421875 -1.734375 -1.140625q-0.578125 -0.734375 -0.578125 -1.84375q0 -0.90625 0.390625 -1.65625q0.390625 -0.75 1.28125 -1.203125q0.890625 -0.46875 2.3125 -0.46875q1.75 0 3.53125 0.8125l-0.59375 1.578125q-0.8125 -0.375 -1.546875 -0.546875q-0.71875 -0.171875 -1.4375 -0.171875q-1.109375 0 -1.59375 0.40625q-0.484375 0.40625 -0.484375 1.109375q0 0.5 0.296875 0.875q0.3125 0.359375 1.0625 0.640625l1.109375 0.40625q1.234375 0.453125 1.875 1.1875q0.640625 0.71875 0.640625 1.875q0 0.890625 -0.4375 1.703125q-0.4375 0.796875 -1.40625 1.296875q-0.953125 0.484375 -2.53125 0.484375q-1.890625 0 -3.78125 -0.828125l0.578125 -1.5625q0.890625 0.375 1.671875 0.5625q0.796875 0.1875 1.578125 0.1875zm11.57576 1.640625q-0.78125 0 -1.484375 -0.1875q-0.6875 -0.171875 -1.375 -0.484375l-0.921875 5.28125l-1.859375 0l2.84375 -16.046875l1.75 0l-0.359375 2.046875q1.078125 -1.265625 2.046875 -1.765625q0.984375 -0.5 1.84375 -0.5q1.140625 0 1.859375 0.703125q0.734375 0.703125 1.015625 1.921875q0.28125 1.21875 0.046875 2.78125l-0.15625 1.09375q-0.359375 2.46875 -1.703125 3.8125q-1.328125 1.34375 -3.546875 1.34375zm1.96875 -9.953125q-0.703125 0 -1.640625 0.640625q-0.921875 0.625 -2.046875 2.1875l-0.84375 4.796875q1.25 0.65625 2.421875 0.65625q1.546875 0 2.390625 -0.9375q0.84375 -0.9375 1.078125 -2.546875l0.15625 -1.09375q0.25 -1.78125 -0.140625 -2.734375q-0.375 -0.96875 -1.375 -0.96875zm14.112473 9.28125q-0.96875 0.359375 -1.875 0.515625q-0.90625 0.15625 -1.734375 0.15625q-1.8125 0 -2.84375 -0.734375q-1.015625 -0.734375 -1.359375 -2.0q-0.34375 -1.265625 -0.09375 -2.859375l0.203125 -1.15625q0.359375 -2.21875 1.703125 -3.5625q1.359375 -1.34375 3.421875 -1.34375q1.015625 0 1.90625 0.359375q0.90625 0.359375 1.4375 1.140625q0.546875 0.765625 0.546875 1.96875q0 0.65625 -0.203125 1.390625q-0.1875 0.734375 -0.703125 1.59375l-6.546875 0q-0.203125 1.5625 0.359375 2.546875q0.578125 0.984375 2.34375 0.984375q0.625 0 1.4375 -0.140625q0.828125 -0.15625 1.703125 -0.4375l0.296875 1.578125zm-2.65625 -9.328125q-1.28125 0 -2.125 0.84375q-0.84375 0.84375 -1.09375 2.375l5.078125 0q0.1875 -0.390625 0.234375 -0.734375q0.0625 -0.34375 0.0625 -0.625q0 -0.953125 -0.609375 -1.40625q-0.609375 -0.453125 -1.546875 -0.453125zm11.425751 0.0625q-1.25 0 -2.09375 0.828125q-0.828125 0.828125 -1.078125 2.359375l-0.203125 1.234375q-0.28125 1.671875 0.203125 2.75q0.5 1.078125 2.125 1.078125q1.203125 0 2.75 -0.5625l0.3125 1.59375q-1.796875 0.65625 -3.21875 0.65625q-1.671875 0 -2.65625 -0.734375q-0.96875 -0.734375 -1.296875 -2.0q-0.3125 -1.265625 -0.0625 -2.859375l0.1875 -1.15625q0.390625 -2.28125 1.6875 -3.59375q1.296875 -1.3125 3.296875 -1.3125q0.8125 0 1.65625 0.234375q0.84375 0.21875 1.671875 0.625l-0.65625 1.578125q-0.703125 -0.328125 -1.375 -0.515625q-0.65625 -0.203125 -1.25 -0.203125zm9.077316 -4.234375l-2.078125 0l0.34375 -2.09375l2.078125 0l-0.34375 2.09375zm-2.59375 13.953125l-1.859375 0l1.984375 -11.21875l1.859375 0l-1.984375 11.21875zm8.51561 -12.875l-0.296875 1.65625l6.9531326 0l-1.96875 11.21875l-1.859375 0l1.671875 -9.578125l-5.0937576 0l-1.671875 9.578125l-1.859375 0l1.703125 -9.578125l-1.953125 0l0.265625 -1.640625l1.953125 0l0.296875 -1.625q0.21875 -1.25 0.78125 -2.171875q0.5625 -0.9375 1.5781326 -1.453125q1.015625 -0.515625 2.609375 -0.515625q0.90625 0 1.890625 0.203125q1.0 0.203125 2.0 0.671875l-0.703125 1.515625q-0.90625 -0.375 -1.734375 -0.53125q-0.828125 -0.171875 -1.484375 -0.171875q-1.265625 0 -2.0625 0.578125q-0.7968826 0.5625 -1.0156326 1.84375zm14.295296 3.15625q-1.25 0 -2.09375 0.828125q-0.828125 0.828125 -1.078125 2.359375l-0.203125 1.234375q-0.28125 1.671875 0.203125 2.75q0.5 1.078125 2.125 1.078125q1.203125 0 2.75 -0.5625l0.3125 1.59375q-1.796875 0.65625 -3.21875 0.65625q-1.671875 0 -2.65625 -0.734375q-0.96875 -0.734375 -1.296875 -2.0q-0.3125 -1.265625 -0.0625 -2.859375l0.1875 -1.15625q0.390625 -2.28125 1.6875 -3.59375q1.296875 -1.3125 3.296875 -1.3125q0.8125 0 1.65625 0.234375q0.84375 0.21875 1.671875 0.625l-0.65625 1.578125q-0.703125 -0.328125 -1.375 -0.515625q-0.65625 -0.203125 -1.25 -0.203125zm18.672623 9.71875l1.203125 -6.859375l-6.734375 0l-1.203125 6.859375l-1.96875 0l2.71875 -15.40625l1.96875 0l-1.171875 6.6875l6.71875 0l1.1875 -6.6875l1.96875 0l-2.71875 15.40625l-1.96875 0zm14.630432 -0.453125q-0.96875 0.359375 -1.875 0.515625q-0.90625 0.15625 -1.734375 0.15625q-1.8125 0 -2.84375 -0.734375q-1.015625 -0.734375 -1.359375 -2.0q-0.34375 -1.265625 -0.09375 -2.859375l0.203125 -1.15625q0.359375 -2.21875 1.703125 -3.5625q1.359375 -1.34375 3.421875 -1.34375q1.015625 0 1.90625 0.359375q0.90625 0.359375 1.4375 1.140625q0.546875 0.765625 0.546875 1.96875q0 0.65625 -0.203125 1.390625q-0.1875 0.734375 -0.703125 1.59375l-6.546875 0q-0.203125 1.5625 0.359375 2.546875q0.578125 0.984375 2.34375 0.984375q0.625 0 1.4375 -0.140625q0.828125 -0.15625 1.703125 -0.4375l0.296875 1.578125zm-2.65625 -9.328125q-1.28125 0 -2.125 0.84375q-0.84375 0.84375 -1.09375 2.375l5.078125 0q0.1875 -0.390625 0.234375 -0.734375q0.0625 -0.34375 0.0625 -0.625q0 -0.953125 -0.609375 -1.40625q-0.609375 -0.453125 -1.546875 -0.453125zm15.160126 9.890625q-1.109375 0 -1.640625 -0.546875q-0.53125 -0.5625 -0.578125 -1.390625q-1.0625 1.15625 -2.046875 1.609375q-0.96875 0.4375 -1.828125 0.4375q-1.109375 0 -1.828125 -0.6875q-0.703125 -0.703125 -0.984375 -1.921875q-0.265625 -1.234375 -0.046875 -2.78125l0.171875 -1.109375q0.359375 -2.421875 1.6875 -3.78125q1.34375 -1.375 3.515625 -1.375q1.140625 0 2.25 0.375q1.125 0.375 2.171875 1.046875l-1.21875 6.953125q-0.125 0.6875 0.03125 1.09375q0.171875 0.390625 0.734375 0.390625l0.3125 0l-0.3125 1.6875l-0.390625 0zm-7.015625 -5.28125q-0.25 1.796875 0.125 2.765625q0.390625 0.953125 1.296875 0.953125q0.6875 0 1.59375 -0.578125q0.90625 -0.59375 1.9375 -2.0625l0.890625 -5.03125q-1.234375 -0.609375 -2.296875 -0.609375q-1.46875 0 -2.328125 0.96875q-0.84375 0.953125 -1.0625 2.484375l-0.15625 1.109375zm16.969498 5.171875l0.328125 -2.0q-1.0625 1.25 -2.03125 1.734375q-0.953125 0.484375 -1.84375 0.484375q-1.125 0 -1.859375 -0.6875q-0.71875 -0.703125 -1.0 -1.921875q-0.265625 -1.234375 -0.03125 -2.78125l0.15625 -1.109375q0.359375 -2.46875 1.6875 -3.8125q1.328125 -1.34375 3.5625 -1.34375q0.75 0 1.453125 0.1875q0.703125 0.171875 1.390625 0.484375l1.0625 -6.0l1.859375 0l-2.96875 16.765625l-1.765625 0zm-4.515625 -5.171875q-0.25 1.796875 0.125 2.765625q0.390625 0.953125 1.375 0.953125q0.71875 0 1.640625 -0.625q0.9375 -0.640625 2.046875 -2.21875l0.84375 -4.78125q-1.25 -0.65625 -2.421875 -0.65625q-1.515625 0 -2.359375 0.921875q-0.84375 0.921875 -1.09375 2.53125l-0.15625 1.109375z" fill-rule="nonzero"/><path fill="#000000" fill-opacity="0.0" d="m228.68504 5.4278216l161.57481 0l0 46.866142l-161.57481 0z" fill-rule="evenodd"/><path stroke="#000000" stroke-width="1.0" stroke-linejoin="round" stroke-linecap="butt" stroke-dasharray="4.0,3.0" d="m228.68504 5.4278216l161.57481 0l0 46.866142l-161.57481 0z" fill-rule="evenodd"/><path fill="#000000" d="m244.641 34.765945q2.265625 0 2.265625 -1.546875q0 -0.65625 -0.40625 -1.03125q-0.40625 -0.390625 -1.5 -0.671875l-1.25 -0.3125q-1.375 -0.34375 -2.0625 -1.1875q-0.671875 -0.84375 -0.671875 -2.03125q0 -0.859375 0.375 -1.59375q0.390625 -0.734375 1.234375 -1.1875q0.84375 -0.453125 2.171875 -0.453125q0.859375 0 1.75 0.1875q0.90625 0.1875 1.828125 0.640625l-0.578125 1.5625q-1.65625 -0.734375 -3.0 -0.734375q-1.96875 0 -1.96875 1.46875q0 0.5625 0.359375 0.96875q0.359375 0.40625 1.359375 0.65625l1.25 0.328125q1.5 0.359375 2.203125 1.171875q0.703125 0.8125 0.703125 2.109375q0 0.921875 -0.40625 1.6875q-0.390625 0.75 -1.265625 1.1875q-0.875 0.421875 -2.34375 0.421875q-0.96875 0 -1.9375 -0.203125q-0.96875 -0.203125 -1.984375 -0.65625l0.5 -1.53125q0.96875 0.375 1.765625 0.5625q0.796875 0.1875 1.609375 0.1875zm15.155441 0.765625q-1.015625 0.5 -2.046875 0.6875q-1.015625 0.1875 -1.875 0.1875q-2.421875 0 -3.609375 -1.375q-1.1875 -1.375 -1.1875 -3.78125l0 -1.359375q0 -2.328125 1.1875 -3.734375q1.1875 -1.40625 3.359375 -1.40625q1.15625 0 2.125 0.46875q0.96875 0.453125 1.53125 1.40625q0.578125 0.9375 0.578125 2.40625q0 0.953125 -0.265625 2.171875l-6.6875 0l0 0.046875q0 1.71875 0.71875 2.609375q0.71875 0.875 2.296875 0.875q0.734375 0 1.59375 -0.171875q0.875 -0.1875 1.71875 -0.578125l0.5625 1.546875zm-4.171875 -9.15625q-1.3125 0 -1.984375 0.859375q-0.65625 0.84375 -0.734375 2.390625l5.078125 0q0.0625 -0.421875 0.0625 -0.78125q0 -1.265625 -0.71875 -1.859375q-0.703125 -0.609375 -1.703125 -0.609375zm12.856232 0.109375q-0.640625 0 -1.5 0.328125q-0.84375 0.3125 -2.046875 1.28125l0 8.09375l-1.84375 0l0 -11.21875l1.765625 0l0 1.5625q1.203125 -1.015625 2.1875 -1.390625q0.984375 -0.390625 1.890625 -0.390625q1.5625 0 2.390625 0.984375q0.828125 0.984375 0.828125 2.796875l0 7.65625l-1.859375 0l0 -7.390625q0 -2.3125 -1.8125 -2.3125zm13.702301 9.296875q-1.265625 0.625 -2.703125 0.625q-1.21875 0 -1.90625 -0.484375q-0.6875 -0.5 -0.984375 -1.34375q-0.28125 -0.84375 -0.28125 -1.859375l0 -6.109375l-1.9375 0l0 -1.640625l1.9375 0l0 -3.125l1.859375 0l0 3.125l3.671875 0l0 1.640625l-3.671875 0l0 6.046875q0 1.171875 0.390625 1.625q0.40625 0.4375 1.25 0.4375q0.40625 0 0.84375 -0.09375q0.4375 -0.109375 0.96875 -0.359375l0.5625 1.515625zm4.421875 -13.546875l-2.09375 0l0 -2.09375l2.09375 0l0 2.09375zm-0.125 13.953125l-1.84375 0l0 -11.21875l1.84375 0l0 11.21875zm9.289825 -9.703125q-0.625 0 -1.421875 0.328125q-0.796875 0.328125 -2.0 1.28125l0 8.09375l-1.84375 0l0 -11.21875l1.765625 0l0 1.5625q1.203125 -0.984375 2.125 -1.375q0.921875 -0.40625 1.828125 -0.40625q1.078125 0 1.765625 0.484375q0.703125 0.484375 1.046875 1.390625q1.25 -1.0625 2.234375 -1.46875q0.984375 -0.40625 1.9375 -0.40625q1.5 0 2.28125 0.984375q0.796875 0.984375 0.796875 2.796875l0 7.65625l-1.859375 0l0 -7.390625q0 -2.3125 -1.671875 -2.3125q-0.640625 0 -1.453125 0.328125q-0.796875 0.328125 -1.984375 1.28125q0.015625 0.09375 0.015625 0.21875q0 0.109375 0 0.21875l0 7.65625l-1.859375 0l0 -7.390625q0 -2.3125 -1.703125 -2.3125zm22.547607 9.046875q-1.015625 0.5 -2.046875 0.6875q-1.015625 0.1875 -1.875 0.1875q-2.421875 0 -3.609375 -1.375q-1.1875 -1.375 -1.1875 -3.78125l0 -1.359375q0 -2.328125 1.1875 -3.734375q1.1875 -1.40625 3.359375 -1.40625q1.15625 0 2.125 0.46875q0.96875 0.453125 1.53125 1.40625q0.578125 0.9375 0.578125 2.40625q0 0.953125 -0.265625 2.171875l-6.6875 0l0 0.046875q0 1.71875 0.71875 2.609375q0.71875 0.875 2.296875 0.875q0.734375 0 1.59375 -0.171875q0.875 -0.1875 1.71875 -0.578125l0.5625 1.546875zm-4.171875 -9.15625q-1.3125 0 -1.984375 0.859375q-0.65625 0.84375 -0.734375 2.390625l5.078125 0q0.0625 -0.421875 0.0625 -0.78125q0 -1.265625 -0.71875 -1.859375q-0.703125 -0.609375 -1.703125 -0.609375zm12.856232 0.109375q-0.640625 0 -1.5 0.328125q-0.84375 0.3125 -2.046875 1.28125l0 8.09375l-1.84375 0l0 -11.21875l1.765625 0l0 1.5625q1.203125 -1.015625 2.1875 -1.390625q0.984375 -0.390625 1.890625 -0.390625q1.5625 0 2.390625 0.984375q0.828125 0.984375 0.828125 2.796875l0 7.65625l-1.859375 0l0 -7.390625q0 -2.3125 -1.8125 -2.3125zm13.702301 9.296875q-1.265625 0.625 -2.703125 0.625q-1.21875 0 -1.90625 -0.484375q-0.6875 -0.5 -0.984375 -1.34375q-0.28125 -0.84375 -0.28125 -1.859375l0 -6.109375l-1.9375 0l0 -1.640625l1.9375 0l0 -3.125l1.859375 0l0 3.125l3.671875 0l0 1.640625l-3.671875 0l0 6.046875q0 1.171875 0.390625 1.625q0.40625 0.4375 1.25 0.4375q0.40625 0 0.84375 -0.09375q0.4375 -0.109375 0.96875 -0.359375l0.5625 1.515625zm3.671875 -8.71875l-2.09375 0l0 -2.09375l2.09375 0l0 2.09375zm0 9.125l-2.09375 0l0 -2.0625l2.09375 0l0 2.0625zm10.039032 -13.953125l-2.09375 0l0 -2.09375l2.09375 0l0 2.09375zm-4.421875 19.0l0 -1.765625q1.203125 0 1.828125 -0.5625q0.625 -0.5625 0.625 -2.203125l0 -11.734375l1.84375 0l0 11.734375q0 1.3125 -0.390625 2.328125q-0.375 1.03125 -1.3125 1.609375q-0.9375 0.59375 -2.59375 0.59375zm17.196075 -11.34375l0 1.359375q0 2.40625 -1.234375 3.78125q-1.234375 1.375 -3.53125 1.375q-2.265625 0 -3.515625 -1.375q-1.234375 -1.375 -1.234375 -3.78125l0 -1.359375q0 -2.359375 1.234375 -3.75q1.234375 -1.390625 3.515625 -1.390625q2.296875 0 3.53125 1.390625q1.234375 1.390625 1.234375 3.75zm-1.921875 0q0 -1.609375 -0.734375 -2.515625q-0.71875 -0.921875 -2.109375 -0.921875q-1.359375 0 -2.09375 0.921875q-0.734375 0.90625 -0.734375 2.515625l0 1.359375q0 1.671875 0.734375 2.578125q0.734375 0.90625 2.09375 0.90625q1.390625 0 2.109375 -0.90625q0.734375 -0.90625 0.734375 -2.578125l0 -1.359375zm8.905334 7.421875q-0.734375 2.046875 -1.796875 2.984375q-1.046875 0.9375 -2.921875 0.9375l0 -1.828125q0.765625 -0.03125 1.3125 -0.21875q0.5625 -0.171875 1.0 -0.734375q0.453125 -0.546875 0.859375 -1.625l0.234375 -0.578125l-4.046875 -11.28125l1.90625 0l1.890625 5.46875l1.15625 3.484375l1.109375 -3.484375l1.828125 -5.46875l1.828125 0l-4.359375 12.34375z" fill-rule="nonzero"/><path fill="#000000" fill-opacity="0.0" d="m469.91077 5.4278216l398.42517 0l0 46.866142l-398.42517 0z" fill-rule="evenodd"/><path stroke="#000000" stroke-width="1.0" stroke-linejoin="round" stroke-linecap="butt" stroke-dasharray="4.0,3.0" d="m469.91077 5.4278216l398.42517 0l0 46.866142l-398.42517 0z" fill-rule="evenodd"/><path fill="#000000" d="m555.36365 35.12532q-0.65625 0.421875 -1.875 0.859375q-1.203125 0.421875 -2.90625 0.421875q-1.828125 0 -3.09375 -0.78125q-1.25 -0.78125 -1.90625 -2.1875q-0.640625 -1.421875 -0.640625 -3.28125l0 -3.375q0 -2.890625 1.453125 -4.546875q1.46875 -1.671875 4.265625 -1.671875q1.015625 0 2.125 0.234375q1.125 0.21875 2.234375 0.734375l-0.625 1.703125q-2.046875 -0.84375 -3.71875 -0.84375q-1.859375 0 -2.78125 1.125q-0.90625 1.125 -0.90625 3.265625l0 3.375q0 2.046875 0.921875 3.25q0.9375 1.203125 2.8125 1.203125q0.71875 0 1.46875 -0.15625q0.765625 -0.171875 1.359375 -0.4375l0 -4.15625l-2.875 0l0 -1.734375l4.6875 0l0 7.0zm9.434326 -8.515625q-1.03125 0 -2.0 0.359375q-0.953125 0.359375 -2.046875 1.375l0 7.84375l-1.84375 0l0 -11.21875l1.765625 0l0 1.8125q1.15625 -1.125 2.109375 -1.578125q0.96875 -0.453125 2.015625 -0.453125l0 1.859375zm11.299194 3.28125l0 1.359375q0 2.40625 -1.234375 3.78125q-1.234375 1.375 -3.53125 1.375q-2.265625 0 -3.515625 -1.375q-1.234375 -1.375 -1.234375 -3.78125l0 -1.359375q0 -2.359375 1.234375 -3.75q1.234375 -1.390625 3.515625 -1.390625q2.296875 0 3.53125 1.390625q1.234375 1.390625 1.234375 3.75zm-1.921875 0q0 -1.609375 -0.734375 -2.515625q-0.71875 -0.921875 -2.109375 -0.921875q-1.359375 0 -2.09375 0.921875q-0.734375 0.90625 -0.734375 2.515625l0 1.359375q0 1.671875 0.734375 2.578125q0.734375 0.90625 2.09375 0.90625q1.390625 0 2.109375 -0.90625q0.734375 -0.90625 0.734375 -2.578125l0 -1.359375zm12.210144 6.296875l0 -1.578125q-1.1875 1.015625 -2.109375 1.40625q-0.921875 0.390625 -1.859375 0.390625q-1.5 0 -2.296875 -0.984375q-0.78125 -0.984375 -0.78125 -2.765625l0 -7.6875l1.859375 0l0 7.40625q0 1.1875 0.40625 1.75q0.421875 0.546875 1.265625 0.546875q0.640625 0 1.421875 -0.3125q0.796875 -0.328125 1.984375 -1.28125l0 -8.109375l1.84375 0l0 11.21875l-1.734375 0zm11.14917 -9.703125q-0.640625 0 -1.5 0.328125q-0.84375 0.3125 -2.046875 1.28125l0 8.09375l-1.84375 0l0 -11.21875l1.765625 0l0 1.5625q1.203125 -1.015625 2.1875 -1.390625q0.984375 -0.390625 1.890625 -0.390625q1.5625 0 2.390625 0.984375q0.828125 0.984375 0.828125 2.796875l0 7.65625l-1.859375 0l0 -7.390625q0 -2.3125 -1.8125 -2.3125zm14.3585205 9.703125l0 -1.5625q-1.046875 1.0 -1.890625 1.390625q-0.84375 0.390625 -1.75 0.390625q-1.796875 0 -2.765625 -1.34375q-0.953125 -1.359375 -0.953125 -3.8125l0 -1.3125q0 -2.375 1.1875 -3.78125q1.1875 -1.40625 3.453125 -1.40625q0.65625 0 1.3125 0.140625q0.65625 0.125 1.3125 0.375l0 -5.84375l1.859375 0l0 16.765625l-1.765625 0zm-5.4375 -4.9375q0 1.765625 0.546875 2.59375q0.5625 0.828125 1.671875 0.828125q0.65625 0 1.359375 -0.328125q0.703125 -0.328125 1.765625 -1.375l0 -5.984375q-0.65625 -0.296875 -1.265625 -0.40625q-0.609375 -0.125 -1.203125 -0.125q-1.53125 0 -2.203125 0.921875q-0.671875 0.921875 -0.671875 2.5625l0 1.3125zm10.215515 -1.109375l0 -1.640625l6.34375 0l0 1.640625l-6.34375 0zm15.771851 5.640625q-1.265625 0.625 -2.703125 0.625q-1.21875 0 -1.90625 -0.484375q-0.6875 -0.5 -0.984375 -1.34375q-0.28125 -0.84375 -0.28125 -1.859375l0 -6.109375l-1.9375 0l0 -1.640625l1.9375 0l0 -3.125l1.859375 0l0 3.125l3.671875 0l0 1.640625l-3.671875 0l0 6.046875q0 1.171875 0.390625 1.625q0.40625 0.4375 1.25 0.4375q0.40625 0 0.84375 -0.09375q0.4375 -0.109375 0.96875 -0.359375l0.5625 1.515625zm8.343689 -9.171875q-1.03125 0 -2.0 0.359375q-0.953125 0.359375 -2.046875 1.375l0 7.84375l-1.84375 0l0 -11.21875l1.765625 0l0 1.8125q1.15625 -1.125 2.109375 -1.578125q0.96875 -0.453125 2.015625 -0.453125l0 1.859375zm9.330444 9.578125l0 -1.578125q-1.1875 1.015625 -2.109375 1.40625q-0.921875 0.390625 -1.859375 0.390625q-1.5 0 -2.296875 -0.984375q-0.78125 -0.984375 -0.78125 -2.765625l0 -7.6875l1.859375 0l0 7.40625q0 1.1875 0.40625 1.75q0.421875 0.546875 1.265625 0.546875q0.640625 0 1.421875 -0.3125q0.796875 -0.328125 1.984375 -1.28125l0 -8.109375l1.84375 0l0 11.21875l-1.734375 0zm11.914856 -0.40625q-1.265625 0.625 -2.703125 0.625q-1.21875 0 -1.90625 -0.484375q-0.6875 -0.5 -0.984375 -1.34375q-0.28125 -0.84375 -0.28125 -1.859375l0 -6.109375l-1.9375 0l0 -1.640625l1.9375 0l0 -3.125l1.859375 0l0 3.125l3.671875 0l0 1.640625l-3.671875 0l0 6.046875q0 1.171875 0.390625 1.625q0.40625 0.4375 1.25 0.4375q0.40625 0 0.84375 -0.09375q0.4375 -0.109375 0.96875 -0.359375l0.5625 1.515625zm7.843689 -9.296875q-0.640625 0 -1.5 0.328125q-0.84375 0.3125 -2.046875 1.28125l0 8.09375l-1.84375 0l0 -16.765625l1.84375 0l0 7.046875q1.1875 -1.0 2.140625 -1.359375q0.953125 -0.359375 1.859375 -0.359375q1.5625 0 2.390625 0.984375q0.828125 0.984375 0.828125 2.796875l0 7.65625l-1.859375 0l0 -7.390625q0 -2.3125 -1.8125 -2.3125zm8.764832 0.578125l-2.09375 0l0 -2.09375l2.09375 0l0 2.09375zm0 9.125l-2.09375 0l0 -2.0625l2.09375 0l0 2.0625zm16.195312 -0.65625q-1.015625 0.5 -2.046875 0.6875q-1.015625 0.1875 -1.875 0.1875q-2.421875 0 -3.609375 -1.375q-1.1875 -1.375 -1.1875 -3.78125l0 -1.359375q0 -2.328125 1.1875 -3.734375q1.1875 -1.40625 3.359375 -1.40625q1.15625 0 2.125 0.46875q0.96875 0.453125 1.53125 1.40625q0.578125 0.9375 0.578125 2.40625q0 0.953125 -0.265625 2.171875l-6.6875 0l0 0.046875q0 1.71875 0.71875 2.609375q0.71875 0.875 2.296875 0.875q0.734375 0 1.59375 -0.171875q0.875 -0.1875 1.71875 -0.578125l0.5625 1.546875zm-4.171875 -9.15625q-1.3125 0 -1.984375 0.859375q-0.65625 0.84375 -0.734375 2.390625l5.078125 0q0.0625 -0.421875 0.0625 -0.78125q0 -1.265625 -0.71875 -1.859375q-0.703125 -0.609375 -1.703125 -0.609375zm13.387451 9.8125l-2.78125 -4.375l-2.671875 4.375l-1.96875 0l3.71875 -5.796875l-3.453125 -5.421875l2.0625 0l2.46875 3.921875l2.421875 -3.921875l1.953125 0l-3.421875 5.375l3.71875 5.84375l-2.046875 0zm5.5631104 -6.28125l0 1.34375q0 1.71875 0.625 2.59375q0.640625 0.875 2.015625 0.875q1.359375 0 2.921875 -0.703125l0.578125 1.5625q-1.859375 0.828125 -3.609375 0.828125q-2.171875 0 -3.3125 -1.375q-1.125 -1.375 -1.125 -3.78125l0 -1.34375q0 -2.390625 1.125 -3.765625q1.140625 -1.390625 3.3125 -1.390625q0.8125 0 1.6875 0.21875q0.875 0.203125 1.75 0.59375l-0.5625 1.578125q-0.75 -0.3125 -1.4375 -0.484375q-0.6875 -0.1875 -1.328125 -0.1875q-1.375 0 -2.015625 0.875q-0.625 0.875 -0.625 2.5625zm10.828918 -7.671875l-2.09375 0l0 -2.09375l2.09375 0l0 2.09375zm-0.125 13.953125l-1.84375 0l0 -11.21875l1.84375 0l0 11.21875zm10.18042 -0.40625q-1.265625 0.625 -2.703125 0.625q-1.21875 0 -1.90625 -0.484375q-0.6875 -0.5 -0.984375 -1.34375q-0.28125 -0.84375 -0.28125 -1.859375l0 -6.109375l-1.9375 0l0 -1.640625l1.9375 0l0 -3.125l1.859375 0l0 3.125l3.671875 0l0 1.640625l-3.671875 0l0 6.046875q0 1.171875 0.390625 1.625q0.40625 0.4375 1.25 0.4375q0.40625 0 0.84375 -0.09375q0.4375 -0.109375 0.96875 -0.359375l0.5625 1.515625zm10.578125 -0.25q-1.015625 0.5 -2.046875 0.6875q-1.015625 0.1875 -1.875 0.1875q-2.421875 0 -3.609375 -1.375q-1.1875 -1.375 -1.1875 -3.78125l0 -1.359375q0 -2.328125 1.1875 -3.734375q1.1875 -1.40625 3.359375 -1.40625q1.15625 0 2.125 0.46875q0.96875 0.453125 1.53125 1.40625q0.578125 0.9375 0.578125 2.40625q0 0.953125 -0.265625 2.171875l-6.6875 0l0 0.046875q0 1.71875 0.71875 2.609375q0.71875 0.875 2.296875 0.875q0.734375 0 1.59375 -0.171875q0.875 -0.1875 1.71875 -0.578125l0.5625 1.546875zm-4.171875 -9.15625q-1.3125 0 -1.984375 0.859375q-0.65625 0.84375 -0.734375 2.390625l5.078125 0q0.0625 -0.421875 0.0625 -0.78125q0 -1.265625 -0.71875 -1.859375q-0.703125 -0.609375 -1.703125 -0.609375zm12.731262 0.109375q-0.625 0 -1.421875 0.328125q-0.796875 0.328125 -2.0 1.28125l0 8.09375l-1.84375 0l0 -11.21875l1.765625 0l0 1.5625q1.203125 -0.984375 2.125 -1.375q0.921875 -0.40625 1.828125 -0.40625q1.078125 0 1.765625 0.484375q0.703125 0.484375 1.046875 1.390625q1.25 -1.0625 2.234375 -1.46875q0.984375 -0.40625 1.9375 -0.40625q1.5 0 2.28125 0.984375q0.796875 0.984375 0.796875 2.796875l0 7.65625l-1.859375 0l0 -7.390625q0 -2.3125 -1.671875 -2.3125q-0.640625 0 -1.453125 0.328125q-0.796875 0.328125 -1.984375 1.28125q0.015625 0.09375 0.015625 0.21875q0 0.109375 0 0.21875l0 7.65625l-1.859375 0l0 -7.390625q0 -2.3125 -1.703125 -2.3125zm22.547607 9.046875q-1.015625 0.5 -2.046875 0.6875q-1.015625 0.1875 -1.875 0.1875q-2.421875 0 -3.609375 -1.375q-1.1875 -1.375 -1.1875 -3.78125l0 -1.359375q0 -2.328125 1.1875 -3.734375q1.1875 -1.40625 3.359375 -1.40625q1.15625 0 2.125 0.46875q0.96875 0.453125 1.53125 1.40625q0.578125 0.9375 0.578125 2.40625q0 0.953125 -0.265625 2.171875l-6.6875 0l0 0.046875q0 1.71875 0.71875 2.609375q0.71875 0.875 2.296875 0.875q0.734375 0 1.59375 -0.171875q0.875 -0.1875 1.71875 -0.578125l0.5625 1.546875zm-4.171875 -9.15625q-1.3125 0 -1.984375 0.859375q-0.65625 0.84375 -0.734375 2.390625l5.078125 0q0.0625 -0.421875 0.0625 -0.78125q0 -1.265625 -0.71875 -1.859375q-0.703125 -0.609375 -1.703125 -0.609375zm12.856201 0.109375q-0.640625 0 -1.5 0.328125q-0.84375 0.3125 -2.046875 1.28125l0 8.09375l-1.84375 0l0 -11.21875l1.765625 0l0 1.5625q1.203125 -1.015625 2.1875 -1.390625q0.984375 -0.390625 1.890625 -0.390625q1.5625 0 2.390625 0.984375q0.828125 0.984375 0.828125 2.796875l0 7.65625l-1.859375 0l0 -7.390625q0 -2.3125 -1.8125 -2.3125zm13.702332 9.296875q-1.265625 0.625 -2.703125 0.625q-1.21875 0 -1.90625 -0.484375q-0.6875 -0.5 -0.984375 -1.34375q-0.28125 -0.84375 -0.28125 -1.859375l0 -6.109375l-1.9375 0l0 -1.640625l1.9375 0l0 -3.125l1.859375 0l0 3.125l3.671875 0l0 1.640625l-3.671875 0l0 6.046875q0 1.171875 0.390625 1.625q0.40625 0.4375 1.25 0.4375q0.40625 0 0.84375 -0.09375q0.4375 -0.109375 0.96875 -0.359375l0.5625 1.515625z" fill-rule="nonzero"/><path fill="#000000" fill-opacity="0.0" d="m390.25723 28.860893l79.653534 0" fill-rule="evenodd"/><path stroke="#ff0000" stroke-width="3.0" stroke-linejoin="round" stroke-linecap="butt" stroke-dasharray="12.0,9.0" d="m408.25723 28.860893l43.653534 0" fill-rule="evenodd"/><path fill="#ff0000" stroke="#ff0000" stroke-width="3.0" stroke-linecap="butt" d="m408.2572 23.905695l-13.614288 4.9551983l13.614288 4.9551964z" fill-rule="evenodd"/><path fill="#ff0000" stroke="#ff0000" stroke-width="3.0" stroke-linecap="butt" d="m451.91077 33.81609l13.614288 -4.9551964l-13.614288 -4.9551983z" fill-rule="evenodd"/></g></svg>