<svg version="1.1" viewBox="0.0 0.0 1257.6089238845145 657.8267716535433" fill="none" stroke="none" stroke-linecap="square" stroke-miterlimit="10" xmlns:xlink="http://www.w3.org/1999/xlink" xmlns="http://www.w3.org/2000/svg"><clipPath id="p.0"><path d="m0 0l1257.6089 0l0 657.8268l-1257.6089 0l0 -657.8268z" clip-rule="nonzero"/></clipPath><g clip-path="url(#p.0)"><path fill="#000000" fill-opacity="0.0" d="m0 0l1257.6089 0l0 657.8268l-1257.6089 0z" fill-rule="evenodd"/><path fill="#c9daf8" d="m631.3609 585.1142l109.44879 0l0 49.763733l-109.44879 0z" fill-rule="evenodd"/><path fill="#000000" d="m662.02625 619.31604l0 -17.21875l5.359375 0q2.484375 0 3.78125 1.3125q1.3125 1.296875 1.3125 3.46875l0 1.34375q0 2.171875 -1.3125 3.5q-1.296875 1.3125 -3.78125 1.3125l-3.15625 0l0 6.28125l-2.203125 0zm5.359375 -15.140625l-3.15625 0l0 6.8125l3.15625 0q1.375 0 2.09375 -0.734375q0.71875 -0.734375 0.71875 -2.03125l0 -1.34375q0 -1.265625 -0.71875 -1.984375q-0.71875 -0.71875 -2.09375 -0.71875zm17.578186 15.265625q-1.15625 0 -1.859375 -0.53125q-0.6875 -0.53125 -0.96875 -1.3125q-1.25 1.078125 -2.265625 1.53125q-1.0 0.4375 -2.015625 0.4375q-1.640625 0 -2.4375 -1.0625q-0.78125 -1.0625 -0.78125 -2.609375q0 -1.03125 0.375 -1.84375q0.390625 -0.8125 1.296875 -1.28125q0.90625 -0.46875 2.453125 -0.46875q0.6875 0 1.5 0.09375q0.8125 0.078125 1.640625 0.203125l0 -1.6875q0 -1.421875 -0.625 -1.9375q-0.609375 -0.515625 -1.796875 -0.515625q-1.625 0 -3.625 0.875l-0.65625 -1.71875q1.15625 -0.53125 2.21875 -0.8125q1.0625 -0.28125 2.15625 -0.28125q1.78125 0 2.71875 0.59375q0.9375 0.578125 1.28125 1.546875q0.359375 0.953125 0.359375 2.09375l0 5.421875q0 0.578125 0.21875 0.984375q0.234375 0.390625 0.921875 0.390625l0.28125 0l0 1.890625l-0.390625 0zm-8.28125 -3.5625q0 0.859375 0.40625 1.390625q0.40625 0.53125 1.171875 0.53125q0.65625 0 1.515625 -0.390625q0.859375 -0.40625 2.125 -1.59375l0 -1.59375q-1.71875 -0.28125 -3.03125 -0.28125q-1.171875 0 -1.6875 0.484375q-0.5 0.484375 -0.5 1.453125zm18.18988 -7.28125q-1.140625 0 -2.21875 0.40625q-1.078125 0.40625 -2.28125 1.546875l0 8.765625l-2.078125 0l0 -12.53125l1.96875 0l0 2.015625q1.296875 -1.265625 2.375 -1.765625q1.078125 -0.515625 2.234375 -0.515625l0 2.078125zm4.920471 -4.890625l-2.328125 0l0 -2.328125l2.328125 0l0 2.328125zm-0.125 15.609375l-2.078125 0l0 -12.53125l2.078125 0l0 12.53125zm7.5443726 -1.59375q2.53125 0 2.53125 -1.71875q0 -0.734375 -0.453125 -1.15625q-0.453125 -0.4375 -1.671875 -0.75l-1.390625 -0.359375q-1.546875 -0.375 -2.3125 -1.328125q-0.765625 -0.953125 -0.765625 -2.265625q0 -0.953125 0.4375 -1.78125q0.4375 -0.828125 1.359375 -1.328125q0.9375 -0.515625 2.4375 -0.515625q0.96875 0 1.96875 0.21875q1.0 0.21875 2.03125 0.71875l-0.65625 1.75q-1.84375 -0.828125 -3.34375 -0.828125q-2.203125 0 -2.203125 1.640625q0 0.640625 0.40625 1.09375q0.40625 0.453125 1.515625 0.734375l1.390625 0.34375q1.671875 0.40625 2.453125 1.328125q0.796875 0.90625 0.796875 2.359375q0 1.03125 -0.453125 1.890625q-0.4375 0.84375 -1.421875 1.328125q-0.96875 0.46875 -2.609375 0.46875q-1.09375 0 -2.171875 -0.234375q-1.0625 -0.21875 -2.203125 -0.71875l0.546875 -1.734375q1.09375 0.4375 1.96875 0.640625q0.890625 0.203125 1.8125 0.203125z" fill-rule="nonzero"/><path fill="#c9daf8" d="m753.1877 585.1142l109.44879 0l0 49.763733l-109.44879 0z" fill-rule="evenodd"/><path fill="#000000" d="m803.6113 603.70667l-2.328125 0l0 -2.328125l2.328125 0l0 2.328125zm-0.125 15.609375l-2.078125 0l0 -12.53125l2.078125 0l0 12.53125zm7.5443726 -1.59375q2.53125 0 2.53125 -1.71875q0 -0.734375 -0.453125 -1.15625q-0.453125 -0.4375 -1.671875 -0.75l-1.390625 -0.359375q-1.546875 -0.375 -2.3125 -1.328125q-0.765625 -0.953125 -0.765625 -2.265625q0 -0.953125 0.4375 -1.78125q0.4375 -0.828125 1.359375 -1.328125q0.9375 -0.515625 2.4375 -0.515625q0.96875 0 1.96875 0.21875q1.0 0.21875 2.03125 0.71875l-0.65625 1.75q-1.84375 -0.828125 -3.34375 -0.828125q-2.203125 0 -2.203125 1.640625q0 0.640625 0.40625 1.09375q0.40625 0.453125 1.515625 0.734375l1.390625 0.34375q1.671875 0.40625 2.453125 1.328125q0.796875 0.90625 0.796875 2.359375q0 1.03125 -0.453125 1.890625q-0.4375 0.84375 -1.421875 1.328125q-0.96875 0.46875 -2.609375 0.46875q-1.09375 0 -2.171875 -0.234375q-1.0625 -0.21875 -2.203125 -0.71875l0.546875 -1.734375q1.09375 0.4375 1.96875 0.640625q0.890625 0.203125 1.8125 0.203125z" fill-rule="nonzero"/><path fill="#c9daf8" d="m875.01447 585.1142l109.44879 0l0 49.763733l-109.44879 0z" fill-rule="evenodd"/><path fill="#000000" d="m934.8861 619.44104q-1.15625 0 -1.859375 -0.53125q-0.6875 -0.53125 -0.96875 -1.3125q-1.25 1.078125 -2.265625 1.53125q-1.0 0.4375 -2.015625 0.4375q-1.640625 0 -2.4375 -1.0625q-0.78125 -1.0625 -0.78125 -2.609375q0 -1.03125 0.375 -1.84375q0.390625 -0.8125 1.296875 -1.28125q0.90625 -0.46875 2.453125 -0.46875q0.6875 0 1.5 0.09375q0.8125 0.078125 1.640625 0.203125l0 -1.6875q0 -1.421875 -0.625 -1.9375q-0.609375 -0.515625 -1.796875 -0.515625q-1.625 0 -3.625 0.875l-0.65625 -1.71875q1.15625 -0.53125 2.21875 -0.8125q1.0625 -0.28125 2.15625 -0.28125q1.78125 0 2.71875 0.59375q0.9375 0.578125 1.28125 1.546875q0.359375 0.953125 0.359375 2.09375l0 5.421875q0 0.578125 0.21875 0.984375q0.234375 0.390625 0.921875 0.390625l0.28125 0l0 1.890625l-0.390625 0zm-8.28125 -3.5625q0 0.859375 0.40625 1.390625q0.40625 0.53125 1.171875 0.53125q0.65625 0 1.515625 -0.390625q0.859375 -0.40625 2.125 -1.59375l0 -1.59375q-1.71875 -0.28125 -3.03125 -0.28125q-1.171875 0 -1.6875 0.484375q-0.5 0.484375 -0.5 1.453125z" fill-rule="nonzero"/><path fill="#fff2cc" d="m996.8412 585.1142l109.44885 0l0 49.763733l-109.44885 0z" fill-rule="evenodd"/><path fill="#000000" d="m1019.728 621.1129l0 1.828125l-6.0 0l0 -22.375l6.0 0l0 1.828125l-3.921875 0l0 18.71875l3.921875 0zm5.341675 -19.015625l5.25 12.765625l5.265625 -12.765625l2.5 0l0 17.21875l-2.140625 0l0 -7.375l0.265625 -6.625l-4.9375 11.96875l-2.078125 0l-4.828125 -12.03125l0.28125 6.6875l0 7.375l-2.15625 0l0 -17.21875l2.578125 0zm27.52832 17.21875l-1.28125 -4.0l-6.546875 0l-1.28125 4.0l-2.15625 0l5.71875 -17.21875l2.078125 0l5.75 17.21875l-2.28125 0zm-6.21875 -8.96875l-0.96875 2.96875l5.25 0l-0.96875 -2.96875l-1.640625 -5.3125l-1.671875 5.3125zm15.23938 7.25q1.59375 0 2.453125 -0.6875q0.859375 -0.703125 0.859375 -2.046875q0 -1.125 -0.59375 -1.875q-0.59375 -0.765625 -1.9375 -1.171875l-2.046875 -0.609375q-1.921875 -0.578125 -2.84375 -1.75q-0.90625 -1.1875 -0.90625 -2.90625q0 -1.3125 0.515625 -2.375q0.53125 -1.0625 1.671875 -1.6875q1.15625 -0.640625 3.03125 -0.640625q1.140625 0 2.359375 0.265625q1.21875 0.265625 2.453125 0.84375l-0.703125 1.890625q-1.21875 -0.53125 -2.203125 -0.765625q-0.96875 -0.234375 -1.859375 -0.234375q-1.4375 0 -2.234375 0.59375q-0.796875 0.59375 -0.796875 1.953125q0 1.0 0.53125 1.671875q0.53125 0.65625 1.890625 1.09375l2.0625 0.609375q3.84375 1.140625 3.84375 4.90625q0 2.1875 -1.3125 3.546875q-1.3125 1.34375 -4.234375 1.34375q-1.1875 0 -2.515625 -0.28125q-1.328125 -0.296875 -2.75 -0.9375l0.6875 -1.875q1.34375 0.609375 2.40625 0.875q1.078125 0.25 2.171875 0.25zm18.69104 1.71875l-4.90625 -8.125q-0.53125 0.546875 -1.109375 1.140625q-0.5625 0.578125 -1.171875 1.15625l0 5.828125l-2.203125 0l0 -17.21875l2.203125 0l0 8.9375q2.375 -2.40625 3.96875 -4.5625q1.59375 -2.15625 2.71875 -4.375l2.375 0q-1.140625 2.21875 -2.375 4.03125q-1.21875 1.8125 -2.796875 3.609375l5.984375 9.578125l-2.6875 0zm9.064331 -18.75l0 22.375l-6.0 0l0 -1.828125l3.921875 0l0 -18.71875l-3.921875 0l0 -1.828125l6.0 0z" fill-rule="nonzero"/><path fill="#c9daf8" d="m1118.668 585.1142l109.44885 0l0 49.763733l-109.44885 0z" fill-rule="evenodd"/><path fill="#000000" d="m1157.3396 612.3004l0 1.5q0 1.921875 0.703125 2.90625q0.703125 0.96875 2.25 0.96875q1.53125 0 3.265625 -0.796875l0.640625 1.75q-2.078125 0.9375 -4.03125 0.9375q-2.421875 0 -3.6875 -1.546875q-1.265625 -1.546875 -1.265625 -4.21875l0 -1.5q0 -2.6875 1.265625 -4.234375q1.265625 -1.546875 3.6875 -1.546875q0.921875 0 1.890625 0.25q0.96875 0.234375 1.96875 0.671875l-0.640625 1.765625q-0.828125 -0.34375 -1.609375 -0.546875q-0.765625 -0.203125 -1.484375 -0.203125q-1.546875 0 -2.25 0.96875q-0.703125 0.96875 -0.703125 2.875zm12.106689 -8.59375l-2.328125 0l0 -2.328125l2.328125 0l0 2.328125zm-0.125 15.609375l-2.078125 0l0 -12.53125l2.078125 0l0 12.53125zm11.372437 -0.453125q-1.421875 0.703125 -3.015625 0.703125q-1.375 0 -2.15625 -0.546875q-0.765625 -0.5625 -1.078125 -1.5q-0.3125 -0.9375 -0.3125 -2.078125l0 -6.84375l-2.1875 0l0 -1.8125l2.1875 0l0 -3.5l2.078125 0l0 3.5l4.09375 0l0 1.8125l-4.09375 0l0 6.765625q0 1.3125 0.4375 1.8125q0.4375 0.5 1.375 0.5q0.46875 0 0.953125 -0.109375q0.5 -0.125 1.078125 -0.40625l0.640625 1.703125zm7.015381 1.71875q-0.8125 2.28125 -2.0 3.328125q-1.171875 1.046875 -3.28125 1.046875l0 -2.046875q0.875 -0.015625 1.484375 -0.21875q0.625 -0.203125 1.109375 -0.828125q0.5 -0.625 0.953125 -1.84375l0.265625 -0.625l-4.515625 -12.609375l2.125 0l2.109375 6.09375l1.28125 3.90625l1.25 -3.90625l2.046875 -6.09375l2.046875 0l-4.875 13.796875z" fill-rule="nonzero"/><path fill="#d9ead3" d="m799.8333 231.1334l0 0c0 -23.91542 19.38733 -43.302704 43.302734 -43.302704l173.20563 0l0 0c11.484619 0 22.49878 4.5622406 30.619629 12.683075c8.12085 8.120834 12.683105 19.13504 12.683105 30.619629l0 247.94579c0 23.915405 -19.38733 43.302704 -43.302734 43.302704l-173.20563 0c-23.915405 0 -43.302734 -19.387299 -43.302734 -43.302704z" fill-rule="evenodd"/><path fill="#000000" d="m826.78186 204.20755l5.25 12.765625l5.265625 -12.765625l2.5 0l0 17.21875l-2.140625 0l0 -7.375l0.265625 -6.625l-4.9375 11.96875l-2.078125 0l-4.828125 -12.03125l0.28125 6.6875l0 7.375l-2.15625 0l0 -17.21875l2.578125 0zm27.84082 15.171875l0 2.046875l-9.421875 0l0 -17.21875l2.203125 0l0 15.171875l7.21875 0zm5.97229 -15.171875l5.25 12.765625l5.265625 -12.765625l2.5 0l0 17.21875l-2.140625 0l0 -7.375l0.265625 -6.625l-4.9375 11.96875l-2.078125 0l-4.828125 -12.03125l0.28125 6.6875l0 7.375l-2.15625 0l0 -17.21875l2.578125 0z" fill-rule="nonzero"/><path fill="#f3f3f3" d="m830.1627 461.38727l0 0c0 -3.795044 3.076477 -6.871521 6.871521 -6.871521l185.40656 0c1.8225098 0 3.5703125 0.7239685 4.8588867 2.0126343c1.2886963 1.2886658 2.0126953 3.036438 2.0126953 4.8588867l0 27.48529c0 3.795044 -3.076538 6.871521 -6.871582 6.871521l-185.40656 0c-3.795044 0 -6.871521 -3.076477 -6.871521 -6.871521z" fill-rule="evenodd"/><path fill="#f3f3f3" d="m830.1627 406.32953l0 0c0 -3.795044 3.076477 -6.871521 6.871521 -6.871521l185.40656 0c1.8225098 0 3.5703125 0.7239685 4.8588867 2.0126343c1.2886963 1.2886353 2.0126953 3.036438 2.0126953 4.8588867l0 27.48529c0 3.795044 -3.076538 6.871521 -6.871582 6.871521l-185.40656 0c-3.795044 0 -6.871521 -3.076477 -6.871521 -6.871521z" fill-rule="evenodd"/><path fill="#f3f3f3" d="m830.16144 351.2718l0 0c0 -3.795044 3.076477 -6.871521 6.871521 -6.871521l185.40656 0c1.8224487 0 3.5702515 0.7239685 4.8588257 2.0126038c1.2886963 1.2886658 2.0126953 3.0364685 2.0126953 4.858917l0 27.48529c0 3.795044 -3.076538 6.871521 -6.871521 6.871521l-185.40656 0c-3.795044 0 -6.871521 -3.076477 -6.871521 -6.871521z" fill-rule="evenodd"/><path fill="#f3f3f3" d="m830.16406 296.21405l0 0c0 -3.795044 3.076477 -6.871521 6.871521 -6.871521l185.40656 0c1.8223877 0 3.5701904 0.723938 4.8588867 2.0126038c1.2886963 1.2886658 2.0125732 3.0364685 2.0125732 4.858917l0 27.48529c0 3.795044 -3.076416 6.871521 -6.87146 6.871521l-185.40656 0c-3.795044 0 -6.871521 -3.076477 -6.871521 -6.871521z" fill-rule="evenodd"/><path fill="#f3f3f3" d="m830.16406 241.15631l0 0c0 -3.795044 3.076477 -6.8715363 6.871521 -6.8715363l185.40656 0c1.8223877 0 3.5701904 0.7239685 4.8588867 2.012619c1.2886963 1.2886658 2.0125732 3.0364685 2.0125732 4.858917l0 27.48529c0 3.795044 -3.076416 6.871521 -6.87146 6.871521l-185.40656 0c-3.795044 0 -6.871521 -3.076477 -6.871521 -6.871521z" fill-rule="evenodd"/><path fill="#000000" fill-opacity="0.0" d="m838.5026 516.7966l10.614197 0l0 10.519714l-10.614197 0z" fill-rule="evenodd"/><path fill="#000000" fill-opacity="0.0" d="m881.46594 516.7966l10.614136 0l0 10.519714l-10.614136 0z" fill-rule="evenodd"/><path fill="#000000" fill-opacity="0.0" d="m924.42926 516.7966l10.614136 0l0 10.519714l-10.614136 0z" fill-rule="evenodd"/><path fill="#000000" fill-opacity="0.0" d="m967.3925 516.7966l10.614197 0l0 10.519714l-10.614197 0z" fill-rule="evenodd"/><path fill="#000000" fill-opacity="0.0" d="m1010.35583 516.7966l10.614197 0l0 10.519714l-10.614197 0z" fill-rule="evenodd"/><path fill="#000000" fill-opacity="0.0" d="m838.5026 182.77559l10.614197 0l0 10.519684l-10.614197 0z" fill-rule="evenodd"/><path fill="#000000" fill-opacity="0.0" d="m881.46594 182.77559l10.614136 0l0 10.519684l-10.614136 0z" fill-rule="evenodd"/><path fill="#000000" fill-opacity="0.0" d="m924.42926 182.77559l10.614136 0l0 10.519684l-10.614136 0z" fill-rule="evenodd"/><path fill="#000000" fill-opacity="0.0" d="m967.3925 182.77559l10.614197 0l0 10.519684l-10.614197 0z" fill-rule="evenodd"/><path fill="#000000" fill-opacity="0.0" d="m1010.35583 182.77559l10.614197 0l0 10.519684l-10.614197 0z" fill-rule="evenodd"/><path fill="#fce5cd" d="m1044.8898 107.1168l-34.30597 42.110237l-75.76605 0l-34.30591 -42.110237z" fill-rule="evenodd"/><path fill="#c9daf8" d="m891.9134 3.5997376l161.57477 0l0 64.91338l-161.57477 0z" fill-rule="evenodd"/><path fill="#000000" d="m929.27686 35.31643l0 -11.750002l1.78125 0l0 1.671875q1.296875 -1.9375 3.75 -1.9375q1.0625 0 1.953125 0.390625q0.890625 0.375 1.328125 1.0q0.4375 0.609375 0.625 1.46875q0.109375 0.546875 0.109375 1.9375l0 7.218752l-2.0 0l0 -7.140627q0 -1.21875 -0.234375 -1.8125q-0.234375 -0.609375 -0.828125 -0.96875q-0.578125 -0.359375 -1.375 -0.359375q-1.28125 0 -2.203125 0.8125q-0.921875 0.796875 -0.921875 3.046875l0 6.421877l-1.984375 0zm12.600342 -13.921877l0 -2.296875l2.0 0l0 2.296875l-2.0 0zm0 13.921877l0 -11.750002l2.0 0l0 11.750002l-2.0 0zm12.689758 -4.296877l1.96875 0.25q-0.328125 2.015627 -1.65625 3.171877q-1.3125 1.140625 -3.234375 1.140625q-2.421875 0 -3.890625 -1.578125q-1.453125 -1.578125 -1.453125 -4.515627q0 -1.90625 0.625 -3.328125q0.625 -1.4375 1.90625 -2.140625q1.296875 -0.71875 2.8125 -0.71875q1.921875 0 3.140625 0.96875q1.21875 0.96875 1.5625 2.75l-1.9375 0.296875q-0.28125 -1.1875 -0.984375 -1.78125q-0.703125 -0.59375 -1.703125 -0.59375q-1.5 0 -2.4375 1.078125q-0.9375 1.078125 -0.9375 3.40625q0 2.375 0.90625 3.453127q0.90625 1.0625 2.359375 1.0625q1.171875 0 1.953125 -0.71875q0.796875 -0.71875 1.0 -2.203127zm11.703125 0.515625l2.0625 0.25q-0.484375 1.8125019 -1.8125 2.812502q-1.3125 0.984375 -3.359375 0.984375q-2.578125 0 -4.09375 -1.578125q-1.5 -1.59375 -1.5 -4.468752q0 -2.953125 1.53125 -4.59375q1.53125 -1.640625 3.953125 -1.640625q2.359375 0 3.84375 1.609375q1.5 1.59375 1.5 4.515625q0 0.171875 0 0.53125l-8.765625 0q0.109375 1.9375 1.09375 2.968752q0.984375 1.015625 2.453125 1.015625q1.09375 0 1.859375 -0.5625q0.78125 -0.578125 1.234375 -1.8437519zm-6.53125 -3.21875l6.5625 0q-0.140625 -1.484375 -0.75 -2.21875q-0.953125 -1.15625 -2.46875 -1.15625q-1.375 0 -2.3125 0.921875q-0.9375 0.90625 -1.03125 2.453125z" fill-rule="nonzero"/><path fill="#000000" d="m970.9954 35.31643l0 -1.875l1.875 0l0 1.875q0 1.03125 -0.375 1.65625q-0.359375 0.640625 -1.15625 0.984375l-0.453125 -0.703125q0.515625 -0.21875 0.765625 -0.671875q0.25 -0.4375 0.28125 -1.265625l-0.9375 0z" fill-rule="nonzero"/><path fill="#000000" d="m986.6745 35.31643l0 -1.140625q-0.84375 1.34375 -2.515625 1.34375q-1.0625 0 -1.96875 -0.59375q-0.90625 -0.59375 -1.40625 -1.65625q-0.484375 -1.0625 -0.484375 -2.437502q0 -1.34375 0.4375 -2.4375q0.453125 -1.09375 1.34375 -1.671875q0.90625 -0.59375 2.015625 -0.59375q0.8125 0 1.4375 0.34375q0.640625 0.34375 1.046875 0.890625l0 -4.453125l1.515625 0l0 12.406252l-1.421875 0zm-4.8125 -4.484377q0 1.7187519 0.71875 2.578127q0.734375 0.859375 1.734375 0.859375q0.984375 0 1.6875 -0.8125q0.703125 -0.828125 0.703125 -2.500002q0 -1.84375 -0.71875 -2.703125q-0.703125 -0.859375 -1.75 -0.859375q-1.015625 0 -1.703125 0.828125q-0.671875 0.828125 -0.671875 2.609375zm8.637085 -6.171875l0 -1.75l1.515625 0l0 1.75l-1.515625 0zm0 10.656252l0 -8.984377l1.515625 0l0 8.984377l-1.515625 0zm3.8185425 0l0 -8.984377l1.375 0l0 1.359375q0.515625 -0.953125 0.953125 -1.25q0.453125 -0.3125 0.984375 -0.3125q0.78125 0 1.5625 0.484375l-0.515625 1.421875q-0.5625 -0.328125 -1.125 -0.328125q-0.5 0 -0.890625 0.296875q-0.390625 0.296875 -0.5625 0.828125q-0.265625 0.8125 -0.265625 1.78125l0 4.703127l-1.515625 0zm9.114136 -1.359375l0.21875 1.34375q-0.640625 0.140625 -1.15625 0.140625q-0.828125 0 -1.28125 -0.265625q-0.453125 -0.265625 -0.640625 -0.6875q-0.1875 -0.4375 -0.1875 -1.796875l0 -5.171877l-1.125 0l0 -1.1875l1.125 0l0 -2.21875l1.515625 -0.921875l0 3.140625l1.53125 0l0 1.1875l-1.53125 0l0 5.250002q0 0.65625 0.078125 0.84375q0.078125 0.1875 0.25 0.296875q0.1875 0.109375 0.53125 0.109375q0.25 0 0.671875 -0.0625zm1.423706 4.8125l-0.171875 -1.421875q0.5 0.140625 0.875 0.140625q0.5 0 0.796875 -0.171875q0.3125 -0.171875 0.515625 -0.484375q0.140625 -0.21875 0.453125 -1.125q0.046875 -0.125 0.140625 -0.375l-3.40625 -9.000002l1.640625 0l1.875 5.203125q0.359375 0.9843769 0.640625 2.078127q0.265625 -1.046875 0.625 -2.046877l1.921875 -5.234375l1.53125 0l-3.421875 9.140627q-0.546875 1.484375 -0.859375 2.03125q-0.40625 0.75 -0.9375 1.09375q-0.515625 0.359375 -1.234375 0.359375q-0.453125 0 -0.984375 -0.1875z" fill-rule="nonzero"/><path fill="#000000" d="m1014.09766 35.31643l0 -1.875l1.875 0l0 1.875q0 1.03125 -0.375 1.65625q-0.359375 0.640625 -1.15625 0.984375l-0.453125 -0.703125q0.515625 -0.21875 0.765625 -0.671875q0.25 -0.4375 0.28125 -1.265625l-0.9375 0z" fill-rule="nonzero"/><path fill="#000000" d="m937.4261 54.63643l0 -10.484375l1.28125 0l0 3.75q0.90625 -1.03125 2.28125 -1.03125q0.84375 0 1.46875 0.328125q0.625 0.328125 0.890625 0.921875q0.265625 0.578125 0.265625 1.703125l0 4.8125l-1.28125 0l0 -4.8125q0 -0.96875 -0.421875 -1.40625q-0.421875 -0.4375 -1.1875 -0.4375q-0.578125 0 -1.078125 0.296875q-0.5 0.296875 -0.71875 0.8125q-0.21875 0.5 -0.21875 1.390625l0 4.15625l-1.28125 0zm8.151123 -9.015625l0 -1.46875l1.296875 0l0 1.46875l-1.296875 0zm0 9.015625l0 -7.59375l1.296875 0l0 7.59375l-1.296875 0zm2.7405396 -2.265625l1.265625 -0.203125q0.109375 0.765625 0.59375 1.171875q0.5 0.40625 1.375 0.40625q0.890625 0 1.3125 -0.359375q0.4375 -0.359375 0.4375 -0.84375q0 -0.4375 -0.375 -0.6875q-0.265625 -0.171875 -1.3125 -0.4375q-1.421875 -0.359375 -1.96875 -0.609375q-0.546875 -0.265625 -0.828125 -0.734375q-0.28125 -0.46875 -0.28125 -1.015625q0 -0.515625 0.21875 -0.9375q0.234375 -0.4375 0.640625 -0.734375q0.296875 -0.21875 0.8125 -0.359375q0.53125 -0.15625 1.125 -0.15625q0.890625 0 1.5625 0.265625q0.671875 0.25 1.0 0.6875q0.328125 0.4375 0.4375 1.171875l-1.25 0.171875q-0.09375 -0.578125 -0.5 -0.90625q-0.40625 -0.34375 -1.15625 -0.34375q-0.890625 0 -1.28125 0.296875q-0.375 0.296875 -0.375 0.6875q0 0.25 0.15625 0.453125q0.15625 0.203125 0.5 0.34375q0.1875 0.078125 1.140625 0.328125q1.359375 0.359375 1.890625 0.59375q0.546875 0.234375 0.859375 0.6875q0.3125 0.4375 0.3125 1.09375q0 0.640625 -0.375 1.21875q-0.375 0.5625 -1.09375 0.875q-0.703125 0.3125 -1.59375 0.3125q-1.484375 0 -2.265625 -0.609375q-0.765625 -0.625 -0.984375 -1.828125zm10.65625 1.109375l0.1875 1.140625q-0.546875 0.109375 -0.984375 0.109375q-0.6875 0 -1.078125 -0.21875q-0.390625 -0.21875 -0.546875 -0.578125q-0.15625 -0.359375 -0.15625 -1.515625l0 -4.375l-0.953125 0l0 -1.0l0.953125 0l0 -1.890625l1.28125 -0.765625l0 2.65625l1.296875 0l0 1.0l-1.296875 0l0 4.4375q0 0.546875 0.0625 0.71875q0.078125 0.15625 0.21875 0.25q0.15625 0.078125 0.453125 0.078125q0.203125 0 0.5625 -0.046875zm0.77508545 -2.640625q0 -2.109375 1.171875 -3.125q0.984375 -0.84375 2.390625 -0.84375q1.578125 0 2.5625 1.03125q1.0 1.015625 1.0 2.828125q0 1.46875 -0.4375 2.3125q-0.4375 0.828125 -1.28125 1.296875q-0.84375 0.46875 -1.84375 0.46875q-1.59375 0 -2.578125 -1.015625q-0.984375 -1.03125 -0.984375 -2.953125zm1.328125 0q0 1.453125 0.625 2.1875q0.640625 0.71875 1.609375 0.71875q0.96875 0 1.59375 -0.71875q0.640625 -0.734375 0.640625 -2.234375q0 -1.40625 -0.640625 -2.125q-0.640625 -0.734375 -1.59375 -0.734375q-0.96875 0 -1.609375 0.71875q-0.625 0.71875 -0.625 2.1875zm7.291748 3.796875l0 -7.59375l1.15625 0l0 1.140625q0.453125 -0.796875 0.828125 -1.046875q0.375 -0.265625 0.8125 -0.265625q0.65625 0 1.328125 0.40625l-0.4375 1.203125q-0.46875 -0.28125 -0.953125 -0.28125q-0.421875 0 -0.765625 0.25q-0.328125 0.25 -0.46875 0.703125q-0.21875 0.6875 -0.21875 1.5l0 3.984375l-1.28125 0zm4.89624 -9.015625l0 -1.46875l1.296875 0l0 1.46875l-1.296875 0zm0 9.015625l0 -7.59375l1.296875 0l0 7.59375l-1.296875 0zm8.20929 -2.78125l1.265625 0.15625q-0.203125 1.3125 -1.0625 2.0625q-0.84375 0.734375 -2.09375 0.734375q-1.5625 0 -2.515625 -1.015625q-0.9375 -1.03125 -0.9375 -2.921875q0 -1.234375 0.40625 -2.15625q0.40625 -0.921875 1.234375 -1.375q0.84375 -0.46875 1.8125 -0.46875q1.25 0 2.03125 0.625q0.78125 0.625 1.015625 1.765625l-1.265625 0.203125q-0.171875 -0.765625 -0.625 -1.15625q-0.453125 -0.390625 -1.09375 -0.390625q-0.984375 0 -1.59375 0.703125q-0.609375 0.703125 -0.609375 2.203125q0 1.53125 0.578125 2.234375q0.59375 0.6875 1.546875 0.6875q0.75 0 1.265625 -0.453125q0.515625 -0.46875 0.640625 -1.4375zm7.328125 1.84375q-0.71875 0.609375 -1.375 0.859375q-0.65625 0.25 -1.421875 0.25q-1.25 0 -1.921875 -0.609375q-0.671875 -0.609375 -0.671875 -1.5625q0 -0.5625 0.25 -1.015625q0.25 -0.46875 0.65625 -0.75q0.421875 -0.28125 0.9375 -0.421875q0.375 -0.09375 1.140625 -0.1875q1.5625 -0.1875 2.296875 -0.453125q0.015625 -0.265625 0.015625 -0.328125q0 -0.796875 -0.375 -1.109375q-0.484375 -0.4375 -1.453125 -0.4375q-0.921875 0 -1.359375 0.328125q-0.421875 0.3125 -0.625 1.109375l-1.265625 -0.171875q0.171875 -0.796875 0.5625 -1.296875q0.390625 -0.5 1.140625 -0.765625q0.75 -0.265625 1.71875 -0.265625q0.984375 0 1.59375 0.234375q0.609375 0.21875 0.890625 0.5625q0.28125 0.34375 0.40625 0.875q0.0625 0.328125 0.0625 1.1875l0 1.71875q0 1.796875 0.078125 2.28125q0.078125 0.46875 0.328125 0.90625l-1.34375 0q-0.203125 -0.40625 -0.265625 -0.9375zm-0.109375 -2.875q-0.703125 0.28125 -2.09375 0.484375q-0.796875 0.109375 -1.125 0.265625q-0.328125 0.140625 -0.515625 0.421875q-0.171875 0.265625 -0.171875 0.59375q0 0.515625 0.390625 0.859375q0.390625 0.34375 1.140625 0.34375q0.734375 0 1.3125 -0.3125q0.59375 -0.328125 0.859375 -0.890625q0.203125 -0.4375 0.203125 -1.296875l0 -0.46875zm3.276123 3.8125l0 -10.484375l1.28125 0l0 10.484375l-1.28125 0zm4.0217285 0l0 -1.46875l1.46875 0l0 1.46875l-1.46875 0zm4.890625 0l0 -1.46875l1.46875 0l0 1.46875l-1.46875 0zm4.890625 0l0 -1.46875l1.46875 0l0 1.46875l-1.46875 0z" fill-rule="nonzero"/><path fill="#000000" fill-opacity="0.0" d="m1092.6063 329.21915l161.57483 0l0 46.86615l-161.57483 0z" fill-rule="evenodd"/><path fill="#000000" d="m1109.2156 346.43228l0.34375 -1.859375l10.9375 0l-0.3125 1.859375l-4.484375 0l-2.40625 13.546875l-1.96875 0l2.40625 -13.546875l-4.515625 0zm17.38855 3.984375q-0.53125 0 -1.265625 0.171875q-0.71875 0.171875 -1.546875 0.703125q-0.8125 0.515625 -1.6875 1.578125l-1.234375 7.109375l-1.859375 0l1.984375 -11.21875l1.75 0l-0.359375 2.109375q1.28125 -1.421875 2.453125 -1.875q1.171875 -0.453125 2.078125 -0.453125l-0.3125 1.875zm10.049194 9.671875q-1.109375 0 -1.640625 -0.546875q-0.53125 -0.5625 -0.578125 -1.390625q-1.0625 1.15625 -2.046875 1.609375q-0.96875 0.4375 -1.828125 0.4375q-1.109375 0 -1.828125 -0.6875q-0.703125 -0.703125 -0.984375 -1.921875q-0.265625 -1.234375 -0.046875 -2.78125l0.171875 -1.109375q0.359375 -2.421875 1.6875 -3.78125q1.34375 -1.375 3.515625 -1.375q1.140625 0 2.25 0.375q1.125 0.375 2.171875 1.046875l-1.21875 6.953125q-0.125 0.6875 0.03125 1.09375q0.171875 0.390625 0.734375 0.390625l0.3125 0l-0.3125 1.6875l-0.390625 0zm-7.015625 -5.28125q-0.25 1.796875 0.125 2.765625q0.390625 0.953125 1.296875 0.953125q0.6875 0 1.59375 -0.578125q0.90625 -0.59375 1.9375 -2.0625l0.890625 -5.03125q-1.234375 -0.609375 -2.296875 -0.609375q-1.46875 0 -2.328125 0.96875q-0.84375 0.953125 -1.0625 2.484375l-0.15625 1.109375zm17.297607 -4.53125q-0.421875 0 -1.0 0.203125q-0.5625 0.1875 -1.3125 0.71875q-0.734375 0.53125 -1.71875 1.578125l-1.28125 7.203125l-1.859375 0l1.984375 -11.21875l1.75 0l-0.34375 2.0625q1.34375 -1.40625 2.390625 -1.84375q1.0625 -0.4375 1.890625 -0.4375q1.546875 0 2.28125 1.125q0.734375 1.109375 0.421875 2.90625l-1.3125 7.40625l-1.859375 0l1.265625 -7.25q0.453125 -2.453125 -1.296875 -2.453125zm8.780518 8.28125q1.3125 0 1.890625 -0.453125q0.578125 -0.453125 0.578125 -1.1875q0 -0.578125 -0.375 -0.9375q-0.359375 -0.375 -1.21875 -0.6875l-1.078125 -0.4375q-1.15625 -0.421875 -1.734375 -1.140625q-0.578125 -0.734375 -0.578125 -1.84375q0 -0.90625 0.390625 -1.65625q0.390625 -0.75 1.28125 -1.203125q0.890625 -0.46875 2.3125 -0.46875q1.75 0 3.53125 0.8125l-0.59375 1.578125q-0.8125 -0.375 -1.546875 -0.546875q-0.71875 -0.171875 -1.4375 -0.171875q-1.109375 0 -1.59375 0.40625q-0.484375 0.40625 -0.484375 1.109375q0 0.5 0.296875 0.875q0.3125 0.359375 1.0625 0.640625l1.109375 0.40625q1.234375 0.453125 1.875 1.1875q0.640625 0.71875 0.640625 1.875q0 0.890625 -0.4375 1.703125q-0.4375 0.796875 -1.40625 1.296875q-0.953125 0.484375 -2.53125 0.484375q-1.890625 0 -3.78125 -0.828125l0.578125 -1.5625q0.890625 0.375 1.671875 0.5625q0.796875 0.1875 1.578125 0.1875zm14.388184 -8.15625l-3.671875 0l-1.703125 9.578125l-1.859375 0l1.703125 -9.578125l-1.953125 0l0.265625 -1.640625l1.984375 0l0.3125 -1.859375q0.203125 -1.125 0.671875 -2.0q0.484375 -0.890625 1.328125 -1.390625q0.859375 -0.515625 2.171875 -0.515625q0.71875 0 1.40625 0.171875q0.703125 0.15625 1.3125 0.484375l-0.734375 1.484375q-1.078125 -0.453125 -1.90625 -0.453125q-0.96875 0 -1.578125 0.53125q-0.609375 0.515625 -0.8125 1.671875l-0.34375 1.875l3.6875 0l-0.28125 1.640625zm10.205444 3.734375l-0.171875 1.125q-0.359375 2.40625 -1.71875 3.671875q-1.34375 1.265625 -3.5 1.265625q-1.578125 0 -2.609375 -0.71875q-1.03125 -0.71875 -1.4375 -1.984375q-0.40625 -1.28125 -0.15625 -2.890625l0.171875 -1.15625q0.390625 -2.296875 1.703125 -3.59375q1.328125 -1.3125 3.515625 -1.3125q1.609375 0 2.625 0.75q1.015625 0.734375 1.421875 2.0q0.40625 1.25 0.15625 2.84375zm-1.921875 -0.046875q0.265625 -1.703125 -0.328125 -2.765625q-0.578125 -1.078125 -1.984375 -1.078125q-1.3125 0 -2.171875 0.84375q-0.84375 0.828125 -1.09375 2.359375l-0.171875 1.203125q-0.28125 1.75 0.3125 2.8125q0.609375 1.0625 2.0 1.0625q1.3125 0 2.15625 -0.828125q0.859375 -0.828125 1.09375 -2.4375l0.1875 -1.171875zm11.880493 -3.671875q-0.53125 0 -1.265625 0.171875q-0.71875 0.171875 -1.546875 0.703125q-0.8125 0.515625 -1.6875 1.578125l-1.234375 7.109375l-1.859375 0l1.984375 -11.21875l1.75 0l-0.359375 2.109375q1.28125 -1.421875 2.453125 -1.875q1.171875 -0.453125 2.078125 -0.453125l-0.3125 1.875zm7.7835693 -0.140625q-0.625 0 -1.578125 0.5q-0.9375 0.484375 -2.359375 2.015625l-1.265625 7.1875l-1.859375 0l1.984375 -11.21875l1.75 0l-0.34375 2.046875q1.3125 -1.390625 2.328125 -1.828125q1.03125 -0.4375 1.84375 -0.4375q1.109375 0 1.78125 0.640625q0.6875 0.625 0.84375 1.71875q1.34375 -1.4375 2.421875 -1.890625q1.09375 -0.46875 1.9375 -0.46875q1.515625 0 2.203125 1.109375q0.6875 1.109375 0.375 2.921875l-1.3125 7.40625l-1.859375 0l1.296875 -7.25q0.21875 -1.21875 -0.125 -1.828125q-0.328125 -0.625 -1.078125 -0.625q-0.40625 0 -0.96875 0.21875q-0.546875 0.203125 -1.28125 0.734375q-0.71875 0.53125 -1.703125 1.5625l-1.265625 7.1875l-1.859375 0l1.28125 -7.25q0.21875 -1.21875 -0.109375 -1.828125q-0.328125 -0.625 -1.078125 -0.625zm20.891357 9.25q-0.96875 0.359375 -1.875 0.515625q-0.90625 0.15625 -1.734375 0.15625q-1.8125 0 -2.84375 -0.734375q-1.015625 -0.734375 -1.359375 -2.0q-0.34375 -1.265625 -0.09375 -2.859375l0.203125 -1.15625q0.359375 -2.21875 1.703125 -3.5625q1.359375 -1.34375 3.421875 -1.34375q1.015625 0 1.90625 0.359375q0.90625 0.359375 1.4375 1.140625q0.546875 0.765625 0.546875 1.96875q0 0.65625 -0.203125 1.390625q-0.1875 0.734375 -0.703125 1.59375l-6.546875 0q-0.203125 1.5625 0.359375 2.546875q0.578125 0.984375 2.34375 0.984375q0.625 0 1.4375 -0.140625q0.828125 -0.15625 1.703125 -0.4375l0.296875 1.578125zm-2.65625 -9.328125q-1.28125 0 -2.125 0.84375q-0.84375 0.84375 -1.09375 2.375l5.078125 0q0.1875 -0.390625 0.234375 -0.734375q0.0625 -0.34375 0.0625 -0.625q0 -0.953125 -0.609375 -1.40625q-0.609375 -0.453125 -1.546875 -0.453125zm13.425781 0.21875q-0.53125 0 -1.265625 0.171875q-0.71875 0.171875 -1.546875 0.703125q-0.8125 0.515625 -1.6875 1.578125l-1.234375 7.109375l-1.859375 0l1.984375 -11.21875l1.75 0l-0.359375 2.109375q1.28125 -1.421875 2.453125 -1.875q1.171875 -0.453125 2.078125 -0.453125l-0.3125 1.875zm3.7366943 8.140625q1.3125 0 1.890625 -0.453125q0.578125 -0.453125 0.578125 -1.1875q0 -0.578125 -0.375 -0.9375q-0.359375 -0.375 -1.21875 -0.6875l-1.078125 -0.4375q-1.15625 -0.421875 -1.734375 -1.140625q-0.578125 -0.734375 -0.578125 -1.84375q0 -0.90625 0.390625 -1.65625q0.390625 -0.75 1.28125 -1.203125q0.890625 -0.46875 2.3125 -0.46875q1.75 0 3.53125 0.8125l-0.59375 1.578125q-0.8125 -0.375 -1.546875 -0.546875q-0.71875 -0.171875 -1.4375 -0.171875q-1.109375 0 -1.59375 0.40625q-0.484375 0.40625 -0.484375 1.109375q0 0.5 0.296875 0.875q0.3125 0.359375 1.0625 0.640625l1.109375 0.40625q1.234375 0.453125 1.875 1.1875q0.640625 0.71875 0.640625 1.875q0 0.890625 -0.4375 1.703125q-0.4375 0.796875 -1.40625 1.296875q-0.953125 0.484375 -2.53125 0.484375q-1.890625 0 -3.78125 -0.828125l0.578125 -1.5625q0.890625 0.375 1.671875 0.5625q0.796875 0.1875 1.578125 0.1875z" fill-rule="nonzero"/><path fill="#000000" fill-opacity="0.0" d="m686.0853 585.1142c0 -14.449402 39.433044 -21.674377 78.86609 -28.898804c39.433105 -7.2244263 78.86615 -14.448242 78.86615 -28.896484" fill-rule="evenodd"/><path stroke="#000000" stroke-width="2.0" stroke-linejoin="round" stroke-linecap="butt" d="m686.0853 585.1142c0 -14.449402 39.433044 -21.674377 78.86609 -28.898804c19.716553 -3.6121826 39.433105 -7.224243 54.22052 -11.739319c3.6968384 -1.1287842 7.0856323 -2.3139648 10.089294 -3.5697021c1.5018921 -0.62786865 2.9074097 -1.2733765 4.2070923 -1.9382935c0.6498413 -0.3324585 1.2732544 -0.66973877 1.8688354 -1.012146c0.2979126 -0.17114258 0.5888672 -0.34362793 0.87268066 -0.517395c0.14196777 -0.08685303 0.28204346 -0.17407227 0.42041016 -0.26159668l0.18060303 -0.1161499" fill-rule="evenodd"/><path fill="#000000" stroke="#000000" stroke-width="2.0" stroke-linecap="butt" d="m839.4927 538.9897l2.6177368 -9.29718l-7.9814453 5.439453z" fill-rule="evenodd"/><path fill="#000000" fill-opacity="0.0" d="m807.91205 585.1142c0 -14.449402 19.716553 -21.674377 39.433105 -28.898804c19.716553 -7.2244263 39.433044 -14.448242 39.433044 -28.896484" fill-rule="evenodd"/><path stroke="#000000" stroke-width="2.0" stroke-linejoin="round" stroke-linecap="butt" d="m807.91205 585.1142c0 -14.449402 19.716553 -21.674377 39.433105 -28.898804c9.858276 -3.6121826 19.716553 -7.224243 27.11023 -11.739319c1.8484497 -1.1287842 3.5427856 -2.3139648 5.0446167 -3.5697021c0.75097656 -0.62786865 1.4537354 -1.2733765 2.1035767 -1.9382935c0.16247559 -0.16619873 0.32159424 -0.33361816 0.47735596 -0.50231934l0.06866455 -0.07543945" fill-rule="evenodd"/><path fill="#000000" stroke="#000000" stroke-width="2.0" stroke-linecap="butt" d="m885.19745 539.6645l0.45300293 -9.64801l-6.548645 7.0996094z" fill-rule="evenodd"/><path fill="#000000" fill-opacity="0.0" d="m929.73883 585.1142c0 -14.449402 0.01574707 -21.674377 0.03149414 -28.898804c0.01574707 -7.2244263 0.03149414 -14.448242 0.03149414 -28.896484" fill-rule="evenodd"/><path stroke="#000000" stroke-width="2.0" stroke-linejoin="round" stroke-linecap="butt" d="m929.73883 585.1142c0 -14.449402 0.01574707 -21.674377 0.03149414 -28.898804c0.007873535 -3.6121826 0.01574707 -7.224243 0.02166748 -11.739319l0.0048217773 -5.1571655" fill-rule="evenodd"/><path fill="#000000" stroke="#000000" stroke-width="2.0" stroke-linecap="butt" d="m933.10034 539.32025l-3.2997437 -9.077576l-3.30719 9.074829z" fill-rule="evenodd"/><path fill="#000000" fill-opacity="0.0" d="m1051.5657 585.1142c0 -14.449402 -19.716553 -21.674377 -39.433105 -28.898804c-19.716553 -7.2244263 -39.433105 -14.448242 -39.433105 -28.896484" fill-rule="evenodd"/><path stroke="#000000" stroke-width="2.0" stroke-linejoin="round" stroke-linecap="butt" d="m1051.5657 585.1142c0 -14.449402 -19.716553 -21.674377 -39.433105 -28.898804c-9.858276 -3.6121826 -19.716553 -7.224243 -27.11023 -11.739319c-1.8484497 -1.1287842 -3.5428467 -2.3139648 -5.0446777 -3.5697021c-0.75097656 -0.62786865 -1.4537354 -1.2733765 -2.1035767 -1.9382935c-0.16247559 -0.16619873 -0.32159424 -0.33361816 -0.47735596 -0.50231934l-0.06866455 -0.07543945" fill-rule="evenodd"/><path fill="#000000" stroke="#000000" stroke-width="2.0" stroke-linecap="butt" d="m980.3759 537.1161l-6.548706 -7.0996094l0.45306396 9.64801z" fill-rule="evenodd"/><path fill="#000000" fill-opacity="0.0" d="m1173.3923 585.1142c0 -14.449402 -39.432983 -21.674377 -78.86609 -28.898804c-39.433105 -7.2244263 -78.86615 -14.448242 -78.86615 -28.896484" fill-rule="evenodd"/><path stroke="#000000" stroke-width="2.0" stroke-linejoin="round" stroke-linecap="butt" d="m1173.3923 585.1142c0 -14.449402 -39.432983 -21.674377 -78.86609 -28.898804c-19.716553 -3.6121826 -39.433105 -7.224243 -54.22046 -11.739319c-3.6968994 -1.1287842 -7.0856934 -2.3139648 -10.089355 -3.5697021c-1.501831 -0.62786865 -2.9073486 -1.2733765 -4.2070312 -1.9382935c-0.64990234 -0.3324585 -1.2733154 -0.66973877 -1.8688965 -1.012146c-0.2979126 -0.17114258 -0.58880615 -0.34362793 -0.8726196 -0.517395c-0.14196777 -0.08685303 -0.28204346 -0.17407227 -0.4204712 -0.26159668l-0.18060303 -0.1161499" fill-rule="evenodd"/><path fill="#000000" stroke="#000000" stroke-width="2.0" stroke-linecap="butt" d="m1025.3488 535.13196l-7.9814453 -5.439453l2.6177368 9.29718z" fill-rule="evenodd"/><path fill="#000000" fill-opacity="0.0" d="m972.69965 182.77559c0 -8.387161 0.01574707 -12.581421 0.03149414 -16.774338c0.01574707 -4.192917 0.03149414 -8.384476 0.03149414 -16.768967" fill-rule="evenodd"/><path stroke="#000000" stroke-width="2.0" stroke-linejoin="round" stroke-linecap="butt" d="m972.69965 182.77559c0 -8.387161 0.01574707 -12.581421 0.03149414 -16.774338l0.015197754 -4.768982" fill-rule="evenodd"/><path fill="#000000" stroke="#000000" stroke-width="2.0" stroke-linecap="butt" d="m976.04974 161.23677l-3.2910767 -9.080688l-3.315857 9.071686z" fill-rule="evenodd"/><path fill="#000000" fill-opacity="0.0" d="m972.7008 107.1168c0 -9.650841 0.01574707 -14.474907 0.03149414 -19.301682c0.01574707 -4.8267746 0.03149414 -9.656242 0.03149414 -19.312492" fill-rule="evenodd"/><path stroke="#000000" stroke-width="2.0" stroke-linejoin="round" stroke-linecap="butt" d="m972.7008 107.1168c0 -9.650841 0.01574707 -14.474915 0.03149414 -19.301682l0.020141602 -7.3125" fill-rule="evenodd"/><path fill="#000000" stroke="#000000" stroke-width="2.0" stroke-linecap="butt" d="m976.0559 80.50573l-3.2948608 -9.0793l-3.3120728 9.073074z" fill-rule="evenodd"/><path fill="#c9daf8" d="m5.2769027 326.30185l109.44882 0l0 49.763763l-109.44882 0z" fill-rule="evenodd"/><path fill="#000000" d="m35.94227 360.50372l0 -17.21875l5.359375 0q2.484375 0 3.78125 1.3125q1.3125 1.296875 1.3125 3.46875l0 1.34375q0 2.171875 -1.3125 3.5q-1.296875 1.3125 -3.78125 1.3125l-3.15625 0l0 6.28125l-2.203125 0zm5.359375 -15.140625l-3.15625 0l0 6.8125l3.15625 0q1.375 0 2.09375 -0.734375q0.71875 -0.734375 0.71875 -2.03125l0 -1.34375q0 -1.265625 -0.71875 -1.984375q-0.71875 -0.71875 -2.09375 -0.71875zm17.57817 15.265625q-1.15625 0 -1.859375 -0.53125q-0.6875 -0.53125 -0.96875 -1.3125q-1.25 1.078125 -2.265625 1.53125q-1.0 0.4375 -2.015625 0.4375q-1.640625 0 -2.4375 -1.0625q-0.78125 -1.0625 -0.78125 -2.609375q0 -1.03125 0.375 -1.84375q0.390625 -0.8125 1.296875 -1.28125q0.90625 -0.46875 2.453125 -0.46875q0.6875 0 1.5 0.09375q0.8125 0.078125 1.640625 0.203125l0 -1.6875q0 -1.421875 -0.625 -1.9375q-0.609375 -0.515625 -1.796875 -0.515625q-1.625 0 -3.625 0.875l-0.65625 -1.71875q1.15625 -0.53125 2.21875 -0.8125q1.0625 -0.28125 2.15625 -0.28125q1.78125 0 2.71875 0.59375q0.9375 0.578125 1.28125 1.546875q0.359375 0.953125 0.359375 2.09375l0 5.421875q0 0.578125 0.21875 0.984375q0.234375 0.390625 0.921875 0.390625l0.28125 0l0 1.890625l-0.390625 0zm-8.28125 -3.5625q0 0.859375 0.40625 1.390625q0.40625 0.53125 1.171875 0.53125q0.65625 0 1.515625 -0.390625q0.859375 -0.40625 2.125 -1.59375l0 -1.59375q-1.71875 -0.28125 -3.03125 -0.28125q-1.171875 0 -1.6875 0.484375q-0.5 0.484375 -0.5 1.453125zm18.18991 -7.28125q-1.140625 0 -2.21875 0.40625q-1.078125 0.40625 -2.28125 1.546875l0 8.765625l-2.078125 0l0 -12.53125l1.96875 0l0 2.015625q1.296875 -1.265625 2.375 -1.765625q1.078125 -0.515625 2.234375 -0.515625l0 2.078125zm4.9204407 -4.890625l-2.328125 0l0 -2.328125l2.328125 0l0 2.328125zm-0.125 15.609375l-2.078125 0l0 -12.53125l2.078125 0l0 12.53125zm7.5443726 -1.59375q2.53125 0 2.53125 -1.71875q0 -0.734375 -0.453125 -1.15625q-0.453125 -0.4375 -1.671875 -0.75l-1.390625 -0.359375q-1.546875 -0.375 -2.3125 -1.328125q-0.765625 -0.953125 -0.765625 -2.265625q0 -0.953125 0.4375 -1.78125q0.4375 -0.828125 1.359375 -1.328125q0.9375 -0.515625 2.4375 -0.515625q0.96875 0 1.96875 0.21875q1.0 0.21875 2.03125 0.71875l-0.65625 1.75q-1.84375 -0.828125 -3.34375 -0.828125q-2.203125 0 -2.203125 1.640625q0 0.640625 0.40625 1.09375q0.40625 0.453125 1.515625 0.734375l1.390625 0.34375q1.671875 0.40625 2.453125 1.328125q0.796875 0.90625 0.796875 2.359375q0 1.03125 -0.453125 1.890625q-0.4375 0.84375 -1.421875 1.328125q-0.96875 0.46875 -2.609375 0.46875q-1.09375 0 -2.171875 -0.234375q-1.0625 -0.21875 -2.203125 -0.71875l0.546875 -1.734375q1.09375 0.4375 1.96875 0.640625q0.890625 0.203125 1.8125 0.203125z" fill-rule="nonzero"/><path fill="#c9daf8" d="m127.103676 326.30185l109.448814 0l0 49.763763l-109.448814 0z" fill-rule="evenodd"/><path fill="#000000" d="m177.52736 344.89435l-2.328125 0l0 -2.328125l2.328125 0l0 2.328125zm-0.125 15.609375l-2.078125 0l0 -12.53125l2.078125 0l0 12.53125zm7.5443726 -1.59375q2.53125 0 2.53125 -1.71875q0 -0.734375 -0.453125 -1.15625q-0.453125 -0.4375 -1.671875 -0.75l-1.390625 -0.359375q-1.546875 -0.375 -2.3125 -1.328125q-0.765625 -0.953125 -0.765625 -2.265625q0 -0.953125 0.4375 -1.78125q0.4375 -0.828125 1.359375 -1.328125q0.9375 -0.515625 2.4375 -0.515625q0.96875 0 1.96875 0.21875q1.0 0.21875 2.03125 0.71875l-0.65625 1.75q-1.84375 -0.828125 -3.34375 -0.828125q-2.203125 0 -2.203125 1.640625q0 0.640625 0.40625 1.09375q0.40625 0.453125 1.515625 0.734375l1.390625 0.34375q1.671875 0.40625 2.453125 1.328125q0.796875 0.90625 0.796875 2.359375q0 1.03125 -0.453125 1.890625q-0.4375 0.84375 -1.421875 1.328125q-0.96875 0.46875 -2.609375 0.46875q-1.09375 0 -2.171875 -0.234375q-1.0625 -0.21875 -2.203125 -0.71875l0.546875 -1.734375q1.09375 0.4375 1.96875 0.640625q0.890625 0.203125 1.8125 0.203125z" fill-rule="nonzero"/><path fill="#c9daf8" d="m248.93045 326.30185l109.44882 0l0 49.763763l-109.44882 0z" fill-rule="evenodd"/><path fill="#000000" d="m308.8021 360.62872q-1.15625 0 -1.859375 -0.53125q-0.6875 -0.53125 -0.96875 -1.3125q-1.25 1.078125 -2.265625 1.53125q-1.0 0.4375 -2.015625 0.4375q-1.640625 0 -2.4375 -1.0625q-0.78125 -1.0625 -0.78125 -2.609375q0 -1.03125 0.375 -1.84375q0.390625 -0.8125 1.296875 -1.28125q0.90625 -0.46875 2.453125 -0.46875q0.6875 0 1.5 0.09375q0.8125 0.078125 1.640625 0.203125l0 -1.6875q0 -1.421875 -0.625 -1.9375q-0.609375 -0.515625 -1.796875 -0.515625q-1.625 0 -3.625 0.875l-0.65625 -1.71875q1.15625 -0.53125 2.21875 -0.8125q1.0625 -0.28125 2.15625 -0.28125q1.78125 0 2.71875 0.59375q0.9375 0.578125 1.28125 1.546875q0.359375 0.953125 0.359375 2.09375l0 5.421875q0 0.578125 0.21875 0.984375q0.234375 0.390625 0.921875 0.390625l0.28125 0l0 1.890625l-0.390625 0zm-8.28125 -3.5625q0 0.859375 0.40625 1.390625q0.40625 0.53125 1.171875 0.53125q0.65625 0 1.515625 -0.390625q0.859375 -0.40625 2.125 -1.59375l0 -1.59375q-1.71875 -0.28125 -3.03125 -0.28125q-1.171875 0 -1.6875 0.484375q-0.5 0.484375 -0.5 1.453125z" fill-rule="nonzero"/><path fill="#c9daf8" d="m370.75723 326.30185l109.44879 0l0 49.763763l-109.44879 0z" fill-rule="evenodd"/><path fill="#000000" d="m406.47806 353.4881l0 1.5q0 1.921875 0.703125 2.90625q0.703125 0.96875 2.25 0.96875q1.53125 0 3.265625 -0.796875l0.640625 1.75q-2.078125 0.9375 -4.03125 0.9375q-2.421875 0 -3.6875 -1.546875q-1.265625 -1.546875 -1.265625 -4.21875l0 -1.5q0 -2.6875 1.265625 -4.234375q1.265625 -1.546875 3.6875 -1.546875q0.921875 0 1.890625 0.25q0.96875 0.234375 1.96875 0.671875l-0.640625 1.765625q-0.828125 -0.34375 -1.609375 -0.546875q-0.765625 -0.203125 -1.484375 -0.203125q-1.546875 0 -2.25 0.96875q-0.703125 0.96875 -0.703125 2.875zm19.77481 -0.03125l0 1.53125q0 2.671875 -1.390625 4.21875q-1.375 1.546875 -3.921875 1.546875q-2.53125 0 -3.9375 -1.546875q-1.390625 -1.546875 -1.390625 -4.21875l0 -1.53125q0 -2.625 1.375 -4.1875q1.390625 -1.5625 3.953125 -1.5625q2.546875 0 3.921875 1.5625q1.390625 1.5625 1.390625 4.1875zm-2.15625 0q0 -1.796875 -0.8125 -2.8125q-0.796875 -1.03125 -2.34375 -1.03125q-1.53125 0 -2.359375 1.03125q-0.8125 1.015625 -0.8125 2.8125l0 1.53125q0 1.875 0.8125 2.890625q0.828125 1.0 2.359375 1.0q1.546875 0 2.34375 -1.0q0.8125 -1.015625 0.8125 -2.890625l0 -1.53125zm15.858795 0l0 1.53125q0 2.671875 -1.390625 4.21875q-1.375 1.546875 -3.921875 1.546875q-2.53125 0 -3.9375 -1.546875q-1.390625 -1.546875 -1.390625 -4.21875l0 -1.53125q0 -2.625 1.375 -4.1875q1.390625 -1.5625 3.953125 -1.5625q2.546875 0 3.921875 1.5625q1.390625 1.5625 1.390625 4.1875zm-2.15625 0q0 -1.796875 -0.8125 -2.8125q-0.796875 -1.03125 -2.34375 -1.03125q-1.53125 0 -2.359375 1.03125q-0.8125 1.015625 -0.8125 2.8125l0 1.53125q0 1.875 0.8125 2.890625q0.828125 1.0 2.359375 1.0q1.546875 0 2.34375 -1.0q0.8125 -1.015625 0.8125 -2.890625l0 -1.53125zm5.9056396 4.0l0 -15.703125l2.078125 0l0 15.609375q0 0.6875 0.21875 1.03125q0.21875 0.34375 0.875 0.34375l0.40625 0l0 1.890625l-0.59375 0q-1.671875 0 -2.328125 -0.875q-0.65625 -0.890625 -0.65625 -2.296875z" fill-rule="nonzero"/><path fill="#c9daf8" d="m492.58398 326.30185l109.44885 0l0 49.763763l-109.44885 0z" fill-rule="evenodd"/><path fill="#000000" d="m531.25555 353.4881l0 1.5q0 1.921875 0.703125 2.90625q0.703125 0.96875 2.25 0.96875q1.53125 0 3.265625 -0.796875l0.640625 1.75q-2.078125 0.9375 -4.03125 0.9375q-2.421875 0 -3.6875 -1.546875q-1.265625 -1.546875 -1.265625 -4.21875l0 -1.5q0 -2.6875 1.265625 -4.234375q1.265625 -1.546875 3.6875 -1.546875q0.921875 0 1.890625 0.25q0.96875 0.234375 1.96875 0.671875l-0.640625 1.765625q-0.828125 -0.34375 -1.609375 -0.546875q-0.765625 -0.203125 -1.484375 -0.203125q-1.546875 0 -2.25 0.96875q-0.703125 0.96875 -0.703125 2.875zm12.1067505 -8.59375l-2.328125 0l0 -2.328125l2.328125 0l0 2.328125zm-0.125 15.609375l-2.078125 0l0 -12.53125l2.078125 0l0 12.53125zm11.372498 -0.453125q-1.421875 0.703125 -3.015625 0.703125q-1.375 0 -2.15625 -0.546875q-0.765625 -0.5625 -1.078125 -1.5q-0.3125 -0.9375 -0.3125 -2.078125l0 -6.84375l-2.1875 0l0 -1.8125l2.1875 0l0 -3.5l2.078125 0l0 3.5l4.09375 0l0 1.8125l-4.09375 0l0 6.765625q0 1.3125 0.4375 1.8125q0.4375 0.5 1.375 0.5q0.46875 0 0.953125 -0.109375q0.5 -0.125 1.078125 -0.40625l0.640625 1.703125zm7.01532 1.71875q-0.8125 2.28125 -2.0 3.328125q-1.171875 1.046875 -3.28125 1.046875l0 -2.046875q0.875 -0.015625 1.484375 -0.21875q0.625 -0.203125 1.109375 -0.828125q0.5 -0.625 0.953125 -1.84375l0.265625 -0.625l-4.515625 -12.609375l2.125 0l2.109375 6.09375l1.28125 3.90625l1.25 -3.90625l2.046875 -6.09375l2.046875 0l-4.875 13.796875z" fill-rule="nonzero"/><path fill="#000000" fill-opacity="0.0" d="m303.65485 376.0656c0 116.96063 163.85828 233.92126 327.71655 233.92126" fill-rule="evenodd"/><path stroke="#000000" stroke-width="2.0" stroke-linejoin="round" stroke-linecap="butt" d="m303.65485 376.0656c0 58.480316 40.96457 116.96063 102.41144 160.82086c30.72342 21.930115 66.56741 40.2052 104.97168 52.997803c19.202148 6.3963013 39.044373 11.421936 59.206604 14.848511c10.081116 1.7132568 20.242249 3.0267944 30.44336 3.9120483c5.100647 0.44256592 10.211182 0.7780762 15.326782 1.0029907c0.6394043 0.028076172 1.2789307 0.05444336 1.9185181 0.07910156l1.4399414 0.051574707" fill-rule="evenodd"/><path fill="#000000" stroke="#000000" stroke-width="2.0" stroke-linecap="butt" d="m619.31586 613.0814l9.132141 -3.1453247l-9.017456 -3.4605713z" fill-rule="evenodd"/><path fill="#000000" fill-opacity="0.0" d="m9.677165 275.51312l195.2441 0l0 46.86615l-195.2441 0z" fill-rule="evenodd"/><path fill="#000000" d="m20.349041 292.72626l0.34375 -1.859375l10.9375 0l-0.3125 1.859375l-4.484375 0l-2.40625 13.546875l-1.96875 0l2.40625 -13.546875l-4.515625 0zm17.38855 3.984375q-0.53125 0 -1.265625 0.171875q-0.71875 0.171875 -1.546875 0.703125q-0.8125 0.515625 -1.6875 1.578125l-1.234375 7.109375l-1.859375 0l1.984375 -11.21875l1.75 0l-0.359375 2.109375q1.28125 -1.421875 2.453125 -1.875q1.171875 -0.453125 2.078125 -0.453125l-0.3125 1.875zm10.049194 9.671875q-1.109375 0 -1.640625 -0.546875q-0.53125 -0.5625 -0.578125 -1.390625q-1.0625 1.15625 -2.046875 1.609375q-0.96875 0.4375 -1.828125 0.4375q-1.109375 0 -1.828125 -0.6875q-0.703125 -0.703125 -0.984375 -1.921875q-0.265625 -1.234375 -0.046875 -2.78125l0.171875 -1.109375q0.359375 -2.421875 1.6875 -3.78125q1.34375 -1.375 3.515625 -1.375q1.140625 0 2.25 0.375q1.125 0.375 2.171875 1.046875l-1.21875 6.953125q-0.125 0.6875 0.03125 1.09375q0.171875 0.390625 0.734375 0.390625l0.3125 0l-0.3125 1.6875l-0.390625 0zm-7.015625 -5.28125q-0.25 1.796875 0.125 2.765625q0.390625 0.953125 1.296875 0.953125q0.6875 0 1.59375 -0.578125q0.90625 -0.59375 1.9375 -2.0625l0.890625 -5.03125q-1.234375 -0.609375 -2.296875 -0.609375q-1.46875 0 -2.328125 0.96875q-0.84375 0.953125 -1.0625 2.484375l-0.15625 1.109375zm14.578873 -8.78125l-2.078125 0l0.34375 -2.09375l2.078125 0l-0.34375 2.09375zm-2.59375 13.953125l-1.859375 0l1.984375 -11.21875l1.859375 0l-1.984375 11.21875zm11.20311 -9.703125q-0.421875 0 -1.0 0.203125q-0.5625 0.1875 -1.3125 0.71875q-0.734375 0.53125 -1.71875 1.578125l-1.28125 7.203125l-1.859375 0l1.984375 -11.21875l1.75 0l-0.34375 2.0625q1.34375 -1.40625 2.390625 -1.84375q1.0625 -0.4375 1.8906212 -0.4375q1.546875 0 2.28125 1.125q0.734375 1.109375 0.421875 2.90625l-1.3125 7.40625l-1.8593712 0l1.2656212 -7.25q0.453125 -2.453125 -1.2968712 -2.453125zm10.217937 -4.25l-2.078125 0l0.34375 -2.09375l2.078125 0l-0.34375 2.09375zm-2.59375 13.953125l-1.859375 0l1.984375 -11.21875l1.859375 0l-1.984375 11.21875zm11.20311 -9.703125q-0.421875 0 -1.0 0.203125q-0.5625 0.1875 -1.3125 0.71875q-0.734375 0.53125 -1.71875 1.578125l-1.28125 7.203125l-1.859375 0l1.984375 -11.21875l1.75 0l-0.34375 2.0625q1.34375 -1.40625 2.390625 -1.84375q1.0625 -0.4375 1.890625 -0.4375q1.546875 0 2.28125 1.125q0.734375 1.109375 0.421875 2.90625l-1.3125 7.40625l-1.859375 0l1.265625 -7.25q0.453125 -2.453125 -1.296875 -2.453125zm14.328857 9.703125q-0.1875 1.046875 -0.5 1.953125q-0.296875 0.90625 -0.859375 1.609375q-0.5625 0.703125 -1.515625 1.09375q-0.9375 0.390625 -2.359375 0.390625q-0.90625 0 -1.8125 -0.1875q-0.890625 -0.171875 -1.796875 -0.53125l0.484375 -1.59375q0.828125 0.34375 1.59375 0.484375q0.765625 0.15625 1.453125 0.15625q1.28125 0 1.953125 -0.40625q0.6875 -0.40625 1.0 -1.171875q0.3125 -0.75 0.5 -1.796875l0.3125 -1.796875q-1.015625 1.125 -1.953125 1.578125q-0.9375 0.4375 -1.8125 0.4375q-1.125 0 -1.859375 -0.6875q-0.71875 -0.703125 -1.0 -1.921875q-0.265625 -1.234375 -0.03125 -2.78125l0.15625 -1.109375q0.359375 -2.46875 1.6875 -3.8125q1.328125 -1.34375 3.5625 -1.34375q1.203125 0 2.359375 0.375q1.15625 0.375 2.203125 1.046875l-1.765625 10.015625zm-6.28125 -5.171875q-0.25 1.796875 0.125 2.765625q0.390625 0.953125 1.375 0.953125q0.71875 0 1.640625 -0.578125q0.9375 -0.59375 2.0 -2.109375l0.890625 -4.96875q-1.265625 -0.625 -2.421875 -0.625q-1.515625 0 -2.359375 0.921875q-0.84375 0.921875 -1.09375 2.53125l-0.15625 1.109375zm18.178085 3.75q1.3125 0 1.890625 -0.453125q0.578125 -0.453125 0.578125 -1.1875q0 -0.578125 -0.375 -0.9375q-0.359375 -0.375 -1.21875 -0.6875l-1.078125 -0.4375q-1.15625 -0.421875 -1.734375 -1.140625q-0.578125 -0.734375 -0.578125 -1.84375q0 -0.90625 0.390625 -1.65625q0.390625 -0.75 1.28125 -1.203125q0.890625 -0.46875 2.3125 -0.46875q1.75 0 3.53125 0.8125l-0.59375 1.578125q-0.8125 -0.375 -1.546875 -0.546875q-0.71875 -0.171875 -1.4375 -0.171875q-1.109375 0 -1.59375 0.40625q-0.484375 0.40625 -0.484375 1.109375q0 0.5 0.296875 0.875q0.3125 0.359375 1.0625 0.640625l1.109375 0.40625q1.234375 0.453125 1.875 1.1875q0.640625 0.71875 0.640625 1.875q0 0.890625 -0.4375 1.703125q-0.4375 0.796875 -1.40625 1.296875q-0.953125 0.484375 -2.53125 0.484375q-1.890625 0 -3.78125 -0.828125l0.578125 -1.5625q0.890625 0.375 1.671875 0.5625q0.796875 0.1875 1.578125 0.1875zm15.060135 0.96875q-0.96875 0.359375 -1.875 0.515625q-0.90625 0.15625 -1.734375 0.15625q-1.8125 0 -2.84375 -0.734375q-1.015625 -0.734375 -1.359375 -2.0q-0.34375 -1.265625 -0.09375 -2.859375l0.203125 -1.15625q0.359375 -2.21875 1.703125 -3.5625q1.359375 -1.34375 3.421875 -1.34375q1.015625 0 1.90625 0.359375q0.90625 0.359375 1.4375 1.140625q0.546875 0.765625 0.546875 1.96875q0 0.65625 -0.203125 1.390625q-0.1875 0.734375 -0.703125 1.59375l-6.546875 0q-0.203125 1.5625 0.359375 2.546875q0.578125 0.984375 2.34375 0.984375q0.625 0 1.4375 -0.140625q0.828125 -0.15625 1.703125 -0.4375l0.296875 1.578125zm-2.65625 -9.328125q-1.28125 0 -2.125 0.84375q-0.84375 0.84375 -1.09375 2.375l5.078125 0q0.1875 -0.390625 0.234375 -0.734375q0.0625 -0.34375 0.0625 -0.625q0 -0.953125 -0.609375 -1.40625q-0.609375 -0.453125 -1.546875 -0.453125zm13.003883 0.078125q-0.421875 0 -1.0 0.203125q-0.5625 0.1875 -1.3125 0.71875q-0.734375 0.53125 -1.71875 1.578125l-1.28125 7.203125l-1.8593826 0l1.9843826 -11.21875l1.75 0l-0.34375 2.0625q1.34375 -1.40625 2.390625 -1.84375q1.0625 -0.4375 1.890625 -0.4375q1.546875 0 2.28125 1.125q0.734375 1.109375 0.421875 2.90625l-1.3125 7.40625l-1.859375 0l1.265625 -7.25q0.453125 -2.453125 -1.296875 -2.453125zm12.030441 9.3125q-1.4375 0.609375 -2.734375 0.609375q-1.15625 0 -1.796875 -0.5q-0.625 -0.515625 -0.8125 -1.328125q-0.171875 -0.8125 -0.015625 -1.75l1.078125 -6.21875l-1.9375 0l0.265625 -1.640625l1.96875 0l0.546875 -3.125l1.859375 0l-0.546875 3.125l3.671875 0l-0.296875 1.640625l-3.671875 0l-1.109375 6.21875q-0.171875 1.046875 0.15625 1.46875q0.34375 0.421875 1.0 0.421875q0.359375 0 0.875 -0.09375q0.515625 -0.109375 1.09375 -0.390625l0.40625 1.5625zm10.654663 -0.0625q-0.96875 0.359375 -1.875 0.515625q-0.90625 0.15625 -1.734375 0.15625q-1.8125 0 -2.84375 -0.734375q-1.015625 -0.734375 -1.359375 -2.0q-0.34375 -1.265625 -0.09375 -2.859375l0.203125 -1.15625q0.359375 -2.21875 1.703125 -3.5625q1.359375 -1.34375 3.421875 -1.34375q1.015625 0 1.90625 0.359375q0.90625 0.359375 1.4375 1.140625q0.546875 0.765625 0.546875 1.96875q0 0.65625 -0.203125 1.390625q-0.1875 0.734375 -0.703125 1.59375l-6.546875 0q-0.203125 1.5625 0.359375 2.546875q0.578125 0.984375 2.34375 0.984375q0.625 0 1.4375 -0.140625q0.828125 -0.15625 1.703125 -0.4375l0.296875 1.578125zm-2.65625 -9.328125q-1.28125 0 -2.125 0.84375q-0.84375 0.84375 -1.09375 2.375l5.078125 0q0.1875 -0.390625 0.234375 -0.734375q0.0625 -0.34375 0.0625 -0.625q0 -0.953125 -0.609375 -1.40625q-0.609375 -0.453125 -1.546875 -0.453125zm13.003876 0.078125q-0.421875 0 -1.0 0.203125q-0.5625 0.1875 -1.3125 0.71875q-0.734375 0.53125 -1.71875 1.578125l-1.28125 7.203125l-1.859375 0l1.984375 -11.21875l1.75 0l-0.34375 2.0625q1.34375 -1.40625 2.390625 -1.84375q1.0625 -0.4375 1.890625 -0.4375q1.546875 0 2.28125 1.125q0.734375 1.109375 0.421875 2.90625l-1.3125 7.40625l-1.859375 0l1.265625 -7.25q0.453125 -2.453125 -1.296875 -2.453125zm11.358566 -0.015625q-1.25 0 -2.09375 0.828125q-0.828125 0.828125 -1.078125 2.359375l-0.203125 1.234375q-0.28125 1.671875 0.203125 2.75q0.5 1.078125 2.125 1.078125q1.203125 0 2.75 -0.5625l0.3125 1.59375q-1.796875 0.65625 -3.21875 0.65625q-1.671875 0 -2.65625 -0.734375q-0.96875 -0.734375 -1.296875 -2.0q-0.3125 -1.265625 -0.0625 -2.859375l0.1875 -1.15625q0.390625 -2.28125 1.6875 -3.59375q1.296875 -1.3125 3.296875 -1.3125q0.8125 0 1.65625 0.234375q0.84375 0.21875 1.671875 0.625l-0.65625 1.578125q-0.703125 -0.328125 -1.375 -0.515625q-0.65625 -0.203125 -1.25 -0.203125zm12.776489 9.265625q-0.96875 0.359375 -1.875 0.515625q-0.90625 0.15625 -1.734375 0.15625q-1.8125 0 -2.84375 -0.734375q-1.015625 -0.734375 -1.359375 -2.0q-0.34375 -1.265625 -0.09375 -2.859375l0.203125 -1.15625q0.359375 -2.21875 1.703125 -3.5625q1.359375 -1.34375 3.421875 -1.34375q1.015625 0 1.90625 0.359375q0.90625 0.359375 1.4375 1.140625q0.546875 0.765625 0.546875 1.96875q0 0.65625 -0.203125 1.390625q-0.1875 0.734375 -0.703125 1.59375l-6.546875 0q-0.203125 1.5625 0.359375 2.546875q0.578125 0.984375 2.34375 0.984375q0.625 0 1.4375 -0.140625q0.828125 -0.15625 1.703125 -0.4375l0.296875 1.578125zm-2.65625 -9.328125q-1.28125 0 -2.125 0.84375q-0.84375 0.84375 -1.09375 2.375l5.078125 0q0.1875 -0.390625 0.234375 -0.734375q0.0625 -0.34375 0.0625 -0.625q0 -0.953125 -0.609375 -1.40625q-0.609375 -0.453125 -1.546875 -0.453125z" fill-rule="nonzero"/><path fill="#000000" fill-opacity="0.0" d="m138.38846 498.6391l259.811 0l0 129.29132l-259.811 0z" fill-rule="evenodd"/><path fill="#000000" d="m163.77286 523.35223l0 -1.640625l6.34375 0l0 1.640625l-6.34375 0z" fill-rule="nonzero"/><path fill="#000000" d="m195.68533 515.85223l0 -1.859375l10.9375 0l0 1.859375l-4.484375 0l0 13.546875l-1.96875 0l0 -13.546875l-4.484375 0zm20.243973 13.65625q-1.03125 0 -1.65625 -0.46875q-0.625 -0.484375 -0.875 -1.1875q-1.109375 0.984375 -2.015625 1.375q-0.90625 0.390625 -1.8125 0.390625q-1.46875 0 -2.171875 -0.9375q-0.703125 -0.953125 -0.703125 -2.34375q0 -0.921875 0.328125 -1.640625q0.34375 -0.734375 1.15625 -1.15625q0.828125 -0.421875 2.203125 -0.421875q0.609375 0 1.328125 0.09375q0.734375 0.078125 1.484375 0.1875l0 -1.515625q0 -1.28125 -0.5625 -1.734375q-0.546875 -0.46875 -1.609375 -0.46875q-1.453125 0 -3.25 0.796875l-0.578125 -1.546875q1.03125 -0.46875 1.984375 -0.71875q0.953125 -0.25 1.9375 -0.25q1.578125 0 2.40625 0.515625q0.84375 0.515625 1.15625 1.390625q0.328125 0.859375 0.328125 1.875l0 4.84375q0 0.53125 0.203125 0.890625q0.203125 0.34375 0.8125 0.34375l0.25 0l0 1.6875l-0.34375 0zm-7.40625 -3.1875q0 0.765625 0.359375 1.25q0.375 0.46875 1.046875 0.46875q0.59375 0 1.359375 -0.34375q0.78125 -0.359375 1.90625 -1.421875l0 -1.421875q-1.546875 -0.25 -2.71875 -0.25q-1.046875 0 -1.5 0.4375q-0.453125 0.421875 -0.453125 1.28125zm17.29451 3.078125l-3.15625 -5.1875q-0.421875 0.4375 -0.90625 0.890625q-0.46875 0.453125 -1.0 0.90625l0 3.390625l-1.84375 0l0 -16.765625l1.84375 0l0 11.28125q1.484375 -1.421875 2.625 -2.78125q1.140625 -1.359375 2.09375 -2.953125l2.125 0q-0.8125 1.359375 -1.671875 2.515625q-0.84375 1.140625 -1.90625 2.3125l4.03125 6.390625l-2.234375 0zm12.4561 -0.65625q-1.015625 0.5 -2.046875 0.6875q-1.015625 0.1875 -1.875 0.1875q-2.421875 0 -3.609375 -1.375q-1.1875 -1.375 -1.1875 -3.78125l0 -1.359375q0 -2.328125 1.1875 -3.734375q1.1875 -1.40625 3.359375 -1.40625q1.15625 0 2.125 0.46875q0.96875 0.453125 1.53125 1.40625q0.578125 0.9375 0.578125 2.40625q0 0.953125 -0.265625 2.171875l-6.6875 0l0 0.046875q0 1.71875 0.71875 2.609375q0.71875 0.875 2.296875 0.875q0.734375 0 1.59375 -0.171875q0.875 -0.1875 1.71875 -0.578125l0.5625 1.546875zm-4.171875 -9.15625q-1.3125 0 -1.984375 0.859375q-0.65625 0.84375 -0.734375 2.390625l5.078125 0q0.0625 -0.421875 0.0625 -0.78125q0 -1.265625 -0.71875 -1.859375q-0.703125 -0.609375 -1.703125 -0.609375zm10.842163 -3.46875l3.65625 -2.125l1.796875 0l0 15.40625l-1.921875 0l0 -13.328125l-2.671875 1.546875l-0.859375 -1.5zm9.40155 5.265625l0.453125 -7.390625l7.6562347 0l0 1.8125l-5.921875 0l-0.265625 4.421875q1.0 -0.34375 2.15625 -0.34375q2.125 0 3.390625 1.140625q1.265625 1.125 1.265625 3.34375l0 0.6875q0 2.015625 -1.1875 3.296875q-1.171875 1.265625 -3.765625 1.265625q-1.03125 0 -2.125 -0.234375q-1.0937347 -0.234375 -2.2812347 -0.75l0.625 -1.640625q1.109375 0.484375 2.0156097 0.671875q0.90625 0.1875 1.734375 0.1875q1.40625 0 2.203125 -0.640625q0.796875 -0.640625 0.796875 -2.15625l0 -0.6875q0 -1.25 -0.71875 -1.984375q-0.71875 -0.75 -2.15625 -0.75q-0.6875 0 -1.34375 0.171875q-0.65625 0.15625 -1.3749847 0.484375l-1.15625 -0.90625zm16.939804 -4.359375l0 0.703125q0 1.515625 -0.8125 2.34375q-0.796875 0.828125 -2.21875 0.828125q-1.453125 0 -2.25 -0.828125q-0.796875 -0.828125 -0.796875 -2.34375l0 -0.703125q0 -1.484375 0.796875 -2.3125q0.796875 -0.828125 2.25 -0.828125q1.421875 0 2.21875 0.828125q0.8125 0.828125 0.8125 2.3125zm4.734375 -3.03125l1.609375 0l-7.890625 15.40625l-1.609375 0l7.890625 -15.40625zm-6.234375 3.03125q0 -0.859375 -0.40625 -1.3125q-0.40625 -0.453125 -1.125 -0.453125q-0.734375 0 -1.140625 0.453125q-0.40625 0.453125 -0.40625 1.3125l0 0.703125q0 0.890625 0.40625 1.34375q0.40625 0.453125 1.140625 0.453125q0.71875 0 1.125 -0.453125q0.40625 -0.453125 0.40625 -1.34375l0 -0.703125zm10.765625 8.609375l0 0.703125q0 1.515625 -0.8125 2.34375q-0.796875 0.828125 -2.21875 0.828125q-1.453125 0 -2.25 -0.828125q-0.796875 -0.828125 -0.796875 -2.34375l0 -0.703125q0 -1.484375 0.796875 -2.3125q0.796875 -0.828125 2.25 -0.828125q1.453125 0 2.234375 0.828125q0.796875 0.828125 0.796875 2.3125zm-1.46875 0q0 -1.765625 -1.5625 -1.765625q-0.734375 0 -1.140625 0.453125q-0.40625 0.453125 -0.40625 1.3125l0 0.703125q0 0.890625 0.40625 1.34375q0.40625 0.453125 1.140625 0.453125q1.5625 0 1.5625 -1.796875l0 -0.703125zm17.5484 3.875q-1.03125 0 -1.65625 -0.46875q-0.625 -0.484375 -0.875 -1.1875q-1.109375 0.984375 -2.015625 1.375q-0.90625 0.390625 -1.8125 0.390625q-1.46875 0 -2.171875 -0.9375q-0.703125 -0.953125 -0.703125 -2.34375q0 -0.921875 0.328125 -1.640625q0.34375 -0.734375 1.15625 -1.15625q0.828125 -0.421875 2.203125 -0.421875q0.609375 0 1.328125 0.09375q0.734375 0.078125 1.484375 0.1875l0 -1.515625q0 -1.28125 -0.5625 -1.734375q-0.546875 -0.46875 -1.609375 -0.46875q-1.453125 0 -3.25 0.796875l-0.578125 -1.546875q1.03125 -0.46875 1.984375 -0.71875q0.953125 -0.25 1.9375 -0.25q1.578125 0 2.40625 0.515625q0.84375 0.515625 1.15625 1.390625q0.328125 0.859375 0.328125 1.875l0 4.84375q0 0.53125 0.203125 0.890625q0.203125 0.34375 0.8125 0.34375l0.25 0l0 1.6875l-0.34375 0zm-7.40625 -3.1875q0 0.765625 0.359375 1.25q0.375 0.46875 1.046875 0.46875q0.59375 0 1.359375 -0.34375q0.78125 -0.359375 1.90625 -1.421875l0 -1.421875q-1.546875 -0.25 -2.71875 -0.25q-1.046875 0 -1.5 0.4375q-0.453125 0.421875 -0.453125 1.28125zm15.7789 -6.625q-0.640625 0 -1.5 0.328125q-0.84375 0.3125 -2.046875 1.28125l0 8.09375l-1.84375 0l0 -11.21875l1.765625 0l0 1.5625q1.203125 -1.015625 2.1875 -1.390625q0.984375 -0.390625 1.890625 -0.390625q1.5625 0 2.390625 0.984375q0.828125 0.984375 0.828125 2.796875l0 7.65625l-1.859375 0l0 -7.390625q0 -2.3125 -1.8125 -2.3125zm14.358551 9.703125l0 -1.5625q-1.046875 1.0 -1.890625 1.390625q-0.84375 0.390625 -1.75 0.390625q-1.796875 0 -2.765625 -1.34375q-0.953125 -1.359375 -0.953125 -3.8125l0 -1.3125q0 -2.375 1.1875 -3.78125q1.1875 -1.40625 3.453125 -1.40625q0.65625 0 1.3125 0.140625q0.65625 0.125 1.3125 0.375l0 -5.84375l1.859375 0l0 16.765625l-1.765625 0zm-5.4375 -4.9375q0 1.765625 0.546875 2.59375q0.5625 0.828125 1.671875 0.828125q0.65625 0 1.359375 -0.328125q0.703125 -0.328125 1.765625 -1.375l0 -5.984375q-0.65625 -0.296875 -1.265625 -0.40625q-0.609375 -0.125 -1.203125 -0.125q-1.53125 0 -2.203125 0.921875q-0.671875 0.921875 -0.671875 2.5625l0 1.3125zm12.395264 -4.1875l-2.09375 0l0 -2.09375l2.09375 0l0 2.09375zm0 9.125l-2.09375 0l0 -2.0625l2.09375 0l0 2.0625z" fill-rule="nonzero"/><path fill="#000000" d="m211.77286 550.55225l0 -1.640625l6.34375 0l0 1.640625l-6.34375 0z" fill-rule="nonzero"/><path fill="#000000" d="m248.10721 541.1929l4.6875 11.421875l4.703125 -11.421875l2.25 0l0 15.40625l-1.921875 0l0 -6.59375l0.25 -5.9375l-4.421875 10.71875l-1.859375 0l-4.328125 -10.765625l0.25 5.984375l0 6.59375l-1.921875 0l0 -15.40625l2.3125 0zm24.250732 15.515625q-1.03125 0 -1.65625 -0.46875q-0.625 -0.484375 -0.875 -1.1875q-1.109375 0.984375 -2.015625 1.375q-0.90625 0.390625 -1.8125 0.390625q-1.46875 0 -2.171875 -0.9375q-0.703125 -0.953125 -0.703125 -2.34375q0 -0.921875 0.328125 -1.640625q0.34375 -0.734375 1.15625 -1.15625q0.828125 -0.421875 2.203125 -0.421875q0.609375 0 1.328125 0.09375q0.734375 0.078125 1.484375 0.1875l0 -1.515625q0 -1.28125 -0.5625 -1.734375q-0.546875 -0.46875 -1.609375 -0.46875q-1.453125 0 -3.25 0.796875l-0.578125 -1.546875q1.03125 -0.46875 1.984375 -0.71875q0.953125 -0.25 1.9375 -0.25q1.578125 0 2.40625 0.515625q0.84375 0.515625 1.15625 1.390625q0.328125 0.859375 0.328125 1.875l0 4.84375q0 0.53125 0.203125 0.890625q0.203125 0.34375 0.8125 0.34375l0.25 0l0 1.6875l-0.34375 0zm-7.40625 -3.1875q0 0.765625 0.359375 1.25q0.375 0.46875 1.046875 0.46875q0.59375 0 1.359375 -0.34375q0.78125 -0.359375 1.90625 -1.421875l0 -1.421875q-1.546875 -0.25 -2.71875 -0.25q-1.046875 0 -1.5 0.4375q-0.453125 0.421875 -0.453125 1.28125zm13.12265 1.65625q2.265625 0 2.265625 -1.546875q0 -0.65625 -0.40625 -1.03125q-0.40625 -0.390625 -1.5 -0.671875l-1.25 -0.3125q-1.375 -0.34375 -2.0625 -1.1875q-0.671875 -0.84375 -0.671875 -2.03125q0 -0.859375 0.375 -1.59375q0.390625 -0.734375 1.234375 -1.1875q0.84375 -0.453125 2.171875 -0.453125q0.859375 0 1.75 0.1875q0.90625 0.1875 1.828125 0.640625l-0.578125 1.5625q-1.65625 -0.734375 -3.0 -0.734375q-1.96875 0 -1.96875 1.46875q0 0.5625 0.359375 0.96875q0.359375 0.40625 1.359375 0.65625l1.25 0.328125q1.5 0.359375 2.203125 1.171875q0.703125 0.8125 0.703125 2.109375q0 0.921875 -0.40625 1.6875q-0.390625 0.75 -1.265625 1.1875q-0.875 0.421875 -2.34375 0.421875q-0.96875 0 -1.9375 -0.203125q-0.96875 -0.203125 -1.984375 -0.65625l0.5 -1.53125q0.96875 0.375 1.765625 0.5625q0.796875 0.1875 1.609375 0.1875zm13.936676 1.421875l-3.15625 -5.1875q-0.421875 0.4375 -0.90625 0.890625q-0.46875 0.453125 -1.0 0.90625l0 3.390625l-1.84375 0l0 -16.765625l1.84375 0l0 11.28125q1.484375 -1.421875 2.625 -2.78125q1.140625 -1.359375 2.09375 -2.953125l2.125 0q-0.8125 1.359375 -1.671875 2.515625q-0.84375 1.140625 -1.90625 2.3125l4.03125 6.390625l-2.234375 0zm18.77655 -4.0625q0 1.203125 -0.53125 2.1875q-0.53125 0.96875 -1.640625 1.53125q-1.109375 0.5625 -2.859375 0.5625q-1.671875 0 -2.734375 -0.53125q-1.0625 -0.546875 -1.5625 -1.4375q-0.5 -0.90625 -0.5 -2.015625q0 -1.203125 0.578125 -2.1875q0.59375 -0.984375 1.90625 -1.8125q-1.03125 -0.59375 -1.609375 -1.5q-0.5625 -0.90625 -0.5625 -2.21875q0 -1.09375 0.5 -2.03125q0.5 -0.9375 1.515625 -1.515625q1.015625 -0.59375 2.546875 -0.59375q1.5625 0 2.59375 0.546875q1.03125 0.53125 1.515625 1.4375q0.5 0.90625 0.5 2.046875q0 1.109375 -0.515625 2.015625q-0.5 0.90625 -1.671875 1.6875q1.25 0.625 1.890625 1.53125q0.640625 0.90625 0.640625 2.296875zm-5.28125 -4.84375l1.25 0.4375q1.015625 -0.796875 1.390625 -1.5q0.375 -0.703125 0.375 -1.453125q0 -1.125 -0.65625 -1.796875q-0.65625 -0.6875 -1.984375 -0.6875q-1.1875 0 -1.9375 0.609375q-0.75 0.609375 -0.75 1.8125q0 0.953125 0.53125 1.5625q0.546875 0.59375 1.78125 1.015625zm-2.625 4.890625q0 1.15625 0.734375 1.859375q0.734375 0.6875 2.21875 0.6875q1.421875 0 2.21875 -0.640625q0.8125 -0.65625 0.8125 -1.859375q0 -1.03125 -0.578125 -1.609375q-0.578125 -0.578125 -2.03125 -1.078125l-1.3125 -0.453125q-1.15625 0.828125 -1.609375 1.578125q-0.453125 0.734375 -0.453125 1.515625zm21.4859 -5.390625l0 3.375q0 3.09375 -1.390625 4.671875q-1.375 1.578125 -3.84375 1.578125q-2.46875 0 -3.84375 -1.578125q-1.375 -1.578125 -1.375 -4.671875l0 -3.375q0 -3.046875 1.375 -4.625q1.390625 -1.59375 3.84375 -1.59375q2.46875 0 3.84375 1.59375q1.390625 1.578125 1.390625 4.625zm-2.0 0q0 -2.359375 -0.859375 -3.390625q-0.84375 -1.046875 -2.375 -1.046875q-1.515625 0 -2.375 1.046875q-0.84375 1.03125 -0.84375 3.390625l0 3.375q0 2.34375 0.84375 3.421875q0.859375 1.0625 2.375 1.0625q1.53125 0 2.375 -1.0625q0.859375 -1.078125 0.859375 -3.421875l0 -3.375zm10.71637 -2.96875l0 0.703125q0 1.515625 -0.8125 2.34375q-0.796875 0.828125 -2.21875 0.828125q-1.453125 0 -2.25 -0.828125q-0.796875 -0.828125 -0.796875 -2.34375l0 -0.703125q0 -1.484375 0.796875 -2.3125q0.796875 -0.828125 2.25 -0.828125q1.421875 0 2.21875 0.828125q0.8125 0.828125 0.8125 2.3125zm4.734375 -3.03125l1.609375 0l-7.890625 15.40625l-1.609375 0l7.890625 -15.40625zm-6.234375 3.03125q0 -0.859375 -0.40625 -1.3125q-0.40625 -0.453125 -1.125 -0.453125q-0.734375 0 -1.140625 0.453125q-0.40625 0.453125 -0.40625 1.3125l0 0.703125q0 0.890625 0.40625 1.34375q0.40625 0.453125 1.140625 0.453125q0.71875 0 1.125 -0.453125q0.40625 -0.453125 0.40625 -1.34375l0 -0.703125zm10.765625 8.609375l0 0.703125q0 1.515625 -0.8125 2.34375q-0.796875 0.828125 -2.21875 0.828125q-1.453125 0 -2.25 -0.828125q-0.796875 -0.828125 -0.796875 -2.34375l0 -0.703125q0 -1.484375 0.796875 -2.3125q0.796875 -0.828125 2.25 -0.828125q1.453125 0 2.234375 0.828125q0.796875 0.828125 0.796875 2.3125zm-1.46875 0q0 -1.765625 -1.5625 -1.765625q-0.734375 0 -1.140625 0.453125q-0.40625 0.453125 -0.40625 1.3125l0 0.703125q0 0.890625 0.40625 1.34375q0.40625 0.453125 1.140625 0.453125q1.5625 0 1.5625 -1.796875l0 -0.703125z" fill-rule="nonzero"/><path fill="#000000" d="m211.77286 577.7522l0 -1.640625l6.34375 0l0 1.640625l-6.34375 0z" fill-rule="nonzero"/><path fill="#000000" d="m254.21658 581.97095l0 1.828125l-8.421875 0l0 -15.40625l1.96875 0l0 13.578125l6.453125 0zm10.534241 1.171875q-1.015625 0.5 -2.046875 0.6875q-1.015625 0.1875 -1.875 0.1875q-2.421875 0 -3.609375 -1.375q-1.1875 -1.375 -1.1875 -3.78125l0 -1.359375q0 -2.328125 1.1875 -3.734375q1.1875 -1.40625 3.359375 -1.40625q1.15625 0 2.125 0.46875q0.96875 0.453125 1.53125 1.40625q0.578125 0.9375 0.578125 2.40625q0 0.953125 -0.265625 2.171875l-6.6875 0l0 0.046875q0 1.71875 0.71875 2.609375q0.71875 0.875 2.296875 0.875q0.734375 0 1.59375 -0.171875q0.875 -0.1875 1.71875 -0.578125l0.5625 1.546875zm-4.171875 -9.15625q-1.3125 0 -1.984375 0.859375q-0.65625 0.84375 -0.734375 2.390625l5.078125 0q0.0625 -0.421875 0.0625 -0.78125q0 -1.265625 -0.71875 -1.859375q-0.703125 -0.609375 -1.703125 -0.609375zm15.653107 9.921875q-1.03125 0 -1.65625 -0.46875q-0.625 -0.484375 -0.875 -1.1875q-1.109375 0.984375 -2.015625 1.375q-0.90625 0.390625 -1.8125 0.390625q-1.46875 0 -2.171875 -0.9375q-0.703125 -0.953125 -0.703125 -2.34375q0 -0.921875 0.328125 -1.640625q0.34375 -0.734375 1.15625 -1.15625q0.828125 -0.421875 2.203125 -0.421875q0.609375 0 1.328125 0.09375q0.734375 0.078125 1.484375 0.1875l0 -1.515625q0 -1.28125 -0.5625 -1.734375q-0.546875 -0.46875 -1.609375 -0.46875q-1.453125 0 -3.25 0.796875l-0.578125 -1.546875q1.03125 -0.46875 1.984375 -0.71875q0.953125 -0.25 1.9375 -0.25q1.578125 0 2.40625 0.515625q0.84375 0.515625 1.15625 1.390625q0.328125 0.859375 0.328125 1.875l0 4.84375q0 0.53125 0.203125 0.890625q0.203125 0.34375 0.8125 0.34375l0.25 0l0 1.6875l-0.34375 0zm-7.40625 -3.1875q0 0.765625 0.359375 1.25q0.375 0.46875 1.046875 0.46875q0.59375 0 1.359375 -0.34375q0.78125 -0.359375 1.90625 -1.421875l0 -1.421875q-1.546875 -0.25 -2.71875 -0.25q-1.046875 0 -1.5 0.4375q-0.453125 0.421875 -0.453125 1.28125zm18.303741 -8.140625l-3.953125 11.21875l-1.75 0l-4.015625 -11.21875l1.9375 0l1.875 5.46875l1.140625 3.421875l1.109375 -3.421875l1.828125 -5.46875l1.828125 0zm10.404572 10.5625q-1.015625 0.5 -2.046875 0.6875q-1.015625 0.1875 -1.875 0.1875q-2.421875 0 -3.609375 -1.375q-1.1875 -1.375 -1.1875 -3.78125l0 -1.359375q0 -2.328125 1.1875 -3.734375q1.1875 -1.40625 3.359375 -1.40625q1.15625 0 2.125 0.46875q0.96875 0.453125 1.53125 1.40625q0.578125 0.9375 0.578125 2.40625q0 0.953125 -0.265625 2.171875l-6.6875 0l0 0.046875q0 1.71875 0.71875 2.609375q0.71875 0.875 2.296875 0.875q0.734375 0 1.59375 -0.171875q0.875 -0.1875 1.71875 -0.578125l0.5625 1.546875zm-4.171875 -9.15625q-1.3125 0 -1.984375 0.859375q-0.65625 0.84375 -0.734375 2.390625l5.078125 0q0.0625 -0.421875 0.0625 -0.78125q0 -1.265625 -0.71875 -1.859375q-0.703125 -0.609375 -1.703125 -0.609375zm10.842163 -3.46875l3.65625 -2.125l1.796875 0l0 15.40625l-1.921875 0l0 -13.328125l-2.671875 1.546875l-0.859375 -1.5zm20.02655 3.875l0 3.375q0 3.09375 -1.390625 4.671875q-1.375 1.578125 -3.84375 1.578125q-2.46875 0 -3.84375 -1.578125q-1.375 -1.578125 -1.375 -4.671875l0 -3.375q0 -3.046875 1.375 -4.625q1.390625 -1.59375 3.84375 -1.59375q2.46875 0 3.84375 1.59375q1.390625 1.578125 1.390625 4.625zm-2.0 0q0 -2.359375 -0.859375 -3.390625q-0.84375 -1.046875 -2.375 -1.046875q-1.515625 0 -2.375 1.046875q-0.84375 1.03125 -0.84375 3.390625l0 3.375q0 2.34375 0.84375 3.421875q0.859375 1.0625 2.375 1.0625q1.53125 0 2.375 -1.0625q0.859375 -1.078125 0.859375 -3.421875l0 -3.375zm10.71637 -2.96875l0 0.703125q0 1.515625 -0.8125 2.34375q-0.796875 0.828125 -2.21875 0.828125q-1.453125 0 -2.25 -0.828125q-0.796875 -0.828125 -0.796875 -2.34375l0 -0.703125q0 -1.484375 0.796875 -2.3125q0.796875 -0.828125 2.25 -0.828125q1.421875 0 2.21875 0.828125q0.8125 0.828125 0.8125 2.3125zm4.734375 -3.03125l1.609375 0l-7.890625 15.40625l-1.609375 0l7.890625 -15.40625zm-6.234375 3.03125q0 -0.859375 -0.40625 -1.3125q-0.40625 -0.453125 -1.125 -0.453125q-0.734375 0 -1.140625 0.453125q-0.40625 0.453125 -0.40625 1.3125l0 0.703125q0 0.890625 0.40625 1.34375q0.40625 0.453125 1.140625 0.453125q0.71875 0 1.125 -0.453125q0.40625 -0.453125 0.40625 -1.34375l0 -0.703125zm10.765625 8.609375l0 0.703125q0 1.515625 -0.8125 2.34375q-0.796875 0.828125 -2.21875 0.828125q-1.453125 0 -2.25 -0.828125q-0.796875 -0.828125 -0.796875 -2.34375l0 -0.703125q0 -1.484375 0.796875 -2.3125q0.796875 -0.828125 2.25 -0.828125q1.453125 0 2.234375 0.828125q0.796875 0.828125 0.796875 2.3125zm-1.46875 0q0 -1.765625 -1.5625 -1.765625q-0.734375 0 -1.140625 0.453125q-0.40625 0.453125 -0.40625 1.3125l0 0.703125q0 0.890625 0.40625 1.34375q0.40625 0.453125 1.140625 0.453125q1.5625 0 1.5625 -1.796875l0 -0.703125z" fill-rule="nonzero"/><path fill="#000000" d="m211.77286 604.9522l0 -1.640625l6.34375 0l0 1.640625l-6.34375 0z" fill-rule="nonzero"/><path fill="#000000" d="m247.76346 604.96783l0 6.03125l-1.96875 0l0 -15.40625l4.828125 0q2.171875 0 3.359375 1.140625q1.1875 1.140625 1.1875 3.046875l0 0.984375q0 1.359375 -0.625 2.359375q-0.625 0.984375 -1.78125 1.46875q0.984375 1.5625 1.8125 3.171875q0.84375 1.609375 1.546875 3.234375l-2.265625 0q-1.296875 -3.078125 -3.015625 -6.03125l-3.078125 0zm2.859375 -7.5625l-2.859375 0l0 5.75l2.859375 0q1.140625 0 1.8125 -0.640625q0.6875 -0.640625 0.6875 -1.75l0 -0.984375q0 -1.125 -0.6875 -1.75q-0.671875 -0.625 -1.8125 -0.625zm16.569489 13.703125q-1.03125 0 -1.65625 -0.46875q-0.625 -0.484375 -0.875 -1.1875q-1.109375 0.984375 -2.015625 1.375q-0.90625 0.390625 -1.8125 0.390625q-1.46875 0 -2.171875 -0.9375q-0.703125 -0.953125 -0.703125 -2.34375q0 -0.921875 0.328125 -1.640625q0.34375 -0.734375 1.15625 -1.15625q0.828125 -0.421875 2.203125 -0.421875q0.609375 0 1.328125 0.09375q0.734375 0.078125 1.484375 0.1875l0 -1.515625q0 -1.28125 -0.5625 -1.734375q-0.546875 -0.46875 -1.609375 -0.46875q-1.453125 0 -3.25 0.796875l-0.578125 -1.546875q1.03125 -0.46875 1.984375 -0.71875q0.953125 -0.25 1.9375 -0.25q1.578125 0 2.40625 0.515625q0.84375 0.515625 1.15625 1.390625q0.328125 0.859375 0.328125 1.875l0 4.84375q0 0.53125 0.203125 0.890625q0.203125 0.34375 0.8125 0.34375l0.25 0l0 1.6875l-0.34375 0zm-7.40625 -3.1875q0 0.765625 0.359375 1.25q0.375 0.46875 1.046875 0.46875q0.59375 0 1.359375 -0.34375q0.78125 -0.359375 1.90625 -1.421875l0 -1.421875q-1.546875 -0.25 -2.71875 -0.25q-1.046875 0 -1.5 0.4375q-0.453125 0.421875 -0.453125 1.28125zm15.7789 -6.625q-0.640625 0 -1.5 0.328125q-0.84375 0.3125 -2.046875 1.28125l0 8.09375l-1.84375 0l0 -11.21875l1.765625 0l0 1.5625q1.203125 -1.015625 2.1875 -1.390625q0.984375 -0.390625 1.890625 -0.390625q1.5625 0 2.390625 0.984375q0.828125 0.984375 0.828125 2.796875l0 7.65625l-1.859375 0l0 -7.390625q0 -2.3125 -1.8125 -2.3125zm14.358551 9.703125l0 -1.5625q-1.046875 1.0 -1.890625 1.390625q-0.84375 0.390625 -1.75 0.390625q-1.796875 0 -2.765625 -1.34375q-0.953125 -1.359375 -0.953125 -3.8125l0 -1.3125q0 -2.375 1.1875 -3.78125q1.1875 -1.40625 3.453125 -1.40625q0.65625 0 1.3125 0.140625q0.65625 0.125 1.3125 0.375l0 -5.84375l1.859375 0l0 16.765625l-1.765625 0zm-5.4375 -4.9375q0 1.765625 0.546875 2.59375q0.5625 0.828125 1.671875 0.828125q0.65625 0 1.359375 -0.328125q0.703125 -0.328125 1.765625 -1.375l0 -5.984375q-0.65625 -0.296875 -1.265625 -0.40625q-0.609375 -0.125 -1.203125 -0.125q-1.53125 0 -2.203125 0.921875q-0.671875 0.921875 -0.671875 2.5625l0 1.3125zm20.096863 -1.359375l0 1.359375q0 2.40625 -1.234375 3.78125q-1.234375 1.375 -3.53125 1.375q-2.265625 0 -3.515625 -1.375q-1.234375 -1.375 -1.234375 -3.78125l0 -1.359375q0 -2.359375 1.234375 -3.75q1.234375 -1.390625 3.515625 -1.390625q2.296875 0 3.53125 1.390625q1.234375 1.390625 1.234375 3.75zm-1.921875 0q0 -1.609375 -0.734375 -2.515625q-0.71875 -0.921875 -2.109375 -0.921875q-1.359375 0 -2.09375 0.921875q-0.734375 0.90625 -0.734375 2.515625l0 1.359375q0 1.671875 0.734375 2.578125q0.734375 0.90625 2.09375 0.90625q1.390625 0 2.109375 -0.90625q0.734375 -0.90625 0.734375 -2.578125l0 -1.359375zm10.569489 -3.40625q-0.625 0 -1.421875 0.328125q-0.796875 0.328125 -2.0 1.28125l0 8.09375l-1.84375 0l0 -11.21875l1.765625 0l0 1.5625q1.203125 -0.984375 2.125 -1.375q0.921875 -0.40625 1.828125 -0.40625q1.078125 0 1.765625 0.484375q0.703125 0.484375 1.046875 1.390625q1.25 -1.0625 2.234375 -1.46875q0.984375 -0.40625 1.9375 -0.40625q1.5 0 2.28125 0.984375q0.796875 0.984375 0.796875 2.796875l0 7.65625l-1.859375 0l0 -7.390625q0 -2.3125 -1.671875 -2.3125q-0.640625 0 -1.453125 0.328125q-0.796875 0.328125 -1.984375 1.28125q0.015625 0.09375 0.015625 0.21875q0 0.109375 0 0.21875l0 7.65625l-1.859375 0l0 -7.390625q0 -2.3125 -1.703125 -2.3125zm17.799164 -3.578125l3.65625 -2.125l1.796875 0l0 15.40625l-1.921875 0l0 -13.328125l-2.671875 1.546875l-0.859375 -1.5zm20.02655 3.875l0 3.375q0 3.09375 -1.390625 4.671875q-1.375 1.578125 -3.84375 1.578125q-2.46875 0 -3.84375 -1.578125q-1.375 -1.578125 -1.375 -4.671875l0 -3.375q0 -3.046875 1.375 -4.625q1.390625 -1.59375 3.84375 -1.59375q2.46875 0 3.84375 1.59375q1.390625 1.578125 1.390625 4.625zm-2.0 0q0 -2.359375 -0.859375 -3.390625q-0.84375 -1.046875 -2.375 -1.046875q-1.515625 0 -2.375 1.046875q-0.84375 1.03125 -0.84375 3.390625l0 3.375q0 2.34375 0.84375 3.421875q0.859375 1.0625 2.375 1.0625q1.53125 0 2.375 -1.0625q0.859375 -1.078125 0.859375 -3.421875l0 -3.375zm10.71637 -2.96875l0 0.703125q0 1.515625 -0.8125 2.34375q-0.796875 0.828125 -2.21875 0.828125q-1.453125 0 -2.25 -0.828125q-0.796875 -0.828125 -0.796875 -2.34375l0 -0.703125q0 -1.484375 0.796875 -2.3125q0.796875 -0.828125 2.25 -0.828125q1.421875 0 2.21875 0.828125q0.8125 0.828125 0.8125 2.3125zm4.734375 -3.03125l1.609375 0l-7.890625 15.40625l-1.609375 0l7.890625 -15.40625zm-6.234375 3.03125q0 -0.859375 -0.40625 -1.3125q-0.40625 -0.453125 -1.125 -0.453125q-0.734375 0 -1.140625 0.453125q-0.40625 0.453125 -0.40625 1.3125l0 0.703125q0 0.890625 0.40625 1.34375q0.40625 0.453125 1.140625 0.453125q0.71875 0 1.125 -0.453125q0.40625 -0.453125 0.40625 -1.34375l0 -0.703125zm10.765625 8.609375l0 0.703125q0 1.515625 -0.8125 2.34375q-0.796875 0.828125 -2.21875 0.828125q-1.453125 0 -2.25 -0.828125q-0.796875 -0.828125 -0.796875 -2.34375l0 -0.703125q0 -1.484375 0.796875 -2.3125q0.796875 -0.828125 2.25 -0.828125q1.453125 0 2.234375 0.828125q0.796875 0.828125 0.796875 2.3125zm-1.46875 0q0 -1.765625 -1.5625 -1.765625q-0.734375 0 -1.140625 0.453125q-0.40625 0.453125 -0.40625 1.3125l0 0.703125q0 0.890625 0.40625 1.34375q0.40625 0.453125 1.140625 0.453125q1.5625 0 1.5625 -1.796875l0 -0.703125z" fill-rule="nonzero"/><path fill="#000000" fill-opacity="0.0" d="m1092.6063 352.65222c-15.823364 0 -23.733276 -24.440948 -31.646606 -48.881866c-7.91333 -24.440948 -15.8302 -48.881897 -31.660522 -48.881897" fill-rule="evenodd"/><path stroke="#000000" stroke-width="2.0" stroke-linejoin="round" stroke-linecap="butt" d="m1092.6063 352.65222c-15.823364 0 -23.733154 -24.440948 -31.646606 -48.881866c-3.956665 -12.2204895 -7.9143066 -24.440948 -12.86145 -33.606323c-1.2368164 -2.2913208 -2.5354004 -4.3917236 -3.911377 -6.2534485c-0.6879883 -0.93084717 -1.3952637 -1.8020325 -2.1237793 -2.6075745c-0.3642578 -0.4028015 -0.7338867 -0.78915405 -1.1090088 -1.1583557c-0.18762207 -0.18460083 -0.3765869 -0.3649292 -0.5670166 -0.54086304l-0.038330078 -0.03488159" fill-rule="evenodd"/><path fill="#000000" stroke="#000000" stroke-width="2.0" stroke-linecap="butt" d="m1041.6373 256.5271l-9.645874 -0.4982605l7.0688477 6.581909z" fill-rule="evenodd"/><path fill="#000000" fill-opacity="0.0" d="m1092.6063 352.65222c-15.823608 0 -23.733887 16.858276 -31.647217 33.716553c-7.913452 16.858246 -15.829956 33.716522 -31.659912 33.716522" fill-rule="evenodd"/><path stroke="#000000" stroke-width="2.0" stroke-linejoin="round" stroke-linecap="butt" d="m1092.6063 352.65222c-15.823608 0 -23.733887 16.858276 -31.647217 33.716553c-3.956787 8.429138 -7.9141846 16.858246 -12.861206 23.180115c-1.2368164 1.5804443 -2.5354004 3.0292053 -3.911255 4.3133545c-0.6879883 0.6420593 -1.3952637 1.2429504 -2.1237793 1.7986145c-0.3642578 0.2778015 -0.7338867 0.544281 -1.1090088 0.7989502l-0.17834473 0.11917114" fill-rule="evenodd"/><path fill="#000000" stroke="#000000" stroke-width="2.0" stroke-linecap="butt" d="m1039.8103 413.4197l-7.7148438 5.8112793l9.645264 0.5072937z" fill-rule="evenodd"/><path fill="#000000" fill-opacity="0.0" d="m425.48163 326.30185c0 -145.11812 233.21259 -290.23624 466.42517 -290.23624" fill-rule="evenodd"/><path stroke="#cc0000" stroke-width="4.0" stroke-linejoin="round" stroke-linecap="butt" stroke-dasharray="16.0,12.0" d="m427.55777 302.3918l0.1260376 -0.7223511c0.050109863 -0.28253174 0.10110474 -0.56500244 0.15292358 -0.84747314c0.103637695 -0.5649109 0.2106018 -1.1296997 0.32092285 -1.6943665c1.7650452 -9.034454 4.3841248 -18.033478 7.8003235 -26.96167c6.832367 -17.856308 16.853241 -35.4292 29.607056 -52.435226c25.50763 -34.012054 61.947113 -65.75665 105.67447 -92.96629c43.727356 -27.209648 94.742615 -49.884346 149.4018 -65.75664c27.32965 -7.9361496 55.57025 -14.171692 84.2663 -18.423199c14.3480835 -2.1257553 28.809937 -3.755497 43.328796 -4.8538017c3.6297607 -0.2745781 7.2629395 -0.5159416 10.898926 -0.72353363c1.8179932 -0.1037941 3.6365967 -0.19915009 5.4558105 -0.28599548c0.90960693 -0.043418884 1.8193359 -0.08471298 2.729187 -0.12387085l0.5918579 -0.02407837" fill-rule="evenodd"/><path fill="#cc0000" stroke="#cc0000" stroke-width="4.0" stroke-linecap="butt" d="m420.97562 301.82028l5.0118713 18.655853l8.152435 -17.512787z" fill-rule="evenodd"/><path fill="#cc0000" stroke="#cc0000" stroke-width="4.0" stroke-linecap="butt" d="m868.05194 43.17877l18.008606 -6.9894524l-18.288086 -6.2214527z" fill-rule="evenodd"/><path fill="#000000" fill-opacity="0.0" d="m392.11285 78.43307l209.92126 0l0 46.866142l-209.92126 0z" fill-rule="evenodd"/><path fill="#000000" d="m411.03058 102.833694q-0.40625 2.265625 0.265625 3.53125q0.671875 1.25 2.40625 1.25q0.625 0 1.46875 -0.125q0.84375 -0.125 1.9375 -0.546875l0.46875 1.703125q-1.15625 0.4375 -2.203125 0.59375q-1.046875 0.171875 -1.875 0.171875q-1.734375 0 -2.875 -0.8125q-1.125 -0.8125 -1.546875 -2.296875q-0.421875 -1.484375 -0.078125 -3.46875l0.5 -2.953125q0.546875 -3.109375 2.03125 -4.703125q1.484375 -1.609375 4.21875 -1.609375q0.921875 0 1.890625 0.234375q0.96875 0.21875 1.9375 0.703125l-0.703125 1.75q-0.921875 -0.453125 -1.6875 -0.65625q-0.765625 -0.203125 -1.53125 -0.203125q-1.71875 0 -2.734375 1.171875q-1.0 1.15625 -1.390625 3.3125l-0.5 2.953125zm16.280212 -3.203125q-0.53125 0 -1.265625 0.171875q-0.71875 0.171875 -1.546875 0.703125q-0.8125 0.515625 -1.6875 1.578125l-1.234375 7.109375l-1.859375 0l1.984375 -11.21875l1.75 0l-0.359375 2.109375q1.28125 -1.421875 2.453125 -1.875q1.171875 -0.453125 2.078125 -0.453125l-0.3125 1.875zm10.658569 3.71875l-0.171875 1.125q-0.359375 2.40625 -1.71875 3.671875q-1.34375 1.265625 -3.5 1.265625q-1.578125 0 -2.609375 -0.71875q-1.03125 -0.71875 -1.4375 -1.984375q-0.40625 -1.28125 -0.15625 -2.890625l0.171875 -1.15625q0.390625 -2.296875 1.703125 -3.59375q1.328125 -1.3125 3.515625 -1.3125q1.609375 0 2.625 0.75q1.015625 0.734375 1.421875 2.0q0.40625 1.25 0.15625 2.84375zm-1.921875 -0.046875q0.265625 -1.703125 -0.328125 -2.765625q-0.578125 -1.078125 -1.984375 -1.078125q-1.3125 0 -2.171875 0.84375q-0.84375 0.828125 -1.09375 2.359375l-0.171875 1.203125q-0.28125 1.75 0.3125 2.8125q0.609375 1.0625 2.0 1.0625q1.3125 0 2.15625 -0.828125q0.859375 -0.828125 1.09375 -2.4375l0.1875 -1.171875zm7.3023376 4.46875q1.3125 0 1.890625 -0.453125q0.578125 -0.453125 0.578125 -1.1875q0 -0.578125 -0.375 -0.9375q-0.359375 -0.375 -1.21875 -0.6875l-1.078125 -0.4375q-1.15625 -0.421875 -1.734375 -1.140625q-0.578125 -0.734375 -0.578125 -1.84375q0 -0.90625 0.390625 -1.65625q0.390625 -0.75 1.28125 -1.203125q0.890625 -0.46875 2.3125 -0.46875q1.75 0 3.53125 0.8125l-0.59375 1.578125q-0.8125 -0.375 -1.546875 -0.546875q-0.71875 -0.171875 -1.4375 -0.171875q-1.109375 0 -1.59375 0.40625q-0.484375 0.40625 -0.484375 1.109375q0 0.5 0.296875 0.875q0.3125 0.359375 1.0625 0.640625l1.109375 0.40625q1.234375 0.453125 1.875 1.1875q0.640625 0.71875 0.640625 1.875q0 0.890625 -0.4375 1.703125q-0.4375 0.796875 -1.40625 1.296875q-0.953125 0.484375 -2.53125 0.484375q-1.890625 0 -3.78125 -0.828125l0.578125 -1.5625q0.890625 0.375 1.671875 0.5625q0.796875 0.1875 1.578125 0.1875zm9.81012 0q1.3125 0 1.890625 -0.453125q0.578125 -0.453125 0.578125 -1.1875q0 -0.578125 -0.375 -0.9375q-0.359375 -0.375 -1.21875 -0.6875l-1.078125 -0.4375q-1.15625 -0.421875 -1.734375 -1.140625q-0.578125 -0.734375 -0.578125 -1.84375q0 -0.90625 0.390625 -1.65625q0.390625 -0.75 1.28125 -1.203125q0.890625 -0.46875 2.3125 -0.46875q1.75 0 3.53125 0.8125l-0.59375 1.578125q-0.8125 -0.375 -1.546875 -0.546875q-0.71875 -0.171875 -1.4375 -0.171875q-1.109375 0 -1.59375 0.40625q-0.484375 0.40625 -0.484375 1.109375q0 0.5 0.296875 0.875q0.3125 0.359375 1.0625 0.640625l1.109375 0.40625q1.234375 0.453125 1.875 1.1875q0.640625 0.71875 0.640625 1.875q0 0.890625 -0.4375 1.703125q-0.4375 0.796875 -1.40625 1.296875q-0.953125 0.484375 -2.53125 0.484375q-1.890625 0 -3.78125 -0.828125l0.578125 -1.5625q0.890625 0.375 1.671875 0.5625q0.796875 0.1875 1.578125 0.1875zm6.9115906 -4.625l0.28125 -1.640625l6.34375 0l-0.28125 1.640625l-6.34375 0zm16.8031 5.59375q-0.96875 0.359375 -1.875 0.515625q-0.90625 0.15625 -1.734375 0.15625q-1.8125 0 -2.84375 -0.734375q-1.015625 -0.734375 -1.359375 -2.0q-0.34375 -1.265625 -0.09375 -2.859375l0.203125 -1.15625q0.359375 -2.21875 1.703125 -3.5625q1.359375 -1.34375 3.421875 -1.34375q1.015625 0 1.90625 0.359375q0.90625 0.359375 1.4375 1.140625q0.546875 0.765625 0.546875 1.96875q0 0.65625 -0.203125 1.390625q-0.1875 0.734375 -0.703125 1.59375l-6.546875 0q-0.203125 1.5625 0.359375 2.546875q0.578125 0.984375 2.34375 0.984375q0.625 0 1.4375 -0.140625q0.828125 -0.15625 1.703125 -0.4375l0.296875 1.578125zm-2.65625 -9.328125q-1.28125 0 -2.125 0.84375q-0.84375 0.84375 -1.09375 2.375l5.078125 0q0.1875 -0.390625 0.234375 -0.734375q0.0625 -0.34375 0.0625 -0.625q0 -0.953125 -0.609375 -1.40625q-0.609375 -0.453125 -1.546875 -0.453125zm13.003876 0.078125q-0.421875 0 -1.0 0.203125q-0.5625 0.1875 -1.3125 0.71875q-0.734375 0.53125 -1.71875 1.578125l-1.28125 7.203125l-1.859375 0l1.984375 -11.21875l1.75 0l-0.34375 2.0625q1.34375 -1.40625 2.390625 -1.84375q1.0625 -0.4375 1.890625 -0.4375q1.546875 0 2.28125 1.125q0.734375 1.109375 0.421875 2.90625l-1.3125 7.40625l-1.859375 0l1.265625 -7.25q0.453125 -2.453125 -1.296875 -2.453125zm12.030457 9.3125q-1.4375 0.609375 -2.734375 0.609375q-1.15625 0 -1.796875 -0.5q-0.625 -0.515625 -0.8125 -1.328125q-0.171875 -0.8125 -0.015625 -1.75l1.078125 -6.21875l-1.9375 0l0.265625 -1.640625l1.96875 0l0.546875 -3.125l1.859375 0l-0.546875 3.125l3.671875 0l-0.296875 1.640625l-3.671875 0l-1.109375 6.21875q-0.171875 1.046875 0.15625 1.46875q0.34375 0.421875 1.0 0.421875q0.359375 0 0.875 -0.09375q0.515625 -0.109375 1.09375 -0.390625l0.40625 1.5625zm9.982788 -9.171875q-0.53125 0 -1.265625 0.171875q-0.71875 0.171875 -1.546875 0.703125q-0.8125 0.515625 -1.6875 1.578125l-1.234375 7.109375l-1.859375 0l1.984375 -11.21875l1.75 0l-0.359375 2.109375q1.28125 -1.421875 2.453125 -1.875q1.171875 -0.453125 2.078125 -0.453125l-0.3125 1.875zm10.658539 3.71875l-0.171875 1.125q-0.359375 2.40625 -1.71875 3.671875q-1.34375 1.265625 -3.5 1.265625q-1.578125 0 -2.6093445 -0.71875q-1.03125 -0.71875 -1.4375 -1.984375q-0.40625 -1.28125 -0.15625 -2.890625l0.171875 -1.15625q0.390625 -2.296875 1.7030945 -3.59375q1.328125 -1.3125 3.515625 -1.3125q1.609375 0 2.625 0.75q1.015625 0.734375 1.421875 2.0q0.40631104 1.25 0.15625 2.84375zm-1.921875 -0.046875q0.265625 -1.703125 -0.328125 -2.765625q-0.578125 -1.078125 -1.984375 -1.078125q-1.3125 0 -2.171875 0.84375q-0.84375 0.828125 -1.09375 2.359375l-0.171875 1.203125q-0.28121948 1.75 0.3125 2.8125q0.609375 1.0625 2.0 1.0625q1.3125 0 2.15625 -0.828125q0.859375 -0.828125 1.09375 -2.4375l0.1875 -1.171875zm9.067993 6.109375q-0.78125 0 -1.484375 -0.1875q-0.6875 -0.171875 -1.375 -0.484375l-0.921875 5.28125l-1.859375 0l2.84375 -16.046875l1.75 0l-0.359375 2.046875q1.078125 -1.265625 2.046875 -1.765625q0.984375 -0.5 1.84375 -0.5q1.140625 0 1.859375 0.703125q0.734375 0.703125 1.015625 1.921875q0.28125 1.21875 0.046875 2.78125l-0.15625 1.09375q-0.359375 2.46875 -1.703125 3.8125q-1.328125 1.34375 -3.546875 1.34375zm1.96875 -9.953125q-0.703125 0 -1.640625 0.640625q-0.921875 0.625 -2.046875 2.1875l-0.84375 4.796875q1.25 0.65625 2.421875 0.65625q1.546875 0 2.390625 -0.9375q0.84375 -0.9375 1.078125 -2.546875l0.15625 -1.09375q0.25 -1.78125 -0.140625 -2.734375q-0.375 -0.96875 -1.375 -0.96875zm9.086487 10.859375q-0.78125 1.4375 -1.546875 2.296875q-0.75 0.859375 -1.671875 1.234375q-0.90625 0.390625 -2.15625 0.390625l0.3125 -1.828125q0.796875 -0.03125 1.34375 -0.21875q0.546875 -0.171875 1.046875 -0.71875q0.515625 -0.53125 1.125 -1.640625l0.40625 -0.703125l-2.015625 -11.15625l1.84375 0l0.953125 5.46875l0.515625 3.4375l1.703125 -3.4375l2.78125 -5.46875l1.921875 0l-5.953125 11.21875l-0.609375 1.125zm12.4765625 -3.953125l2.453125 -13.9375l1.859375 0l-2.453125 13.953125q-0.09375 0.640625 0.03125 0.9375q0.125 0.296875 0.765625 0.296875l0.34375 0l-0.328125 1.6875l-0.375 0q-1.5625 0 -2.046875 -0.828125q-0.46875 -0.828125 -0.25 -2.109375zm15.449951 -3.015625l-0.171875 1.125q-0.359375 2.40625 -1.71875 3.671875q-1.34375 1.265625 -3.5 1.265625q-1.578125 0 -2.609375 -0.71875q-1.03125 -0.71875 -1.4375 -1.984375q-0.40625 -1.28125 -0.15625 -2.890625l0.171875 -1.15625q0.390625 -2.296875 1.703125 -3.59375q1.328125 -1.3125 3.515625 -1.3125q1.609375 0 2.625 0.75q1.015625 0.734375 1.421875 2.0q0.40625 1.25 0.15625 2.84375zm-1.921875 -0.046875q0.265625 -1.703125 -0.328125 -2.765625q-0.578125 -1.078125 -1.984375 -1.078125q-1.3125 0 -2.171875 0.84375q-0.84375 0.828125 -1.09375 2.359375l-0.171875 1.203125q-0.28125 1.75 0.3125 2.8125q0.609375 1.0625 2.0 1.0625q1.3125 0 2.15625 -0.828125q0.859375 -0.828125 1.09375 -2.4375l0.1875 -1.171875zm7.302368 4.46875q1.3125 0 1.890625 -0.453125q0.578125 -0.453125 0.578125 -1.1875q0 -0.578125 -0.375 -0.9375q-0.359375 -0.375 -1.21875 -0.6875l-1.078125 -0.4375q-1.15625 -0.421875 -1.734375 -1.140625q-0.578125 -0.734375 -0.578125 -1.84375q0 -0.90625 0.390625 -1.65625q0.390625 -0.75 1.28125 -1.203125q0.890625 -0.46875 2.3125 -0.46875q1.75 0 3.53125 0.8125l-0.59375 1.578125q-0.8125 -0.375 -1.546875 -0.546875q-0.71875 -0.171875 -1.4375 -0.171875q-1.109375 0 -1.59375 0.40625q-0.484375 0.40625 -0.484375 1.109375q0 0.5 0.296875 0.875q0.3125 0.359375 1.0625 0.640625l1.109375 0.40625q1.234375 0.453125 1.875 1.1875q0.640625 0.71875 0.640625 1.875q0 0.890625 -0.4375 1.703125q-0.4375 0.796875 -1.40625 1.296875q-0.953125 0.484375 -2.53125 0.484375q-1.890625 0 -3.78125 -0.828125l0.578125 -1.5625q0.890625 0.375 1.671875 0.5625q0.796875 0.1875 1.578125 0.1875zm9.81012 0q1.3125 0 1.890625 -0.453125q0.578125 -0.453125 0.578125 -1.1875q0 -0.578125 -0.375 -0.9375q-0.359375 -0.375 -1.21875 -0.6875l-1.078125 -0.4375q-1.15625 -0.421875 -1.734375 -1.140625q-0.578125 -0.734375 -0.578125 -1.84375q0 -0.90625 0.390625 -1.65625q0.390625 -0.75 1.28125 -1.203125q0.890625 -0.46875 2.3125 -0.46875q1.75 0 3.53125 0.8125l-0.59375 1.578125q-0.8125 -0.375 -1.546875 -0.546875q-0.71875 -0.171875 -1.4375 -0.171875q-1.109375 0 -1.59375 0.40625q-0.484375 0.40625 -0.484375 1.109375q0 0.5 0.296875 0.875q0.3125 0.359375 1.0625 0.640625l1.109375 0.40625q1.234375 0.453125 1.875 1.1875q0.640625 0.71875 0.640625 1.875q0 0.890625 -0.4375 1.703125q-0.4375 0.796875 -1.40625 1.296875q-0.953125 0.484375 -2.53125 0.484375q-1.890625 0 -3.78125 -0.828125l0.578125 -1.5625q0.890625 0.375 1.671875 0.5625q0.796875 0.1875 1.578125 0.1875z" fill-rule="nonzero"/><path fill="#000000" fill-opacity="0.0" d="m891.9134 106.36089l161.57477 0l0 43.622047l-161.57477 0z" fill-rule="evenodd"/><path fill="#000000" d="m932.6546 120.96714l2.359375 10.109383l6.0 -10.109383l2.0 0l-2.390625 13.593758l-1.640625 0l1.015625 -5.8125l1.078125 -5.1250076l-5.5625 9.343758l-1.640625 0l-2.125 -9.546883l-0.765625 5.3281326l-1.015625 5.8125l-1.671875 0l2.40625 -13.593758l1.953125 0zm19.970581 11.968758l-0.28125 1.625l-7.46875 0l2.40625 -13.593758l1.734375 0l-2.109375 11.968758l5.71875 0zm6.72937 -11.968758l2.359375 10.109383l6.0 -10.109383l2.0 0l-2.390625 13.593758l-1.640625 0l1.015625 -5.8125l1.078125 -5.1250076l-5.5625 9.343758l-1.640625 0l-2.125 -9.546883l-0.765625 5.3281326l-1.015625 5.8125l-1.671875 0l2.40625 -13.593758l1.953125 0zm22.565002 5.03125q-0.375 0 -0.890625 0.171875q-0.515625 0.171875 -1.171875 0.65625q-0.65625 0.46875 -1.515625 1.3906326l-1.125 6.34375l-1.640625 0l2.609375 -14.796883l1.640625 0l-1.171875 6.609375q1.140625 -1.171875 2.046875 -1.53125q0.921875 -0.375 1.65625 -0.375q1.390625 0 2.015625 0.984375q0.640625 0.96875 0.375 2.5625076l-1.171875 6.546875l-1.640625 0l1.125 -6.40625q0.21875 -1.0781326 -0.09375 -1.6093826q-0.3125 -0.546875 -1.046875 -0.546875zm12.388733 8.156258q-0.875 0.328125 -1.671875 0.46875q-0.796875 0.140625 -1.515625 0.140625q-1.59375 0 -2.515625 -0.640625q-0.90625 -0.65625 -1.203125 -1.78125q-0.296875 -1.125 -0.078125 -2.515625l0.171875 -1.03125q0.328125 -1.9531326 1.515625 -3.1406326q1.1875 -1.1875 3.015625 -1.1875q0.890625 0 1.671875 0.328125q0.796875 0.3125 1.28125 1.0q0.484375 0.671875 0.484375 1.71875q0 0.5937576 -0.171875 1.2500076q-0.171875 0.640625 -0.625 1.390625l-5.78125 0q-0.1875 1.390625 0.3125 2.265625q0.5 0.859375 2.0625 0.859375q0.5625 0 1.28125 -0.125q0.71875 -0.140625 1.5 -0.390625l0.265625 1.390625zm-2.34375 -8.234383q-1.140625 0 -1.890625 0.75q-0.734375 0.75 -0.953125 2.0937576l4.484375 0q0.15625 -0.34375 0.203125 -0.640625q0.046875 -0.29688263 0.046875 -0.5625076q0 -0.84375 -0.546875 -1.234375q-0.53125 -0.40625 -1.34375 -0.40625zm13.381226 8.734383q-0.984375 0 -1.453125 -0.484375q-0.46875 -0.484375 -0.515625 -1.234375q-0.9375 1.03125 -1.796875 1.4375q-0.859375 0.390625 -1.625 0.390625q-0.96875 0 -1.609375 -0.625q-0.625 -0.625 -0.875 -1.703125q-0.234375 -1.078125 -0.03125 -2.4375l0.140625 -0.984375q0.328125 -2.1406326 1.5 -3.3437576q1.1875 -1.203125 3.09375 -1.203125q1.0 0 1.984375 0.328125q1.0 0.328125 1.921875 0.921875l-1.078125 6.1406326q-0.09375 0.609375 0.03125 0.953125q0.140625 0.34375 0.640625 0.34375l0.28125 0l-0.28125 1.5l-0.328125 0zm-6.203125 -4.65625q-0.21875 1.578125 0.109375 2.4375q0.34375 0.84375 1.15625 0.84375q0.59375 0 1.390625 -0.515625q0.796875 -0.515625 1.71875 -1.828125l0.78125 -4.4375076q-1.078125 -0.53125 -2.015625 -0.53125q-1.296875 0 -2.046875 0.84375q-0.75 0.84375 -0.953125 2.2031326l-0.140625 0.984375zm14.97998 4.5625l0.296875 -1.765625q-0.9375 1.109375 -1.796875 1.546875q-0.84375 0.421875 -1.625 0.421875q-1.0 0 -1.640625 -0.625q-0.640625 -0.625 -0.875 -1.703125q-0.234375 -1.078125 -0.046875 -2.4375l0.140625 -0.984375q0.328125 -2.1718826 1.5 -3.3593826q1.171875 -1.1875 3.140625 -1.1875q0.671875 0 1.28125 0.15625q0.625 0.15625 1.21875 0.4375l0.9375 -5.296875l1.640625 0l-2.609375 14.796883l-1.5625 0zm-3.984375 -4.5625q-0.21875 1.578125 0.125 2.4375q0.34375 0.84375 1.203125 0.84375q0.640625 0 1.453125 -0.5625q0.828125 -0.5625 1.796875 -1.953125l0.75 -4.2187576q-1.109375 -0.578125 -2.140625 -0.578125q-1.34375 0 -2.09375 0.828125q-0.734375 0.8125 -0.953125 2.2187576l-0.140625 0.984375z" fill-rule="nonzero"/></g></svg>