<svg version="1.1" viewBox="0.0 0.0 1124.6745406824148 798.7007874015748" fill="none" stroke="none" stroke-linecap="square" stroke-miterlimit="10" xmlns:xlink="http://www.w3.org/1999/xlink" xmlns="http://www.w3.org/2000/svg"><clipPath id="p.0"><path d="m0 0l1124.6746 0l0 798.7008l-1124.6746 0l0 -798.7008z" clip-rule="nonzero"/></clipPath><g clip-path="url(#p.0)"><path fill="#000000" fill-opacity="0.0" d="m0 0l1124.6746 0l0 798.7008l-1124.6746 0z" fill-rule="evenodd"/><path fill="#c9daf8" d="m163.76509 733.6391l109.44881 0l0 49.763794l-109.44881 0z" fill-rule="evenodd"/><path fill="#000000" d="m194.43047 767.841l0 -17.21875l5.359375 0q2.484375 0 3.78125 1.3125q1.3125 1.296875 1.3125 3.46875l0 1.34375q0 2.171875 -1.3125 3.5q-1.296875 1.3125 -3.78125 1.3125l-3.15625 0l0 6.28125l-2.203125 0zm5.359375 -15.140625l-3.15625 0l0 6.8125l3.15625 0q1.375 0 2.09375 -0.734375q0.71875 -0.734375 0.71875 -2.03125l0 -1.34375q0 -1.265625 -0.71875 -1.984375q-0.71875 -0.71875 -2.09375 -0.71875zm17.57817 15.265625q-1.15625 0 -1.859375 -0.53125q-0.6875 -0.53125 -0.96875 -1.3125q-1.25 1.078125 -2.265625 1.53125q-1.0 0.4375 -2.015625 0.4375q-1.640625 0 -2.4375 -1.0625q-0.78125 -1.0625 -0.78125 -2.609375q0 -1.03125 0.375 -1.84375q0.390625 -0.8125 1.296875 -1.28125q0.90625 -0.46875 2.453125 -0.46875q0.6875 0 1.5 0.09375q0.8125 0.078125 1.640625 0.203125l0 -1.6875q0 -1.421875 -0.625 -1.9375q-0.609375 -0.515625 -1.796875 -0.515625q-1.625 0 -3.625 0.875l-0.65625 -1.71875q1.15625 -0.53125 2.21875 -0.8125q1.0625 -0.28125 2.15625 -0.28125q1.78125 0 2.71875 0.59375q0.9375 0.578125 1.28125 1.546875q0.359375 0.953125 0.359375 2.09375l0 5.421875q0 0.578125 0.21875 0.984375q0.234375 0.390625 0.921875 0.390625l0.28125 0l0 1.890625l-0.390625 0zm-8.28125 -3.5625q0 0.859375 0.40625 1.390625q0.40625 0.53125 1.171875 0.53125q0.65625 0 1.515625 -0.390625q0.859375 -0.40625 2.125 -1.59375l0 -1.59375q-1.71875 -0.28125 -3.03125 -0.28125q-1.171875 0 -1.6875 0.484375q-0.5 0.484375 -0.5 1.453125zm18.18991 -7.28125q-1.140625 0 -2.21875 0.40625q-1.078125 0.40625 -2.28125 1.546875l0 8.765625l-2.078125 0l0 -12.53125l1.96875 0l0 2.015625q1.296875 -1.265625 2.375 -1.765625q1.078125 -0.515625 2.234375 -0.515625l0 2.078125zm4.9204407 -4.890625l-2.328125 0l0 -2.328125l2.328125 0l0 2.328125zm-0.125 15.609375l-2.078125 0l0 -12.53125l2.078125 0l0 12.53125zm7.5443726 -1.59375q2.53125 0 2.53125 -1.71875q0 -0.734375 -0.453125 -1.15625q-0.453125 -0.4375 -1.671875 -0.75l-1.390625 -0.359375q-1.546875 -0.375 -2.3125 -1.328125q-0.765625 -0.953125 -0.765625 -2.265625q0 -0.953125 0.4375 -1.78125q0.4375 -0.828125 1.359375 -1.328125q0.9375 -0.515625 2.4375 -0.515625q0.96875 0 1.96875 0.21875q1.0 0.21875 2.03125 0.71875l-0.65625 1.75q-1.84375 -0.828125 -3.34375 -0.828125q-2.203125 0 -2.203125 1.640625q0 0.640625 0.40625 1.09375q0.40625 0.453125 1.515625 0.734375l1.390625 0.34375q1.671875 0.40625 2.453125 1.328125q0.796875 0.90625 0.796875 2.359375q0 1.03125 -0.453125 1.890625q-0.4375 0.84375 -1.421875 1.328125q-0.96875 0.46875 -2.609375 0.46875q-1.09375 0 -2.171875 -0.234375q-1.0625 -0.21875 -2.203125 -0.71875l0.546875 -1.734375q1.09375 0.4375 1.96875 0.640625q0.890625 0.203125 1.8125 0.203125z" fill-rule="nonzero"/><path fill="#c9daf8" d="m285.59186 733.6391l109.44882 0l0 49.763794l-109.44882 0z" fill-rule="evenodd"/><path fill="#000000" d="m336.01556 752.2316l-2.328125 0l0 -2.328125l2.328125 0l0 2.328125zm-0.125 15.609375l-2.078125 0l0 -12.53125l2.078125 0l0 12.53125zm7.5443726 -1.59375q2.53125 0 2.53125 -1.71875q0 -0.734375 -0.453125 -1.15625q-0.453125 -0.4375 -1.671875 -0.75l-1.390625 -0.359375q-1.546875 -0.375 -2.3125 -1.328125q-0.765625 -0.953125 -0.765625 -2.265625q0 -0.953125 0.4375 -1.78125q0.4375 -0.828125 1.359375 -1.328125q0.9375 -0.515625 2.4375 -0.515625q0.96875 0 1.96875 0.21875q1.0 0.21875 2.03125 0.71875l-0.65625 1.75q-1.84375 -0.828125 -3.34375 -0.828125q-2.203125 0 -2.203125 1.640625q0 0.640625 0.40625 1.09375q0.40625 0.453125 1.515625 0.734375l1.390625 0.34375q1.671875 0.40625 2.453125 1.328125q0.796875 0.90625 0.796875 2.359375q0 1.03125 -0.453125 1.890625q-0.4375 0.84375 -1.421875 1.328125q-0.96875 0.46875 -2.609375 0.46875q-1.09375 0 -2.171875 -0.234375q-1.0625 -0.21875 -2.203125 -0.71875l0.546875 -1.734375q1.09375 0.4375 1.96875 0.640625q0.890625 0.203125 1.8125 0.203125z" fill-rule="nonzero"/><path fill="#fff2cc" d="m407.41986 733.64044l184.81891 0l0 49.763733l-184.81891 0z" fill-rule="evenodd"/><path fill="#000000" d="m442.34528 763.1079l0 2.09375l-10.484375 -4.25l0 -1.390625l10.484375 -4.1875l0 1.984375l-7.546875 2.828125l7.546875 2.921875zm13.533569 4.0q-1.140625 0.5625 -2.28125 0.765625q-1.140625 0.21875 -2.109375 0.21875q-2.703125 0 -4.03125 -1.546875q-1.328125 -1.546875 -1.328125 -4.21875l0 -1.53125q0 -2.609375 1.328125 -4.171875q1.328125 -1.578125 3.75 -1.578125q1.296875 0 2.375 0.53125q1.078125 0.515625 1.71875 1.5625q0.640625 1.046875 0.640625 2.703125q0 1.0625 -0.296875 2.421875l-7.46875 0l0 0.0625q0 1.921875 0.796875 2.90625q0.796875 0.984375 2.5625 0.984375q0.8125 0 1.78125 -0.203125q0.984375 -0.203125 1.921875 -0.625l0.640625 1.71875zm-4.671875 -10.234375q-1.46875 0 -2.21875 0.953125q-0.734375 0.953125 -0.8125 2.671875l5.671875 0q0.078125 -0.453125 0.078125 -0.859375q0 -1.421875 -0.796875 -2.09375q-0.796875 -0.671875 -1.921875 -0.671875zm14.968536 10.96875l-3.109375 -4.890625l-2.984375 4.890625l-2.203125 0l4.15625 -6.484375l-3.859375 -6.046875l2.3125 0l2.75 4.375l2.71875 -4.375l2.171875 0l-3.828125 6.0l4.15625 6.53125l-2.28125 0zm11.992554 -0.453125q-1.421875 0.703125 -3.015625 0.703125q-1.375 0 -2.15625 -0.546875q-0.765625 -0.5625 -1.078125 -1.5q-0.3125 -0.9375 -0.3125 -2.078125l0 -6.84375l-2.1875 0l0 -1.8125l2.1875 0l0 -3.5l2.078125 0l0 3.5l4.09375 0l0 1.8125l-4.09375 0l0 6.765625q0 1.3125 0.4375 1.8125q0.4375 0.5 1.375 0.5q0.46875 0 0.953125 -0.109375q0.5 -0.125 1.078125 -0.40625l0.640625 1.703125zm9.312195 -10.265625q-1.140625 0 -2.21875 0.40625q-1.078125 0.40625 -2.28125 1.546875l0 8.765625l-2.078125 0l0 -12.53125l1.96875 0l0 2.015625q1.296875 -1.265625 2.375 -1.765625q1.078125 -0.515625 2.234375 -0.515625l0 2.078125zm11.873566 10.84375q-1.15625 0 -1.859375 -0.53125q-0.6875 -0.53125 -0.96875 -1.3125q-1.25 1.078125 -2.265625 1.53125q-1.0 0.4375 -2.015625 0.4375q-1.640625 0 -2.4375 -1.0625q-0.78125 -1.0625 -0.78125 -2.609375q0 -1.03125 0.375 -1.84375q0.390625 -0.8125 1.296875 -1.28125q0.90625 -0.46875 2.453125 -0.46875q0.6875 0 1.5 0.09375q0.8125 0.078125 1.640625 0.203125l0 -1.6875q0 -1.421875 -0.625 -1.9375q-0.609375 -0.515625 -1.796875 -0.515625q-1.625 0 -3.625 0.875l-0.65625 -1.71875q1.15625 -0.53125 2.21875 -0.8125q1.0625 -0.28125 2.15625 -0.28125q1.78125 0 2.71875 0.59375q0.9375 0.578125 1.28125 1.546875q0.359375 0.953125 0.359375 2.09375l0 5.421875q0 0.578125 0.21875 0.984375q0.234375 0.390625 0.921875 0.390625l0.28125 0l0 1.890625l-0.390625 0zm-8.28125 -3.5625q0 0.859375 0.40625 1.390625q0.40625 0.53125 1.171875 0.53125q0.65625 0 1.515625 -0.390625q0.859375 -0.40625 2.125 -1.59375l0 -1.59375q-1.71875 -0.28125 -3.03125 -0.28125q-1.171875 0 -1.6875 0.484375q-0.5 0.484375 -0.5 1.453125zm9.882416 7.40625l0 -1.53125l9.625 0l0 1.53125l-9.625 0zm14.19046 -19.578125l-2.328125 0l0 -2.328125l2.328125 0l0 2.328125zm-0.125 15.609375l-2.078125 0l0 -12.53125l2.078125 0l0 12.53125zm12.106873 0l0 -1.75q-1.171875 1.109375 -2.125 1.5625q-0.953125 0.4375 -1.953125 0.4375q-2.0 0 -3.078125 -1.515625q-1.078125 -1.515625 -1.078125 -4.25l0 -1.46875q0 -2.671875 1.328125 -4.234375q1.328125 -1.578125 3.859375 -1.578125q0.734375 0 1.46875 0.15625q0.734375 0.15625 1.46875 0.4375l0 -6.546875l2.078125 0l0 18.75l-1.96875 0zm-6.078125 -5.515625q0 1.96875 0.609375 2.890625q0.625 0.921875 1.859375 0.921875q0.734375 0 1.515625 -0.359375q0.796875 -0.375 1.984375 -1.53125l0 -6.6875q-0.734375 -0.328125 -1.421875 -0.46875q-0.671875 -0.140625 -1.34375 -0.140625q-1.71875 0 -2.46875 1.046875q-0.734375 1.03125 -0.734375 2.859375l0 1.46875zm9.894226 9.484375l0 -1.53125l9.625 0l0 1.53125l-9.625 0zm22.232056 -14.484375l0 3.78125q0 3.4375 -1.546875 5.21875q-1.53125 1.765625 -4.296875 1.765625q-2.765625 0 -4.296875 -1.765625q-1.53125 -1.78125 -1.53125 -5.21875l0 -3.78125q0 -3.421875 1.546875 -5.1875q1.546875 -1.765625 4.28125 -1.765625q2.765625 0 4.296875 1.765625q1.546875 1.765625 1.546875 5.1875zm-2.21875 0q0 -2.625 -0.953125 -3.78125q-0.953125 -1.171875 -2.671875 -1.171875q-1.703125 0 -2.65625 1.171875q-0.9375 1.15625 -0.9375 3.78125l0 3.78125q0 2.609375 0.9375 3.8125q0.953125 1.203125 2.65625 1.203125q1.71875 0 2.671875 -1.203125q0.953125 -1.203125 0.953125 -3.8125l0 -3.78125zm16.838684 3.703125l-10.484375 4.171875l0 -2.0l7.546875 -2.828125l-7.546875 -2.921875l0 -2.078125l10.484375 4.265625l0 1.390625z" fill-rule="nonzero"/><path fill="#d9ead3" d="m708.51184 201.16714l0 0c0 -23.91542 19.387268 -43.302704 43.302673 -43.302704l173.20563 0l0 0c11.484558 0 22.49878 4.5622406 30.619629 12.683075c8.12085 8.120834 12.683044 19.13504 12.683044 30.619629l0 326.371c0 23.915405 -19.387268 43.302673 -43.302673 43.302673l-173.20563 0c-23.915405 0 -43.302673 -19.387268 -43.302673 -43.302673z" fill-rule="evenodd"/><defs><linearGradient id="p.1" gradientUnits="userSpaceOnUse" gradientTransform="matrix(8.670631027248541 0.0 0.0 8.670631027248541 0.0 0.0)" spreadMethod="pad" x1="107.48781741438692" y1="66.7783575230051" x2="108.99327089133402" y2="58.239420104366104"><stop offset="0.0" stop-color="#f3f3f3"/><stop offset="0.48" stop-color="#f3f3f3"/><stop offset="0.48000002" stop-color="#3d3d3d"/><stop offset="1.0" stop-color="#000000"/></linearGradient></defs><path fill="url(#p.1)" d="m738.8412 510.6012l0 0c0 -3.795044 3.076538 -6.8715515 6.871521 -6.8715515l185.40656 0c1.8224487 0 3.5702515 0.7239685 4.8589478 2.0126343c1.2886353 1.2886658 2.0125732 3.0364685 2.0125732 4.858917l0 27.48529c0 3.795044 -3.076477 6.871521 -6.871521 6.871521l-185.40656 0c-3.794983 0 -6.871521 -3.076477 -6.871521 -6.871521z" fill-rule="evenodd"/><path fill="#000000" fill-opacity="0.0" d="m286.73358 660.4134l10.614197 0l0 10.519653l-10.614197 0z" fill-rule="evenodd"/><path fill="#000000" fill-opacity="0.0" d="m329.6969 660.4134l10.614166 0l0 10.519653l-10.614166 0z" fill-rule="evenodd"/><path fill="#000000" fill-opacity="0.0" d="m372.66022 660.4134l10.614166 0l0 10.519653l-10.614166 0z" fill-rule="evenodd"/><path fill="#000000" fill-opacity="0.0" d="m415.6235 660.4134l10.614197 0l0 10.519653l-10.614197 0z" fill-rule="evenodd"/><path fill="#000000" fill-opacity="0.0" d="m736.26135 664.37665l10.614197 0l0 10.519653l-10.614197 0z" fill-rule="evenodd"/><path fill="#000000" fill-opacity="0.0" d="m768.6615 147.27428l10.614136 0l0 10.519684l-10.614136 0z" fill-rule="evenodd"/><path fill="#000000" fill-opacity="0.0" d="m811.62476 147.27428l10.614197 0l0 10.519684l-10.614197 0z" fill-rule="evenodd"/><path fill="#000000" fill-opacity="0.0" d="m854.5881 147.27428l10.614197 0l0 10.519684l-10.614197 0z" fill-rule="evenodd"/><path fill="#000000" fill-opacity="0.0" d="m897.5514 147.27428l10.614197 0l0 10.519684l-10.614197 0z" fill-rule="evenodd"/><path fill="#c9daf8" d="m6.227034 147.26115l109.448814 0l0 49.76378l-109.448814 0z" fill-rule="evenodd"/><path fill="#000000" d="m36.892403 181.46304l0 -17.21875l5.359375 0q2.484375 0 3.78125 1.3125q1.3125 1.296875 1.3125 3.46875l0 1.34375q0 2.171875 -1.3125 3.5q-1.296875 1.3125 -3.78125 1.3125l-3.15625 0l0 6.28125l-2.203125 0zm5.359375 -15.140625l-3.15625 0l0 6.8125l3.15625 0q1.375 0 2.09375 -0.734375q0.71875 -0.734375 0.71875 -2.03125l0 -1.34375q0 -1.265625 -0.71875 -1.984375q-0.71875 -0.71875 -2.09375 -0.71875zm17.57817 15.265625q-1.15625 0 -1.859375 -0.53125q-0.6875 -0.53125 -0.96875 -1.3125q-1.25 1.078125 -2.265625 1.53125q-1.0 0.4375 -2.015625 0.4375q-1.640625 0 -2.4375 -1.0625q-0.78125 -1.0625 -0.78125 -2.609375q0 -1.03125 0.375 -1.84375q0.390625 -0.8125 1.296875 -1.28125q0.90625 -0.46875 2.453125 -0.46875q0.6875 0 1.5 0.09375q0.8125 0.078125 1.640625 0.203125l0 -1.6875q0 -1.421875 -0.625 -1.9375q-0.609375 -0.515625 -1.796875 -0.515625q-1.625 0 -3.625 0.875l-0.65625 -1.71875q1.15625 -0.53125 2.21875 -0.8125q1.0625 -0.28125 2.15625 -0.28125q1.78125 0 2.71875 0.59375q0.9375 0.578125 1.28125 1.546875q0.359375 0.953125 0.359375 2.09375l0 5.421875q0 0.578125 0.21875 0.984375q0.234375 0.390625 0.921875 0.390625l0.28125 0l0 1.890625l-0.390625 0zm-8.28125 -3.5625q0 0.859375 0.40625 1.390625q0.40625 0.53125 1.171875 0.53125q0.65625 0 1.515625 -0.390625q0.859375 -0.40625 2.125 -1.59375l0 -1.59375q-1.71875 -0.28125 -3.03125 -0.28125q-1.171875 0 -1.6875 0.484375q-0.5 0.484375 -0.5 1.453125zm18.18991 -7.28125q-1.140625 0 -2.21875 0.40625q-1.078125 0.40625 -2.28125 1.546875l0 8.765625l-2.078125 0l0 -12.53125l1.96875 0l0 2.015625q1.296875 -1.265625 2.375 -1.765625q1.078125 -0.515625 2.234375 -0.515625l0 2.078125zm4.9204407 -4.890625l-2.328125 0l0 -2.328125l2.328125 0l0 2.328125zm-0.125 15.609375l-2.078125 0l0 -12.53125l2.078125 0l0 12.53125zm7.5443726 -1.59375q2.53125 0 2.53125 -1.71875q0 -0.734375 -0.453125 -1.15625q-0.453125 -0.4375 -1.671875 -0.75l-1.390625 -0.359375q-1.546875 -0.375 -2.3125 -1.328125q-0.765625 -0.953125 -0.765625 -2.265625q0 -0.953125 0.4375 -1.78125q0.4375 -0.828125 1.359375 -1.328125q0.9375 -0.515625 2.4375 -0.515625q0.96875 0 1.96875 0.21875q1.0 0.21875 2.03125 0.71875l-0.65625 1.75q-1.84375 -0.828125 -3.34375 -0.828125q-2.203125 0 -2.203125 1.640625q0 0.640625 0.40625 1.09375q0.40625 0.453125 1.515625 0.734375l1.390625 0.34375q1.671875 0.40625 2.453125 1.328125q0.796875 0.90625 0.796875 2.359375q0 1.03125 -0.453125 1.890625q-0.4375 0.84375 -1.421875 1.328125q-0.96875 0.46875 -2.609375 0.46875q-1.09375 0 -2.171875 -0.234375q-1.0625 -0.21875 -2.203125 -0.71875l0.546875 -1.734375q1.09375 0.4375 1.96875 0.640625q0.890625 0.203125 1.8125 0.203125z" fill-rule="nonzero"/><path fill="#c9daf8" d="m128.0538 147.26115l109.44882 0l0 49.76378l-109.44882 0z" fill-rule="evenodd"/><path fill="#000000" d="m178.4775 165.85367l-2.328125 0l0 -2.328125l2.328125 0l0 2.328125zm-0.125 15.609375l-2.078125 0l0 -12.53125l2.078125 0l0 12.53125zm7.5443726 -1.59375q2.53125 0 2.53125 -1.71875q0 -0.734375 -0.453125 -1.15625q-0.453125 -0.4375 -1.671875 -0.75l-1.390625 -0.359375q-1.546875 -0.375 -2.3125 -1.328125q-0.765625 -0.953125 -0.765625 -2.265625q0 -0.953125 0.4375 -1.78125q0.4375 -0.828125 1.359375 -1.328125q0.9375 -0.515625 2.4375 -0.515625q0.96875 0 1.96875 0.21875q1.0 0.21875 2.03125 0.71875l-0.65625 1.75q-1.84375 -0.828125 -3.34375 -0.828125q-2.203125 0 -2.203125 1.640625q0 0.640625 0.40625 1.09375q0.40625 0.453125 1.515625 0.734375l1.390625 0.34375q1.671875 0.40625 2.453125 1.328125q0.796875 0.90625 0.796875 2.359375q0 1.03125 -0.453125 1.890625q-0.4375 0.84375 -1.421875 1.328125q-0.96875 0.46875 -2.609375 0.46875q-1.09375 0 -2.171875 -0.234375q-1.0625 -0.21875 -2.203125 -0.71875l0.546875 -1.734375q1.09375 0.4375 1.96875 0.640625q0.890625 0.203125 1.8125 0.203125z" fill-rule="nonzero"/><path fill="#c9daf8" d="m249.88058 147.26115l109.44882 0l0 49.76378l-109.44882 0z" fill-rule="evenodd"/><path fill="#000000" d="m309.75223 181.58804q-1.15625 0 -1.859375 -0.53125q-0.6875 -0.53125 -0.96875 -1.3125q-1.25 1.078125 -2.265625 1.53125q-1.0 0.4375 -2.015625 0.4375q-1.640625 0 -2.4375 -1.0625q-0.78125 -1.0625 -0.78125 -2.609375q0 -1.03125 0.375 -1.84375q0.390625 -0.8125 1.296875 -1.28125q0.90625 -0.46875 2.453125 -0.46875q0.6875 0 1.5 0.09375q0.8125 0.078125 1.640625 0.203125l0 -1.6875q0 -1.421875 -0.625 -1.9375q-0.609375 -0.515625 -1.796875 -0.515625q-1.625 0 -3.625 0.875l-0.65625 -1.71875q1.15625 -0.53125 2.21875 -0.8125q1.0625 -0.28125 2.15625 -0.28125q1.78125 0 2.71875 0.59375q0.9375 0.578125 1.28125 1.546875q0.359375 0.953125 0.359375 2.09375l0 5.421875q0 0.578125 0.21875 0.984375q0.234375 0.390625 0.921875 0.390625l0.28125 0l0 1.890625l-0.390625 0zm-8.28125 -3.5625q0 0.859375 0.40625 1.390625q0.40625 0.53125 1.171875 0.53125q0.65625 0 1.515625 -0.390625q0.859375 -0.40625 2.125 -1.59375l0 -1.59375q-1.71875 -0.28125 -3.03125 -0.28125q-1.171875 0 -1.6875 0.484375q-0.5 0.484375 -0.5 1.453125z" fill-rule="nonzero"/><path fill="#c9daf8" d="m371.70734 147.26115l109.44882 0l0 49.76378l-109.44882 0z" fill-rule="evenodd"/><path fill="#000000" d="m407.4282 174.44742l0 1.5q0 1.921875 0.703125 2.90625q0.703125 0.96875 2.25 0.96875q1.53125 0 3.265625 -0.796875l0.640625 1.75q-2.078125 0.9375 -4.03125 0.9375q-2.421875 0 -3.6875 -1.546875q-1.265625 -1.546875 -1.265625 -4.21875l0 -1.5q0 -2.6875 1.265625 -4.234375q1.265625 -1.546875 3.6875 -1.546875q0.921875 0 1.890625 0.25q0.96875 0.234375 1.96875 0.671875l-0.640625 1.765625q-0.828125 -0.34375 -1.609375 -0.546875q-0.765625 -0.203125 -1.484375 -0.203125q-1.546875 0 -2.25 0.96875q-0.703125 0.96875 -0.703125 2.875zm19.77481 -0.03125l0 1.53125q0 2.671875 -1.390625 4.21875q-1.375 1.546875 -3.921875 1.546875q-2.53125 0 -3.9375 -1.546875q-1.390625 -1.546875 -1.390625 -4.21875l0 -1.53125q0 -2.625 1.375 -4.1875q1.390625 -1.5625 3.953125 -1.5625q2.546875 0 3.921875 1.5625q1.390625 1.5625 1.390625 4.1875zm-2.15625 0q0 -1.796875 -0.8125 -2.8125q-0.796875 -1.03125 -2.34375 -1.03125q-1.53125 0 -2.359375 1.03125q-0.8125 1.015625 -0.8125 2.8125l0 1.53125q0 1.875 0.8125 2.890625q0.828125 1.0 2.359375 1.0q1.546875 0 2.34375 -1.0q0.8125 -1.015625 0.8125 -2.890625l0 -1.53125zm15.858795 0l0 1.53125q0 2.671875 -1.390625 4.21875q-1.375 1.546875 -3.921875 1.546875q-2.53125 0 -3.9375 -1.546875q-1.390625 -1.546875 -1.390625 -4.21875l0 -1.53125q0 -2.625 1.375 -4.1875q1.390625 -1.5625 3.953125 -1.5625q2.546875 0 3.921875 1.5625q1.390625 1.5625 1.390625 4.1875zm-2.15625 0q0 -1.796875 -0.8125 -2.8125q-0.796875 -1.03125 -2.34375 -1.03125q-1.53125 0 -2.359375 1.03125q-0.8125 1.015625 -0.8125 2.8125l0 1.53125q0 1.875 0.8125 2.890625q0.828125 1.0 2.359375 1.0q1.546875 0 2.34375 -1.0q0.8125 -1.015625 0.8125 -2.890625l0 -1.53125zm5.9056396 4.0l0 -15.703125l2.078125 0l0 15.609375q0 0.6875 0.21875 1.03125q0.21875 0.34375 0.875 0.34375l0.40625 0l0 1.890625l-0.59375 0q-1.671875 0 -2.328125 -0.875q-0.65625 -0.890625 -0.65625 -2.296875z" fill-rule="nonzero"/><path fill="#c9daf8" d="m493.53412 147.26115l109.44879 0l0 49.76378l-109.44879 0z" fill-rule="evenodd"/><path fill="#000000" d="m532.2057 174.44742l0 1.5q0 1.921875 0.703125 2.90625q0.703125 0.96875 2.25 0.96875q1.53125 0 3.265625 -0.796875l0.640625 1.75q-2.078125 0.9375 -4.03125 0.9375q-2.421875 0 -3.6875 -1.546875q-1.265625 -1.546875 -1.265625 -4.21875l0 -1.5q0 -2.6875 1.265625 -4.234375q1.265625 -1.546875 3.6875 -1.546875q0.921875 0 1.890625 0.25q0.96875 0.234375 1.96875 0.671875l-0.640625 1.765625q-0.828125 -0.34375 -1.609375 -0.546875q-0.765625 -0.203125 -1.484375 -0.203125q-1.546875 0 -2.25 0.96875q-0.703125 0.96875 -0.703125 2.875zm12.1067505 -8.59375l-2.328125 0l0 -2.328125l2.328125 0l0 2.328125zm-0.125 15.609375l-2.078125 0l0 -12.53125l2.078125 0l0 12.53125zm11.372498 -0.453125q-1.421875 0.703125 -3.015625 0.703125q-1.375 0 -2.15625 -0.546875q-0.765625 -0.5625 -1.078125 -1.5q-0.3125 -0.9375 -0.3125 -2.078125l0 -6.84375l-2.1875 0l0 -1.8125l2.1875 0l0 -3.5l2.078125 0l0 3.5l4.09375 0l0 1.8125l-4.09375 0l0 6.765625q0 1.3125 0.4375 1.8125q0.4375 0.5 1.375 0.5q0.46875 0 0.953125 -0.109375q0.5 -0.125 1.078125 -0.40625l0.640625 1.703125zm7.01532 1.71875q-0.8125 2.28125 -2.0 3.328125q-1.171875 1.046875 -3.28125 1.046875l0 -2.046875q0.875 -0.015625 1.484375 -0.21875q0.625 -0.203125 1.109375 -0.828125q0.5 -0.625 0.953125 -1.84375l0.265625 -0.625l-4.515625 -12.609375l2.125 0l2.109375 6.09375l1.28125 3.90625l1.25 -3.90625l2.046875 -6.09375l2.046875 0l-4.875 13.796875z" fill-rule="nonzero"/><path fill="#000000" fill-opacity="0.0" d="m304.60498 197.02493c0 134.1536 -43.39102 212.98593 -82.92003 268.3072c-39.529007 55.32126 -75.195984 87.1315 -82.92003 146.60233c-7.72406 59.470825 12.494827 146.6023 24.98967 146.6023" fill-rule="evenodd"/><path stroke="#000000" stroke-width="2.0" stroke-linejoin="round" stroke-linecap="butt" d="m304.60498 197.02493c0 134.1536 -43.39102 212.98593 -82.92003 268.30716c-39.529007 55.32129 -75.195984 87.13147 -82.92003 146.60236c-3.86203 29.735413 -0.738327 66.38599 4.9127502 95.60272c2.825531 14.608337 6.282898 27.358276 9.814819 36.455994c0.4414978 1.1372681 0.8841553 2.2174683 1.326889 3.2370605c0.22135925 0.5097656 0.44274902 1.0044556 0.66400146 1.4835205c0.11064148 0.23950195 0.22125244 0.4751587 0.33180237 0.70684814l0.040161133 0.08276367" fill-rule="evenodd"/><path fill="#000000" stroke="#000000" stroke-width="2.0" stroke-linecap="butt" d="m153.36856 751.6779l8.46138 4.657837l-3.4878082 -9.006958z" fill-rule="evenodd"/><path fill="#000000" fill-opacity="0.0" d="m11.454068 201.4252l195.2441 0l0 46.866135l-195.2441 0z" fill-rule="evenodd"/><path fill="#000000" d="m22.125944 218.63832l0.34375 -1.859375l10.937498 0l-0.3125 1.859375l-4.484373 0l-2.40625 13.546875l-1.96875 0l2.40625 -13.546875l-4.515625 0zm17.388548 3.984375q-0.53125 0 -1.265625 0.171875q-0.71875 0.171875 -1.546875 0.703125q-0.8125 0.515625 -1.6875 1.578125l-1.234375 7.109375l-1.8593731 0l1.9843731 -11.21875l1.75 0l-0.359375 2.109375q1.28125 -1.421875 2.453125 -1.875q1.171875 -0.453125 2.078125 -0.453125l-0.3125 1.875zm10.049194 9.671875q-1.109375 0 -1.640625 -0.546875q-0.53125 -0.5625 -0.578125 -1.390625q-1.0625 1.15625 -2.046875 1.609375q-0.96875 0.4375 -1.828125 0.4375q-1.109375 0 -1.828125 -0.6875q-0.703125 -0.703125 -0.984375 -1.921875q-0.265625 -1.234375 -0.046875 -2.78125l0.171875 -1.109375q0.359375 -2.421875 1.6875 -3.78125q1.34375 -1.375 3.515625 -1.375q1.140625 0 2.25 0.375q1.125 0.375 2.171875 1.046875l-1.21875 6.953125q-0.125 0.6875 0.03125 1.09375q0.171875 0.390625 0.734375 0.390625l0.3125 0l-0.3125 1.6875l-0.390625 0zm-7.015625 -5.28125q-0.25 1.796875 0.125 2.765625q0.390625 0.953125 1.296875 0.953125q0.6875 0 1.59375 -0.578125q0.90625 -0.59375 1.9375 -2.0625l0.890625 -5.03125q-1.234375 -0.609375 -2.296875 -0.609375q-1.46875 0 -2.328125 0.96875q-0.84375 0.953125 -1.0625 2.484375l-0.15625 1.109375zm14.578873 -8.78125l-2.078125 0l0.34375 -2.09375l2.078125 0l-0.34375 2.09375zm-2.59375 13.953125l-1.859375 0l1.984375 -11.21875l1.859375 0l-1.984375 11.21875zm11.203114 -9.703125q-0.421875 0 -1.0 0.203125q-0.5625 0.1875 -1.3125038 0.71875q-0.734375 0.53125 -1.71875 1.578125l-1.28125 7.203125l-1.859375 0l1.984375 -11.21875l1.75 0l-0.34375 2.0625q1.34375 -1.40625 2.3906288 -1.84375q1.0625 -0.4375 1.890625 -0.4375q1.546875 0 2.28125 1.125q0.734375 1.109375 0.421875 2.90625l-1.3125 7.40625l-1.859375 0l1.265625 -7.25q0.453125 -2.453125 -1.296875 -2.453125zm10.217941 -4.25l-2.078125 0l0.34375 -2.09375l2.078125 0l-0.34375 2.09375zm-2.59375 13.953125l-1.859375 0l1.984375 -11.21875l1.859375 0l-1.984375 11.21875zm11.20311 -9.703125q-0.421875 0 -1.0 0.203125q-0.5625 0.1875 -1.3125 0.71875q-0.734375 0.53125 -1.71875 1.578125l-1.28125 7.203125l-1.859375 0l1.984375 -11.21875l1.75 0l-0.34375 2.0625q1.34375 -1.40625 2.390625 -1.84375q1.0625 -0.4375 1.890625 -0.4375q1.546875 0 2.28125 1.125q0.734375 1.109375 0.421875 2.90625l-1.3125 7.40625l-1.859375 0l1.265625 -7.25q0.453125 -2.453125 -1.296875 -2.453125zm14.328857 9.703125q-0.1875 1.046875 -0.5 1.953125q-0.296875 0.90625 -0.859375 1.609375q-0.5625 0.703125 -1.515625 1.09375q-0.9375 0.390625 -2.359375 0.390625q-0.90625 0 -1.8125 -0.1875q-0.890625 -0.171875 -1.796875 -0.53125l0.484375 -1.59375q0.828125 0.34375 1.59375 0.484375q0.765625 0.15625 1.453125 0.15625q1.28125 0 1.953125 -0.40625q0.6875 -0.40625 1.0 -1.171875q0.3125 -0.75 0.5 -1.796875l0.3125 -1.796875q-1.015625 1.125 -1.953125 1.578125q-0.9375 0.4375 -1.8125 0.4375q-1.125 0 -1.859375 -0.6875q-0.71875 -0.703125 -1.0 -1.921875q-0.265625 -1.234375 -0.03125 -2.78125l0.15625 -1.109375q0.359375 -2.46875 1.6875 -3.8125q1.328125 -1.34375 3.5625 -1.34375q1.203125 0 2.359375 0.375q1.15625 0.375 2.203125 1.046875l-1.765625 10.015625zm-6.28125 -5.171875q-0.25 1.796875 0.125 2.765625q0.390625 0.953125 1.375 0.953125q0.71875 0 1.640625 -0.578125q0.9375 -0.59375 2.0 -2.109375l0.890625 -4.96875q-1.265625 -0.625 -2.421875 -0.625q-1.515625 0 -2.359375 0.921875q-0.84375 0.921875 -1.09375 2.53125l-0.15625 1.109375zm18.178085 3.75q1.3125 0 1.890625 -0.453125q0.578125 -0.453125 0.578125 -1.1875q0 -0.578125 -0.375 -0.9375q-0.359375 -0.375 -1.21875 -0.6875l-1.078125 -0.4375q-1.15625 -0.421875 -1.734375 -1.140625q-0.578125 -0.734375 -0.578125 -1.84375q0 -0.90625 0.390625 -1.65625q0.390625 -0.75 1.28125 -1.203125q0.890625 -0.46875 2.3125 -0.46875q1.75 0 3.53125 0.8125l-0.59375 1.578125q-0.8125 -0.375 -1.546875 -0.546875q-0.71875 -0.171875 -1.4375 -0.171875q-1.109375 0 -1.59375 0.40625q-0.484375 0.40625 -0.484375 1.109375q0 0.5 0.296875 0.875q0.3125 0.359375 1.0625 0.640625l1.109375 0.40625q1.234375 0.453125 1.875 1.1875q0.640625 0.71875 0.640625 1.875q0 0.890625 -0.4375 1.703125q-0.4375 0.796875 -1.40625 1.296875q-0.953125 0.484375 -2.53125 0.484375q-1.890625 0 -3.78125 -0.828125l0.578125 -1.5625q0.890625 0.375 1.671875 0.5625q0.796875 0.1875 1.578125 0.1875zm15.060135 0.96875q-0.96875 0.359375 -1.875 0.515625q-0.90625 0.15625 -1.734375 0.15625q-1.8125 0 -2.84375 -0.734375q-1.015625 -0.734375 -1.359375 -2.0q-0.34375 -1.265625 -0.09375 -2.859375l0.203125 -1.15625q0.359375 -2.21875 1.703125 -3.5625q1.359375 -1.34375 3.421875 -1.34375q1.015625 0 1.90625 0.359375q0.90625 0.359375 1.4375 1.140625q0.546875 0.765625 0.546875 1.96875q0 0.65625 -0.203125 1.390625q-0.1875 0.734375 -0.703125 1.59375l-6.546875 0q-0.203125 1.5625 0.359375 2.546875q0.578125 0.984375 2.34375 0.984375q0.625 0 1.4375 -0.140625q0.828125 -0.15625 1.703125 -0.4375l0.296875 1.578125zm-2.65625 -9.328125q-1.28125 0 -2.125 0.84375q-0.84375 0.84375 -1.09375 2.375l5.078125 0q0.1875 -0.390625 0.234375 -0.734375q0.0625 -0.34375 0.0625 -0.625q0 -0.953125 -0.609375 -1.40625q-0.609375 -0.453125 -1.546875 -0.453125zm13.003876 0.078125q-0.421875 0 -1.0 0.203125q-0.5625 0.1875 -1.3125 0.71875q-0.734375 0.53125 -1.71875 1.578125l-1.28125 7.203125l-1.859375 0l1.984375 -11.21875l1.75 0l-0.34375 2.0625q1.34375 -1.40625 2.390625 -1.84375q1.0625 -0.4375 1.890625 -0.4375q1.546875 0 2.28125 1.125q0.734375 1.109375 0.421875 2.90625l-1.3125 7.40625l-1.859375 0l1.265625 -7.25q0.453125 -2.453125 -1.296875 -2.453125zm12.030441 9.3125q-1.4375 0.609375 -2.734375 0.609375q-1.15625 0 -1.796875 -0.5q-0.625 -0.515625 -0.8125 -1.328125q-0.171875 -0.8125 -0.015625 -1.75l1.078125 -6.21875l-1.9375 0l0.265625 -1.640625l1.96875 0l0.546875 -3.125l1.859375 0l-0.546875 3.125l3.671875 0l-0.296875 1.640625l-3.671875 0l-1.109375 6.21875q-0.171875 1.046875 0.15625 1.46875q0.34375 0.421875 1.0 0.421875q0.359375 0 0.875 -0.09375q0.515625 -0.109375 1.09375 -0.390625l0.40625 1.5625zm10.654663 -0.0625q-0.96875 0.359375 -1.875 0.515625q-0.90625 0.15625 -1.734375 0.15625q-1.8125 0 -2.84375 -0.734375q-1.015625 -0.734375 -1.359375 -2.0q-0.34375 -1.265625 -0.09375 -2.859375l0.203125 -1.15625q0.359375 -2.21875 1.703125 -3.5625q1.359375 -1.34375 3.421875 -1.34375q1.015625 0 1.90625 0.359375q0.90625 0.359375 1.4375 1.140625q0.546875 0.765625 0.546875 1.96875q0 0.65625 -0.203125 1.390625q-0.1875 0.734375 -0.703125 1.59375l-6.546875 0q-0.203125 1.5625 0.359375 2.546875q0.578125 0.984375 2.34375 0.984375q0.625 0 1.4375 -0.140625q0.828125 -0.15625 1.703125 -0.4375l0.296875 1.578125zm-2.65625 -9.328125q-1.28125 0 -2.125 0.84375q-0.84375 0.84375 -1.09375 2.375l5.078125 0q0.1875 -0.390625 0.234375 -0.734375q0.0625 -0.34375 0.0625 -0.625q0 -0.953125 -0.609375 -1.40625q-0.609375 -0.453125 -1.546875 -0.453125zm13.003876 0.078125q-0.421875 0 -1.0 0.203125q-0.5625 0.1875 -1.3125 0.71875q-0.734375 0.53125 -1.71875 1.578125l-1.28125 7.203125l-1.859375 0l1.984375 -11.21875l1.75 0l-0.34375 2.0625q1.34375 -1.40625 2.390625 -1.84375q1.0625 -0.4375 1.890625 -0.4375q1.546875 0 2.28125 1.125q0.734375 1.109375 0.421875 2.90625l-1.3125 7.40625l-1.859375 0l1.265625 -7.25q0.453125 -2.453125 -1.296875 -2.453125zm11.358566 -0.015625q-1.25 0 -2.09375 0.828125q-0.828125 0.828125 -1.078125 2.359375l-0.203125 1.234375q-0.28125 1.671875 0.203125 2.75q0.5 1.078125 2.125 1.078125q1.203125 0 2.75 -0.5625l0.3125 1.59375q-1.796875 0.65625 -3.21875 0.65625q-1.671875 0 -2.65625 -0.734375q-0.96875 -0.734375 -1.296875 -2.0q-0.3125 -1.265625 -0.0625 -2.859375l0.1875 -1.15625q0.390625 -2.28125 1.6875 -3.59375q1.296875 -1.3125 3.296875 -1.3125q0.8125 0 1.65625 0.234375q0.84375 0.21875 1.671875 0.625l-0.65625 1.578125q-0.703125 -0.328125 -1.375 -0.515625q-0.65625 -0.203125 -1.25 -0.203125zm12.776489 9.265625q-0.96875 0.359375 -1.875 0.515625q-0.90625 0.15625 -1.734375 0.15625q-1.8125 0 -2.84375 -0.734375q-1.015625 -0.734375 -1.359375 -2.0q-0.34375 -1.265625 -0.09375 -2.859375l0.203125 -1.15625q0.359375 -2.21875 1.703125 -3.5625q1.359375 -1.34375 3.421875 -1.34375q1.015625 0 1.90625 0.359375q0.90625 0.359375 1.4375 1.140625q0.546875 0.765625 0.546875 1.96875q0 0.65625 -0.203125 1.390625q-0.1875 0.734375 -0.703125 1.59375l-6.546875 0q-0.203125 1.5625 0.359375 2.546875q0.578125 0.984375 2.34375 0.984375q0.625 0 1.4375 -0.140625q0.828125 -0.15625 1.703125 -0.4375l0.296875 1.578125zm-2.65625 -9.328125q-1.28125 0 -2.125 0.84375q-0.84375 0.84375 -1.09375 2.375l5.078125 0q0.1875 -0.390625 0.234375 -0.734375q0.0625 -0.34375 0.0625 -0.625q0 -0.953125 -0.609375 -1.40625q-0.609375 -0.453125 -1.546875 -0.453125z" fill-rule="nonzero"/><defs><linearGradient id="p.2" gradientUnits="userSpaceOnUse" gradientTransform="matrix(8.670628698259051 0.0 0.0 8.670628698259051 0.0 0.0)" spreadMethod="pad" x1="107.48754357796727" y1="49.97352006981254" x2="108.99299745928934" y2="41.43458508737557"><stop offset="0.0" stop-color="#f3f3f3"/><stop offset="0.48" stop-color="#f3f3f3"/><stop offset="0.48000002" stop-color="#3d3d3d"/><stop offset="1.0" stop-color="#000000"/></linearGradient></defs><path fill="url(#p.2)" d="m738.83856 364.89252l0 0c0 -3.795044 3.076538 -6.871521 6.871521 -6.871521l185.40656 0c1.8224487 0 3.5702515 0.7239685 4.8589478 2.0126343c1.2886353 1.2886658 2.0125732 3.036438 2.0125732 4.8588867l0 27.48529c0 3.795044 -3.076477 6.871521 -6.871521 6.871521l-185.40656 0c-3.794983 0 -6.871521 -3.076477 -6.871521 -6.871521z" fill-rule="evenodd"/><defs><linearGradient id="p.3" gradientUnits="userSpaceOnUse" gradientTransform="matrix(8.670629862753868 0.0 0.0 8.670629862753868 0.0 0.0)" spreadMethod="pad" x1="107.48752914202784" y1="33.168960568262804" x2="108.99298282116237" y2="24.630024367724737"><stop offset="0.0" stop-color="#f3f3f3"/><stop offset="0.48" stop-color="#f3f3f3"/><stop offset="0.48000002" stop-color="#3d3d3d"/><stop offset="1.0" stop-color="#000000"/></linearGradient></defs><path fill="url(#p.3)" d="m738.83856 219.1865l0 0c0 -3.795044 3.076538 -6.8715363 6.871521 -6.8715363l185.40656 0c1.8224487 0 3.5702515 0.7239685 4.8589478 2.0126343c1.2886353 1.2886505 2.0125732 3.0364532 2.0125732 4.858902l0 27.48529c0 3.7950287 -3.076477 6.871521 -6.871521 6.871521l-185.40656 0c-3.794983 0 -6.871521 -3.0764923 -6.871521 -6.871521z" fill-rule="evenodd"/><path fill="#000000" fill-opacity="0.0" d="m773.96857 147.27428c0 -23.010635 -29.57483 -34.517334 -59.149597 -46.02127c-29.57483 -11.503937 -59.149597 -23.005112 -59.149597 -46.010223" fill-rule="evenodd"/><path stroke="#000000" stroke-width="2.0" stroke-linejoin="round" stroke-linecap="butt" d="m773.96857 147.27428c0 -23.010628 -29.574768 -34.517334 -59.149597 -46.02127c-14.787415 -5.7519684 -29.57483 -11.50325 -40.665405 -18.69217c-5.545227 -3.5944672 -10.166321 -7.54834 -13.401062 -12.04142c-0.8087158 -1.1232681 -1.5307007 -2.2802353 -2.1589355 -3.4737167l-0.07513428 -0.1460495" fill-rule="evenodd"/><path fill="#000000" stroke="#000000" stroke-width="2.0" stroke-linecap="butt" d="m661.7275 66.11532l-5.3639526 -8.032337l-1.0540771 9.600994z" fill-rule="evenodd"/><path fill="#000000" fill-opacity="0.0" d="m816.9319 147.27428c0 -23.010635 -0.43310547 -34.517334 -0.8661499 -46.02127c-0.43310547 -11.503937 -0.8661499 -23.005112 -0.8661499 -46.010223" fill-rule="evenodd"/><path stroke="#000000" stroke-width="2.0" stroke-linejoin="round" stroke-linecap="butt" d="m816.9318 147.27428c0 -23.010628 -0.43304443 -34.517334 -0.8661499 -46.02127c-0.2164917 -5.7519684 -0.43304443 -11.50325 -0.595459 -18.69217c-0.08117676 -3.5944672 -0.14886475 -7.54834 -0.19628906 -12.04142l-0.029724121 -3.2767181" fill-rule="evenodd"/><path fill="#000000" stroke="#000000" stroke-width="2.0" stroke-linecap="butt" d="m818.5476 67.230415l-3.3371582 -9.06385l-3.2697144 9.088417z" fill-rule="evenodd"/><path fill="#000000" fill-opacity="0.0" d="m859.89514 147.27428c0 -23.010635 19.283508 -34.517334 38.566956 -46.02127c19.283447 -11.503937 38.566956 -23.005112 38.566956 -46.010223" fill-rule="evenodd"/><path stroke="#000000" stroke-width="2.0" stroke-linejoin="round" stroke-linecap="butt" d="m859.8952 147.27428c0 -23.010628 19.283447 -34.517334 38.566895 -46.02127c9.641724 -5.7519684 19.283447 -11.50325 26.51477 -18.69217c3.6156616 -3.5944672 6.628723 -7.54834 8.737854 -12.04142c0.26361084 -0.56163025 0.51312256 -1.131691 0.74798584 -1.7105255c0.117370605 -0.28942108 0.2310791 -0.5810318 0.34100342 -0.87488556c0.05505371 -0.14691925 0.10913086 -0.29440308 0.16217041 -0.44245148l0.1416626 -0.40361023" fill-rule="evenodd"/><path fill="#000000" stroke="#000000" stroke-width="2.0" stroke-linecap="butt" d="m938.36835 67.61691l-1.8074951 -9.488052l-4.7141724 8.430107z" fill-rule="evenodd"/><path fill="#000000" fill-opacity="0.0" d="m902.85846 147.27428c0 -23.010635 38.992126 -34.517334 77.98425 -46.02127c38.992126 -11.503937 77.984314 -23.005112 77.984314 -46.010223" fill-rule="evenodd"/><path stroke="#000000" stroke-width="2.0" stroke-linejoin="round" stroke-linecap="butt" d="m902.8585 147.27428c0 -23.010628 38.992126 -34.517334 77.98425 -46.02127c19.496033 -5.7519684 38.992126 -11.50325 53.614136 -18.69217c7.311035 -3.5944672 13.403564 -7.54834 17.668335 -12.04142c1.0661621 -1.1232681 2.0181885 -2.2802353 2.8464355 -3.4737167l0.24365234 -0.35932922" fill-rule="evenodd"/><path fill="#000000" stroke="#000000" stroke-width="2.0" stroke-linecap="butt" d="m1058.3656 67.680626l-0.4185791 -9.649609l-5.881958 7.6610985z" fill-rule="evenodd"/><path fill="#000000" fill-opacity="0.0" d="m815.1877 55.230972c0 23.007416 -127.64569 34.510887 -255.29138 46.014824c-127.64563 11.503937 -255.29132 23.008339 -255.29132 46.01667" fill-rule="evenodd"/><path stroke="#ff0000" stroke-width="3.0" stroke-linejoin="round" stroke-linecap="butt" stroke-dasharray="12.0,9.0" d="m815.1877 55.230972c0 23.007416 -127.64569 34.510887 -255.29138 46.014824c-127.64563 11.503937 -255.29132 23.008339 -255.29132 46.01667" fill-rule="evenodd"/><path fill="#000000" fill-opacity="0.0" d="m937.01447 55.230972c0 23.007416 -127.64569 34.510887 -255.29138 46.014824c-127.64563 11.503937 -255.29132 23.008339 -255.29132 46.01667" fill-rule="evenodd"/><path stroke="#ff0000" stroke-width="3.0" stroke-linejoin="round" stroke-linecap="butt" stroke-dasharray="12.0,9.0" d="m937.01447 55.230972c0 23.007416 -127.64569 34.510887 -255.29138 46.014824c-127.64563 11.503937 -255.29132 23.008339 -255.29132 46.01667" fill-rule="evenodd"/><path fill="#000000" fill-opacity="0.0" d="m1058.8412 55.230972c0 23.007416 -127.64563 34.510887 -255.29132 46.014824c-127.64569 11.503937 -255.29132 23.008339 -255.29132 46.01667" fill-rule="evenodd"/><path stroke="#ff0000" stroke-width="3.0" stroke-linejoin="round" stroke-linecap="butt" stroke-dasharray="12.0,9.0" d="m1058.8412 55.230972c0 23.007416 -127.64563 34.510887 -255.29132 46.014824c-127.64569 11.503937 -255.29132 23.008339 -255.29132 46.01667" fill-rule="evenodd"/><path fill="#000000" fill-opacity="0.0" d="m128.05511 55.244095l476.0 0l0 46.866142l-476.0 0z" fill-rule="evenodd"/><path fill="#ff0000" d="m280.0122 79.644714q-0.40625 2.265625 0.265625 3.53125q0.671875 1.25 2.40625 1.25q0.625 0 1.46875 -0.125q0.84375 -0.125 1.9375 -0.546875l0.46875 1.703125q-1.15625 0.4375 -2.203125 0.59375q-1.046875 0.171875 -1.875 0.171875q-1.734375 0 -2.875 -0.8125q-1.125 -0.8125 -1.546875 -2.296875q-0.421875 -1.484375 -0.078125 -3.46875l0.5 -2.953125q0.546875 -3.109375 2.03125 -4.703125q1.484375 -1.609375 4.21875 -1.609375q0.921875 0 1.890625 0.234375q0.96875 0.21875 1.9375 0.703125l-0.703125 1.75q-0.921875 -0.453125 -1.6875 -0.65625q-0.765625 -0.203125 -1.53125 -0.203125q-1.71875 0 -2.734375 1.171875q-1.0 1.15625 -1.390625 3.3125l-0.5 2.953125zm16.280212 -3.203125q-0.53125 0 -1.265625 0.171875q-0.71875 0.171875 -1.546875 0.703125q-0.8125 0.515625 -1.6875 1.578125l-1.234375 7.109375l-1.859375 0l1.984375 -11.21875l1.75 0l-0.359375 2.109375q1.28125 -1.421875 2.453125 -1.875q1.171875 -0.453125 2.078125 -0.453125l-0.3125 1.875zm10.658569 3.71875l-0.171875 1.125q-0.359375 2.40625 -1.71875 3.671875q-1.34375 1.265625 -3.5 1.265625q-1.578125 0 -2.609375 -0.71875q-1.03125 -0.71875 -1.4375 -1.984375q-0.40625 -1.28125 -0.15625 -2.890625l0.171875 -1.15625q0.390625 -2.296875 1.703125 -3.59375q1.328125 -1.3125 3.515625 -1.3125q1.609375 0 2.625 0.75q1.015625 0.734375 1.421875 2.0q0.40625 1.25 0.15625 2.84375zm-1.921875 -0.046875q0.265625 -1.703125 -0.328125 -2.765625q-0.578125 -1.078125 -1.984375 -1.078125q-1.3125 0 -2.171875 0.84375q-0.84375 0.828125 -1.09375 2.359375l-0.171875 1.203125q-0.28125 1.75 0.3125 2.8125q0.609375 1.0625 2.0 1.0625q1.3125 0 2.15625 -0.828125q0.859375 -0.828125 1.09375 -2.4375l0.1875 -1.171875zm7.3023376 4.46875q1.3125 0 1.890625 -0.453125q0.578125 -0.453125 0.578125 -1.1875q0 -0.578125 -0.375 -0.9375q-0.359375 -0.375 -1.21875 -0.6875l-1.078125 -0.4375q-1.15625 -0.421875 -1.734375 -1.140625q-0.578125 -0.734375 -0.578125 -1.84375q0 -0.90625 0.390625 -1.65625q0.390625 -0.75 1.28125 -1.203125q0.890625 -0.46875 2.3125 -0.46875q1.75 0 3.53125 0.8125l-0.59375 1.578125q-0.8125 -0.375 -1.546875 -0.546875q-0.71875 -0.171875 -1.4375 -0.171875q-1.109375 0 -1.59375 0.40625q-0.484375 0.40625 -0.484375 1.109375q0 0.5 0.296875 0.875q0.3125 0.359375 1.0625 0.640625l1.109375 0.40625q1.234375 0.453125 1.875 1.1875q0.640625 0.71875 0.640625 1.875q0 0.890625 -0.4375 1.703125q-0.4375 0.796875 -1.40625 1.296875q-0.953125 0.484375 -2.53125 0.484375q-1.890625 0 -3.78125 -0.828125l0.578125 -1.5625q0.890625 0.375 1.671875 0.5625q0.796875 0.1875 1.578125 0.1875zm9.81012 0q1.3125 0 1.890625 -0.453125q0.578125 -0.453125 0.578125 -1.1875q0 -0.578125 -0.375 -0.9375q-0.359375 -0.375 -1.21875 -0.6875l-1.078125 -0.4375q-1.15625 -0.421875 -1.734375 -1.140625q-0.578125 -0.734375 -0.578125 -1.84375q0 -0.90625 0.390625 -1.65625q0.390625 -0.75 1.28125 -1.203125q0.890625 -0.46875 2.3125 -0.46875q1.75 0 3.53125 0.8125l-0.59375 1.578125q-0.8125 -0.375 -1.546875 -0.546875q-0.71875 -0.171875 -1.4375 -0.171875q-1.109375 0 -1.59375 0.40625q-0.484375 0.40625 -0.484375 1.109375q0 0.5 0.296875 0.875q0.3125 0.359375 1.0625 0.640625l1.109375 0.40625q1.234375 0.453125 1.875 1.1875q0.640625 0.71875 0.640625 1.875q0 0.890625 -0.4375 1.703125q-0.4375 0.796875 -1.40625 1.296875q-0.953125 0.484375 -2.53125 0.484375q-1.890625 0 -3.78125 -0.828125l0.578125 -1.5625q0.890625 0.375 1.671875 0.5625q0.796875 0.1875 1.578125 0.1875zm6.9115906 -4.625l0.28125 -1.640625l6.34375 0l-0.28125 1.640625l-6.34375 0zm16.8031 5.59375q-0.96875 0.359375 -1.875 0.515625q-0.90625 0.15625 -1.734375 0.15625q-1.8125 0 -2.84375 -0.734375q-1.015625 -0.734375 -1.359375 -2.0q-0.34375 -1.265625 -0.09375 -2.859375l0.203125 -1.15625q0.359375 -2.21875 1.703125 -3.5625q1.359375 -1.34375 3.421875 -1.34375q1.015625 0 1.90625 0.359375q0.90625 0.359375 1.4375 1.140625q0.546875 0.765625 0.546875 1.96875q0 0.65625 -0.203125 1.390625q-0.1875 0.734375 -0.703125 1.59375l-6.546875 0q-0.203125 1.5625 0.359375 2.546875q0.578125 0.984375 2.34375 0.984375q0.625 0 1.4375 -0.140625q0.828125 -0.15625 1.703125 -0.4375l0.296875 1.578125zm-2.65625 -9.328125q-1.28125 0 -2.125 0.84375q-0.84375 0.84375 -1.09375 2.375l5.078125 0q0.1875 -0.390625 0.234375 -0.734375q0.0625 -0.34375 0.0625 -0.625q0 -0.953125 -0.609375 -1.40625q-0.609375 -0.453125 -1.546875 -0.453125zm13.003876 0.078125q-0.421875 0 -1.0 0.203125q-0.5625 0.1875 -1.3125 0.71875q-0.734375 0.53125 -1.71875 1.578125l-1.28125 7.203125l-1.859375 0l1.984375 -11.21875l1.75 0l-0.34375 2.0625q1.34375 -1.40625 2.390625 -1.84375q1.0625 -0.4375 1.890625 -0.4375q1.546875 0 2.28125 1.125q0.734375 1.109375 0.421875 2.90625l-1.3125 7.40625l-1.859375 0l1.265625 -7.25q0.453125 -2.453125 -1.296875 -2.453125zm12.030457 9.3125q-1.4375 0.609375 -2.734375 0.609375q-1.15625 0 -1.796875 -0.5q-0.625 -0.515625 -0.8125 -1.328125q-0.171875 -0.8125 -0.015625 -1.75l1.078125 -6.21875l-1.9375 0l0.265625 -1.640625l1.96875 0l0.546875 -3.125l1.859375 0l-0.546875 3.125l3.671875 0l-0.296875 1.640625l-3.671875 0l-1.109375 6.21875q-0.171875 1.046875 0.15625 1.46875q0.34375 0.421875 1.0 0.421875q0.359375 0 0.875 -0.09375q0.515625 -0.109375 1.09375 -0.390625l0.40625 1.5625zm9.982788 -9.171875q-0.53125 0 -1.265625 0.171875q-0.71875 0.171875 -1.546875 0.703125q-0.8125 0.515625 -1.6875 1.578125l-1.234375 7.109375l-1.859375 0l1.984375 -11.21875l1.75 0l-0.359375 2.109375q1.28125 -1.421875 2.453125 -1.875q1.171875 -0.453125 2.078125 -0.453125l-0.3125 1.875zm10.658539 3.71875l-0.171875 1.125q-0.359375 2.40625 -1.71875 3.671875q-1.34375 1.265625 -3.4999695 1.265625q-1.578125 0 -2.609375 -0.71875q-1.03125 -0.71875 -1.4375 -1.984375q-0.40625 -1.28125 -0.15625 -2.890625l0.171875 -1.15625q0.390625 -2.296875 1.703125 -3.59375q1.328125 -1.3125 3.5155945 -1.3125q1.609375 0 2.625 0.75q1.015625 0.734375 1.421875 2.0q0.40625 1.25 0.15625 2.84375zm-1.921875 -0.046875q0.265625 -1.703125 -0.328125 -2.765625q-0.578125 -1.078125 -1.984375 -1.078125q-1.3124695 0 -2.1718445 0.84375q-0.84375 0.828125 -1.09375 2.359375l-0.171875 1.203125q-0.28125 1.75 0.3125 2.8125q0.609375 1.0625 2.0 1.0625q1.3124695 0 2.1562195 -0.828125q0.859375 -0.828125 1.09375 -2.4375l0.1875 -1.171875zm9.067963 6.109375q-0.78125 0 -1.484375 -0.1875q-0.6875 -0.171875 -1.375 -0.484375l-0.921875 5.28125l-1.859375 0l2.84375 -16.046875l1.75 0l-0.359375 2.046875q1.078125 -1.265625 2.046875 -1.765625q0.984375 -0.5 1.84375 -0.5q1.140625 0 1.859375 0.703125q0.734375 0.703125 1.015625 1.921875q0.28125 1.21875 0.046875 2.78125l-0.15625 1.09375q-0.359375 2.46875 -1.703125 3.8125q-1.328125 1.34375 -3.546875 1.34375zm1.96875 -9.953125q-0.703125 0 -1.640625 0.640625q-0.921875 0.625 -2.046875 2.1875l-0.84375 4.796875q1.25 0.65625 2.421875 0.65625q1.546875 0 2.390625 -0.9375q0.84375 -0.9375 1.078125 -2.546875l0.15625 -1.09375q0.25 -1.78125 -0.140625 -2.734375q-0.375 -0.96875 -1.375 -0.96875zm9.086517 10.859375q-0.78125 1.4375 -1.546875 2.296875q-0.75 0.859375 -1.671875 1.234375q-0.90625 0.390625 -2.15625 0.390625l0.3125 -1.828125q0.796875 -0.03125 1.34375 -0.21875q0.546875 -0.171875 1.046875 -0.71875q0.515625 -0.53125 1.125 -1.640625l0.40625 -0.703125l-2.015625 -11.15625l1.84375 0l0.953125 5.46875l0.515625 3.4375l1.703125 -3.4375l2.78125 -5.46875l1.921875 0l-5.953125 11.21875l-0.609375 1.125zm12.476532 -3.953125l2.453125 -13.9375l1.859375 0l-2.453125 13.953125q-0.09375 0.640625 0.03125 0.9375q0.125 0.296875 0.765625 0.296875l0.34375 0l-0.328125 1.6875l-0.375 0q-1.5625 0 -2.046875 -0.828125q-0.46875 -0.828125 -0.25 -2.109375zm15.449982 -3.015625l-0.171875 1.125q-0.359375 2.40625 -1.71875 3.671875q-1.34375 1.265625 -3.5 1.265625q-1.578125 0 -2.609375 -0.71875q-1.03125 -0.71875 -1.4375 -1.984375q-0.40625 -1.28125 -0.15625 -2.890625l0.171875 -1.15625q0.390625 -2.296875 1.703125 -3.59375q1.328125 -1.3125 3.515625 -1.3125q1.609375 0 2.625 0.75q1.015625 0.734375 1.421875 2.0q0.40625 1.25 0.15625 2.84375zm-1.921875 -0.046875q0.265625 -1.703125 -0.328125 -2.765625q-0.578125 -1.078125 -1.984375 -1.078125q-1.3125 0 -2.171875 0.84375q-0.84375 0.828125 -1.09375 2.359375l-0.171875 1.203125q-0.28125 1.75 0.3125 2.8125q0.609375 1.0625 2.0 1.0625q1.3125 0 2.15625 -0.828125q0.859375 -0.828125 1.09375 -2.4375l0.1875 -1.171875zm7.302307 4.46875q1.3125 0 1.890625 -0.453125q0.578125 -0.453125 0.578125 -1.1875q0 -0.578125 -0.375 -0.9375q-0.359375 -0.375 -1.21875 -0.6875l-1.078125 -0.4375q-1.15625 -0.421875 -1.734375 -1.140625q-0.578125 -0.734375 -0.578125 -1.84375q0 -0.90625 0.390625 -1.65625q0.390625 -0.75 1.28125 -1.203125q0.890625 -0.46875 2.3125 -0.46875q1.75 0 3.53125 0.8125l-0.59375 1.578125q-0.8125 -0.375 -1.546875 -0.546875q-0.71875 -0.171875 -1.4375 -0.171875q-1.109375 0 -1.59375 0.40625q-0.484375 0.40625 -0.484375 1.109375q0 0.5 0.296875 0.875q0.3125 0.359375 1.0625 0.640625l1.109375 0.40625q1.234375 0.453125 1.875 1.1875q0.640625 0.71875 0.640625 1.875q0 0.890625 -0.4375 1.703125q-0.4375 0.796875 -1.40625 1.296875q-0.953125 0.484375 -2.53125 0.484375q-1.890625 0 -3.78125 -0.828125l0.578125 -1.5625q0.890625 0.375 1.671875 0.5625q0.796875 0.1875 1.578125 0.1875zm9.81015 0q1.3125 0 1.890625 -0.453125q0.578125 -0.453125 0.578125 -1.1875q0 -0.578125 -0.375 -0.9375q-0.359375 -0.375 -1.21875 -0.6875l-1.078125 -0.4375q-1.15625 -0.421875 -1.734375 -1.140625q-0.578125 -0.734375 -0.578125 -1.84375q0 -0.90625 0.390625 -1.65625q0.390625 -0.75 1.28125 -1.203125q0.890625 -0.46875 2.3125 -0.46875q1.75 0 3.53125 0.8125l-0.59375 1.578125q-0.8125 -0.375 -1.546875 -0.546875q-0.71875 -0.171875 -1.4375 -0.171875q-1.109375 0 -1.59375 0.40625q-0.484375 0.40625 -0.484375 1.109375q0 0.5 0.296875 0.875q0.3125 0.359375 1.0625 0.640625l1.109375 0.40625q1.234375 0.453125 1.875 1.1875q0.640625 0.71875 0.640625 1.875q0 0.890625 -0.4375 1.703125q-0.4375 0.796875 -1.40625 1.296875q-0.953125 0.484375 -2.53125 0.484375q-1.890625 0 -3.78125 -0.828125l0.578125 -1.5625q0.890625 0.375 1.671875 0.5625q0.796875 0.1875 1.578125 0.1875z" fill-rule="nonzero"/><path fill="#000000" fill-opacity="0.0" d="m218.4895 733.6391c0 -15.676514 29.125977 -23.514465 58.251953 -31.353088c29.126007 -7.838562 58.251984 -15.677795 58.251984 -31.35559" fill-rule="evenodd"/><path stroke="#000000" stroke-width="2.0" stroke-linejoin="round" stroke-linecap="butt" d="m218.4895 733.6391c0 -15.676514 29.125977 -23.514526 58.251953 -31.353088c14.563019 -3.9193115 29.126007 -7.838745 40.04825 -12.738098c2.7305603 -1.2248535 5.2335815 -2.5109253 7.4521484 -3.8735352c1.109314 -0.68133545 2.1474915 -1.3817749 3.1074219 -2.1032715c0.480011 -0.3607788 0.9404297 -0.72680664 1.3804016 -1.0982666c0.22000122 -0.18579102 0.4348755 -0.3729248 0.64453125 -0.5614624l0.2645874 -0.24182129" fill-rule="evenodd"/><path fill="#000000" stroke="#000000" stroke-width="2.0" stroke-linecap="butt" d="m332.59515 683.1436l1.0936279 -9.596558l-7.006317 6.6483765z" fill-rule="evenodd"/><path fill="#000000" fill-opacity="0.0" d="m340.31628 733.6391c0 -15.676514 9.409424 -23.514465 18.818878 -31.353088c9.409454 -7.838562 18.818909 -15.677795 18.818909 -31.35559" fill-rule="evenodd"/><path stroke="#000000" stroke-width="2.0" stroke-linejoin="round" stroke-linecap="butt" d="m340.31628 733.6391c0 -15.676514 9.409424 -23.514526 18.818878 -31.353088c4.7047424 -3.9193115 9.409454 -7.838745 12.937988 -12.738098c0.8821411 -1.2248535 1.6907959 -2.5109253 2.4075012 -3.8735352c0.35836792 -0.68133545 0.6937561 -1.3817749 1.0038757 -2.1032715c0.07757568 -0.18041992 0.15350342 -0.36206055 0.22781372 -0.545105l0.11276245 -0.2859497" fill-rule="evenodd"/><path fill="#000000" stroke="#000000" stroke-width="2.0" stroke-linecap="butt" d="m379.07617 683.3262l-1.6408386 -9.518311l-4.8612976 8.34613z" fill-rule="evenodd"/><path fill="#000000" fill-opacity="0.0" d="m499.8293 733.64044c0 -15.67688 -19.724396 -23.515137 -39.448822 -31.353699c-19.724396 -7.838623 -39.448822 -15.67749 -39.448822 -31.35498" fill-rule="evenodd"/><path stroke="#000000" stroke-width="2.0" stroke-linejoin="round" stroke-linecap="butt" d="m499.8293 733.64044c0 -15.67688 -19.724396 -23.515137 -39.448822 -31.353699c-9.862213 -3.9193115 -19.724396 -7.838684 -27.121063 -12.737854c-1.8491516 -1.2248535 -3.54422 -2.5109253 -5.0466614 -3.8734741c-0.7512512 -0.68133545 -1.4543152 -1.3817749 -2.10437 -2.1032715c-0.32504272 -0.36071777 -0.63690186 -0.7267456 -0.934845 -1.0982666l-0.19390869 -0.2454834" fill-rule="evenodd"/><path fill="#000000" stroke="#000000" stroke-width="2.0" stroke-linecap="butt" d="m428.0895 681.114l-6.1715393 -7.4298096l-0.04812622 9.658569z" fill-rule="evenodd"/><path fill="#fff2cc" d="m563.26764 5.4671917l184.81891 0l0 49.76378l-184.81891 0z" fill-rule="evenodd"/><path fill="#000000" d="m598.19305 34.934704l0 2.09375l-10.484375 -4.25l0 -1.3906231l10.484375 -4.1875l0 1.984375l-7.546875 2.828123l7.546875 2.921875zm13.533569 4.0q-1.140625 0.5625 -2.28125 0.765625q-1.140625 0.21875 -2.109375 0.21875q-2.703125 0 -4.03125 -1.546875q-1.328125 -1.546875 -1.328125 -4.21875l0 -1.53125q0 -2.609373 1.328125 -4.171873q1.328125 -1.578125 3.75 -1.578125q1.296875 0 2.375 0.53125q1.078125 0.515625 1.71875 1.5625q0.640625 1.046875 0.640625 2.703125q0 1.0624981 -0.296875 2.421873l-7.46875 0l0 0.0625q0 1.921875 0.796875 2.90625q0.796875 0.984375 2.5625 0.984375q0.8125 0 1.78125 -0.203125q0.984375 -0.203125 1.921875 -0.625l0.640625 1.71875zm-4.671875 -10.234373q-1.46875 0 -2.21875 0.953125q-0.734375 0.953125 -0.8125 2.671873l5.671875 0q0.078125 -0.4531231 0.078125 -0.8593731q0 -1.421875 -0.796875 -2.09375q-0.796875 -0.671875 -1.921875 -0.671875zm14.968506 10.968748l-3.109375 -4.890625l-2.984375 4.890625l-2.203125 0l4.15625 -6.484375l-3.859375 -6.046873l2.3125 0l2.75 4.375l2.71875 -4.375l2.171875 0l-3.828125 5.999998l4.15625 6.53125l-2.28125 0zm11.992615 -0.453125q-1.421875 0.703125 -3.015625 0.703125q-1.375 0 -2.15625 -0.546875q-0.765625 -0.5625 -1.078125 -1.5q-0.3125 -0.9375 -0.3125 -2.078125l0 -6.843748l-2.1875 0l0 -1.8125l2.1875 0l0 -3.5l2.078125 0l0 3.5l4.09375 0l0 1.8125l-4.09375 0l0 6.765623q0 1.3125 0.4375 1.8125q0.4375 0.5 1.375 0.5q0.46875 0 0.953125 -0.109375q0.5 -0.125 1.078125 -0.40625l0.640625 1.703125zm9.312195 -10.265623q-1.140625 0 -2.21875 0.40625q-1.078125 0.40625 -2.28125 1.546875l0 8.765623l-2.078125 0l0 -12.531248l1.96875 0l0 2.015625q1.296875 -1.265625 2.375 -1.765625q1.078125 -0.515625 2.234375 -0.515625l0 2.078125zm11.873535 10.843748q-1.15625 0 -1.859375 -0.53125q-0.6875 -0.53125 -0.96875 -1.3125q-1.25 1.078125 -2.265625 1.53125q-1.0 0.4375 -2.015625 0.4375q-1.640625 0 -2.4375 -1.0625q-0.78125 -1.0625 -0.78125 -2.609375q0 -1.03125 0.375 -1.84375q0.390625 -0.8125 1.296875 -1.28125q0.90625 -0.46875 2.453125 -0.46875q0.6875 0 1.5 0.09375q0.8125 0.078125 1.640625 0.203125l0 -1.6874981q0 -1.421875 -0.625 -1.9375q-0.609375 -0.515625 -1.796875 -0.515625q-1.625 0 -3.625 0.875l-0.65625 -1.71875q1.15625 -0.53125 2.21875 -0.8125q1.0625 -0.28125 2.15625 -0.28125q1.78125 0 2.71875 0.59375q0.9375 0.578125 1.28125 1.546875q0.359375 0.953125 0.359375 2.09375l0 5.421873q0 0.578125 0.21875 0.984375q0.234375 0.390625 0.921875 0.390625l0.28125 0l0 1.890625l-0.390625 0zm-8.28125 -3.5625q0 0.859375 0.40625 1.390625q0.40625 0.53125 1.171875 0.53125q0.65625 0 1.515625 -0.390625q0.859375 -0.40625 2.125 -1.59375l0 -1.59375q-1.71875 -0.28125 -3.03125 -0.28125q-1.171875 0 -1.6875 0.484375q-0.5 0.484375 -0.5 1.453125zm9.882446 7.40625l0 -1.53125l9.625 0l0 1.53125l-9.625 0zm14.19043 -19.578123l-2.328125 0l0 -2.328125l2.328125 0l0 2.328125zm-0.125 15.609373l-2.078125 0l0 -12.531248l2.078125 0l0 12.531248zm12.106873 0l0 -1.75q-1.171875 1.109375 -2.125 1.5625q-0.953125 0.4375 -1.953125 0.4375q-2.0 0 -3.078125 -1.515625q-1.078125 -1.515625 -1.078125 -4.25l0 -1.46875q0 -2.671873 1.328125 -4.234373q1.328125 -1.578125 3.859375 -1.578125q0.734375 0 1.46875 0.15625q0.734375 0.15625 1.46875 0.4375l0 -6.546875l2.078125 0l0 18.749998l-1.96875 0zm-6.078125 -5.515625q0 1.96875 0.609375 2.890625q0.625 0.921875 1.859375 0.921875q0.734375 0 1.515625 -0.359375q0.796875 -0.375 1.984375 -1.53125l0 -6.687498q-0.734375 -0.328125 -1.421875 -0.46875q-0.671875 -0.140625 -1.34375 -0.140625q-1.71875 0 -2.46875 1.046875q-0.734375 1.03125 -0.734375 2.859373l0 1.46875zm9.894226 9.484375l0 -1.53125l9.625 0l0 1.53125l-9.625 0zm22.232056 -14.484373l0 3.781248q0 3.4375 -1.546875 5.21875q-1.53125 1.765625 -4.296875 1.765625q-2.765625 0 -4.296875 -1.765625q-1.53125 -1.78125 -1.53125 -5.21875l0 -3.781248q0 -3.421875 1.546875 -5.1875q1.546875 -1.765625 4.28125 -1.765625q2.765625 0 4.296875 1.765625q1.546875 1.765625 1.546875 5.1875zm-2.21875 0q0 -2.625 -0.953125 -3.78125q-0.953125 -1.171875 -2.671875 -1.171875q-1.703125 0 -2.65625 1.171875q-0.9375 1.15625 -0.9375 3.78125l0 3.781248q0 2.609375 0.9375 3.8125q0.953125 1.203125 2.65625 1.203125q1.71875 0 2.671875 -1.203125q0.953125 -1.203125 0.953125 -3.8125l0 -3.781248zm16.838684 3.703123l-10.484375 4.171875l0 -2.0l7.546875 -2.828125l-7.546875 -2.921873l0 -2.078125l10.484375 4.265625l0 1.3906231z" fill-rule="nonzero"/><path fill="#c9daf8" d="m760.46326 5.4671917l109.44879 0l0 49.76378l-109.44879 0z" fill-rule="evenodd"/><path fill="#000000" d="m820.3349 39.79408q-1.15625 0 -1.859375 -0.53125q-0.6875 -0.53125 -0.96875 -1.3125q-1.25 1.078125 -2.265625 1.53125q-1.0 0.4375 -2.015625 0.4375q-1.640625 0 -2.4375 -1.0625q-0.78125 -1.0625 -0.78125 -2.609375q0 -1.03125 0.375 -1.84375q0.390625 -0.8125 1.296875 -1.28125q0.90625 -0.46875 2.453125 -0.46875q0.6875 0 1.5 0.09375q0.8125 0.078125 1.640625 0.203125l0 -1.6874981q0 -1.421875 -0.625 -1.9375q-0.609375 -0.515625 -1.796875 -0.515625q-1.625 0 -3.625 0.875l-0.65625 -1.71875q1.15625 -0.53125 2.21875 -0.8125q1.0625 -0.28125 2.15625 -0.28125q1.78125 0 2.71875 0.59375q0.9375 0.578125 1.28125 1.546875q0.359375 0.953125 0.359375 2.09375l0 5.421873q0 0.578125 0.21875 0.984375q0.234375 0.390625 0.921875 0.390625l0.28125 0l0 1.890625l-0.390625 0zm-8.28125 -3.5625q0 0.859375 0.40625 1.390625q0.40625 0.53125 1.171875 0.53125q0.65625 0 1.515625 -0.390625q0.859375 -0.40625 2.125 -1.59375l0 -1.59375q-1.71875 -0.28125 -3.03125 -0.28125q-1.171875 0 -1.6875 0.484375q-0.5 0.484375 -0.5 1.453125z" fill-rule="nonzero"/><path fill="#c9daf8" d="m882.29004 5.4671917l109.44879 0l0 49.76378l-109.44879 0z" fill-rule="evenodd"/><path fill="#000000" d="m922.7097 28.82533q-0.703125 0 -1.65625 0.359375q-0.953125 0.359375 -2.28125 1.4375l0 9.046873l-2.078125 0l0 -12.531248l1.96875 0l0 1.734375q1.34375 -1.125 2.4375 -1.5625q1.109375 -0.4375 2.125 -0.4375q1.75 0 2.671875 1.109375q0.921875 1.09375 0.921875 3.125l0 8.562498l-2.078125 0l0 -8.249998q0 -2.59375 -2.03125 -2.59375zm10.649841 -4.765625l-2.328125 0l0 -2.328125l2.328125 0l0 2.328125zm-0.125 15.609373l-2.078125 0l0 -12.531248l2.078125 0l0 12.531248zm5.9506226 -7.015625l0 1.5q0 1.921875 0.703125 2.90625q0.703125 0.96875 2.25 0.96875q1.53125 0 3.265625 -0.796875l0.640625 1.75q-2.078125 0.9375 -4.03125 0.9375q-2.421875 0 -3.6875 -1.546875q-1.265625 -1.546875 -1.265625 -4.21875l0 -1.5q0 -2.687498 1.265625 -4.234373q1.265625 -1.546875 3.6875 -1.546875q0.921875 0 1.890625 0.25q0.96875 0.234375 1.96875 0.671875l-0.640625 1.765625q-0.828125 -0.34375 -1.609375 -0.546875q-0.765625 -0.203125 -1.484375 -0.203125q-1.546875 0 -2.25 0.96875q-0.703125 0.96875 -0.703125 2.874998zm18.946716 6.28125q-1.140625 0.5625 -2.28125 0.765625q-1.140625 0.21875 -2.109375 0.21875q-2.703125 0 -4.03125 -1.546875q-1.328125 -1.546875 -1.328125 -4.21875l0 -1.53125q0 -2.609373 1.328125 -4.171873q1.328125 -1.578125 3.75 -1.578125q1.296875 0 2.375 0.53125q1.078125 0.515625 1.71875 1.5625q0.640625 1.046875 0.640625 2.703125q0 1.0624981 -0.296875 2.421873l-7.46875 0l0 0.0625q0 1.921875 0.796875 2.90625q0.796875 0.984375 2.5625 0.984375q0.8125 0 1.78125 -0.203125q0.984375 -0.203125 1.921875 -0.625l0.640625 1.71875zm-4.671875 -10.234373q-1.46875 0 -2.21875 0.953125q-0.734375 0.953125 -0.8125 2.671873l5.671875 0q0.078125 -0.4531231 0.078125 -0.8593731q0 -1.421875 -0.796875 -2.09375q-0.796875 -0.671875 -1.921875 -0.671875z" fill-rule="nonzero"/><path fill="#c9daf8" d="m1004.1168 5.4671917l109.44885 0l0 49.76378l-109.44885 0z" fill-rule="evenodd"/><path fill="#000000" d="m1040.0546 39.215954q-1.421875 0.703125 -3.015625 0.703125q-1.375 0 -2.15625 -0.546875q-0.765625 -0.5625 -1.078125 -1.5q-0.3125 -0.9375 -0.3125 -2.078125l0 -6.843748l-2.1875 0l0 -1.8125l2.1875 0l0 -3.5l2.078125 0l0 3.5l4.09375 0l0 1.8125l-4.09375 0l0 6.765623q0 1.3125 0.4375 1.8125q0.4375 0.5 1.375 0.5q0.46875 0 0.953125 -0.109375q0.5 -0.125 1.078125 -0.40625l0.640625 1.703125zm12.656006 -6.59375l0 1.53125q0 2.671875 -1.390625 4.21875q-1.375 1.546875 -3.921875 1.546875q-2.53125 0 -3.9375 -1.546875q-1.390625 -1.546875 -1.390625 -4.21875l0 -1.53125q0 -2.624998 1.375 -4.187498q1.390625 -1.5625 3.953125 -1.5625q2.546875 0 3.921875 1.5625q1.390625 1.5625 1.390625 4.187498zm-2.15625 0q0 -1.7968731 -0.8125 -2.812498q-0.796875 -1.03125 -2.34375 -1.03125q-1.53125 0 -2.359375 1.03125q-0.8125 1.015625 -0.8125 2.812498l0 1.53125q0 1.875 0.8125 2.890625q0.828125 1.0 2.359375 1.0q1.546875 0 2.34375 -1.0q0.8125 -1.015625 0.8125 -2.890625l0 -1.53125zm20.944946 -5.484373l-3.203125 12.531248l-2.40625 0l-2.640625 -10.281248l-2.71875 10.281248l-2.40625 0l-3.1875 -12.531248l2.125 0l1.265625 5.234373l1.140625 5.1875l2.71875 -10.421873l2.203125 0l2.703125 10.484373l1.125 -5.21875l1.234375 -5.265623l2.046875 0zm9.041138 1.6875q-0.703125 0 -1.65625 0.359375q-0.953125 0.359375 -2.28125 1.4375l0 9.046873l-2.078125 0l0 -12.531248l1.96875 0l0 1.734375q1.34375 -1.125 2.4375 -1.5625q1.109375 -0.4375 2.125 -0.4375q1.75 0 2.671875 1.109375q0.921875 1.09375 0.921875 3.125l0 8.562498l-2.078125 0l0 -8.249998q0 -2.59375 -2.03125 -2.59375z" fill-rule="nonzero"/><path fill="#d9ead3" d="m248.06299 467.9059l0 0c0 -21.984558 17.822021 -39.80655 39.80658 -39.80655l180.19788 0c10.557373 0 20.682312 4.193878 28.147491 11.659058c7.4651794 7.4651794 11.659088 17.590149 11.659088 28.147491l0 159.22153c0 21.984558 -17.822021 39.80658 -39.80658 39.80658l-180.19788 0c-21.984558 0 -39.80658 -17.822021 -39.80658 -39.80658z" fill-rule="evenodd"/><path fill="#000000" d="m281.03442 456.7898l0 2.046875l-9.625 0l0 -17.21875l9.375 0l0 2.078125l-7.171875 0l0 5.390625l6.40625 0l0 2.078125l-6.40625 0l0 5.625l7.421875 0zm9.386749 -8.796875q-0.703125 0 -1.65625 0.359375q-0.953125 0.359375 -2.28125 1.4375l0 9.046875l-2.078125 0l0 -12.53125l1.96875 0l0 1.734375q1.34375 -1.125 2.4375 -1.5625q1.109375 -0.4375 2.125 -0.4375q1.75 0 2.671875 1.109375q0.921875 1.09375 0.921875 3.125l0 8.5625l-2.078125 0l0 -8.25q0 -2.59375 -2.03125 -2.59375zm9.915497 3.828125l0 1.5q0 1.921875 0.703125 2.90625q0.703125 0.96875 2.25 0.96875q1.53125 0 3.265625 -0.796875l0.640625 1.75q-2.078125 0.9375 -4.03125 0.9375q-2.421875 0 -3.6875 -1.546875q-1.265625 -1.546875 -1.265625 -4.21875l0 -1.5q0 -2.6875 1.265625 -4.234375q1.265625 -1.546875 3.6875 -1.546875q0.921875 0 1.890625 0.25q0.96875 0.234375 1.96875 0.671875l-0.640625 1.765625q-0.828125 -0.34375 -1.609375 -0.546875q-0.765625 -0.203125 -1.484375 -0.203125q-1.546875 0 -2.25 0.96875q-0.703125 0.96875 -0.703125 2.875zm19.77481 -0.03125l0 1.53125q0 2.671875 -1.390625 4.21875q-1.375 1.546875 -3.921875 1.546875q-2.53125 0 -3.9375 -1.546875q-1.390625 -1.546875 -1.390625 -4.21875l0 -1.53125q0 -2.625 1.375 -4.1875q1.390625 -1.5625 3.953125 -1.5625q2.546875 0 3.921875 1.5625q1.390625 1.5625 1.390625 4.1875zm-2.15625 0q0 -1.796875 -0.8125 -2.8125q-0.796875 -1.03125 -2.34375 -1.03125q-1.53125 0 -2.359375 1.03125q-0.8125 1.015625 -0.8125 2.8125l0 1.53125q0 1.875 0.8125 2.890625q0.828125 1.0 2.359375 1.0q1.546875 0 2.34375 -1.0q0.8125 -1.015625 0.8125 -2.890625l0 -1.53125zm13.56192 7.046875l0 -1.75q-1.171875 1.109375 -2.125 1.5625q-0.953125 0.4375 -1.953125 0.4375q-2.0 0 -3.078125 -1.515625q-1.078125 -1.515625 -1.078125 -4.25l0 -1.46875q0 -2.671875 1.328125 -4.234375q1.328125 -1.578125 3.859375 -1.578125q0.734375 0 1.46875 0.15625q0.734375 0.15625 1.46875 0.4375l0 -6.546875l2.078125 0l0 18.75l-1.96875 0zm-6.078125 -5.515625q0 1.96875 0.609375 2.890625q0.625 0.921875 1.859375 0.921875q0.734375 0 1.515625 -0.359375q0.796875 -0.375 1.984375 -1.53125l0 -6.6875q-0.734375 -0.328125 -1.421875 -0.46875q-0.671875 -0.140625 -1.34375 -0.140625q-1.71875 0 -2.46875 1.046875q-0.734375 1.03125 -0.734375 2.859375l0 1.46875zm21.629333 4.78125q-1.140625 0.5625 -2.28125 0.765625q-1.140625 0.21875 -2.109375 0.21875q-2.703125 0 -4.03125 -1.546875q-1.328125 -1.546875 -1.328125 -4.21875l0 -1.53125q0 -2.609375 1.328125 -4.171875q1.328125 -1.578125 3.75 -1.578125q1.296875 0 2.375 0.53125q1.078125 0.515625 1.71875 1.5625q0.640625 1.046875 0.640625 2.703125q0 1.0625 -0.296875 2.421875l-7.46875 0l0 0.0625q0 1.921875 0.796875 2.90625q0.796875 0.984375 2.5625 0.984375q0.8125 0 1.78125 -0.203125q0.984375 -0.203125 1.921875 -0.625l0.640625 1.71875zm-4.671875 -10.234375q-1.46875 0 -2.21875 0.953125q-0.734375 0.953125 -0.8125 2.671875l5.671875 0q0.078125 -0.453125 0.078125 -0.859375q0 -1.421875 -0.796875 -2.09375q-0.796875 -0.671875 -1.921875 -0.671875zm14.921631 0.25q-1.140625 0 -2.21875 0.40625q-1.078125 0.40625 -2.28125 1.546875l0 8.765625l-2.078125 0l0 -12.53125l1.96875 0l0 2.015625q1.296875 -1.265625 2.375 -1.765625q1.078125 -0.515625 2.234375 -0.515625l0 2.078125z" fill-rule="nonzero"/><path fill="#f3f3f3" d="m278.38977 591.5395l0 0c0 -3.795044 3.076477 -6.871521 6.871521 -6.871521l185.40656 0c1.8224487 0 3.5702515 0.723999 4.8588867 2.0126343c1.2886658 1.2886353 2.0126343 3.036438 2.0126343 4.8588867l0 27.48529c0 3.795044 -3.076477 6.871521 -6.871521 6.871521l-185.40656 0c-3.795044 0 -6.871521 -3.076477 -6.871521 -6.871521z" fill-rule="evenodd"/><path fill="#f3f3f3" d="m278.3924 536.48175l0 0c0 -3.795044 3.076477 -6.871521 6.871521 -6.871521l185.40656 0c1.8224487 0 3.5702515 0.723999 4.8588867 2.0126343c1.2886658 1.2886353 2.0126343 3.036438 2.0126343 4.8588867l0 27.48529c0 3.795044 -3.076477 6.871521 -6.871521 6.871521l-185.40656 0c-3.795044 0 -6.871521 -3.076477 -6.871521 -6.871521z" fill-rule="evenodd"/><path fill="#f3f3f3" d="m278.3924 481.424l0 0c0 -3.795044 3.076477 -6.871521 6.871521 -6.871521l185.40656 0c1.8224487 0 3.5702515 0.7239685 4.8588867 2.0126343c1.2886658 1.2886658 2.0126343 3.0364685 2.0126343 4.8588867l0 27.48529c0 3.795044 -3.076477 6.871521 -6.871521 6.871521l-185.40656 0c-3.795044 0 -6.871521 -3.076477 -6.871521 -6.871521z" fill-rule="evenodd"/><path fill="#000000" fill-opacity="0.0" d="m286.73358 660.4134l10.614197 0l0 10.519653l-10.614197 0z" fill-rule="evenodd"/><path fill="#000000" fill-opacity="0.0" d="m329.6969 660.4134l10.614166 0l0 10.519653l-10.614166 0z" fill-rule="evenodd"/><path fill="#000000" fill-opacity="0.0" d="m372.66022 660.4134l10.614166 0l0 10.519653l-10.614166 0z" fill-rule="evenodd"/><path fill="#000000" fill-opacity="0.0" d="m415.6235 660.4134l10.614197 0l0 10.519653l-10.614197 0z" fill-rule="evenodd"/><path fill="#000000" fill-opacity="0.0" d="m736.26135 664.37665l10.614197 0l0 10.519653l-10.614197 0z" fill-rule="evenodd"/><path fill="#000000" fill-opacity="0.0" d="m624.21655 113.94357l10.614136 0l0 10.519684l-10.614136 0z" fill-rule="evenodd"/><path fill="#000000" fill-opacity="0.0" d="m796.06976 113.94357l10.614197 0l0 10.519684l-10.614197 0z" fill-rule="evenodd"/><path fill="#000000" fill-opacity="0.0" d="m903.6995 628.1562l10.614197 0l0 10.519653l-10.614197 0z" fill-rule="evenodd"/><path fill="#000000" fill-opacity="0.0" d="m946.66284 628.1562l10.614136 0l0 10.519653l-10.614136 0z" fill-rule="evenodd"/><path fill="#000000" fill-opacity="0.0" d="m989.62616 628.1562l10.614136 0l0 10.519653l-10.614136 0z" fill-rule="evenodd"/><path fill="#000000" fill-opacity="0.0" d="m790.14307 393.4357l10.614197 0l0 10.519684l-10.614197 0z" fill-rule="evenodd"/><path fill="#000000" fill-opacity="0.0" d="m833.1064 393.4357l10.614197 0l0 10.519684l-10.614197 0z" fill-rule="evenodd"/><path fill="#000000" fill-opacity="0.0" d="m876.0697 393.4357l10.614197 0l0 10.519684l-10.614197 0z" fill-rule="evenodd"/><path fill="#000000" fill-opacity="0.0" d="m377.9685 428.09937c0 -12.4999695 69.286804 -24.893372 122.69443 -24.999908c53.407623 -0.10656738 90.93613 12.07373 122.69443 24.200745c31.7583 12.126984 57.74652 24.200714 115.49304 24.200714" fill-rule="evenodd"/><path stroke="#000000" stroke-width="2.0" stroke-linejoin="round" stroke-linecap="butt" d="m377.9685 428.09937c0 -12.4999695 69.28677 -24.893372 122.69443 -24.999908c53.407623 -0.106536865 90.93613 12.07373 122.69443 24.200745c15.879211 6.0634766 30.315796 12.113678 48.000977 16.64801c8.842529 2.2671204 18.497253 4.1553345 29.550476 5.4767456c5.5266113 0.66067505 11.402893 1.179657 17.702026 1.5335083c1.5747681 0.08843994 3.1759644 0.16656494 4.8048706 0.2340393c0.81433105 0.033721924 1.6356201 0.0647583 2.4639893 0.09307861l0.97210693 0.03152466" fill-rule="evenodd"/><path fill="#000000" stroke="#000000" stroke-width="2.0" stroke-linecap="butt" d="m726.8012 454.62018l9.125732 -3.164032l-9.024536 -3.4421082z" fill-rule="evenodd"/><path fill="#c9daf8" d="m882.18243 610.65094l109.44879 0l0 49.763733l-109.44879 0z" fill-rule="evenodd"/><path fill="#000000" d="m942.0541 644.9778q-1.15625 0 -1.859375 -0.53125q-0.6875 -0.53125 -0.96875 -1.3125q-1.25 1.078125 -2.265625 1.53125q-1.0 0.4375 -2.015625 0.4375q-1.640625 0 -2.4375 -1.0625q-0.78125 -1.0625 -0.78125 -2.609375q0 -1.03125 0.375 -1.84375q0.390625 -0.8125 1.296875 -1.28125q0.90625 -0.46875 2.453125 -0.46875q0.6875 0 1.5 0.09375q0.8125 0.078125 1.640625 0.203125l0 -1.6875q0 -1.421875 -0.625 -1.9375q-0.609375 -0.515625 -1.796875 -0.515625q-1.625 0 -3.625 0.875l-0.65625 -1.71875q1.15625 -0.53125 2.21875 -0.8125q1.0625 -0.28125 2.15625 -0.28125q1.78125 0 2.71875 0.59375q0.9375 0.578125 1.28125 1.546875q0.359375 0.953125 0.359375 2.09375l0 5.421875q0 0.578125 0.21875 0.984375q0.234375 0.390625 0.921875 0.390625l0.28125 0l0 1.890625l-0.390625 0zm-8.28125 -3.5625q0 0.859375 0.40625 1.390625q0.40625 0.53125 1.171875 0.53125q0.65625 0 1.515625 -0.390625q0.859375 -0.40625 2.125 -1.59375l0 -1.59375q-1.71875 -0.28125 -3.03125 -0.28125q-1.171875 0 -1.6875 0.484375q-0.5 0.484375 -0.5 1.453125z" fill-rule="nonzero"/><path fill="#c9daf8" d="m1004.0092 610.65094l109.44879 0l0 49.763733l-109.44879 0z" fill-rule="evenodd"/><path fill="#000000" d="m1039.73 637.83716l0 1.5q0 1.921875 0.703125 2.90625q0.703125 0.96875 2.25 0.96875q1.53125 0 3.265625 -0.796875l0.640625 1.75q-2.078125 0.9375 -4.03125 0.9375q-2.421875 0 -3.6875 -1.546875q-1.265625 -1.546875 -1.265625 -4.21875l0 -1.5q0 -2.6875 1.265625 -4.234375q1.265625 -1.546875 3.6875 -1.546875q0.921875 0 1.890625 0.25q0.96875 0.234375 1.96875 0.671875l-0.640625 1.765625q-0.828125 -0.34375 -1.609375 -0.546875q-0.765625 -0.203125 -1.484375 -0.203125q-1.546875 0 -2.25 0.96875q-0.703125 0.96875 -0.703125 2.875zm19.774902 -0.03125l0 1.53125q0 2.671875 -1.390625 4.21875q-1.375 1.546875 -3.921875 1.546875q-2.53125 0 -3.9375 -1.546875q-1.390625 -1.546875 -1.390625 -4.21875l0 -1.53125q0 -2.625 1.375 -4.1875q1.390625 -1.5625 3.953125 -1.5625q2.546875 0 3.921875 1.5625q1.390625 1.5625 1.390625 4.1875zm-2.15625 0q0 -1.796875 -0.8125 -2.8125q-0.796875 -1.03125 -2.34375 -1.03125q-1.53125 0 -2.359375 1.03125q-0.8125 1.015625 -0.8125 2.8125l0 1.53125q0 1.875 0.8125 2.890625q0.828125 1.0 2.359375 1.0q1.546875 0 2.34375 -1.0q0.8125 -1.015625 0.8125 -2.890625l0 -1.53125zm15.858765 0l0 1.53125q0 2.671875 -1.390625 4.21875q-1.375 1.546875 -3.921875 1.546875q-2.53125 0 -3.9375 -1.546875q-1.390625 -1.546875 -1.390625 -4.21875l0 -1.53125q0 -2.625 1.375 -4.1875q1.390625 -1.5625 3.953125 -1.5625q2.546875 0 3.921875 1.5625q1.390625 1.5625 1.390625 4.1875zm-2.15625 0q0 -1.796875 -0.8125 -2.8125q-0.796875 -1.03125 -2.34375 -1.03125q-1.53125 0 -2.359375 1.03125q-0.8125 1.015625 -0.8125 2.8125l0 1.53125q0 1.875 0.8125 2.890625q0.828125 1.0 2.359375 1.0q1.546875 0 2.34375 -1.0q0.8125 -1.015625 0.8125 -2.890625l0 -1.53125zm5.9056396 4.0l0 -15.703125l2.078125 0l0 15.609375q0 0.6875 0.21875 1.03125q0.21875 0.34375 0.875 0.34375l0.40625 0l0 1.890625l-0.59375 0q-1.671875 0 -2.328125 -0.875q-0.65625 -0.890625 -0.65625 -2.296875z" fill-rule="nonzero"/><path fill="#fff2cc" d="m682.51697 609.18634l184.81891 0l0 49.763794l-184.81891 0z" fill-rule="evenodd"/><path fill="#000000" d="m717.4424 638.6539l0 2.09375l-10.484375 -4.25l0 -1.390625l10.484375 -4.1875l0 1.984375l-7.546875 2.828125l7.546875 2.921875zm13.533569 4.0q-1.140625 0.5625 -2.28125 0.765625q-1.140625 0.21875 -2.109375 0.21875q-2.703125 0 -4.03125 -1.546875q-1.328125 -1.546875 -1.328125 -4.21875l0 -1.53125q0 -2.609375 1.328125 -4.171875q1.328125 -1.578125 3.75 -1.578125q1.296875 0 2.375 0.53125q1.078125 0.515625 1.71875 1.5625q0.640625 1.046875 0.640625 2.703125q0 1.0625 -0.296875 2.421875l-7.46875 0l0 0.0625q0 1.921875 0.796875 2.90625q0.796875 0.984375 2.5625 0.984375q0.8125 0 1.78125 -0.203125q0.984375 -0.203125 1.921875 -0.625l0.640625 1.71875zm-4.671875 -10.234375q-1.46875 0 -2.21875 0.953125q-0.734375 0.953125 -0.8125 2.671875l5.671875 0q0.078125 -0.453125 0.078125 -0.859375q0 -1.421875 -0.796875 -2.09375q-0.796875 -0.671875 -1.921875 -0.671875zm14.968567 10.96875l-3.109375 -4.890625l-2.984375 4.890625l-2.203125 0l4.15625 -6.484375l-3.859375 -6.046875l2.3125 0l2.75 4.375l2.71875 -4.375l2.171875 0l-3.828125 6.0l4.15625 6.53125l-2.28125 0zm11.992554 -0.453125q-1.421875 0.703125 -3.015625 0.703125q-1.375 0 -2.15625 -0.546875q-0.765625 -0.5625 -1.078125 -1.5q-0.3125 -0.9375 -0.3125 -2.078125l0 -6.84375l-2.1875 0l0 -1.8125l2.1875 0l0 -3.5l2.078125 0l0 3.5l4.09375 0l0 1.8125l-4.09375 0l0 6.765625q0 1.3125 0.4375 1.8125q0.4375 0.5 1.375 0.5q0.46875 0 0.953125 -0.109375q0.5 -0.125 1.078125 -0.40625l0.640625 1.703125zm9.312195 -10.265625q-1.140625 0 -2.21875 0.40625q-1.078125 0.40625 -2.28125 1.546875l0 8.765625l-2.078125 0l0 -12.53125l1.96875 0l0 2.015625q1.296875 -1.265625 2.375 -1.765625q1.078125 -0.515625 2.234375 -0.515625l0 2.078125zm11.873535 10.84375q-1.15625 0 -1.859375 -0.53125q-0.6875 -0.53125 -0.96875 -1.3125q-1.25 1.078125 -2.265625 1.53125q-1.0 0.4375 -2.015625 0.4375q-1.640625 0 -2.4375 -1.0625q-0.78125 -1.0625 -0.78125 -2.609375q0 -1.03125 0.375 -1.84375q0.390625 -0.8125 1.296875 -1.28125q0.90625 -0.46875 2.453125 -0.46875q0.6875 0 1.5 0.09375q0.8125 0.078125 1.640625 0.203125l0 -1.6875q0 -1.421875 -0.625 -1.9375q-0.609375 -0.515625 -1.796875 -0.515625q-1.625 0 -3.625 0.875l-0.65625 -1.71875q1.15625 -0.53125 2.21875 -0.8125q1.0625 -0.28125 2.15625 -0.28125q1.78125 0 2.71875 0.59375q0.9375 0.578125 1.28125 1.546875q0.359375 0.953125 0.359375 2.09375l0 5.421875q0 0.578125 0.21875 0.984375q0.234375 0.390625 0.921875 0.390625l0.28125 0l0 1.890625l-0.390625 0zm-8.28125 -3.5625q0 0.859375 0.40625 1.390625q0.40625 0.53125 1.171875 0.53125q0.65625 0 1.515625 -0.390625q0.859375 -0.40625 2.125 -1.59375l0 -1.59375q-1.71875 -0.28125 -3.03125 -0.28125q-1.171875 0 -1.6875 0.484375q-0.5 0.484375 -0.5 1.453125zm9.882446 7.40625l0 -1.53125l9.625 0l0 1.53125l-9.625 0zm14.190491 -19.578125l-2.328125 0l0 -2.328125l2.328125 0l0 2.328125zm-0.125 15.609375l-2.078125 0l0 -12.53125l2.078125 0l0 12.53125zm12.106873 0l0 -1.75q-1.171875 1.109375 -2.125 1.5625q-0.953125 0.4375 -1.953125 0.4375q-2.0 0 -3.078125 -1.515625q-1.078125 -1.515625 -1.078125 -4.25l0 -1.46875q0 -2.671875 1.328125 -4.234375q1.328125 -1.578125 3.859375 -1.578125q0.734375 0 1.46875 0.15625q0.734375 0.15625 1.46875 0.4375l0 -6.546875l2.078125 0l0 18.75l-1.96875 0zm-6.078125 -5.515625q0 1.96875 0.609375 2.890625q0.625 0.921875 1.859375 0.921875q0.734375 0 1.515625 -0.359375q0.796875 -0.375 1.984375 -1.53125l0 -6.6875q-0.734375 -0.328125 -1.421875 -0.46875q-0.671875 -0.140625 -1.34375 -0.140625q-1.71875 0 -2.46875 1.046875q-0.734375 1.03125 -0.734375 2.859375l0 1.46875zm9.894165 9.484375l0 -1.53125l9.625 0l0 1.53125l-9.625 0zm22.232056 -14.484375l0 3.78125q0 3.4375 -1.546875 5.21875q-1.53125 1.765625 -4.296875 1.765625q-2.765625 0 -4.296875 -1.765625q-1.53125 -1.78125 -1.53125 -5.21875l0 -3.78125q0 -3.421875 1.546875 -5.1875q1.546875 -1.765625 4.28125 -1.765625q2.765625 0 4.296875 1.765625q1.546875 1.765625 1.546875 5.1875zm-2.21875 0q0 -2.625 -0.953125 -3.78125q-0.953125 -1.171875 -2.671875 -1.171875q-1.703125 0 -2.65625 1.171875q-0.9375 1.15625 -0.9375 3.78125l0 3.78125q0 2.609375 0.9375 3.8125q0.953125 1.203125 2.65625 1.203125q1.71875 0 2.671875 -1.203125q0.953125 -1.203125 0.953125 -3.8125l0 -3.78125zm16.838684 3.703125l-10.484375 4.171875l0 -2.0l7.546875 -2.828125l-7.546875 -2.921875l0 -2.078125l10.484375 4.265625l0 1.390625z" fill-rule="nonzero"/><path fill="#d9d9d9" d="m563.3688 609.18634l109.44879 0l0 49.763794l-109.44879 0z" fill-rule="evenodd"/><path fill="#000000" d="m596.58765 638.6539l0 2.09375l-10.484375 -4.25l0 -1.390625l10.484375 -4.1875l0 1.984375l-7.546875 2.828125l7.546875 2.921875zm14.564819 -0.78125q0 2.625 -1.328125 4.203125q-1.3125 1.5625 -3.859375 1.5625q-2.53125 0 -5.015625 -1.34375l0 -17.65625l2.078125 0l0 7.90625q1.140625 -1.0625 2.078125 -1.5q0.953125 -0.453125 1.9375 -0.453125q1.984375 0 3.046875 1.53125q1.0625 1.515625 1.0625 4.28125l0 1.46875zm-4.609375 -5.328125q-0.703125 0 -1.5 0.390625q-0.796875 0.375 -2.015625 1.5625l0 6.640625q1.484375 0.625 2.8125 0.625q1.6875 0 2.421875 -1.046875q0.734375 -1.046875 0.734375 -2.84375l0 -1.46875q0 -1.984375 -0.609375 -2.921875q-0.609375 -0.9375 -1.84375 -0.9375zm18.38739 3.796875l0 1.53125q0 2.671875 -1.390625 4.21875q-1.375 1.546875 -3.921875 1.546875q-2.53125 0 -3.9375 -1.546875q-1.390625 -1.546875 -1.390625 -4.21875l0 -1.53125q0 -2.625 1.375 -4.1875q1.390625 -1.5625 3.953125 -1.5625q2.546875 0 3.921875 1.5625q1.390625 1.5625 1.390625 4.1875zm-2.15625 0q0 -1.796875 -0.8125 -2.8125q-0.796875 -1.03125 -2.34375 -1.03125q-1.53125 0 -2.359375 1.03125q-0.8125 1.015625 -0.8125 2.8125l0 1.53125q0 1.875 0.8125 2.890625q0.828125 1.0 2.359375 1.0q1.546875 0 2.34375 -1.0q0.8125 -1.015625 0.8125 -2.890625l0 -1.53125zm8.999451 5.453125q2.53125 0 2.53125 -1.71875q0 -0.734375 -0.453125 -1.15625q-0.453125 -0.4375 -1.671875 -0.75l-1.390625 -0.359375q-1.546875 -0.375 -2.3125 -1.328125q-0.765625 -0.953125 -0.765625 -2.265625q0 -0.953125 0.4375 -1.78125q0.4375 -0.828125 1.359375 -1.328125q0.9375 -0.515625 2.4375 -0.515625q0.96875 0 1.96875 0.21875q1.0 0.21875 2.03125 0.71875l-0.65625 1.75q-1.84375 -0.828125 -3.34375 -0.828125q-2.203125 0 -2.203125 1.640625q0 0.640625 0.40625 1.09375q0.40625 0.453125 1.515625 0.734375l1.390625 0.34375q1.671875 0.40625 2.453125 1.328125q0.796875 0.90625 0.796875 2.359375q0 1.03125 -0.453125 1.890625q-0.4375 0.84375 -1.421875 1.328125q-0.96875 0.46875 -2.609375 0.46875q-1.09375 0 -2.171875 -0.234375q-1.0625 -0.21875 -2.203125 -0.71875l0.546875 -1.734375q1.09375 0.4375 1.96875 0.640625q0.890625 0.203125 1.8125 0.203125zm18.307068 -5.21875l-10.484375 4.171875l0 -2.0l7.546875 -2.828125l-7.546875 -2.921875l0 -2.078125l10.484375 4.265625l0 1.390625z" fill-rule="nonzero"/><path fill="#000000" fill-opacity="0.0" d="m729.4934 166.87927l109.44885 0l0 50.078735l-109.44885 0z" fill-rule="evenodd"/><path fill="#000000" d="m741.1809 200.19926l0 -17.21875l5.34375 0q2.96875 0 4.5625 1.78125q1.59375 1.78125 1.59375 4.921875l0 3.78125q0 3.15625 -1.59375 4.953125q-1.59375 1.78125 -4.5625 1.78125l-5.34375 0zm5.296875 -15.140625l-3.09375 0l0 13.09375l3.09375 0q3.921875 0 3.921875 -4.6875l0 -3.78125q0 -4.625 -3.921875 -4.625zm19.477783 14.40625q-1.140625 0.5625 -2.28125 0.765625q-1.140625 0.21875 -2.109375 0.21875q-2.703125 0 -4.03125 -1.546875q-1.328125 -1.546875 -1.328125 -4.21875l0 -1.53125q0 -2.609375 1.328125 -4.171875q1.328125 -1.578125 3.75 -1.578125q1.296875 0 2.375 0.53125q1.078125 0.515625 1.71875 1.5625q0.640625 1.046875 0.640625 2.703125q0 1.0625 -0.296875 2.421875l-7.46875 0l0 0.0625q0 1.921875 0.796875 2.90625q0.796875 0.984375 2.5625 0.984375q0.8125 0 1.78125 -0.203125q0.984375 -0.203125 1.921875 -0.625l0.640625 1.71875zm-4.671875 -10.234375q-1.46875 0 -2.21875 0.953125q-0.734375 0.953125 -0.8125 2.671875l5.671875 0q0.078125 -0.453125 0.078125 -0.859375q0 -1.421875 -0.796875 -2.09375q-0.796875 -0.671875 -1.921875 -0.671875zm9.812317 3.953125l0 1.5q0 1.921875 0.703125 2.90625q0.703125 0.96875 2.25 0.96875q1.53125 0 3.265625 -0.796875l0.640625 1.75q-2.078125 0.9375 -4.03125 0.9375q-2.421875 0 -3.6875 -1.546875q-1.265625 -1.546875 -1.265625 -4.21875l0 -1.5q0 -2.6875 1.265625 -4.234375q1.265625 -1.546875 3.6875 -1.546875q0.921875 0 1.890625 0.25q0.96875 0.234375 1.96875 0.671875l-0.640625 1.765625q-0.828125 -0.34375 -1.609375 -0.546875q-0.765625 -0.203125 -1.484375 -0.203125q-1.546875 0 -2.25 0.96875q-0.703125 0.96875 -0.703125 2.875zm19.77478 -0.03125l0 1.53125q0 2.671875 -1.390625 4.21875q-1.375 1.546875 -3.921875 1.546875q-2.53125 0 -3.9375 -1.546875q-1.390625 -1.546875 -1.390625 -4.21875l0 -1.53125q0 -2.625 1.375 -4.1875q1.390625 -1.5625 3.953125 -1.5625q2.546875 0 3.921875 1.5625q1.390625 1.5625 1.390625 4.1875zm-2.15625 0q0 -1.796875 -0.8125 -2.8125q-0.796875 -1.03125 -2.34375 -1.03125q-1.53125 0 -2.359375 1.03125q-0.8125 1.015625 -0.8125 2.8125l0 1.53125q0 1.875 0.8125 2.890625q0.828125 1.0 2.359375 1.0q1.546875 0 2.34375 -1.0q0.8125 -1.015625 0.8125 -2.890625l0 -1.53125zm13.56189 7.046875l0 -1.75q-1.171875 1.109375 -2.125 1.5625q-0.953125 0.4375 -1.953125 0.4375q-2.0 0 -3.078125 -1.515625q-1.078125 -1.515625 -1.078125 -4.25l0 -1.46875q0 -2.671875 1.328125 -4.234375q1.328125 -1.578125 3.859375 -1.578125q0.734375 0 1.46875 0.15625q0.734375 0.15625 1.46875 0.4375l0 -6.546875l2.078125 0l0 18.75l-1.96875 0zm-6.078125 -5.515625q0 1.96875 0.609375 2.890625q0.625 0.921875 1.859375 0.921875q0.734375 0 1.515625 -0.359375q0.796875 -0.375 1.984375 -1.53125l0 -6.6875q-0.734375 -0.328125 -1.421875 -0.46875q-0.671875 -0.140625 -1.34375 -0.140625q-1.71875 0 -2.46875 1.046875q-0.734375 1.03125 -0.734375 2.859375l0 1.46875zm21.629333 4.78125q-1.140625 0.5625 -2.28125 0.765625q-1.140625 0.21875 -2.109375 0.21875q-2.703125 0 -4.03125 -1.546875q-1.328125 -1.546875 -1.328125 -4.21875l0 -1.53125q0 -2.609375 1.328125 -4.171875q1.328125 -1.578125 3.75 -1.578125q1.296875 0 2.375 0.53125q1.078125 0.515625 1.71875 1.5625q0.640625 1.046875 0.640625 2.703125q0 1.0625 -0.296875 2.421875l-7.46875 0l0 0.0625q0 1.921875 0.796875 2.90625q0.796875 0.984375 2.5625 0.984375q0.8125 0 1.78125 -0.203125q0.984375 -0.203125 1.921875 -0.625l0.640625 1.71875zm-4.671875 -10.234375q-1.46875 0 -2.21875 0.953125q-0.734375 0.953125 -0.8125 2.671875l5.671875 0q0.078125 -0.453125 0.078125 -0.859375q0 -1.421875 -0.796875 -2.09375q-0.796875 -0.671875 -1.921875 -0.671875zm14.921692 0.25q-1.140625 0 -2.21875 0.40625q-1.078125 0.40625 -2.28125 1.546875l0 8.765625l-2.078125 0l0 -12.53125l1.96875 0l0 2.015625q1.296875 -1.265625 2.375 -1.765625q1.078125 -0.515625 2.234375 -0.515625l0 2.078125z" fill-rule="nonzero"/><path fill="#f3f3f3" d="m738.83856 292.0382l0 0c0 -3.795044 3.076538 -6.8715515 6.871521 -6.8715515l185.40656 0c1.8224487 0 3.5702515 0.7239685 4.8589478 2.0126343c1.2886353 1.2886658 2.0125732 3.0364685 2.0125732 4.858917l0 27.48529c0 3.7950134 -3.076477 6.871521 -6.871521 6.871521l-185.40656 0c-3.794983 0 -6.871521 -3.0765076 -6.871521 -6.871521z" fill-rule="evenodd"/><path fill="#f3f3f3" d="m738.83856 437.74554l0 0c0 -3.795044 3.076538 -6.871521 6.871521 -6.871521l185.40656 0c1.8224487 0 3.5702515 0.7239685 4.8589478 2.0126038c1.2886353 1.2886658 2.0125732 3.0364685 2.0125732 4.858917l0 27.48529c0 3.795044 -3.076477 6.871521 -6.871521 6.871521l-185.40656 0c-3.794983 0 -6.871521 -3.076477 -6.871521 -6.871521z" fill-rule="evenodd"/><path fill="#000000" fill-opacity="0.0" d="m843.7206 600.42126c0 -5.204712 0.01574707 -7.807068 0.03149414 -10.409424c0.01574707 -2.602417 0.03149414 -5.204773 0.03149414 -10.409485" fill-rule="evenodd"/><path stroke="#000000" stroke-width="2.0" stroke-linejoin="round" stroke-linecap="butt" d="m843.7206 600.42126c0 -2.602356 0.00390625 -4.554138 0.00982666 -6.180603l0.013549805 -2.6383667" fill-rule="evenodd"/><path fill="#000000" stroke="#000000" stroke-width="2.0" stroke-linecap="butt" d="m847.04736 591.6132l-3.2734985 -9.087097l-3.333435 9.065247z" fill-rule="evenodd"/><path fill="#000000" fill-opacity="0.0" d="m377.9685 428.09937c0 -61.165375 180.44092 -122.33072 360.8819 -122.33072" fill-rule="evenodd"/><path stroke="#000000" stroke-width="2.0" stroke-linejoin="round" stroke-linecap="butt" d="m377.9685 428.09937c0 -30.582672 45.11023 -61.165344 112.77557 -84.102356c33.832703 -11.468536 73.30414 -21.025604 115.59497 -27.715576c21.145447 -3.3449707 42.995728 -5.973175 65.198425 -7.7651367c11.101318 -0.8959656 22.290771 -1.5828857 33.524292 -2.045807c5.6168213 -0.23144531 11.244507 -0.4069214 16.877808 -0.5245056c1.4082642 -0.029418945 2.8170166 -0.0552063 4.225891 -0.07733154l0.6852417 -0.009857178" fill-rule="evenodd"/><path fill="#000000" stroke="#000000" stroke-width="2.0" stroke-linecap="butt" d="m726.87555 309.16214l9.051147 -3.3715515l-9.100769 -3.235199z" fill-rule="evenodd"/></g></svg>