<svg version="1.1" viewBox="0.0 0.0 488.13385826771656 472.7795275590551" fill="none" stroke="none" stroke-linecap="square" stroke-miterlimit="10" xmlns:xlink="http://www.w3.org/1999/xlink" xmlns="http://www.w3.org/2000/svg"><clipPath id="p.0"><path d="m0 0l488.13385 0l0 472.77954l-488.13385 0l0 -472.77954z" clip-rule="nonzero"/></clipPath><g clip-path="url(#p.0)"><path fill="#000000" fill-opacity="0.0" d="m0 0l488.13385 0l0 472.77954l-488.13385 0z" fill-rule="evenodd"/><path fill="#a4c2f4" d="m62.553806 306.47244l18.992123 0l0 127.52756l-18.992123 0z" fill-rule="evenodd"/><path fill="#a4c2f4" d="m101.38976 306.47244l18.992126 0l0 127.52756l-18.992126 0z" fill-rule="evenodd"/><path fill="#a4c2f4" d="m140.28477 306.47244l18.992126 0l0 127.52756l-18.992126 0z" fill-rule="evenodd"/><path fill="#a4c2f4" d="m180.58005 306.47244l18.992126 0l0 127.52756l-18.992126 0z" fill-rule="evenodd"/><path fill="#a4c2f4" d="m261.16797 306.47244l18.992126 0l0 127.52756l-18.992126 0z" fill-rule="evenodd"/><path fill="#a4c2f4" d="m220.87401 306.47244l18.992126 0l0 127.52756l-18.992126 0z" fill-rule="evenodd"/><path fill="#a4c2f4" d="m23.839895 306.47244l18.992125 0l0 127.52756l-18.992125 0z" fill-rule="evenodd"/><path fill="#000000" fill-opacity="0.0" d="m83.6063 424.95013l136.78741 0l0 46.86615l-136.78741 0z" fill-rule="evenodd"/><path fill="#000000" d="m127.68016 457.83514l0 2.015625q-2.203125 0 -3.34375 -0.765625q-1.140625 -0.765625 -1.75 -2.421875l-0.25 -0.734375l-0.078125 0q-2.6875 0 -4.125 -1.6875q-1.4375 -1.6875 -1.4375 -4.5625l0 -3.375q0 -2.84375 1.4375 -4.53125q1.4375 -1.6875 4.125 -1.6875q2.703125 0 4.140625 1.6875q1.4375 1.6875 1.4375 4.53125l0 3.375q0 2.3125 -0.9375 3.875q-0.921875 1.5625 -2.703125 2.109375q0.3125 0.890625 0.703125 1.34375q0.40625 0.46875 1.046875 0.640625q0.640625 0.171875 1.734375 0.1875zm-1.875 -11.53125q0 -2.109375 -0.90625 -3.25q-0.890625 -1.140625 -2.640625 -1.140625q-1.71875 0 -2.625 1.140625q-0.90625 1.140625 -0.90625 3.25l0 3.375q0 2.140625 0.90625 3.296875q0.90625 1.15625 2.625 1.15625q1.75 0 2.640625 -1.15625q0.90625 -1.15625 0.90625 -3.296875l0 -3.375zm12.705444 9.40625l0 -1.578125q-1.1875 1.015625 -2.109375 1.40625q-0.921875 0.390625 -1.859375 0.390625q-1.5 0 -2.296875 -0.984375q-0.78125 -0.984375 -0.78125 -2.765625l0 -7.6875l1.859375 0l0 7.40625q0 1.1875 0.40625 1.75q0.421875 0.546875 1.265625 0.546875q0.640625 0 1.421875 -0.3125q0.796875 -0.328125 1.984375 -1.28125l0 -8.109375l1.84375 0l0 11.21875l-1.734375 0zm13.88356 -0.65625q-1.015625 0.5 -2.046875 0.6875q-1.015625 0.1875 -1.875 0.1875q-2.421875 0 -3.609375 -1.375q-1.1875 -1.375 -1.1875 -3.78125l0 -1.359375q0 -2.328125 1.1875 -3.734375q1.1875 -1.40625 3.359375 -1.40625q1.15625 0 2.125 0.46875q0.96875 0.453125 1.53125 1.40625q0.578125 0.9375 0.578125 2.40625q0 0.953125 -0.265625 2.171875l-6.6875 0l0 0.046875q0 1.71875 0.71875 2.609375q0.71875 0.875 2.296875 0.875q0.734375 0 1.59375 -0.171875q0.875 -0.1875 1.71875 -0.578125l0.5625 1.546875zm-4.171875 -9.15625q-1.3125 0 -1.984375 0.859375q-0.65625 0.84375 -0.734375 2.390625l5.078125 0q0.0625 -0.421875 0.0625 -0.78125q0 -1.265625 -0.71875 -1.859375q-0.703125 -0.609375 -1.703125 -0.609375zm13.356232 0.234375q-1.03125 0 -2.0 0.359375q-0.953125 0.359375 -2.046875 1.375l0 7.84375l-1.84375 0l0 -11.21875l1.765625 0l0 1.8125q1.15625 -1.125 2.109375 -1.578125q0.96875 -0.453125 2.015625 -0.453125l0 1.859375zm4.3929443 -4.375l-2.09375 0l0 -2.09375l2.09375 0l0 2.09375zm-0.125 13.953125l-1.84375 0l0 -11.21875l1.84375 0l0 11.21875zm12.1492 -0.65625q-1.015625 0.5 -2.046875 0.6875q-1.015625 0.1875 -1.875 0.1875q-2.421875 0 -3.609375 -1.375q-1.1875 -1.375 -1.1875 -3.78125l0 -1.359375q0 -2.328125 1.1875 -3.734375q1.1875 -1.40625 3.359375 -1.40625q1.15625 0 2.125 0.46875q0.96875 0.453125 1.53125 1.40625q0.578125 0.9375 0.578125 2.40625q0 0.953125 -0.265625 2.171875l-6.6875 0l0 0.046875q0 1.71875 0.71875 2.609375q0.71875 0.875 2.296875 0.875q0.734375 0 1.59375 -0.171875q0.875 -0.1875 1.71875 -0.578125l0.5625 1.546875zm-4.171875 -9.15625q-1.3125 0 -1.984375 0.859375q-0.65625 0.84375 -0.734375 2.390625l5.078125 0q0.0625 -0.421875 0.0625 -0.78125q0 -1.265625 -0.71875 -1.859375q-0.703125 -0.609375 -1.703125 -0.609375zm10.199982 8.390625q2.265625 0 2.265625 -1.546875q0 -0.65625 -0.40625 -1.03125q-0.40625 -0.390625 -1.5 -0.671875l-1.25 -0.3125q-1.375 -0.34375 -2.0625 -1.1875q-0.671875 -0.84375 -0.671875 -2.03125q0 -0.859375 0.375 -1.59375q0.390625 -0.734375 1.234375 -1.1875q0.84375 -0.453125 2.171875 -0.453125q0.859375 0 1.75 0.1875q0.90625 0.1875 1.828125 0.640625l-0.578125 1.5625q-1.65625 -0.734375 -3.0 -0.734375q-1.96875 0 -1.96875 1.46875q0 0.5625 0.359375 0.96875q0.359375 0.40625 1.359375 0.65625l1.25 0.328125q1.5 0.359375 2.203125 1.171875q0.703125 0.8125 0.703125 2.109375q0 0.921875 -0.40625 1.6875q-0.390625 0.75 -1.265625 1.1875q-0.875 0.421875 -2.34375 0.421875q-0.96875 0 -1.9375 -0.203125q-0.96875 -0.203125 -1.984375 -0.65625l0.5 -1.53125q0.96875 0.375 1.765625 0.5625q0.796875 0.1875 1.609375 0.1875z" fill-rule="nonzero"/><path fill="#000000" fill-opacity="0.0" d="m445.00262 214.38321l0 -136.78741l46.86615 0l0 136.78741z" fill-rule="evenodd"/><path fill="#000000" d="m475.76263 157.73119l-7.265625 4.40625q0.484375 0.46875 1.015625 0.984375q0.515625 0.5 1.046875 1.046875l5.203125 0l0 1.96875l-15.40625 0l0 -1.96875l8.0 0q-2.15625 -2.125 -4.078125 -3.546875q-1.921875 -1.4375 -3.921875 -2.4375l0 -2.125q2.0 1.015625 3.625 2.125q1.609375 1.09375 3.21875 2.5l8.5625 -5.34375l0 2.390625zm-0.65625 -12.588928q0.5 1.015625 0.6875 2.046875q0.1875 1.015625 0.1875 1.875q0 2.421875 -1.375 3.609375q-1.375 1.1875 -3.78125 1.1875l-1.359375 0q-2.328125 0 -3.734375 -1.1875q-1.40625 -1.1875 -1.40625 -3.359375q0 -1.15625 0.46875 -2.125q0.453125 -0.96875 1.40625 -1.53125q0.9375 -0.578125 2.40625 -0.578125q0.953125 0 2.171875 0.265625l0 6.6875l0.046875 0q1.71875 0 2.609375 -0.71875q0.875 -0.71875 0.875 -2.296875q0 -0.734375 -0.171875 -1.59375q-0.1875 -0.875 -0.578125 -1.71875l1.546875 -0.5625zm-9.15625 4.171875q0 1.3125 0.859375 1.984375q0.84375 0.65625 2.390625 0.734375l0 -5.078125q-0.421875 -0.0625 -0.78125 -0.0625q-1.265625 0 -1.859375 0.71875q-0.609375 0.703125 -0.609375 1.703125zm10.9375 -11.248398q2.046875 0.734375 2.984375 1.796875q0.9375 1.046875 0.9375 2.921875l-1.828125 0q-0.03125 -0.765625 -0.21875 -1.3125q-0.171875 -0.5625 -0.734375 -1.0q-0.546875 -0.453125 -1.625 -0.859375l-0.578125 -0.234375l-11.28125 4.046875l0 -1.90625l5.46875 -1.890625l3.484375 -1.15625l-3.484375 -1.109375l-5.46875 -1.828125l0 -1.828125l12.34375 4.359375zm-2.546875 -9.599976q0 -2.265625 -1.546875 -2.265625q-0.65625 0 -1.03125 0.40625q-0.390625 0.40625 -0.671875 1.5l-0.3125 1.25q-0.34375 1.375 -1.1875 2.0625q-0.84375 0.671875 -2.03125 0.671875q-0.859375 0 -1.59375 -0.375q-0.734375 -0.390625 -1.1875 -1.234375q-0.453125 -0.84375 -0.453125 -2.171875q0 -0.859375 0.1875 -1.75q0.1875 -0.90625 0.640625 -1.828125l1.5625 0.578125q-0.734375 1.65625 -0.734375 3.0q0 1.96875 1.46875 1.96875q0.5625 0 0.96875 -0.359375q0.40625 -0.359375 0.65625 -1.359375l0.328125 -1.25q0.359375 -1.5 1.171875 -2.203125q0.8125 -0.703125 2.109375 -0.703125q0.921875 0 1.6875 0.40625q0.75 0.390625 1.1875 1.265625q0.421875 0.875 0.421875 2.34375q0 0.96875 -0.203125 1.9375q-0.203125 0.96875 -0.65625 1.984375l-1.53125 -0.5q0.375 -0.96875 0.5625 -1.765625q0.1875 -0.796875 0.1875 -1.609375z" fill-rule="nonzero"/><path fill="#000000" fill-opacity="0.0" d="m6.7375326 4.0971127l55.02362 0l0 42.015747l-55.02362 0z" fill-rule="evenodd"/><path fill="#4a86e8" d="m28.518875 22.61086l0 12.375002l-1.53125 0l0 -5.218752q-0.84375 0.796875 -1.546875 1.125q-0.703125 0.3125 -1.421875 0.3125q-1.453125 0 -2.25 -1.109375q-0.78125 -1.125 -0.78125 -3.140625l0 -1.09375q0 -1.953125 0.984375 -3.109375q0.984375 -1.15625 2.84375 -1.15625q1.828125 0 3.703125 1.015625zm-5.9375 4.34375q0 1.453125 0.4375 2.140625q0.453125 0.671875 1.375 0.671875q0.53125 0 1.109375 -0.28125q0.578125 -0.28125 1.484375 -1.140625l0 -4.890625q-1.109375 -0.453125 -2.078125 -0.453125q-1.25 0 -1.796875 0.765625q-0.53125 0.75 -0.53125 2.09375l0 1.09375z" fill-rule="nonzero"/><path fill="#4a86e8" d="m30.35141 30.73586l2.015625 -1.171875l0.984375 0l0 8.453127l-1.0625 0l0 -7.312502l-1.46875 0.84375l-0.46875 -0.8125z" fill-rule="nonzero"/><path fill="#ff9900" d="m41.99724 31.01711l-2.59375 -4.265625q-0.34375 0.34375 -0.75 0.71875q-0.390625 0.375 -0.8125 0.75l0 2.796875l-1.53125 0l0 -13.8125l1.53125 0l0 9.296875q1.21875 -1.171875 2.15625 -2.28125q0.9375 -1.125 1.71875 -2.4375l1.765625 0q-0.671875 1.125 -1.375 2.0625q-0.703125 0.9375 -1.578125 1.90625l3.3125 5.265625l-1.84375 0z" fill-rule="nonzero"/><path fill="#ff9900" d="m44.38086 30.73586l2.015625 -1.171875l0.984375 0l0 8.453127l-1.0625 0l0 -7.312502l-1.46875 0.84375l-0.46875 -0.8125z" fill-rule="nonzero"/><path fill="#000000" fill-opacity="0.0" d="m45.451443 4.0971127l55.023624 0l0 42.015747l-55.023624 0z" fill-rule="evenodd"/><path fill="#4a86e8" d="m66.443016 22.61086l0 12.375002l-1.53125 0l0 -5.218752q-0.84375 0.796875 -1.5468788 1.125q-0.703125 0.3125 -1.421875 0.3125q-1.453125 0 -2.25 -1.109375q-0.78125 -1.125 -0.78125 -3.140625l0 -1.09375q0 -1.953125 0.984375 -3.109375q0.984375 -1.15625 2.84375 -1.15625q1.8281288 0 3.7031288 1.015625zm-5.937504 4.34375q0 1.453125 0.4375 2.140625q0.453125 0.671875 1.375 0.671875q0.53125 0 1.109375 -0.28125q0.5781288 -0.28125 1.4843788 -1.140625l0 -4.890625q-1.1093788 -0.453125 -2.0781288 -0.453125q-1.25 0 -1.796875 0.765625q-0.53125 0.75 -0.53125 2.09375l0 1.09375z" fill-rule="nonzero"/><path fill="#4a86e8" d="m73.447426 38.017113l-4.828125 0l0 -0.828125q0 -0.921875 0.234375 -1.546875q0.234375 -0.640625 0.625 -1.0625q0.390625 -0.421875 0.875 -0.671875l0.8125 -0.40625q0.5625 -0.296875 0.90625 -0.609375q0.34375 -0.328125 0.34375 -0.9375019l0 -0.21875q0 -0.703125 -0.390625 -1.0q-0.390625 -0.3125 -1.15625 -0.3125q-0.421875 0 -0.890625 0.109375q-0.46875 0.09375 -1.046875 0.34375l-0.34375 -0.90625q0.625 -0.28125 1.203125 -0.40625q0.578125 -0.125 1.109375 -0.125q1.375 0 1.96875 0.640625q0.609375 0.640625 0.609375 1.65625l0 0.21875q0 0.6718769 -0.265625 1.1250019q-0.25 0.4375 -0.671875 0.75q-0.40625 0.296875 -0.875 0.53125l-0.8125 0.421875q-0.59375 0.3125 -0.875 0.859375q-0.265625 0.546875 -0.296875 1.390625l3.765625 0l0 0.984375z" fill-rule="nonzero"/><path fill="#ff9900" d="m81.50092 31.01711l-2.59375 -4.265625q-0.34375 0.34375 -0.75 0.71875q-0.390625 0.375 -0.8125 0.75l0 2.796875l-1.53125 0l0 -13.8125l1.53125 0l0 9.296875q1.21875 -1.171875 2.15625 -2.28125q0.9375 -1.125 1.71875 -2.4375l1.765625 0q-0.671875 1.125 -1.375 2.0625q-0.703125 0.9375 -1.578125 1.90625l3.3125 5.265625l-1.84375 0z" fill-rule="nonzero"/><path fill="#ff9900" d="m83.884544 30.73586l2.015625 -1.171875l0.984375 0l0 8.453127l-1.0625 0l0 -7.312502l-1.46875 0.84375l-0.46875 -0.8125z" fill-rule="nonzero"/><path fill="#f9cb9c" d="m317.47507 233.21523l0 -18.992126l127.52756 0l0 18.992126z" fill-rule="evenodd"/><path fill="#f9cb9c" d="m317.47507 194.37927l0 -18.992126l127.52756 0l0 18.992126z" fill-rule="evenodd"/><path fill="#f9cb9c" d="m317.47507 155.48425l0 -18.992126l127.52756 0l0 18.992126z" fill-rule="evenodd"/><path fill="#f9cb9c" d="m317.47507 115.18898l0 -18.992126l127.52756 0l0 18.992126z" fill-rule="evenodd"/><path fill="#f9cb9c" d="m317.47507 34.60105l0 -18.992126l127.52756 0l0 18.992126z" fill-rule="evenodd"/><path fill="#f9cb9c" d="m317.47507 74.89501l0 -18.992126l127.52756 0l0 18.992126z" fill-rule="evenodd"/><path fill="#f9cb9c" d="m317.47507 271.92914l0 -18.992126l127.52756 0l0 18.992126z" fill-rule="evenodd"/><path fill="#000000" fill-opacity="0.0" d="m82.45932 4.0971127l55.02362 0l0 42.015747l-55.02362 0z" fill-rule="evenodd"/><path fill="#4a86e8" d="m103.4198 22.61086l0 12.375002l-1.53125 0l0 -5.218752q-0.84375 0.796875 -1.546875 1.125q-0.703125 0.3125 -1.421875 0.3125q-1.453125 0 -2.25 -1.109375q-0.78125 -1.125 -0.78125 -3.140625l0 -1.09375q0 -1.953125 0.984375 -3.109375q0.984375 -1.15625 2.84375 -1.15625q1.828125 0 3.703125 1.015625zm-5.9375 4.34375q0 1.453125 0.4375 2.140625q0.453125 0.671875 1.375 0.671875q0.53125 0 1.109375 -0.28125q0.578125 -0.28125 1.484375 -1.140625l0 -4.890625q-1.109375 -0.453125 -2.078125 -0.453125q-1.25 0 -1.796875 0.765625q-0.53125 0.75 -0.53125 2.09375l0 1.09375z" fill-rule="nonzero"/><path fill="#4a86e8" d="m110.39296 35.813988q0 1.015625 -0.640625 1.671875q-0.625 0.65625 -2.03125 0.65625q-0.5625 0 -1.171875 -0.125q-0.59375 -0.140625 -1.25 -0.421875l0.328125 -0.890625q0.625 0.25 1.109375 0.359375q0.5 0.109375 0.953125 0.109375q0.765625 0 1.1875 -0.328125q0.4375 -0.328125 0.4375 -1.046875l0 -0.203125q0 -0.625 -0.359375 -1.0q-0.359375 -0.375 -1.109375 -0.375l-1.234375 0l0 -0.9375l1.234375 0q0.71875 0 1.046875 -0.359375q0.34375 -0.359375 0.34375 -0.9687519l0 -0.171875q0 -0.734375 -0.40625 -1.046875q-0.390625 -0.3125 -1.09375 -0.3125q-0.4375 0 -0.90625 0.109375q-0.453125 0.09375 -1.046875 0.34375l-0.34375 -0.90625q0.625 -0.28125 1.203125 -0.40625q0.578125 -0.125 1.109375 -0.125q1.34375 0 1.953125 0.65625q0.609375 0.640625 0.609375 1.671875l0 0.171875q0 0.6250019 -0.296875 1.0937519q-0.296875 0.453125 -0.8125 0.71875q0.546875 0.25 0.859375 0.734375q0.328125 0.46875 0.328125 1.125l0 0.203125z" fill-rule="nonzero"/><path fill="#ff9900" d="m118.53989 31.01711l-2.59375 -4.265625q-0.34375 0.34375 -0.75 0.71875q-0.390625 0.375 -0.8125 0.75l0 2.796875l-1.53125 0l0 -13.8125l1.53125 0l0 9.296875q1.21875 -1.171875 2.15625 -2.28125q0.9375 -1.125 1.71875 -2.4375l1.765625 0q-0.671875 1.125 -1.375 2.0625q-0.703125 0.9375 -1.578125 1.90625l3.3125 5.265625l-1.84375 0z" fill-rule="nonzero"/><path fill="#ff9900" d="m120.92351 30.73586l2.015625 -1.171875l0.984375 0l0 8.453127l-1.0625 0l0 -7.312502l-1.46875 0.84375l-0.46875 -0.8125z" fill-rule="nonzero"/><path fill="#000000" fill-opacity="0.0" d="m121.35433 4.0971127l55.02363 0l0 42.015747l-55.02363 0z" fill-rule="evenodd"/><path fill="#4a86e8" d="m142.25261 22.61086l0 12.375002l-1.53125 0l0 -5.218752q-0.84375 0.796875 -1.546875 1.125q-0.703125 0.3125 -1.421875 0.3125q-1.453125 0 -2.25 -1.109375q-0.78125 -1.125 -0.78125 -3.140625l0 -1.09375q0 -1.953125 0.984375 -3.109375q0.984375 -1.15625 2.84375 -1.15625q1.828125 0 3.703125 1.015625zm-5.9375 4.34375q0 1.453125 0.4375 2.140625q0.453125 0.671875 1.375 0.671875q0.53125 0 1.109375 -0.28125q0.578125 -0.28125 1.484375 -1.140625l0 -4.890625q-1.109375 -0.453125 -2.078125 -0.453125q-1.25 0 -1.796875 0.765625q-0.53125 0.75 -0.53125 2.09375l0 1.09375z" fill-rule="nonzero"/><path fill="#4a86e8" d="m149.83514 35.985863l-0.9375 0l0 2.03125l-1.015625 0l0 -2.03125l-3.640625 0l0 -0.828125q0.96875 -1.453125 1.734375 -2.828125q0.78125 -1.3906269 1.296875 -2.765627l1.140625 0q-0.515625 1.34375 -1.265625 2.687502q-0.734375 1.34375 -1.6875 2.78125l2.421875 0l0 -1.546875l1.015625 0l0 1.546875l0.9375 0l0 0.953125z" fill-rule="nonzero"/><path fill="#ff9900" d="m157.49709 31.01711l-2.59375 -4.265625q-0.34375 0.34375 -0.75 0.71875q-0.390625 0.375 -0.8125 0.75l0 2.796875l-1.53125 0l0 -13.8125l1.53125 0l0 9.296875q1.21875 -1.171875 2.15625 -2.28125q0.9375 -1.125 1.71875 -2.4375l1.765625 0q-0.671875 1.125 -1.375 2.0625q-0.703125 0.9375 -1.578125 1.90625l3.3125 5.265625l-1.84375 0z" fill-rule="nonzero"/><path fill="#ff9900" d="m159.8807 30.73586l2.015625 -1.171875l0.984375 0l0 8.453127l-1.0625 0l0 -7.312502l-1.46875 0.84375l-0.46875 -0.8125z" fill-rule="nonzero"/><path fill="#000000" fill-opacity="0.0" d="m161.6483 4.0971127l55.02362 0l0 42.015747l-55.02362 0z" fill-rule="evenodd"/><path fill="#4a86e8" d="m182.55281 22.61086l0 12.375002l-1.53125 0l0 -5.218752q-0.84375 0.796875 -1.546875 1.125q-0.703125 0.3125 -1.421875 0.3125q-1.453125 0 -2.25 -1.109375q-0.78125 -1.125 -0.78125 -3.140625l0 -1.09375q0 -1.953125 0.984375 -3.109375q0.984375 -1.15625 2.84375 -1.15625q1.828125 0 3.703125 1.015625zm-5.9375 4.34375q0 1.453125 0.4375 2.140625q0.453125 0.671875 1.375 0.671875q0.53125 0 1.109375 -0.28125q0.578125 -0.28125 1.484375 -1.140625l0 -4.890625q-1.109375 -0.453125 -2.078125 -0.453125q-1.25 0 -1.796875 0.765625q-0.53125 0.75 -0.53125 2.09375l0 1.09375z" fill-rule="nonzero"/><path fill="#4a86e8" d="m184.99472 33.610863l0.25 -4.046877l4.203125 0l0 0.984375l-3.25 0l-0.140625 2.437502q0.546875 -0.1875 1.171875 -0.1875q1.171875 0 1.859375 0.625q0.703125 0.609375 0.703125 1.828125l0 0.375q0 1.109375 -0.640625 1.8125q-0.640625 0.703125 -2.078125 0.703125q-0.5625 0 -1.171875 -0.125q-0.59375 -0.140625 -1.234375 -0.421875l0.328125 -0.890625q0.609375 0.25 1.109375 0.359375q0.5 0.109375 0.953125 0.109375q0.78125 0 1.203125 -0.359375q0.4375 -0.359375 0.4375 -1.1875l0 -0.375q0 -0.671875 -0.390625 -1.078125q-0.390625 -0.421875 -1.1875 -0.421875q-0.375 0 -0.734375 0.09375q-0.359375 0.09375 -0.75 0.265625l-0.640625 -0.5z" fill-rule="nonzero"/><path fill="#ff9900" d="m197.78484 31.01711l-2.59375 -4.265625q-0.34375 0.34375 -0.75 0.71875q-0.390625 0.375 -0.8125 0.75l0 2.796875l-1.53125 0l0 -13.8125l1.53125 0l0 9.296875q1.21875 -1.171875 2.15625 -2.28125q0.9375 -1.125 1.71875 -2.4375l1.765625 0q-0.671875 1.125 -1.375 2.0625q-0.703125 0.9375 -1.578125 1.90625l3.3125 5.265625l-1.84375 0z" fill-rule="nonzero"/><path fill="#ff9900" d="m200.16846 30.73586l2.015625 -1.171875l0.984375 0l0 8.453127l-1.0625 0l0 -7.312502l-1.46875 0.84375l-0.46875 -0.8125z" fill-rule="nonzero"/><path fill="#000000" fill-opacity="0.0" d="m201.94226 4.0971127l55.02362 0l0 42.015747l-55.02362 0z" fill-rule="evenodd"/><path fill="#4a86e8" d="m222.4923 22.61086l0 12.375002l-1.53125 0l0 -5.218752q-0.84375 0.796875 -1.546875 1.125q-0.703125 0.3125 -1.421875 0.3125q-1.453125 0 -2.25 -1.109375q-0.78125 -1.125 -0.78125 -3.140625l0 -1.09375q0 -1.953125 0.984375 -3.109375q0.984375 -1.15625 2.84375 -1.15625q1.828125 0 3.703125 1.015625zm-5.9375 4.34375q0 1.453125 0.4375 2.140625q0.453125 0.671875 1.375 0.671875q0.53125 0 1.109375 -0.28125q0.578125 -0.28125 1.484375 -1.140625l0 -4.890625q-1.109375 -0.453125 -2.078125 -0.453125q-1.25 0 -1.796875 0.765625q-0.53125 0.75 -0.53125 2.09375l0 1.09375z" fill-rule="nonzero"/><path fill="#4a86e8" d="m230.46545 35.610863q0 0.75 -0.328125 1.328125q-0.3125 0.5625 -0.90625 0.890625q-0.59375 0.3125 -1.40625 0.3125q-1.34375 0 -2.0625 -0.890625q-0.71875 -0.90625 -0.71875 -2.5625l0 -1.828125q0 -1.7500019 0.78125 -2.578127q0.796875 -0.84375 2.171875 -0.84375q0.484375 0 1.046875 0.125q0.5625 0.109375 1.171875 0.390625l-0.375 0.90625q-0.53125 -0.25 -1.0 -0.34375q-0.453125 -0.09375 -0.8125 -0.09375q-0.890625 0 -1.421875 0.546875q-0.53125 0.546875 -0.53125 1.8906269l0 0.71875q0.4375 -0.40625 0.9375 -0.625q0.515625 -0.21875 1.09375 -0.21875q1.09375 0 1.71875 0.6875q0.640625 0.6875 0.640625 1.8125l0 0.375zm-4.390625 -0.921875q0 1.25 0.453125 1.875q0.453125 0.609375 1.296875 0.609375q0.75 0 1.171875 -0.40625q0.421875 -0.421875 0.421875 -1.15625l0 -0.375q0 -0.703125 -0.375 -1.125q-0.375 -0.421875 -1.0625 -0.421875q-0.515625 0 -1.0 0.234375q-0.484375 0.21875 -0.90625 0.609375l0 0.15625z" fill-rule="nonzero"/><path fill="#ff9900" d="m238.43327 31.01711l-2.59375 -4.265625q-0.34375 0.34375 -0.75 0.71875q-0.390625 0.375 -0.8125 0.75l0 2.796875l-1.53125 0l0 -13.8125l1.53125 0l0 9.296875q1.21875 -1.171875 2.15625 -2.28125q0.9375 -1.125 1.71875 -2.4375l1.765625 0q-0.671875 1.125 -1.375 2.0625q-0.703125 0.9375 -1.578125 1.90625l3.3125 5.265625l-1.84375 0z" fill-rule="nonzero"/><path fill="#ff9900" d="m240.8169 30.73586l2.015625 -1.171875l0.984375 0l0 8.453127l-1.0625 0l0 -7.312502l-1.46875 0.84375l-0.46875 -0.8125z" fill-rule="nonzero"/><path fill="#000000" fill-opacity="0.0" d="m242.23622 4.0971127l55.023636 0l0 42.015747l-55.023636 0z" fill-rule="evenodd"/><path fill="#4a86e8" d="m263.37082 22.61086l0 12.375002l-1.53125 0l0 -5.218752q-0.84375 0.796875 -1.546875 1.125q-0.703125 0.3125 -1.421875 0.3125q-1.453125 0 -2.25 -1.109375q-0.78125 -1.125 -0.78125 -3.140625l0 -1.09375q0 -1.953125 0.984375 -3.109375q0.984375 -1.15625 2.84375 -1.15625q1.828125 0 3.703125 1.015625zm-5.9375 4.34375q0 1.453125 0.4375 2.140625q0.453125 0.671875 1.375 0.671875q0.53125 0 1.109375 -0.28125q0.578125 -0.28125 1.484375 -1.140625l0 -4.890625q-1.109375 -0.453125 -2.078125 -0.453125q-1.25 0 -1.796875 0.765625q-0.53125 0.75 -0.53125 2.09375l0 1.09375z" fill-rule="nonzero"/><path fill="#4a86e8" d="m270.3752 30.42336q-0.921875 1.9062519 -1.578125 3.812502q-0.640625 1.890625 -0.984375 3.78125l-1.109375 0q0.34375 -1.859375 0.96875 -3.71875q0.640625 -1.875 1.546875 -3.750002l-3.90625 0l0 -0.984375l5.0625 0l0 0.859375z" fill-rule="nonzero"/><path fill="#ff9900" d="m278.14267 31.01711l-2.59375 -4.265625q-0.34375 0.34375 -0.75 0.71875q-0.390625 0.375 -0.8125 0.75l0 2.796875l-1.53125 0l0 -13.8125l1.53125 0l0 9.296875q1.21875 -1.171875 2.15625 -2.28125q0.9375 -1.125 1.71875 -2.4375l1.765625 0q-0.671875 1.125 -1.375 2.0625q-0.703125 0.9375 -1.578125 1.90625l3.3125 5.265625l-1.84375 0z" fill-rule="nonzero"/><path fill="#ff9900" d="m280.52628 30.73586l2.015625 -1.171875l0.984375 0l0 8.453127l-1.0625 0l0 -7.312502l-1.46875 0.84375l-0.46875 -0.8125z" fill-rule="nonzero"/><path fill="#000000" fill-opacity="0.0" d="m6.7388453 44.391075l55.02362 0l0 42.015747l-55.02362 0z" fill-rule="evenodd"/><path fill="#4a86e8" d="m27.730415 62.904823l0 12.375l-1.53125 0l0 -5.21875q-0.84375 0.796875 -1.546875 1.125q-0.703125 0.3125 -1.421875 0.3125q-1.453125 0 -2.25 -1.109375q-0.78125 -1.125 -0.78125 -3.140625l0 -1.09375q0 -1.953125 0.984375 -3.109375q0.984375 -1.15625 2.84375 -1.15625q1.828125 0 3.703125 1.015625zm-5.9375 4.34375q0 1.453125 0.4375 2.140625q0.453125 0.671875 1.375 0.671875q0.53125 0 1.109375 -0.28125q0.578125 -0.28125 1.484375 -1.140625l0 -4.890625q-1.109375 -0.453125 -2.078125 -0.453125q-1.25 0 -1.796875 0.765625q-0.53125 0.75 -0.53125 2.09375l0 1.09375z" fill-rule="nonzero"/><path fill="#4a86e8" d="m29.56295 71.02982l2.015625 -1.171875l0.984375 0l0 8.453125l-1.0625 0l0 -7.3125l-1.46875 0.84375l-0.46875 -0.8125z" fill-rule="nonzero"/><path fill="#ff9900" d="m41.20878 71.31107l-2.59375 -4.265625q-0.34375 0.34375 -0.75 0.71875q-0.390625 0.375 -0.8125 0.75l0 2.796875l-1.53125 0l0 -13.8125l1.53125 0l0 9.296875q1.21875 -1.171875 2.15625 -2.28125q0.9375 -1.125 1.71875 -2.4375l1.765625 0q-0.671875 1.125 -1.375 2.0625q-0.703125 0.9375 -1.578125 1.90625l3.3125 5.265625l-1.84375 0z" fill-rule="nonzero"/><path fill="#ff9900" d="m48.764275 78.31107l-4.828125 0l0 -0.828125q0 -0.921875 0.234375 -1.546875q0.234375 -0.640625 0.625 -1.0625q0.390625 -0.421875 0.875 -0.671875l0.8125 -0.40625q0.5625 -0.296875 0.90625 -0.609375q0.34375 -0.328125 0.34375 -0.9375l0 -0.21875q0 -0.703125 -0.390625 -1.0q-0.390625 -0.3125 -1.15625 -0.3125q-0.421875 0 -0.890625 0.109375q-0.46875 0.09375 -1.046875 0.34375l-0.34375 -0.90625q0.625 -0.28125 1.203125 -0.40625q0.578125 -0.125 1.109375 -0.125q1.375 0 1.96875 0.640625q0.609375 0.640625 0.609375 1.65625l0 0.21875q0 0.671875 -0.265625 1.125q-0.25 0.4375 -0.671875 0.75q-0.40625 0.296875 -0.875 0.53125l-0.8125 0.421875q-0.59375 0.3125 -0.875 0.859375q-0.265625 0.546875 -0.296875 1.390625l3.765625 0l0 0.984375z" fill-rule="nonzero"/><path fill="#000000" fill-opacity="0.0" d="m45.452755 44.391075l55.023624 0l0 42.015747l-55.023624 0z" fill-rule="evenodd"/><path fill="#4a86e8" d="m65.65456 62.904823l0 12.375l-1.53125 0l0 -5.21875q-0.8437538 0.796875 -1.5468788 1.125q-0.703125 0.3125 -1.421875 0.3125q-1.453125 0 -2.25 -1.109375q-0.78125 -1.125 -0.78125 -3.140625l0 -1.09375q0 -1.953125 0.984375 -3.109375q0.984375 -1.15625 2.84375 -1.15625q1.828125 0 3.7031288 1.015625zm-5.937504 4.34375q0 1.453125 0.4375 2.140625q0.453125 0.671875 1.375 0.671875q0.53125 0 1.109375 -0.28125q0.578125 -0.28125 1.4843788 -1.140625l0 -4.890625q-1.1093788 -0.453125 -2.0781288 -0.453125q-1.25 0 -1.796875 0.765625q-0.53125 0.75 -0.53125 2.09375l0 1.09375z" fill-rule="nonzero"/><path fill="#4a86e8" d="m72.658966 78.31107l-4.828125 0l0 -0.828125q0 -0.921875 0.234375 -1.546875q0.234375 -0.640625 0.625 -1.0625q0.390625 -0.421875 0.875 -0.671875l0.8125 -0.40625q0.5625 -0.296875 0.90625 -0.609375q0.34375 -0.328125 0.34375 -0.9375l0 -0.21875q0 -0.703125 -0.390625 -1.0q-0.390625 -0.3125 -1.15625 -0.3125q-0.421875 0 -0.890625 0.109375q-0.46875 0.09375 -1.046875 0.34375l-0.34375 -0.90625q0.625 -0.28125 1.203125 -0.40625q0.578125 -0.125 1.109375 -0.125q1.375 0 1.96875 0.640625q0.609375 0.640625 0.609375 1.65625l0 0.21875q0 0.671875 -0.265625 1.125q-0.25 0.4375 -0.671875 0.75q-0.40625 0.296875 -0.875 0.53125l-0.8125 0.421875q-0.59375 0.3125 -0.875 0.859375q-0.265625 0.546875 -0.296875 1.390625l3.765625 0l0 0.984375z" fill-rule="nonzero"/><path fill="#ff9900" d="m80.71246 71.31107l-2.59375 -4.265625q-0.34375 0.34375 -0.75 0.71875q-0.390625 0.375 -0.8125 0.75l0 2.796875l-1.53125 0l0 -13.8125l1.53125 0l0 9.296875q1.21875 -1.171875 2.15625 -2.28125q0.9375 -1.125 1.71875 -2.4375l1.765625 0q-0.671875 1.125 -1.375 2.0625q-0.703125 0.9375 -1.578125 1.90625l3.3125 5.265625l-1.84375 0z" fill-rule="nonzero"/><path fill="#ff9900" d="m88.26796 78.31107l-4.828125 0l0 -0.828125q0 -0.921875 0.234375 -1.546875q0.234375 -0.640625 0.625 -1.0625q0.390625 -0.421875 0.875 -0.671875l0.8125 -0.40625q0.5625 -0.296875 0.90625 -0.609375q0.34375 -0.328125 0.34375 -0.9375l0 -0.21875q0 -0.703125 -0.390625 -1.0q-0.390625 -0.3125 -1.15625 -0.3125q-0.421875 0 -0.890625 0.109375q-0.46875 0.09375 -1.046875 0.34375l-0.34375 -0.90625q0.625 -0.28125 1.203125 -0.40625q0.578125 -0.125 1.109375 -0.125q1.375 0 1.96875 0.640625q0.609375 0.640625 0.609375 1.65625l0 0.21875q0 0.671875 -0.265625 1.125q-0.25 0.4375 -0.671875 0.75q-0.40625 0.296875 -0.875 0.53125l-0.8125 0.421875q-0.59375 0.3125 -0.875 0.859375q-0.265625 0.546875 -0.296875 1.390625l3.765625 0l0 0.984375z" fill-rule="nonzero"/><path fill="#000000" fill-opacity="0.0" d="m82.46063 44.391075l55.02362 0l0 42.015747l-55.02362 0z" fill-rule="evenodd"/><path fill="#4a86e8" d="m102.63134 62.904823l0 12.375l-1.53125 0l0 -5.21875q-0.84375 0.796875 -1.546875 1.125q-0.703125 0.3125 -1.421875 0.3125q-1.453125 0 -2.25 -1.109375q-0.78125 -1.125 -0.78125 -3.140625l0 -1.09375q0 -1.953125 0.984375 -3.109375q0.984375 -1.15625 2.84375 -1.15625q1.828125 0 3.703125 1.015625zm-5.9375 4.34375q0 1.453125 0.4375 2.140625q0.453125 0.671875 1.375 0.671875q0.53125 0 1.109375 -0.28125q0.578125 -0.28125 1.484375 -1.140625l0 -4.890625q-1.109375 -0.453125 -2.078125 -0.453125q-1.25 0 -1.796875 0.765625q-0.53125 0.75 -0.53125 2.09375l0 1.09375z" fill-rule="nonzero"/><path fill="#4a86e8" d="m109.6045 76.10795q0 1.015625 -0.640625 1.671875q-0.625 0.65625 -2.03125 0.65625q-0.5625 0 -1.171875 -0.125q-0.59375 -0.140625 -1.25 -0.421875l0.328125 -0.890625q0.625 0.25 1.109375 0.359375q0.5 0.109375 0.953125 0.109375q0.765625 0 1.1875 -0.328125q0.4375 -0.328125 0.4375 -1.046875l0 -0.203125q0 -0.625 -0.359375 -1.0q-0.359375 -0.375 -1.109375 -0.375l-1.234375 0l0 -0.9375l1.234375 0q0.71875 0 1.046875 -0.359375q0.34375 -0.359375 0.34375 -0.96875l0 -0.171875q0 -0.734375 -0.40625 -1.046875q-0.390625 -0.3125 -1.09375 -0.3125q-0.4375 0 -0.90625 0.109375q-0.453125 0.09375 -1.046875 0.34375l-0.34375 -0.90625q0.625 -0.28125 1.203125 -0.40625q0.578125 -0.125 1.109375 -0.125q1.34375 0 1.953125 0.65625q0.609375 0.640625 0.609375 1.671875l0 0.171875q0 0.625 -0.296875 1.09375q-0.296875 0.453125 -0.8125 0.71875q0.546875 0.25 0.859375 0.734375q0.328125 0.46875 0.328125 1.125l0 0.203125z" fill-rule="nonzero"/><path fill="#ff9900" d="m117.75143 71.31107l-2.59375 -4.265625q-0.34375 0.34375 -0.75 0.71875q-0.390625 0.375 -0.8125 0.75l0 2.796875l-1.53125 0l0 -13.8125l1.53125 0l0 9.296875q1.21875 -1.171875 2.15625 -2.28125q0.9375 -1.125 1.71875 -2.4375l1.765625 0q-0.671875 1.125 -1.375 2.0625q-0.703125 0.9375 -1.578125 1.90625l3.3125 5.265625l-1.84375 0z" fill-rule="nonzero"/><path fill="#ff9900" d="m125.30692 78.31107l-4.828125 0l0 -0.828125q0 -0.921875 0.234375 -1.546875q0.234375 -0.640625 0.625 -1.0625q0.390625 -0.421875 0.875 -0.671875l0.8125 -0.40625q0.5625 -0.296875 0.90625 -0.609375q0.34375 -0.328125 0.34375 -0.9375l0 -0.21875q0 -0.703125 -0.390625 -1.0q-0.390625 -0.3125 -1.15625 -0.3125q-0.421875 0 -0.890625 0.109375q-0.46875 0.09375 -1.046875 0.34375l-0.34375 -0.90625q0.625 -0.28125 1.203125 -0.40625q0.578125 -0.125 1.109375 -0.125q1.375 0 1.96875 0.640625q0.609375 0.640625 0.609375 1.65625l0 0.21875q0 0.671875 -0.265625 1.125q-0.25 0.4375 -0.671875 0.75q-0.40625 0.296875 -0.875 0.53125l-0.8125 0.421875q-0.59375 0.3125 -0.875 0.859375q-0.265625 0.546875 -0.296875 1.390625l3.765625 0l0 0.984375z" fill-rule="nonzero"/><path fill="#000000" fill-opacity="0.0" d="m121.355644 44.391075l55.02363 0l0 42.015747l-55.02363 0z" fill-rule="evenodd"/><path fill="#4a86e8" d="m141.46416 62.904823l0 12.375l-1.53125 0l0 -5.21875q-0.84375 0.796875 -1.546875 1.125q-0.703125 0.3125 -1.421875 0.3125q-1.453125 0 -2.25 -1.109375q-0.78125 -1.125 -0.78125 -3.140625l0 -1.09375q0 -1.953125 0.984375 -3.109375q0.984375 -1.15625 2.84375 -1.15625q1.828125 0 3.703125 1.015625zm-5.9375 4.34375q0 1.453125 0.4375 2.140625q0.453125 0.671875 1.375 0.671875q0.53125 0 1.109375 -0.28125q0.578125 -0.28125 1.484375 -1.140625l0 -4.890625q-1.109375 -0.453125 -2.078125 -0.453125q-1.25 0 -1.796875 0.765625q-0.53125 0.75 -0.53125 2.09375l0 1.09375z" fill-rule="nonzero"/><path fill="#4a86e8" d="m149.04669 76.27982l-0.9375 0l0 2.03125l-1.015625 0l0 -2.03125l-3.640625 0l0 -0.828125q0.96875 -1.453125 1.734375 -2.828125q0.78125 -1.390625 1.296875 -2.765625l1.140625 0q-0.515625 1.34375 -1.265625 2.6875q-0.734375 1.34375 -1.6875 2.78125l2.421875 0l0 -1.546875l1.015625 0l0 1.546875l0.9375 0l0 0.953125z" fill-rule="nonzero"/><path fill="#ff9900" d="m156.70863 71.31107l-2.59375 -4.265625q-0.34375 0.34375 -0.75 0.71875q-0.390625 0.375 -0.8125 0.75l0 2.796875l-1.53125 0l0 -13.8125l1.53125 0l0 9.296875q1.21875 -1.171875 2.15625 -2.28125q0.9375 -1.125 1.71875 -2.4375l1.765625 0q-0.671875 1.125 -1.375 2.0625q-0.703125 0.9375 -1.578125 1.90625l3.3125 5.265625l-1.84375 0z" fill-rule="nonzero"/><path fill="#ff9900" d="m164.26413 78.31107l-4.828125 0l0 -0.828125q0 -0.921875 0.234375 -1.546875q0.234375 -0.640625 0.625 -1.0625q0.390625 -0.421875 0.875 -0.671875l0.8125 -0.40625q0.5625 -0.296875 0.90625 -0.609375q0.34375 -0.328125 0.34375 -0.9375l0 -0.21875q0 -0.703125 -0.390625 -1.0q-0.390625 -0.3125 -1.15625 -0.3125q-0.421875 0 -0.890625 0.109375q-0.46875 0.09375 -1.046875 0.34375l-0.34375 -0.90625q0.625 -0.28125 1.203125 -0.40625q0.578125 -0.125 1.109375 -0.125q1.375 0 1.96875 0.640625q0.609375 0.640625 0.609375 1.65625l0 0.21875q0 0.671875 -0.265625 1.125q-0.25 0.4375 -0.671875 0.75q-0.40625 0.296875 -0.875 0.53125l-0.8125 0.421875q-0.59375 0.3125 -0.875 0.859375q-0.265625 0.546875 -0.296875 1.390625l3.765625 0l0 0.984375z" fill-rule="nonzero"/><path fill="#000000" fill-opacity="0.0" d="m161.64961 44.391075l55.02362 0l0 42.015747l-55.02362 0z" fill-rule="evenodd"/><path fill="#4a86e8" d="m181.76434 62.904823l0 12.375l-1.53125 0l0 -5.21875q-0.84375 0.796875 -1.546875 1.125q-0.703125 0.3125 -1.421875 0.3125q-1.453125 0 -2.25 -1.109375q-0.78125 -1.125 -0.78125 -3.140625l0 -1.09375q0 -1.953125 0.984375 -3.109375q0.984375 -1.15625 2.84375 -1.15625q1.828125 0 3.703125 1.015625zm-5.9375 4.34375q0 1.453125 0.4375 2.140625q0.453125 0.671875 1.375 0.671875q0.53125 0 1.109375 -0.28125q0.578125 -0.28125 1.484375 -1.140625l0 -4.890625q-1.109375 -0.453125 -2.078125 -0.453125q-1.25 0 -1.796875 0.765625q-0.53125 0.75 -0.53125 2.09375l0 1.09375z" fill-rule="nonzero"/><path fill="#4a86e8" d="m184.20625 73.90482l0.25 -4.046875l4.203125 0l0 0.984375l-3.25 0l-0.140625 2.4375q0.546875 -0.1875 1.171875 -0.1875q1.171875 0 1.859375 0.625q0.703125 0.609375 0.703125 1.828125l0 0.375q0 1.109375 -0.640625 1.8125q-0.640625 0.703125 -2.078125 0.703125q-0.5625 0 -1.171875 -0.125q-0.59375 -0.140625 -1.234375 -0.421875l0.328125 -0.890625q0.609375 0.25 1.109375 0.359375q0.5 0.109375 0.953125 0.109375q0.78125 0 1.203125 -0.359375q0.4375 -0.359375 0.4375 -1.1875l0 -0.375q0 -0.671875 -0.390625 -1.078125q-0.390625 -0.421875 -1.1875 -0.421875q-0.375 0 -0.734375 0.09375q-0.359375 0.09375 -0.75 0.265625l-0.640625 -0.5z" fill-rule="nonzero"/><path fill="#ff9900" d="m196.99637 71.31107l-2.59375 -4.265625q-0.34375 0.34375 -0.75 0.71875q-0.390625 0.375 -0.8125 0.75l0 2.796875l-1.53125 0l0 -13.8125l1.53125 0l0 9.296875q1.21875 -1.171875 2.15625 -2.28125q0.9375 -1.125 1.71875 -2.4375l1.765625 0q-0.671875 1.125 -1.375 2.0625q-0.703125 0.9375 -1.578125 1.90625l3.3125 5.265625l-1.84375 0z" fill-rule="nonzero"/><path fill="#ff9900" d="m204.55186 78.31107l-4.828125 0l0 -0.828125q0 -0.921875 0.234375 -1.546875q0.234375 -0.640625 0.625 -1.0625q0.390625 -0.421875 0.875 -0.671875l0.8125 -0.40625q0.5625 -0.296875 0.90625 -0.609375q0.34375 -0.328125 0.34375 -0.9375l0 -0.21875q0 -0.703125 -0.390625 -1.0q-0.390625 -0.3125 -1.15625 -0.3125q-0.421875 0 -0.890625 0.109375q-0.46875 0.09375 -1.046875 0.34375l-0.34375 -0.90625q0.625 -0.28125 1.203125 -0.40625q0.578125 -0.125 1.109375 -0.125q1.375 0 1.96875 0.640625q0.609375 0.640625 0.609375 1.65625l0 0.21875q0 0.671875 -0.265625 1.125q-0.25 0.4375 -0.671875 0.75q-0.40625 0.296875 -0.875 0.53125l-0.8125 0.421875q-0.59375 0.3125 -0.875 0.859375q-0.265625 0.546875 -0.296875 1.390625l3.765625 0l0 0.984375z" fill-rule="nonzero"/><path fill="#000000" fill-opacity="0.0" d="m201.94357 44.391075l55.02362 0l0 42.015747l-55.02362 0z" fill-rule="evenodd"/><path fill="#4a86e8" d="m221.70383 62.904823l0 12.375l-1.53125 0l0 -5.21875q-0.84375 0.796875 -1.546875 1.125q-0.703125 0.3125 -1.421875 0.3125q-1.453125 0 -2.25 -1.109375q-0.78125 -1.125 -0.78125 -3.140625l0 -1.09375q0 -1.953125 0.984375 -3.109375q0.984375 -1.15625 2.84375 -1.15625q1.828125 0 3.703125 1.015625zm-5.9375 4.34375q0 1.453125 0.4375 2.140625q0.453125 0.671875 1.375 0.671875q0.53125 0 1.109375 -0.28125q0.578125 -0.28125 1.484375 -1.140625l0 -4.890625q-1.109375 -0.453125 -2.078125 -0.453125q-1.25 0 -1.796875 0.765625q-0.53125 0.75 -0.53125 2.09375l0 1.09375z" fill-rule="nonzero"/><path fill="#4a86e8" d="m229.67699 75.90482q0 0.75 -0.328125 1.328125q-0.3125 0.5625 -0.90625 0.890625q-0.59375 0.3125 -1.40625 0.3125q-1.34375 0 -2.0625 -0.890625q-0.71875 -0.90625 -0.71875 -2.5625l0 -1.828125q0 -1.75 0.78125 -2.578125q0.796875 -0.84375 2.171875 -0.84375q0.484375 0 1.046875 0.125q0.5625 0.109375 1.171875 0.390625l-0.375 0.90625q-0.53125 -0.25 -1.0 -0.34375q-0.453125 -0.09375 -0.8125 -0.09375q-0.890625 0 -1.421875 0.546875q-0.53125 0.546875 -0.53125 1.890625l0 0.71875q0.4375 -0.40625 0.9375 -0.625q0.515625 -0.21875 1.09375 -0.21875q1.09375 0 1.71875 0.6875q0.640625 0.6875 0.640625 1.8125l0 0.375zm-4.390625 -0.921875q0 1.25 0.453125 1.875q0.453125 0.609375 1.296875 0.609375q0.75 0 1.171875 -0.40625q0.421875 -0.421875 0.421875 -1.15625l0 -0.375q0 -0.703125 -0.375 -1.125q-0.375 -0.421875 -1.0625 -0.421875q-0.515625 0 -1.0 0.234375q-0.484375 0.21875 -0.90625 0.609375l0 0.15625z" fill-rule="nonzero"/><path fill="#ff9900" d="m237.6448 71.31107l-2.59375 -4.265625q-0.34375 0.34375 -0.75 0.71875q-0.390625 0.375 -0.8125 0.75l0 2.796875l-1.53125 0l0 -13.8125l1.53125 0l0 9.296875q1.21875 -1.171875 2.15625 -2.28125q0.9375 -1.125 1.71875 -2.4375l1.765625 0q-0.671875 1.125 -1.375 2.0625q-0.703125 0.9375 -1.578125 1.90625l3.3125 5.265625l-1.84375 0z" fill-rule="nonzero"/><path fill="#ff9900" d="m245.2003 78.31107l-4.828125 0l0 -0.828125q0 -0.921875 0.234375 -1.546875q0.234375 -0.640625 0.625 -1.0625q0.390625 -0.421875 0.875 -0.671875l0.8125 -0.40625q0.5625 -0.296875 0.90625 -0.609375q0.34375 -0.328125 0.34375 -0.9375l0 -0.21875q0 -0.703125 -0.390625 -1.0q-0.390625 -0.3125 -1.15625 -0.3125q-0.421875 0 -0.890625 0.109375q-0.46875 0.09375 -1.046875 0.34375l-0.34375 -0.90625q0.625 -0.28125 1.203125 -0.40625q0.578125 -0.125 1.109375 -0.125q1.375 0 1.96875 0.640625q0.609375 0.640625 0.609375 1.65625l0 0.21875q0 0.671875 -0.265625 1.125q-0.25 0.4375 -0.671875 0.75q-0.40625 0.296875 -0.875 0.53125l-0.8125 0.421875q-0.59375 0.3125 -0.875 0.859375q-0.265625 0.546875 -0.296875 1.390625l3.765625 0l0 0.984375z" fill-rule="nonzero"/><path fill="#000000" fill-opacity="0.0" d="m242.23753 44.391075l55.023636 0l0 42.015747l-55.023636 0z" fill-rule="evenodd"/><path fill="#4a86e8" d="m262.58237 62.904823l0 12.375l-1.53125 0l0 -5.21875q-0.84375 0.796875 -1.546875 1.125q-0.703125 0.3125 -1.421875 0.3125q-1.453125 0 -2.2500153 -1.109375q-0.78125 -1.125 -0.78125 -3.140625l0 -1.09375q0 -1.953125 0.98439026 -3.109375q0.984375 -1.15625 2.84375 -1.15625q1.828125 0 3.703125 1.015625zm-5.9375 4.34375q0 1.453125 0.4375 2.140625q0.453125 0.671875 1.375 0.671875q0.53125 0 1.109375 -0.28125q0.578125 -0.28125 1.484375 -1.140625l0 -4.890625q-1.109375 -0.453125 -2.078125 -0.453125q-1.25 0 -1.796875 0.765625q-0.53125 0.75 -0.53125 2.09375l0 1.09375z" fill-rule="nonzero"/><path fill="#4a86e8" d="m269.58676 70.71732q-0.921875 1.90625 -1.578125 3.8125q-0.640625 1.890625 -0.984375 3.78125l-1.109375 0q0.34375 -1.859375 0.96875 -3.71875q0.640625 -1.875 1.546875 -3.75l-3.90625 0l0 -0.984375l5.0625 0l0 0.859375z" fill-rule="nonzero"/><path fill="#ff9900" d="m277.35422 71.31107l-2.59375 -4.265625q-0.34375 0.34375 -0.75 0.71875q-0.390625 0.375 -0.8125 0.75l0 2.796875l-1.53125 0l0 -13.8125l1.53125 0l0 9.296875q1.21875 -1.171875 2.15625 -2.28125q0.9375 -1.125 1.71875 -2.4375l1.765625 0q-0.671875 1.125 -1.375 2.0625q-0.703125 0.9375 -1.578125 1.90625l3.3125 5.265625l-1.84375 0z" fill-rule="nonzero"/><path fill="#ff9900" d="m284.9097 78.31107l-4.828125 0l0 -0.828125q0 -0.921875 0.234375 -1.546875q0.234375 -0.640625 0.625 -1.0625q0.390625 -0.421875 0.875 -0.671875l0.8125 -0.40625q0.5625 -0.296875 0.90625 -0.609375q0.34375 -0.328125 0.34375 -0.9375l0 -0.21875q0 -0.703125 -0.390625 -1.0q-0.390625 -0.3125 -1.15625 -0.3125q-0.421875 0 -0.890625 0.109375q-0.46875 0.09375 -1.046875 0.34375l-0.34375 -0.90625q0.625 -0.28125 1.203125 -0.40625q0.578125 -0.125 1.109375 -0.125q1.375 0 1.96875 0.640625q0.609375 0.640625 0.609375 1.65625l0 0.21875q0 0.671875 -0.265625 1.125q-0.25 0.4375 -0.671875 0.75q-0.40625 0.296875 -0.875 0.53125l-0.8125 0.421875q-0.59375 0.3125 -0.875 0.859375q-0.265625 0.546875 -0.296875 1.390625l3.765625 0l0 0.984375z" fill-rule="nonzero"/><path fill="#000000" fill-opacity="0.0" d="m132.17323 202.85826l39.653534 0l0 50.07875l-39.653534 0z" fill-rule="evenodd"/><path fill="#000000" d="m144.12636 236.17827l0 -2.53125l2.53125 0l0 2.53125l-2.53125 0zm8.453125 0l0 -2.53125l2.53125 0l0 2.53125l-2.53125 0zm8.4375 0l0 -2.53125l2.546875 0l0 2.53125l-2.546875 0z" fill-rule="nonzero"/><path fill="#000000" fill-opacity="0.0" d="m6.7375326 84.685036l55.02362 0l0 42.015755l-55.02362 0z" fill-rule="evenodd"/><path fill="#4a86e8" d="m27.698013 103.198784l0 12.375l-1.53125 0l0 -5.21875q-0.84375 0.796875 -1.546875 1.125q-0.703125 0.3125 -1.421875 0.3125q-1.453125 0 -2.25 -1.109375q-0.78125 -1.125 -0.78125 -3.140625l0 -1.09375q0 -1.953125 0.984375 -3.109375q0.984375 -1.15625 2.84375 -1.15625q1.828125 0 3.703125 1.015625zm-5.9375 4.34375q0 1.453125 0.4375 2.140625q0.453125 0.671875 1.375 0.671875q0.53125 0 1.109375 -0.28125q0.578125 -0.28125 1.484375 -1.140625l0 -4.890625q-1.109375 -0.453125 -2.078125 -0.453125q-1.25 0 -1.796875 0.765625q-0.53125 0.75 -0.53125 2.09375l0 1.09375z" fill-rule="nonzero"/><path fill="#4a86e8" d="m29.530548 111.323784l2.015625 -1.171875l0.984375 0l0 8.453125l-1.0625 0l0 -7.3125l-1.46875 0.84375l-0.46875 -0.8125z" fill-rule="nonzero"/><path fill="#ff9900" d="m41.176376 111.605034l-2.59375 -4.265625q-0.34375 0.34375 -0.75 0.71875q-0.390625 0.375 -0.8125 0.75l0 2.796875l-1.53125 0l0 -13.8125l1.53125 0l0 9.296875q1.21875 -1.171875 2.15625 -2.28125q0.9375 -1.125 1.71875 -2.4375l1.765625 0q-0.671875 1.125 -1.375 2.0625q-0.703125 0.9375 -1.578125 1.90625l3.3125 5.265625l-1.84375 0z" fill-rule="nonzero"/><path fill="#ff9900" d="m48.700623 116.40191q0 1.015625 -0.640625 1.671875q-0.625 0.65625 -2.03125 0.65625q-0.5625 0 -1.171875 -0.125q-0.59375 -0.140625 -1.25 -0.421875l0.328125 -0.890625q0.625 0.25 1.109375 0.359375q0.5 0.109375 0.953125 0.109375q0.765625 0 1.1875 -0.328125q0.4375 -0.328125 0.4375 -1.046875l0 -0.203125q0 -0.625 -0.359375 -1.0q-0.359375 -0.375 -1.109375 -0.375l-1.234375 0l0 -0.9375l1.234375 0q0.71875 0 1.046875 -0.359375q0.34375 -0.359375 0.34375 -0.96875l0 -0.171875q0 -0.734375 -0.40625 -1.046875q-0.390625 -0.3125 -1.09375 -0.3125q-0.4375 0 -0.90625 0.109375q-0.453125 0.09375 -1.046875 0.34375l-0.34375 -0.90625q0.625 -0.28125 1.203125 -0.40625q0.578125 -0.125 1.109375 -0.125q1.34375 0 1.953125 0.65625q0.609375 0.640625 0.609375 1.671875l0 0.171875q0 0.625 -0.296875 1.09375q-0.296875 0.453125 -0.8125 0.71875q0.546875 0.25 0.859375 0.734375q0.328125 0.46875 0.328125 1.125l0 0.203125z" fill-rule="nonzero"/><path fill="#000000" fill-opacity="0.0" d="m45.451443 84.685036l55.023624 0l0 42.015755l-55.023624 0z" fill-rule="evenodd"/><path fill="#4a86e8" d="m65.622154 103.198784l0 12.375l-1.53125 0l0 -5.21875q-0.8437538 0.796875 -1.5468788 1.125q-0.703125 0.3125 -1.421875 0.3125q-1.453125 0 -2.25 -1.109375q-0.78125 -1.125 -0.78125 -3.140625l0 -1.09375q0 -1.953125 0.984375 -3.109375q0.984375 -1.15625 2.84375 -1.15625q1.828125 0 3.7031288 1.015625zm-5.937504 4.34375q0 1.453125 0.4375 2.140625q0.453125 0.671875 1.375 0.671875q0.53125 0 1.109375 -0.28125q0.578125 -0.28125 1.4843788 -1.140625l0 -4.890625q-1.1093788 -0.453125 -2.0781288 -0.453125q-1.25 0 -1.796875 0.765625q-0.53125 0.75 -0.53125 2.09375l0 1.09375z" fill-rule="nonzero"/><path fill="#4a86e8" d="m72.626564 118.605034l-4.828125 0l0 -0.828125q0 -0.921875 0.234375 -1.546875q0.234375 -0.640625 0.625 -1.0625q0.390625 -0.421875 0.875 -0.671875l0.8125 -0.40625q0.5625 -0.296875 0.90625 -0.609375q0.34375 -0.328125 0.34375 -0.9375l0 -0.21875q0 -0.703125 -0.390625 -1.0q-0.390625 -0.3125 -1.15625 -0.3125q-0.421875 0 -0.890625 0.109375q-0.46875 0.09375 -1.046875 0.34375l-0.34375 -0.90625q0.625 -0.28125 1.203125 -0.40625q0.578125 -0.125 1.109375 -0.125q1.375 0 1.96875 0.640625q0.609375 0.640625 0.609375 1.65625l0 0.21875q0 0.671875 -0.265625 1.125q-0.25 0.4375 -0.671875 0.75q-0.40625 0.296875 -0.875 0.53125l-0.8125 0.421875q-0.59375 0.3125 -0.875 0.859375q-0.265625 0.546875 -0.296875 1.390625l3.765625 0l0 0.984375z" fill-rule="nonzero"/><path fill="#ff9900" d="m80.68006 111.605034l-2.59375 -4.265625q-0.34375 0.34375 -0.75 0.71875q-0.390625 0.375 -0.8125 0.75l0 2.796875l-1.53125 0l0 -13.8125l1.53125 0l0 9.296875q1.21875 -1.171875 2.15625 -2.28125q0.9375 -1.125 1.71875 -2.4375l1.765625 0q-0.671875 1.125 -1.375 2.0625q-0.703125 0.9375 -1.578125 1.90625l3.3125 5.265625l-1.84375 0z" fill-rule="nonzero"/><path fill="#ff9900" d="m88.20431 116.40191q0 1.015625 -0.640625 1.671875q-0.625 0.65625 -2.03125 0.65625q-0.5625 0 -1.171875 -0.125q-0.59375 -0.140625 -1.25 -0.421875l0.328125 -0.890625q0.625 0.25 1.109375 0.359375q0.5 0.109375 0.953125 0.109375q0.765625 0 1.1875 -0.328125q0.4375 -0.328125 0.4375 -1.046875l0 -0.203125q0 -0.625 -0.359375 -1.0q-0.359375 -0.375 -1.109375 -0.375l-1.234375 0l0 -0.9375l1.234375 0q0.71875 0 1.046875 -0.359375q0.34375 -0.359375 0.34375 -0.96875l0 -0.171875q0 -0.734375 -0.40625 -1.046875q-0.390625 -0.3125 -1.09375 -0.3125q-0.4375 0 -0.90625 0.109375q-0.453125 0.09375 -1.046875 0.34375l-0.34375 -0.90625q0.625 -0.28125 1.203125 -0.40625q0.578125 -0.125 1.109375 -0.125q1.34375 0 1.953125 0.65625q0.609375 0.640625 0.609375 1.671875l0 0.171875q0 0.625 -0.296875 1.09375q-0.296875 0.453125 -0.8125 0.71875q0.546875 0.25 0.859375 0.734375q0.328125 0.46875 0.328125 1.125l0 0.203125z" fill-rule="nonzero"/><path fill="#000000" fill-opacity="0.0" d="m82.45932 84.685036l55.02362 0l0 42.015755l-55.02362 0z" fill-rule="evenodd"/><path fill="#4a86e8" d="m102.59894 103.198784l0 12.375l-1.53125 0l0 -5.21875q-0.84375 0.796875 -1.546875 1.125q-0.703125 0.3125 -1.421875 0.3125q-1.453125 0 -2.25 -1.109375q-0.78125 -1.125 -0.78125 -3.140625l0 -1.09375q0 -1.953125 0.984375 -3.109375q0.984375 -1.15625 2.84375 -1.15625q1.828125 0 3.703125 1.015625zm-5.9375 4.34375q0 1.453125 0.4375 2.140625q0.453125 0.671875 1.375 0.671875q0.53125 0 1.109375 -0.28125q0.578125 -0.28125 1.484375 -1.140625l0 -4.890625q-1.109375 -0.453125 -2.078125 -0.453125q-1.25 0 -1.796875 0.765625q-0.53125 0.75 -0.53125 2.09375l0 1.09375z" fill-rule="nonzero"/><path fill="#4a86e8" d="m109.5721 116.40191q0 1.015625 -0.640625 1.671875q-0.625 0.65625 -2.03125 0.65625q-0.5625 0 -1.171875 -0.125q-0.59375 -0.140625 -1.25 -0.421875l0.328125 -0.890625q0.625 0.25 1.109375 0.359375q0.5 0.109375 0.953125 0.109375q0.765625 0 1.1875 -0.328125q0.4375 -0.328125 0.4375 -1.046875l0 -0.203125q0 -0.625 -0.359375 -1.0q-0.359375 -0.375 -1.109375 -0.375l-1.234375 0l0 -0.9375l1.234375 0q0.71875 0 1.046875 -0.359375q0.34375 -0.359375 0.34375 -0.96875l0 -0.171875q0 -0.734375 -0.40625 -1.046875q-0.390625 -0.3125 -1.09375 -0.3125q-0.4375 0 -0.90625 0.109375q-0.453125 0.09375 -1.046875 0.34375l-0.34375 -0.90625q0.625 -0.28125 1.203125 -0.40625q0.578125 -0.125 1.109375 -0.125q1.34375 0 1.953125 0.65625q0.609375 0.640625 0.609375 1.671875l0 0.171875q0 0.625 -0.296875 1.09375q-0.296875 0.453125 -0.8125 0.71875q0.546875 0.25 0.859375 0.734375q0.328125 0.46875 0.328125 1.125l0 0.203125z" fill-rule="nonzero"/><path fill="#ff9900" d="m117.719025 111.605034l-2.59375 -4.265625q-0.34375 0.34375 -0.75 0.71875q-0.390625 0.375 -0.8125 0.75l0 2.796875l-1.53125 0l0 -13.8125l1.53125 0l0 9.296875q1.21875 -1.171875 2.15625 -2.28125q0.9375 -1.125 1.71875 -2.4375l1.765625 0q-0.671875 1.125 -1.375 2.0625q-0.703125 0.9375 -1.578125 1.90625l3.3125 5.265625l-1.84375 0z" fill-rule="nonzero"/><path fill="#ff9900" d="m125.24327 116.40191q0 1.015625 -0.640625 1.671875q-0.625 0.65625 -2.03125 0.65625q-0.5625 0 -1.171875 -0.125q-0.59375 -0.140625 -1.25 -0.421875l0.328125 -0.890625q0.625 0.25 1.109375 0.359375q0.5 0.109375 0.953125 0.109375q0.765625 0 1.1875 -0.328125q0.4375 -0.328125 0.4375 -1.046875l0 -0.203125q0 -0.625 -0.359375 -1.0q-0.359375 -0.375 -1.109375 -0.375l-1.234375 0l0 -0.9375l1.234375 0q0.71875 0 1.046875 -0.359375q0.34375 -0.359375 0.34375 -0.96875l0 -0.171875q0 -0.734375 -0.40625 -1.046875q-0.390625 -0.3125 -1.09375 -0.3125q-0.4375 0 -0.90625 0.109375q-0.453125 0.09375 -1.046875 0.34375l-0.34375 -0.90625q0.625 -0.28125 1.203125 -0.40625q0.578125 -0.125 1.109375 -0.125q1.34375 0 1.953125 0.65625q0.609375 0.640625 0.609375 1.671875l0 0.171875q0 0.625 -0.296875 1.09375q-0.296875 0.453125 -0.8125 0.71875q0.546875 0.25 0.859375 0.734375q0.328125 0.46875 0.328125 1.125l0 0.203125z" fill-rule="nonzero"/><path fill="#000000" fill-opacity="0.0" d="m121.35433 84.685036l55.02363 0l0 42.015755l-55.02363 0z" fill-rule="evenodd"/><path fill="#4a86e8" d="m141.43175 103.198784l0 12.375l-1.53125 0l0 -5.21875q-0.84375 0.796875 -1.546875 1.125q-0.703125 0.3125 -1.421875 0.3125q-1.453125 0 -2.25 -1.109375q-0.78125 -1.125 -0.78125 -3.140625l0 -1.09375q0 -1.953125 0.984375 -3.109375q0.984375 -1.15625 2.84375 -1.15625q1.828125 0 3.703125 1.015625zm-5.9375 4.34375q0 1.453125 0.4375 2.140625q0.453125 0.671875 1.375 0.671875q0.53125 0 1.109375 -0.28125q0.578125 -0.28125 1.484375 -1.140625l0 -4.890625q-1.109375 -0.453125 -2.078125 -0.453125q-1.25 0 -1.796875 0.765625q-0.53125 0.75 -0.53125 2.09375l0 1.09375z" fill-rule="nonzero"/><path fill="#4a86e8" d="m149.01428 116.573784l-0.9375 0l0 2.03125l-1.015625 0l0 -2.03125l-3.640625 0l0 -0.828125q0.96875 -1.453125 1.734375 -2.828125q0.78125 -1.390625 1.296875 -2.765625l1.140625 0q-0.515625 1.34375 -1.265625 2.6875q-0.734375 1.34375 -1.6875 2.78125l2.421875 0l0 -1.546875l1.015625 0l0 1.546875l0.9375 0l0 0.953125z" fill-rule="nonzero"/><path fill="#ff9900" d="m156.67622 111.605034l-2.59375 -4.265625q-0.34375 0.34375 -0.75 0.71875q-0.390625 0.375 -0.8125 0.75l0 2.796875l-1.53125 0l0 -13.8125l1.53125 0l0 9.296875q1.21875 -1.171875 2.15625 -2.28125q0.9375 -1.125 1.71875 -2.4375l1.765625 0q-0.671875 1.125 -1.375 2.0625q-0.703125 0.9375 -1.578125 1.90625l3.3125 5.265625l-1.84375 0z" fill-rule="nonzero"/><path fill="#ff9900" d="m164.20047 116.40191q0 1.015625 -0.640625 1.671875q-0.625 0.65625 -2.03125 0.65625q-0.5625 0 -1.171875 -0.125q-0.59375 -0.140625 -1.25 -0.421875l0.328125 -0.890625q0.625 0.25 1.109375 0.359375q0.5 0.109375 0.953125 0.109375q0.765625 0 1.1875 -0.328125q0.4375 -0.328125 0.4375 -1.046875l0 -0.203125q0 -0.625 -0.359375 -1.0q-0.359375 -0.375 -1.109375 -0.375l-1.234375 0l0 -0.9375l1.234375 0q0.71875 0 1.046875 -0.359375q0.34375 -0.359375 0.34375 -0.96875l0 -0.171875q0 -0.734375 -0.40625 -1.046875q-0.390625 -0.3125 -1.09375 -0.3125q-0.4375 0 -0.90625 0.109375q-0.453125 0.09375 -1.046875 0.34375l-0.34375 -0.90625q0.625 -0.28125 1.203125 -0.40625q0.578125 -0.125 1.109375 -0.125q1.34375 0 1.953125 0.65625q0.609375 0.640625 0.609375 1.671875l0 0.171875q0 0.625 -0.296875 1.09375q-0.296875 0.453125 -0.8125 0.71875q0.546875 0.25 0.859375 0.734375q0.328125 0.46875 0.328125 1.125l0 0.203125z" fill-rule="nonzero"/><path fill="#000000" fill-opacity="0.0" d="m161.6483 84.685036l55.02362 0l0 42.015755l-55.02362 0z" fill-rule="evenodd"/><path fill="#4a86e8" d="m181.73195 103.198784l0 12.375l-1.53125 0l0 -5.21875q-0.84375 0.796875 -1.546875 1.125q-0.703125 0.3125 -1.421875 0.3125q-1.453125 0 -2.25 -1.109375q-0.78125 -1.125 -0.78125 -3.140625l0 -1.09375q0 -1.953125 0.984375 -3.109375q0.984375 -1.15625 2.84375 -1.15625q1.828125 0 3.703125 1.015625zm-5.9375 4.34375q0 1.453125 0.4375 2.140625q0.453125 0.671875 1.375 0.671875q0.53125 0 1.109375 -0.28125q0.578125 -0.28125 1.484375 -1.140625l0 -4.890625q-1.109375 -0.453125 -2.078125 -0.453125q-1.25 0 -1.796875 0.765625q-0.53125 0.75 -0.53125 2.09375l0 1.09375z" fill-rule="nonzero"/><path fill="#4a86e8" d="m184.17386 114.198784l0.25 -4.046875l4.203125 0l0 0.984375l-3.25 0l-0.140625 2.4375q0.546875 -0.1875 1.171875 -0.1875q1.171875 0 1.859375 0.625q0.703125 0.609375 0.703125 1.828125l0 0.375q0 1.109375 -0.640625 1.8125q-0.640625 0.703125 -2.078125 0.703125q-0.5625 0 -1.171875 -0.125q-0.59375 -0.140625 -1.234375 -0.421875l0.328125 -0.890625q0.609375 0.25 1.109375 0.359375q0.5 0.109375 0.953125 0.109375q0.78125 0 1.203125 -0.359375q0.4375 -0.359375 0.4375 -1.1875l0 -0.375q0 -0.671875 -0.390625 -1.078125q-0.390625 -0.421875 -1.1875 -0.421875q-0.375 0 -0.734375 0.09375q-0.359375 0.09375 -0.75 0.265625l-0.640625 -0.5z" fill-rule="nonzero"/><path fill="#ff9900" d="m196.96397 111.605034l-2.59375 -4.265625q-0.34375 0.34375 -0.75 0.71875q-0.390625 0.375 -0.8125 0.75l0 2.796875l-1.53125 0l0 -13.8125l1.53125 0l0 9.296875q1.21875 -1.171875 2.15625 -2.28125q0.9375 -1.125 1.71875 -2.4375l1.765625 0q-0.671875 1.125 -1.375 2.0625q-0.703125 0.9375 -1.578125 1.90625l3.3125 5.265625l-1.84375 0z" fill-rule="nonzero"/><path fill="#ff9900" d="m204.48822 116.40191q0 1.015625 -0.640625 1.671875q-0.625 0.65625 -2.03125 0.65625q-0.5625 0 -1.171875 -0.125q-0.59375 -0.140625 -1.25 -0.421875l0.328125 -0.890625q0.625 0.25 1.109375 0.359375q0.5 0.109375 0.953125 0.109375q0.765625 0 1.1875 -0.328125q0.4375 -0.328125 0.4375 -1.046875l0 -0.203125q0 -0.625 -0.359375 -1.0q-0.359375 -0.375 -1.109375 -0.375l-1.234375 0l0 -0.9375l1.234375 0q0.71875 0 1.046875 -0.359375q0.34375 -0.359375 0.34375 -0.96875l0 -0.171875q0 -0.734375 -0.40625 -1.046875q-0.390625 -0.3125 -1.09375 -0.3125q-0.4375 0 -0.90625 0.109375q-0.453125 0.09375 -1.046875 0.34375l-0.34375 -0.90625q0.625 -0.28125 1.203125 -0.40625q0.578125 -0.125 1.109375 -0.125q1.34375 0 1.953125 0.65625q0.609375 0.640625 0.609375 1.671875l0 0.171875q0 0.625 -0.296875 1.09375q-0.296875 0.453125 -0.8125 0.71875q0.546875 0.25 0.859375 0.734375q0.328125 0.46875 0.328125 1.125l0 0.203125z" fill-rule="nonzero"/><path fill="#000000" fill-opacity="0.0" d="m190.07349 306.48032l-0.91337585 -179.77953" fill-rule="evenodd"/><path stroke="#000000" stroke-width="2.0" stroke-linejoin="round" stroke-linecap="butt" stroke-dasharray="8.0,6.0" d="m190.07349 306.48032l-0.91337585 -179.77953" fill-rule="evenodd"/><path fill="#000000" fill-opacity="0.0" d="m216.67192 105.69292l100.81889 0" fill-rule="evenodd"/><path stroke="#000000" stroke-width="2.0" stroke-linejoin="round" stroke-linecap="butt" stroke-dasharray="8.0,6.0" d="m216.67192 105.69292l100.81889 0" fill-rule="evenodd"/></g></svg>